<?xml version="1.0" encoding="UTF-8" standalone="no"?>
<svg xmlns="http://www.w3.org/2000/svg" version="1.2" baseProfile="tiny" viewBox="0.00 0.00 496.00 655.00">
<path fill="#568203" d="
  M 492.96 372.32
  L 493.76 377.70
  L 494.06 384.00
  L 494.47 386.03
  L 494.91 388.15
  L 494.98 419.50
  L 494.66 421.40
  L 494.30 423.45
  L 494.18 425.69
  L 492.68 440.94
  L 490.01 456.42
  L 486.08 472.52
  L 480.83 489.47
  L 473.15 509.17
  L 465.88 524.10
  L 457.63 538.37
  L 448.29 552.18
  L 438.05 565.25
  L 426.90 577.61
  L 414.95 589.16
  L 402.01 600.06
  L 388.36 610.06
  L 373.99 619.16
  L 359.01 627.30
  L 343.49 634.44
  L 327.49 640.54
  L 311.08 645.58
  L 294.30 649.54
  L 277.52 652.33
  L 260.50 654.01
  L 238.49 654.12
  L 217.57 652.62
  L 196.25 649.00
  L 175.29 643.39
  L 154.29 635.71
  L 133.71 626.08
  L 114.06 614.74
  L 95.27 601.69
  L 77.79 587.22
  L 64.05 573.19
  L 52.63 559.32
  L 42.35 544.90
  L 33.21 529.96
  L 25.21 514.47
  L 25.21 514.47
  L 18.26 498.22
  L 12.49 481.41
  L 7.88 464.06
  L 4.45 446.15
  L 4.07 442.49
  L 3.35 436.42
  L 2.96 431.71
  L 2.60 427.14
  L 2.01 421.80
  L 1.99 414.59
  L 2.08 396.51
  L 2.70 383.75
  L 4.29 368.32
  L 6.58 353.32
  L 12.07 328.42
  L 19.98 302.25
  L 27.24 282.04
  L 35.38 261.62
  L 44.50 240.75
  L 54.62 219.42
  L 71.50 187.19
  L 89.93 155.94
  L 110.36 125.04
  L 132.41 95.15
  L 148.34 75.64
  L 165.31 56.74
  L 182.86 38.99
  L 200.43 22.93
  L 213.01 13.40
  L 225.57 6.57
  L 232.74 4.07
  L 240.52 2.40
  L 247.49 1.84
  L 253.30 2.37
  L 256.07 2.91
  L 263.38 4.55
  L 266.05 5.40
  L 272.87 8.18
  L 280.00 11.95
  L 287.05 16.51
  L 294.14 21.88
  L 312.54 38.04
  L 329.45 55.29
  L 338.78 65.71
  L 356.74 86.95
  L 369.32 102.94
  L 381.38 119.27
  L 393.11 136.18
  L 404.33 153.44
  L 425.44 189.20
  L 444.98 227.01
  L 455.53 249.87
  L 465.09 272.70
  L 473.65 295.49
  L 481.20 318.26
  L 488.05 343.47
  L 491.96 365.26
  L 492.90 370.50
  L 492.96 371.48
  L 492.96 372.32
  Z
  M 262.46 422.89
  L 262.70 421.94
  L 262.89 421.01
  L 262.82 400.19
  L 262.88 380.85
  L 263.16 372.29
  L 263.89 366.20
  L 263.91 366.09
  L 266.97 356.60
  L 272.32 347.58
  L 279.67 339.46
  L 288.96 332.21
  L 293.07 329.50
  L 317.26 312.96
  L 333.61 299.59
  L 355.97 277.30
  L 375.75 254.46
  L 381.72 246.21
  L 382.14 245.17
  L 382.85 239.78
  L 381.23 233.96
  L 377.64 228.99
  L 372.61 225.62
  L 369.27 224.63
  L 366.01 224.43
  L 362.66 225.03
  L 359.52 226.40
  L 356.65 228.45
  L 354.10 231.10
  L 339.52 248.33
  L 325.27 263.51
  L 311.09 276.85
  L 296.54 288.79
  L 280.28 300.63
  L 263.37 311.85
  L 263.27 311.89
  L 262.80 311.53
  L 262.73 158.38
  L 262.50 152.81
  L 261.80 149.22
  L 259.63 145.11
  L 256.62 142.10
  L 252.22 139.90
  L 247.41 139.29
  L 242.66 140.26
  L 238.42 142.77
  L 236.24 145.11
  L 234.54 148.05
  L 233.41 152.53
  L 232.99 159.17
  L 232.92 237.45
  L 232.88 311.18
  L 232.87 311.26
  L 232.41 311.43
  L 206.67 294.29
  L 190.14 281.65
  L 174.09 267.18
  L 158.09 250.58
  L 141.08 230.71
  L 138.55 228.12
  L 135.69 226.15
  L 132.58 224.86
  L 129.27 224.32
  L 125.88 224.58
  L 122.43 225.70
  L 118.02 228.70
  L 118.02 228.70
  L 115.15 232.67
  L 113.42 237.79
  L 113.05 241.12
  L 113.35 244.02
  L 115.18 248.43
  L 119.23 253.79
  L 120.76 255.65
  L 140.96 278.72
  L 152.58 290.50
  L 164.69 301.80
  L 167.52 304.28
  L 181.56 315.31
  L 201.81 329.06
  L 205.23 331.32
  L 214.14 337.94
  L 221.27 344.93
  L 226.77 352.51
  L 230.46 360.45
  L 232.30 367.64
  L 232.96 375.50
  L 232.84 423.41
  L 232.75 423.67
  L 232.48 423.62
  L 178.23 391.94
  L 161.19 381.50
  L 132.25 360.95
  L 106.51 339.97
  L 93.05 327.42
  L 77.21 311.30
  L 72.93 307.31
  L 68.94 304.61
  L 65.07 303.06
  L 61.06 302.66
  L 56.64 303.74
  L 52.07 306.62
  L 49.56 309.18
  L 47.75 312.07
  L 47.75 312.07
  L 46.55 315.71
  L 46.23 319.77
  L 46.89 323.66
  L 48.90 327.43
  L 52.86 331.89
  L 78.85 357.38
  L 101.51 376.82
  L 118.19 389.50
  L 135.27 401.58
  L 152.41 412.82
  L 169.97 423.44
  L 204.83 443.92
  L 214.08 450.60
  L 222.03 458.89
  L 228.03 468.21
  L 231.73 477.96
  L 233.06 486.75
  L 232.92 505.98
  L 233.02 584.57
  L 233.44 589.16
  L 234.49 592.65
  L 237.87 597.30
  L 240.37 599.12
  L 243.15 600.36
  L 249.08 601.09
  L 254.78 599.54
  L 257.27 597.94
  L 259.37 595.80
  L 261.22 592.51
  L 262.15 588.46
  L 262.15 588.42
  L 262.74 579.22
  L 262.81 496.32
  L 263.10 485.73
  L 264.11 478.28
  L 267.57 468.27
  L 272.35 460.19
  L 278.85 452.73
  L 287.29 445.66
  L 297.86 438.82
  L 301.97 436.43
  L 333.27 418.00
  L 355.93 403.81
  L 375.62 390.29
  L 393.15 376.84
  L 413.66 359.63
  L 429.65 345.15
  L 446.54 328.01
  L 448.56 325.02
  L 449.70 321.90
  L 450.03 318.45
  L 449.51 315.06
  L 448.10 311.59
  L 445.93 308.47
  L 443.14 305.87
  L 439.85 303.93
  L 436.49 302.86
  L 432.90 302.60
  L 428.27 303.58
  L 424.45 305.92
  L 419.49 310.45
  L 402.35 327.23
  L 385.50 342.37
  L 368.72 356.09
  L 351.50 368.79
  L 348.54 370.84
  L 327.25 385.17
  L 312.92 394.17
  L 302.60 400.14
  L 280.09 413.35
  L 264.00 423.57
  L 262.96 423.83
  L 262.46 422.89
  Z"
/>
<path fill="#f5fefe" d="
  M 262.46 422.89
  L 262.96 423.83
  L 264.00 423.57
  L 280.09 413.35
  L 302.60 400.14
  L 312.92 394.17
  L 327.25 385.17
  L 348.54 370.84
  L 351.50 368.79
  L 368.72 356.09
  L 385.50 342.37
  L 402.35 327.23
  L 419.49 310.45
  L 424.45 305.92
  L 428.27 303.58
  L 432.90 302.60
  L 436.49 302.86
  L 439.85 303.93
  L 443.14 305.87
  L 445.93 308.47
  L 448.10 311.59
  L 449.51 315.06
  L 450.03 318.45
  L 449.70 321.90
  L 448.56 325.02
  L 446.54 328.01
  L 429.65 345.15
  L 413.66 359.63
  L 393.15 376.84
  L 375.62 390.29
  L 355.93 403.81
  L 333.27 418.00
  L 301.97 436.43
  L 297.86 438.82
  L 287.29 445.66
  L 278.85 452.73
  L 272.35 460.19
  L 267.57 468.27
  L 264.11 478.28
  L 263.10 485.73
  L 262.81 496.32
  L 262.74 579.22
  L 262.15 588.42
  L 262.15 588.46
  L 261.22 592.51
  L 259.37 595.80
  L 257.27 597.94
  L 254.78 599.54
  L 249.08 601.09
  L 243.15 600.36
  L 240.37 599.12
  L 237.87 597.30
  L 234.49 592.65
  L 233.44 589.16
  L 233.02 584.57
  L 232.92 505.98
  L 233.06 486.75
  L 231.73 477.96
  L 228.03 468.21
  L 222.03 458.89
  L 214.08 450.60
  L 204.83 443.92
  L 169.97 423.44
  L 152.41 412.82
  L 135.27 401.58
  L 118.19 389.50
  L 101.51 376.82
  L 78.85 357.38
  L 52.86 331.89
  L 48.90 327.43
  L 46.89 323.66
  L 46.23 319.77
  L 46.55 315.71
  L 47.75 312.07
  L 49.56 309.18
  L 52.07 306.62
  L 56.64 303.74
  L 61.06 302.66
  L 65.07 303.06
  L 68.94 304.61
  L 72.93 307.31
  L 77.21 311.30
  L 93.05 327.42
  L 106.51 339.97
  L 132.25 360.95
  L 161.19 381.50
  L 178.23 391.94
  L 232.48 423.62
  L 232.75 423.67
  L 232.84 423.41
  L 232.96 375.50
  L 232.30 367.64
  L 230.46 360.45
  L 226.77 352.51
  L 221.27 344.93
  L 214.14 337.94
  L 205.23 331.32
  L 201.81 329.06
  L 181.56 315.31
  L 167.52 304.28
  L 164.69 301.80
  L 152.58 290.50
  L 140.96 278.72
  L 120.76 255.65
  L 119.23 253.79
  L 115.18 248.43
  L 113.35 244.02
  L 113.05 241.12
  L 113.42 237.79
  L 115.15 232.67
  L 118.02 228.70
  L 118.02 228.70
  L 122.43 225.70
  L 125.88 224.58
  L 129.27 224.32
  L 132.58 224.86
  L 135.69 226.15
  L 138.55 228.12
  L 141.08 230.71
  L 158.09 250.58
  L 174.09 267.18
  L 190.14 281.65
  L 206.67 294.29
  L 232.41 311.43
  L 232.87 311.26
  L 232.88 311.18
  L 232.92 237.45
  L 232.99 159.17
  L 233.41 152.53
  L 234.54 148.05
  L 236.24 145.11
  L 238.42 142.77
  L 242.66 140.26
  L 247.41 139.29
  L 252.22 139.90
  L 256.62 142.10
  L 259.63 145.11
  L 261.80 149.22
  L 262.50 152.81
  L 262.73 158.38
  L 262.80 311.53
  L 263.27 311.89
  L 263.37 311.85
  L 280.28 300.63
  L 296.54 288.79
  L 311.09 276.85
  L 325.27 263.51
  L 339.52 248.33
  L 354.10 231.10
  L 356.65 228.45
  L 359.52 226.40
  L 362.66 225.03
  L 366.01 224.43
  L 369.27 224.63
  L 372.61 225.62
  L 377.64 228.99
  L 381.23 233.96
  L 382.85 239.78
  L 382.14 245.17
  L 381.72 246.21
  L 375.75 254.46
  L 355.97 277.30
  L 333.61 299.59
  L 317.26 312.96
  L 293.07 329.50
  L 288.96 332.21
  L 279.67 339.46
  L 272.32 347.58
  L 266.97 356.60
  L 263.91 366.09
  L 263.89 366.20
  L 263.16 372.29
  L 262.88 380.85
  L 262.82 400.19
  L 262.89 421.01
  L 262.70 421.94
  L 262.46 422.89
  Z"
/>
</svg>
