<?xml version="1.0" encoding="UTF-8" standalone="no"?>
<svg xmlns="http://www.w3.org/2000/svg" version="1.2" baseProfile="tiny" viewBox="0.00 0.00 489.00 627.00">
<path fill="#5c856c" d="
  M 402.25 142.10
  L 402.38 143.04
  L 402.94 144.49
  L 404.19 147.30
  L 405.86 150.80
  L 406.53 153.37
  L 406.43 153.68
  L 402.84 160.83
  L 397.75 168.52
  L 397.64 168.76
  L 397.65 169.08
  L 397.68 169.32
  L 397.67 169.46
  L 397.33 169.98
  L 394.48 172.98
  L 392.67 175.54
  L 390.00 178.73
  L 388.22 180.90
  L 387.30 183.24
  L 387.17 184.37
  L 379.17 193.29
  L 370.77 201.45
  L 361.95 208.88
  L 352.68 215.59
  L 336.61 225.00
  L 319.22 232.62
  L 299.16 239.12
  L 271.31 246.24
  L 263.62 248.10
  L 250.33 251.83
  L 237.42 256.42
  L 225.24 261.77
  L 213.52 267.95
  L 202.59 274.82
  L 192.20 282.51
  L 182.62 290.81
  L 173.66 299.91
  L 166.85 307.90
  L 164.73 308.64
  L 163.07 310.32
  L 157.83 318.54
  L 156.41 320.24
  L 154.74 322.40
  L 154.62 322.65
  L 151.65 328.26
  L 148.13 335.15
  L 147.00 337.70
  L 144.89 343.94
  L 144.81 344.69
  L 144.69 345.20
  L 144.46 345.60
  L 143.62 347.50
  L 144.03 349.53
  L 140.54 364.36
  L 139.07 377.43
  L 139.03 384.33
  L 139.16 384.69
  L 139.52 384.82
  L 159.25 385.04
  L 160.22 384.21
  L 160.28 382.72
  L 160.34 381.25
  L 162.05 372.45
  L 164.32 363.97
  L 167.22 355.55
  L 170.68 347.48
  L 178.32 333.65
  L 187.93 320.57
  L 199.04 308.87
  L 211.98 298.16
  L 226.49 288.74
  L 242.11 280.89
  L 258.94 274.52
  L 276.48 269.83
  L 278.64 269.66
  L 279.11 269.88
  L 278.81 270.30
  L 267.21 279.78
  L 256.54 290.19
  L 247.09 301.23
  L 238.76 313.06
  L 231.87 325.16
  L 226.21 337.91
  L 221.97 350.87
  L 219.07 364.35
  L 218.66 367.12
  L 216.99 386.42
  L 217.07 395.32
  L 217.75 403.45
  L 220.23 418.75
  L 224.54 432.89
  L 229.86 445.77
  L 235.83 456.46
  L 242.47 465.06
  L 243.77 465.83
  L 245.75 466.09
  L 269.75 465.90
  L 270.36 465.66
  L 270.48 465.19
  L 271.19 464.93
  L 271.18 464.75
  L 270.54 463.49
  L 269.67 462.50
  L 269.44 462.37
  L 269.47 462.64
  L 269.59 464.02
  L 267.80 462.47
  L 262.08 455.10
  L 257.08 447.46
  L 252.79 439.54
  L 249.22 431.35
  L 249.22 431.35
  L 245.55 419.98
  L 243.16 408.12
  L 241.94 394.57
  L 242.18 381.07
  L 243.87 367.76
  L 246.99 354.77
  L 251.50 342.28
  L 257.39 330.38
  L 264.46 319.44
  L 272.81 309.30
  L 279.70 302.22
  L 288.05 294.49
  L 296.83 287.20
  L 306.06 280.35
  L 315.72 273.96
  L 339.32 258.92
  L 356.28 247.01
  L 370.73 235.35
  L 383.19 223.44
  L 384.15 223.55
  L 384.21 223.72
  L 384.08 225.62
  L 379.10 242.66
  L 373.33 260.01
  L 366.28 277.72
  L 357.81 295.00
  L 347.90 311.87
  L 336.56 328.32
  L 328.82 338.10
  L 319.69 348.21
  L 309.08 358.58
  L 305.31 362.52
  L 305.02 363.11
  L 305.68 363.09
  L 311.30 360.79
  L 323.26 353.94
  L 334.78 346.09
  L 345.77 337.34
  L 356.13 327.76
  L 365.71 317.48
  L 374.45 306.55
  L 382.10 295.31
  L 388.75 283.60
  L 394.09 272.53
  L 398.69 261.54
  L 402.57 250.61
  L 405.72 239.75
  L 414.67 207.72
  L 423.51 183.19
  L 428.42 172.23
  L 433.70 162.04
  L 439.61 152.18
  L 445.91 143.02
  L 446.97 141.60
  L 447.93 140.96
  L 449.08 141.08
  L 465.97 150.02
  L 481.85 160.40
  L 482.46 161.24
  L 482.18 162.24
  L 472.84 176.55
  L 465.75 188.88
  L 459.66 201.63
  L 459.66 201.63
  L 454.67 214.52
  L 450.64 227.82
  L 450.74 230.26
  L 451.76 233.90
  L 457.02 246.80
  L 459.85 253.42
  L 466.76 271.63
  L 472.83 290.54
  L 477.89 309.66
  L 481.75 328.28
  L 483.47 340.84
  L 484.58 356.76
  L 484.83 381.70
  L 483.05 407.00
  L 481.78 415.47
  L 481.20 415.45
  L 480.92 416.42
  L 481.34 418.58
  L 480.84 422.21
  L 480.81 420.03
  L 480.76 419.88
  L 480.60 419.84
  L 480.34 419.87
  L 480.15 419.96
  L 480.10 420.15
  L 480.23 424.77
  L 480.13 425.95
  L 479.50 428.19
  L 479.01 428.95
  L 479.01 428.95
  L 478.59 430.62
  L 478.79 432.59
  L 476.22 443.88
  L 474.84 445.69
  L 474.68 446.97
  L 474.68 446.97
  L 475.26 447.53
  L 472.97 455.50
  L 467.87 470.16
  L 461.98 484.33
  L 455.29 498.02
  L 447.79 511.21
  L 447.79 511.21
  L 435.06 530.10
  L 420.52 547.90
  L 420.46 547.95
  L 412.12 555.14
  L 410.62 556.92
  L 407.80 559.82
  L 405.59 561.93
  L 402.91 564.33
  L 402.56 564.60
  L 402.29 565.00
  L 401.12 566.44
  L 399.65 566.93
  L 399.21 567.04
  L 398.82 567.33
  L 397.18 568.96
  L 393.23 572.23
  L 391.93 573.67
  L 390.18 575.41
  L 388.66 575.86
  L 388.20 576.01
  L 387.86 576.33
  L 385.81 578.74
  L 384.04 579.64
  L 379.90 581.93
  L 374.83 586.37
  L 374.01 586.79
  L 371.42 587.81
  L 369.73 589.47
  L 369.32 589.81
  L 368.79 589.84
  L 368.17 589.93
  L 367.94 590.24
  L 367.75 590.55
  L 367.46 590.75
  L 362.43 593.24
  L 361.97 593.53
  L 361.55 593.96
  L 361.47 594.06
  L 358.59 595.77
  L 356.97 596.51
  L 353.66 598.85
  L 353.16 599.23
  L 352.85 599.44
  L 352.32 599.67
  L 351.69 599.92
  L 350.99 600.32
  L 350.72 600.48
  L 350.12 600.73
  L 343.85 603.60
  L 339.63 604.88
  L 336.50 606.32
  L 333.94 607.67
  L 324.61 610.31
  L 323.90 610.50
  L 316.81 613.14
  L 315.62 613.65
  L 314.86 613.83
  L 314.36 614.02
  L 314.17 614.19
  L 313.75 614.51
  L 313.26 614.65
  L 312.35 614.62
  L 311.80 614.45
  L 311.49 614.39
  L 311.17 614.48
  L 310.10 615.05
  L 309.55 615.25
  L 309.11 615.30
  L 308.03 615.51
  L 306.65 616.52
  L 306.47 616.61
  L 299.85 617.59
  L 299.37 617.82
  L 298.00 618.56
  L 296.67 618.51
  L 295.56 618.63
  L 294.29 619.14
  L 292.58 619.38
  L 292.11 619.45
  L 291.59 619.73
  L 289.59 620.70
  L 286.95 620.46
  L 285.96 620.48
  L 284.27 621.14
  L 283.76 621.28
  L 283.19 621.29
  L 282.39 621.26
  L 279.27 622.00
  L 276.16 622.74
  L 273.88 622.34
  L 272.96 622.50
  L 271.33 623.38
  L 268.15 623.29
  L 264.98 623.20
  L 264.16 623.53
  L 261.29 624.77
  L 258.52 625.14
  L 255.78 625.15
  L 254.27 624.26
  L 251.89 624.09
  L 250.48 624.12
  L 243.81 623.99
  L 233.50 624.30
  L 230.76 625.04
  L 228.34 624.94
  L 225.74 623.67
  L 225.70 623.64
  L 225.68 623.62
  L 225.02 623.73
  L 224.90 623.86
  L 224.75 623.94
  L 223.75 624.03
  L 221.50 623.30
  L 218.85 623.44
  L 218.29 623.48
  L 217.84 623.37
  L 214.43 622.46
  L 211.29 622.38
  L 210.76 622.34
  L 210.30 622.16
  L 208.25 621.35
  L 205.14 621.24
  L 204.76 621.23
  L 204.38 621.04
  L 203.13 620.36
  L 189.45 617.62
  L 183.88 616.26
  L 183.44 616.26
  L 183.11 616.53
  L 183.05 616.62
  L 182.86 617.13
  L 182.79 617.30
  L 182.62 617.38
  L 182.23 617.56
  L 181.18 617.02
  L 180.49 615.33
  L 180.12 615.17
  L 179.66 615.16
  L 179.25 615.35
  L 178.94 615.57
  L 177.72 616.09
  L 177.73 614.69
  L 176.99 614.32
  L 173.36 613.34
  L 171.01 612.05
  L 170.34 611.97
  L 169.88 612.47
  L 169.86 612.72
  L 169.88 613.00
  L 169.98 613.28
  L 170.27 613.33
  L 171.41 613.43
  L 172.22 614.11
  L 172.29 614.28
  L 172.10 614.26
  L 170.44 614.07
  L 170.36 614.09
  L 165.96 612.57
  L 168.46 612.12
  L 168.83 611.77
  L 168.48 611.41
  L 168.22 611.30
  L 166.02 611.43
  L 164.74 611.53
  L 164.72 611.51
  L 164.74 611.34
  L 164.96 611.20
  L 165.08 611.06
  L 165.08 610.90
  L 164.91 610.53
  L 164.78 610.38
  L 164.42 610.22
  L 164.08 610.42
  L 164.03 610.47
  L 162.46 611.00
  L 162.73 610.41
  L 162.55 609.61
  L 162.08 609.30
  L 161.52 609.12
  L 161.28 609.13
  L 161.02 610.00
  L 161.23 610.23
  L 161.30 610.40
  L 161.13 610.44
  L 160.42 610.51
  L 159.70 610.05
  L 159.87 608.63
  L 159.01 607.98
  L 155.55 606.88
  L 152.84 605.66
  L 149.85 604.32
  L 149.28 604.30
  L 148.82 604.69
  L 148.66 604.85
  L 148.27 604.89
  L 147.93 604.69
  L 147.92 604.29
  L 147.91 603.72
  L 147.45 603.36
  L 147.05 603.28
  L 146.58 603.35
  L 144.58 603.42
  L 142.74 601.98
  L 142.35 601.69
  L 141.89 601.86
  L 141.89 601.86
  L 141.38 602.07
  L 141.35 602.07
  L 140.93 601.67
  L 140.63 600.78
  L 139.46 600.70
  L 138.92 600.42
  L 138.87 600.14
  L 138.75 599.79
  L 138.39 599.70
  L 136.50 599.44
  L 134.89 598.16
  L 134.55 597.82
  L 134.06 597.58
  L 134.04 597.57
  L 128.54 595.01
  L 124.63 593.07
  L 124.14 592.84
  L 123.78 592.58
  L 122.25 591.94
  L 121.35 592.08
  L 103.59 580.44
  L 86.86 566.82
  L 70.75 550.88
  L 55.20 532.56
  L 46.92 521.30
  L 39.28 509.46
  L 32.17 496.85
  L 25.81 483.82
  L 20.28 470.59
  L 15.56 457.13
  L 11.67 443.52
  L 8.67 429.85
  L 5.65 411.25
  L 3.61 393.97
  L 2.94 374.28
  L 2.83 365.00
  L 3.37 355.55
  L 3.77 350.78
  L 6.14 328.44
  L 10.93 305.13
  L 18.20 280.36
  L 28.35 252.76
  L 37.49 231.92
  L 42.54 220.75
  L 58.65 189.21
  L 71.97 165.66
  L 86.70 141.90
  L 103.01 117.66
  L 120.72 93.21
  L 145.39 62.32
  L 151.50 54.89
  L 162.31 42.80
  L 165.55 39.31
  L 178.10 27.38
  L 184.84 22.18
  L 191.88 17.52
  L 199.00 13.54
  L 206.39 10.11
  L 214.03 7.26
  L 221.91 5.02
  L 232.52 3.05
  L 243.50 2.18
  L 250.77 2.32
  L 258.11 3.12
  L 265.74 4.61
  L 273.30 6.73
  L 280.75 9.47
  L 287.99 12.77
  L 294.95 16.60
  L 301.55 20.93
  L 308.66 26.60
  L 316.61 34.04
  L 331.73 49.81
  L 331.73 49.81
  L 344.08 63.83
  L 355.88 78.36
  L 375.98 104.67
  L 392.24 127.30
  L 402.25 142.10
  Z
  M 77.93 244.03
  L 77.46 243.50
  L 76.22 244.64
  L 71.38 254.63
  L 71.05 255.81
  L 70.79 256.77
  L 67.96 263.08
  L 65.47 269.53
  L 59.50 283.78
  L 57.55 290.83
  L 56.51 295.20
  L 56.30 296.75
  L 56.68 297.86
  L 56.68 297.86
  L 56.90 298.11
  L 53.17 311.70
  L 49.02 331.98
  L 46.45 352.65
  L 45.95 355.99
  L 45.33 361.00
  L 45.34 376.83
  L 46.09 388.65
  L 48.03 404.17
  L 50.43 418.25
  L 55.93 440.21
  L 63.51 461.20
  L 73.08 481.05
  L 84.54 499.62
  L 97.80 516.70
  L 112.78 532.19
  L 129.17 545.77
  L 137.95 551.88
  L 147.09 557.51
  L 160.53 564.58
  L 174.66 570.61
  L 189.15 575.49
  L 204.25 579.27
  L 216.92 581.59
  L 229.67 583.27
  L 231.69 583.47
  L 228.13 583.45
  L 227.72 583.59
  L 227.80 584.01
  L 228.00 584.34
  L 228.48 584.82
  L 229.11 584.98
  L 235.89 585.00
  L 236.40 584.31
  L 236.32 584.16
  L 236.29 584.12
  L 235.03 583.58
  L 235.29 583.59
  L 237.30 584.13
  L 237.95 585.04
  L 240.50 585.85
  L 262.18 584.49
  L 262.18 584.49
  L 273.23 582.87
  L 284.21 580.63
  L 293.66 578.45
  L 307.18 574.64
  L 311.29 573.38
  L 314.95 571.88
  L 318.89 570.27
  L 321.82 568.97
  L 323.58 568.10
  L 327.01 566.35
  L 332.12 563.77
  L 337.35 561.10
  L 341.56 558.64
  L 347.12 555.28
  L 351.28 552.77
  L 355.03 550.49
  L 368.74 539.78
  L 383.20 525.96
  L 388.27 520.49
  L 395.21 512.73
  L 400.33 506.68
  L 408.51 495.23
  L 417.63 479.33
  L 424.31 465.10
  L 428.04 456.78
  L 429.43 452.64
  L 430.53 449.14
  L 435.79 433.24
  L 439.35 415.49
  L 439.36 414.49
  L 439.30 414.12
  L 439.40 413.21
  L 439.63 412.74
  L 440.94 409.53
  L 440.83 407.31
  L 439.67 405.95
  L 440.51 396.95
  L 440.61 395.08
  L 440.93 392.09
  L 441.77 388.66
  L 441.91 368.76
  L 440.24 349.11
  L 440.24 349.11
  L 438.59 338.61
  L 438.32 337.97
  L 437.98 338.57
  L 436.31 343.98
  L 434.06 347.17
  L 434.06 347.17
  L 432.70 350.33
  L 431.93 353.82
  L 431.44 356.04
  L 429.44 359.96
  L 429.42 359.99
  L 427.63 367.36
  L 425.28 372.54
  L 425.11 373.00
  L 425.10 373.50
  L 425.13 374.10
  L 424.61 375.95
  L 424.13 377.73
  L 424.27 378.53
  L 422.65 382.13
  L 420.71 383.32
  L 420.37 383.72
  L 420.20 384.06
  L 418.01 389.38
  L 414.67 395.91
  L 413.73 397.33
  L 411.59 401.26
  L 410.56 404.36
  L 408.86 406.52
  L 408.16 407.18
  L 407.14 408.61
  L 403.97 413.77
  L 400.88 418.77
  L 398.32 422.38
  L 396.78 424.45
  L 395.15 427.00
  L 393.20 429.34
  L 391.05 431.99
  L 384.44 440.36
  L 379.46 446.27
  L 373.10 452.80
  L 368.47 457.27
  L 364.38 460.37
  L 361.88 462.96
  L 360.18 464.44
  L 358.33 466.10
  L 358.23 466.24
  L 357.87 466.60
  L 357.37 466.83
  L 356.41 467.36
  L 356.08 467.88
  L 355.78 468.35
  L 355.40 468.63
  L 349.77 471.59
  L 349.51 471.79
  L 349.36 472.07
  L 349.23 472.43
  L 349.12 472.65
  L 348.84 472.89
  L 348.50 473.10
  L 347.30 474.23
  L 347.17 474.56
  L 347.51 474.53
  L 348.64 474.48
  L 349.04 474.66
  L 345.69 477.05
  L 345.13 477.19
  L 345.60 476.09
  L 345.97 475.24
  L 345.11 475.61
  L 332.22 484.46
  L 331.55 485.19
  L 331.48 485.34
  L 331.46 485.71
  L 331.76 485.92
  L 331.76 485.92
  L 332.32 486.23
  L 327.27 489.15
  L 327.55 488.40
  L 326.74 488.05
  L 325.74 488.19
  L 323.99 489.02
  L 323.33 489.96
  L 323.70 490.96
  L 318.74 493.53
  L 318.68 492.89
  L 317.12 492.85
  L 313.79 494.62
  L 311.57 495.94
  L 310.53 496.25
  L 309.17 496.76
  L 309.07 496.85
  L 308.69 497.08
  L 308.25 497.11
  L 307.65 497.13
  L 306.77 497.50
  L 303.29 499.86
  L 302.44 500.12
  L 301.53 500.11
  L 298.96 500.25
  L 297.75 500.60
  L 285.66 504.49
  L 273.15 507.34
  L 261.35 508.93
  L 250.36 509.26
  L 242.59 509.22
  L 233.54 509.13
  L 226.72 508.46
  L 223.55 508.44
  L 219.18 508.17
  L 219.15 508.16
  L 213.88 506.89
  L 208.45 505.56
  L 202.56 503.94
  L 197.25 502.44
  L 189.53 500.45
  L 180.76 496.56
  L 172.25 491.76
  L 161.80 484.58
  L 152.13 476.66
  L 143.24 468.05
  L 135.16 458.77
  L 125.84 445.67
  L 117.98 431.59
  L 111.64 416.59
  L 106.86 400.77
  L 106.74 400.30
  L 104.39 387.66
  L 103.28 374.45
  L 103.33 360.17
  L 104.55 342.52
  L 105.80 332.53
  L 107.71 322.70
  L 110.14 313.51
  L 113.17 304.46
  L 120.36 287.48
  L 129.10 271.21
  L 139.45 255.51
  L 151.17 240.79
  L 164.14 227.16
  L 178.27 214.74
  L 193.18 203.83
  L 208.98 194.33
  L 224.81 186.57
  L 241.52 179.90
  L 259.32 174.25
  L 277.75 169.76
  L 301.99 165.84
  L 334.01 162.77
  L 361.90 162.09
  L 363.27 162.09
  L 363.46 161.84
  L 363.44 161.79
  L 357.63 152.85
  L 325.12 107.40
  L 311.73 90.50
  L 292.35 68.09
  L 285.47 60.83
  L 279.03 55.12
  L 272.66 50.66
  L 266.26 47.30
  L 255.72 43.85
  L 255.58 43.82
  L 244.59 41.96
  L 240.13 42.03
  L 236.22 42.74
  L 235.88 42.84
  L 233.34 43.23
  L 231.24 43.54
  L 219.82 48.09
  L 212.94 52.12
  L 206.13 57.22
  L 199.20 63.61
  L 191.67 71.68
  L 167.80 100.31
  L 144.95 130.91
  L 133.72 146.90
  L 118.86 169.28
  L 104.64 192.88
  L 90.94 217.90
  L 77.93 244.03
  Z
  M 310.63 203.37
  L 310.60 203.40
  L 310.71 203.77
  L 310.90 203.82
  L 311.54 203.54
  L 311.81 203.06
  L 311.80 202.88
  L 311.60 202.56
  L 311.27 202.73
  L 310.63 203.37
  Z
  M 120.26 345.88
  L 120.38 345.88
  L 120.51 345.73
  L 120.36 345.39
  L 120.34 345.38
  L 119.54 345.43
  L 118.79 346.15
  L 118.71 346.46
  L 119.02 346.39
  L 119.95 345.92
  L 120.12 345.87
  L 120.26 345.88
  Z
  M 123.6765 357.8691
  L 124.6038 357.3844
  L 124.3435 356.3709
  L 123.4162 356.8556
  L 123.6765 357.8691
  Z"
/>
<path fill="#ffffff" d="
  M 189.53 500.45
  L 199.40 504.06
  L 209.19 506.86
  L 218.88 508.86
  L 228.49 510.05
  L 251.86 510.71
  L 258.60 510.20
  L 265.33 509.36
  L 281.41 506.71
  L 296.98 502.49
  L 296.98 502.49
  L 307.99 498.43
  L 318.74 493.53
  L 323.70 490.96
  L 327.27 489.15
  L 332.32 486.23
  L 345.69 477.05
  L 349.04 474.66
  L 360.72 465.31
  L 371.78 455.24
  L 382.16 444.48
  L 391.84 433.10
  L 400.76 421.12
  L 408.90 408.61
  L 416.21 395.59
  L 422.65 382.13
  L 424.27 378.53
  L 436.31 343.98
  L 437.98 338.57
  L 438.32 337.97
  L 438.59 338.61
  L 440.24 349.11
  L 440.24 349.11
  L 441.91 368.76
  L 441.77 388.66
  L 440.93 392.09
  L 440.61 395.08
  L 440.51 396.95
  L 439.67 405.95
  L 436.71 423.94
  L 431.55 442.52
  L 425.03 460.33
  L 417.80 476.45
  L 409.95 490.68
  L 401.32 503.32
  L 391.48 515.54
  L 381.53 526.46
  L 371.59 535.97
  L 361.47 544.27
  L 348.48 553.25
  L 334.90 561.11
  L 315.71 569.87
  L 295.45 576.59
  L 276.17 581.27
  L 260.77 583.36
  L 255.74 583.62
  L 253.33 584.00
  L 250.64 584.38
  L 237.30 584.13
  L 235.29 583.59
  L 235.03 583.58
  L 231.69 583.47
  L 229.67 583.27
  L 216.92 581.59
  L 204.25 579.27
  L 189.15 575.49
  L 174.66 570.61
  L 160.53 564.58
  L 147.09 557.51
  L 137.95 551.88
  L 129.17 545.77
  L 112.78 532.19
  L 97.80 516.70
  L 84.54 499.62
  L 73.08 481.05
  L 63.51 461.20
  L 55.93 440.21
  L 50.43 418.25
  L 48.03 404.17
  L 46.09 388.65
  L 45.34 376.83
  L 45.33 361.00
  L 45.95 355.99
  L 46.45 352.65
  L 49.02 331.98
  L 53.17 311.70
  L 56.90 298.11
  L 66.46 270.61
  L 77.93 244.03
  L 90.94 217.90
  L 104.64 192.88
  L 118.86 169.28
  L 133.72 146.90
  L 144.95 130.91
  L 167.80 100.31
  L 191.67 71.68
  L 199.20 63.61
  L 206.13 57.22
  L 212.94 52.12
  L 219.82 48.09
  L 231.24 43.54
  L 233.34 43.23
  L 235.88 42.84
  L 236.22 42.74
  L 240.13 42.03
  L 244.59 41.96
  L 255.58 43.82
  L 255.72 43.85
  L 266.26 47.30
  L 272.66 50.66
  L 279.03 55.12
  L 285.47 60.83
  L 292.35 68.09
  L 311.73 90.50
  L 325.12 107.40
  L 357.63 152.85
  L 363.44 161.79
  L 363.46 161.84
  L 363.27 162.09
  L 361.90 162.09
  L 334.01 162.77
  L 301.99 165.84
  L 277.75 169.76
  L 259.32 174.25
  L 241.52 179.90
  L 224.81 186.57
  L 208.98 194.33
  L 193.18 203.83
  L 178.27 214.74
  L 164.14 227.16
  L 151.17 240.79
  L 139.45 255.51
  L 129.10 271.21
  L 120.36 287.48
  L 113.17 304.46
  L 110.14 313.51
  L 107.71 322.70
  L 105.80 332.53
  L 104.55 342.52
  L 103.33 360.17
  L 103.28 374.45
  L 104.39 387.66
  L 106.74 400.30
  L 106.86 400.77
  L 111.64 416.59
  L 117.98 431.59
  L 125.84 445.67
  L 135.16 458.77
  L 143.24 468.05
  L 152.13 476.66
  L 161.80 484.58
  L 172.25 491.76
  L 180.76 496.56
  L 189.53 500.45
  Z"
/>
<path fill="#244139" d="
  M 402.25 142.10
  L 408.40 151.76
  L 408.76 152.96
  L 408.46 154.17
  L 398.67 169.62
  L 387.17 184.37
  L 387.30 183.24
  L 388.22 180.90
  L 390.00 178.73
  L 392.67 175.54
  L 394.48 172.98
  L 397.33 169.98
  L 397.67 169.46
  L 397.68 169.32
  L 397.65 169.08
  L 397.64 168.76
  L 397.75 168.52
  L 402.84 160.83
  L 406.43 153.68
  L 406.53 153.37
  L 405.86 150.80
  L 404.19 147.30
  L 402.94 144.49
  L 402.38 143.04
  L 402.25 142.10
  Z"
/>
<path fill="#244139" d="
  M 310.63 203.37
  L 311.27 202.73
  L 311.60 202.56
  L 311.80 202.88
  L 311.81 203.06
  L 311.54 203.54
  L 310.90 203.82
  L 310.71 203.77
  L 310.60 203.40
  L 310.63 203.37
  Z"
/>
<path fill="#244139" d="
  M 77.93 244.03
  L 66.46 270.61
  L 56.90 298.11
  L 56.68 297.86
  L 56.68 297.86
  L 56.30 296.75
  L 56.51 295.20
  L 57.55 290.83
  L 59.50 283.78
  L 65.47 269.53
  L 67.96 263.08
  L 70.79 256.77
  L 71.05 255.81
  L 71.38 254.63
  L 76.22 244.64
  L 77.46 243.50
  L 77.93 244.03
  Z"
/>
<path fill="#244139" d="
  M 166.85 307.90
  L 157.44 321.35
  L 149.71 335.60
  L 144.03 349.53
  L 143.62 347.50
  L 144.46 345.60
  L 144.69 345.20
  L 144.81 344.69
  L 144.89 343.94
  L 147.00 337.70
  L 148.13 335.15
  L 151.65 328.26
  L 154.62 322.65
  L 154.74 322.40
  L 156.41 320.24
  L 157.83 318.54
  L 163.07 310.32
  L 164.73 308.64
  L 166.85 307.90
  Z"
/>
<path fill="#244139" d="
  M 436.31 343.98
  L 424.27 378.53
  L 424.13 377.73
  L 424.61 375.95
  L 425.13 374.10
  L 425.10 373.50
  L 425.11 373.01
  L 425.28 372.54
  L 427.63 367.36
  L 429.42 359.99
  L 429.44 359.96
  L 431.44 356.04
  L 431.93 353.82
  L 432.70 350.33
  L 434.06 347.17
  L 436.31 343.98
  Z"
/>
<path fill="#244139" d="
  M 119.95 345.92
  L 119.02 346.39
  L 118.71 346.46
  L 118.79 346.15
  L 119.54 345.43
  L 120.34 345.38
  L 120.36 345.39
  L 120.51 345.73
  L 120.38 345.88
  L 120.26 345.88
  L 120.12 345.87
  L 119.95 345.92
  Z"
/>
<ellipse fill="#244139" cx="0.00" cy="0.00" transform="translate(124.01,357.12) rotate(114.0)" rx="0.82" ry="0.65"/>
<path fill="#244139" d="
  M 422.65 382.13
  L 416.21 395.59
  L 408.90 408.61
  L 400.76 421.12
  L 391.84 433.10
  L 382.16 444.48
  L 371.78 455.24
  L 360.72 465.31
  L 349.04 474.66
  L 348.64 474.48
  L 347.51 474.53
  L 347.17 474.56
  L 347.30 474.23
  L 348.50 473.10
  L 348.84 472.89
  L 349.12 472.65
  L 349.23 472.43
  L 349.36 472.07
  L 349.51 471.79
  L 349.77 471.59
  L 355.40 468.63
  L 355.78 468.35
  L 356.08 467.88
  L 356.41 467.36
  L 357.37 466.83
  L 357.87 466.60
  L 358.23 466.24
  L 358.33 466.10
  L 360.18 464.44
  L 361.88 462.96
  L 364.38 460.37
  L 368.47 457.27
  L 373.10 452.80
  L 379.46 446.27
  L 384.44 440.36
  L 391.05 431.99
  L 393.20 429.34
  L 395.15 427.00
  L 396.78 424.45
  L 398.32 422.38
  L 400.88 418.77
  L 403.97 413.77
  L 407.14 408.61
  L 408.16 407.18
  L 408.86 406.52
  L 410.56 404.36
  L 411.59 401.26
  L 413.73 397.33
  L 414.67 395.91
  L 418.01 389.38
  L 420.20 384.06
  L 420.37 383.72
  L 420.71 383.32
  L 422.65 382.13
  Z"
/>
<path fill="#244139" d="
  M 439.67 405.95
  L 440.83 407.31
  L 440.94 409.53
  L 439.63 412.74
  L 439.40 413.21
  L 439.30 414.12
  L 439.36 414.49
  L 439.35 415.49
  L 435.79 433.24
  L 430.53 449.14
  L 429.43 452.64
  L 428.04 456.78
  L 424.31 465.10
  L 417.63 479.33
  L 408.51 495.23
  L 400.33 506.68
  L 395.21 512.73
  L 388.27 520.49
  L 383.20 525.96
  L 368.74 539.78
  L 355.03 550.49
  L 351.28 552.77
  L 347.12 555.28
  L 341.56 558.64
  L 337.35 561.10
  L 332.12 563.77
  L 327.01 566.35
  L 323.58 568.10
  L 321.82 568.97
  L 318.89 570.27
  L 314.95 571.88
  L 311.29 573.38
  L 307.18 574.64
  L 293.66 578.45
  L 284.21 580.63
  L 273.23 582.87
  L 262.18 584.49
  L 262.18 584.49
  L 240.50 585.85
  L 237.95 585.04
  L 237.30 584.13
  L 250.64 584.38
  L 253.33 584.00
  L 255.74 583.62
  L 260.77 583.36
  L 276.17 581.27
  L 295.45 576.59
  L 315.71 569.87
  L 334.90 561.11
  L 348.48 553.25
  L 361.47 544.27
  L 371.59 535.97
  L 381.53 526.46
  L 391.48 515.54
  L 401.32 503.32
  L 409.95 490.68
  L 417.80 476.45
  L 425.03 460.33
  L 431.55 442.52
  L 436.71 423.94
  L 439.67 405.95
  Z"
/>
<path fill="#244139" d="
  M 481.78 415.47
  L 481.34 418.58
  L 480.92 416.42
  L 481.20 415.45
  L 481.78 415.47
  Z"
/>
<path fill="#244139" d="
  M 480.84 422.21
  L 480.23 424.77
  L 480.10 420.15
  L 480.15 419.96
  L 480.34 419.87
  L 480.60 419.84
  L 480.76 419.88
  L 480.81 420.03
  L 480.84 422.21
  Z"
/>
<path fill="#244139" d="
  M 479.50 428.19
  L 478.79 432.59
  L 478.59 430.62
  L 479.01 428.95
  L 479.01 428.95
  L 479.50 428.19
  Z"
/>
<path fill="#244139" d="
  M 476.22 443.88
  L 475.26 447.53
  L 474.68 446.97
  L 474.68 446.97
  L 474.84 445.69
  L 476.22 443.88
  Z"
/>
<path fill="#244139" d="
  M 270.48 465.19
  L 269.59 464.02
  L 269.47 462.64
  L 269.44 462.37
  L 269.67 462.50
  L 270.54 463.49
  L 271.18 464.75
  L 271.19 464.93
  L 270.48 465.19
  Z"
/>
<path fill="#244139" d="
  M 345.69 477.05
  L 332.32 486.23
  L 331.76 485.92
  L 331.76 485.92
  L 331.46 485.71
  L 331.48 485.34
  L 331.55 485.19
  L 332.22 484.46
  L 345.11 475.61
  L 345.97 475.24
  L 345.60 476.09
  L 345.13 477.19
  L 345.69 477.05
  Z"
/>
<path fill="#244139" d="
  M 327.27 489.15
  L 323.70 490.96
  L 323.33 489.96
  L 323.33 489.96
  L 323.99 489.02
  L 325.74 488.19
  L 326.74 488.05
  L 327.55 488.40
  L 327.27 489.15
  Z"
/>
<path fill="#244139" d="
  M 318.74 493.53
  L 307.99 498.43
  L 296.98 502.49
  L 296.98 502.49
  L 281.41 506.71
  L 265.33 509.36
  L 258.60 510.20
  L 251.86 510.71
  L 228.49 510.05
  L 218.88 508.86
  L 209.19 506.86
  L 199.40 504.06
  L 189.53 500.45
  L 197.25 502.44
  L 202.56 503.94
  L 208.45 505.56
  L 213.88 506.89
  L 219.15 508.16
  L 219.18 508.17
  L 223.55 508.44
  L 226.72 508.46
  L 233.54 509.13
  L 242.59 509.22
  L 250.36 509.26
  L 261.35 508.93
  L 273.15 507.34
  L 285.66 504.49
  L 297.75 500.60
  L 298.96 500.25
  L 301.53 500.11
  L 302.44 500.12
  L 303.29 499.86
  L 306.77 497.50
  L 307.65 497.13
  L 308.25 497.11
  L 308.69 497.08
  L 309.07 496.85
  L 309.17 496.76
  L 310.53 496.25
  L 311.57 495.94
  L 313.79 494.62
  L 317.12 492.85
  L 318.68 492.89
  L 318.74 493.53
  Z"
/>
<path fill="#244139" d="
  M 420.52 547.90
  L 409.74 559.11
  L 398.24 569.64
  L 386.32 579.24
  L 373.80 588.04
  L 361.13 595.74
  L 347.98 602.56
  L 334.71 608.28
  L 321.06 613.03
  L 294.81 620.14
  L 283.52 622.37
  L 272.90 623.86
  L 271.48 624.04
  L 269.44 624.38
  L 258.52 625.14
  L 261.29 624.77
  L 264.16 623.53
  L 264.97 623.20
  L 268.15 623.29
  L 271.35 623.37
  L 272.96 622.50
  L 273.88 622.34
  L 276.16 622.74
  L 279.27 622.00
  L 282.39 621.26
  L 283.19 621.29
  L 283.76 621.28
  L 284.27 621.14
  L 285.96 620.48
  L 286.95 620.46
  L 289.59 620.70
  L 291.59 619.73
  L 292.11 619.45
  L 292.58 619.38
  L 294.29 619.14
  L 295.56 618.63
  L 296.67 618.51
  L 298.00 618.56
  L 299.37 617.82
  L 299.85 617.59
  L 306.47 616.61
  L 306.65 616.52
  L 308.03 615.51
  L 309.11 615.30
  L 309.55 615.25
  L 310.10 615.05
  L 311.17 614.48
  L 311.49 614.39
  L 311.80 614.45
  L 312.35 614.62
  L 313.26 614.65
  L 313.75 614.51
  L 314.17 614.19
  L 314.36 614.02
  L 314.86 613.83
  L 315.62 613.65
  L 316.81 613.14
  L 323.90 610.50
  L 324.61 610.31
  L 333.94 607.67
  L 336.50 606.32
  L 339.63 604.88
  L 343.85 603.60
  L 350.12 600.73
  L 350.72 600.48
  L 350.99 600.32
  L 351.69 599.92
  L 352.32 599.67
  L 352.85 599.44
  L 353.16 599.23
  L 353.66 598.85
  L 356.97 596.51
  L 358.59 595.77
  L 361.47 594.06
  L 361.55 593.96
  L 361.97 593.53
  L 362.43 593.24
  L 367.46 590.75
  L 367.75 590.55
  L 367.94 590.24
  L 368.17 589.93
  L 368.79 589.84
  L 369.32 589.81
  L 369.73 589.47
  L 371.42 587.81
  L 374.01 586.79
  L 374.83 586.37
  L 379.90 581.93
  L 384.04 579.64
  L 385.81 578.74
  L 387.86 576.33
  L 388.20 576.01
  L 388.66 575.86
  L 390.18 575.41
  L 391.93 573.67
  L 393.23 572.23
  L 397.18 568.96
  L 398.82 567.33
  L 399.21 567.04
  L 399.65 566.93
  L 401.12 566.44
  L 402.29 565.00
  L 402.56 564.60
  L 402.91 564.33
  L 405.59 561.93
  L 407.80 559.82
  L 410.62 556.92
  L 412.12 555.14
  L 420.46 547.95
  L 420.52 547.90
  Z"
/>
<path fill="#244139" d="
  M 231.69 583.47
  L 235.03 583.58
  L 236.29 584.12
  L 236.32 584.16
  L 236.40 584.31
  L 235.89 585.00
  L 229.11 584.98
  L 228.48 584.82
  L 228.00 584.34
  L 227.80 584.01
  L 227.72 583.59
  L 228.13 583.45
  L 231.69 583.47
  Z"
/>
<path fill="#244139" d="
  M 121.35 592.08
  L 122.25 591.94
  L 123.78 592.58
  L 124.14 592.84
  L 124.63 593.07
  L 128.54 595.01
  L 134.04 597.57
  L 134.06 597.58
  L 134.55 597.82
  L 134.89 598.16
  L 136.50 599.44
  L 138.39 599.70
  L 138.75 599.79
  L 138.87 600.14
  L 138.92 600.42
  L 139.46 600.70
  L 140.63 600.78
  L 140.93 601.67
  L 141.35 602.07
  L 141.38 602.07
  L 141.89 601.86
  L 141.89 601.86
  L 142.35 601.69
  L 142.74 601.98
  L 144.58 603.42
  L 146.58 603.35
  L 147.05 603.28
  L 147.45 603.36
  L 147.91 603.72
  L 147.92 604.29
  L 147.93 604.69
  L 148.27 604.89
  L 148.66 604.85
  L 148.82 604.69
  L 149.28 604.30
  L 149.85 604.32
  L 152.84 605.66
  L 155.55 606.88
  L 159.01 607.98
  L 159.87 608.63
  L 159.70 610.05
  L 158.10 609.72
  L 157.78 609.60
  L 141.73 602.69
  L 128.44 596.06
  L 121.35 592.08
  Z"
/>
<path fill="#244139" d="
  M 162.46 611.00
  L 160.42 610.51
  L 161.13 610.44
  L 161.30 610.40
  L 161.23 610.23
  L 161.02 610.00
  L 161.28 609.13
  L 161.52 609.12
  L 162.08 609.30
  L 162.55 609.61
  L 162.73 610.41
  L 162.46 611.00
  Z"
/>
<path fill="#244139" d="
  M 165.96 612.57
  L 162.46 611.00
  L 164.03 610.47
  L 164.08 610.42
  L 164.42 610.22
  L 164.78 610.38
  L 164.91 610.53
  L 165.08 610.90
  L 165.08 611.06
  L 164.96 611.20
  L 164.74 611.34
  L 164.72 611.51
  L 164.74 611.53
  L 166.02 611.43
  L 168.22 611.30
  L 168.48 611.41
  L 168.83 611.77
  L 168.46 612.12
  L 165.96 612.57
  Z"
/>
<path fill="#244139" d="
  M 177.72 616.09
  L 170.36 614.09
  L 170.44 614.07
  L 172.10 614.26
  L 172.29 614.28
  L 172.22 614.11
  L 171.41 613.43
  L 170.27 613.33
  L 169.98 613.28
  L 169.88 613.00
  L 169.86 612.72
  L 169.88 612.47
  L 170.34 611.97
  L 171.01 612.05
  L 173.36 613.34
  L 176.99 614.32
  L 177.73 614.69
  L 177.72 616.09
  Z"
/>
<path fill="#244139" d="
  M 181.18 617.02
  L 179.19 616.83
  L 177.72 616.09
  L 178.94 615.57
  L 179.25 615.35
  L 179.66 615.16
  L 180.12 615.17
  L 180.49 615.33
  L 181.18 617.02
  Z"
/>
<path fill="#244139" d="
  M 228.34 624.94
  L 227.38 624.98
  L 220.58 624.75
  L 220.26 624.69
  L 214.04 623.82
  L 208.83 623.11
  L 200.96 621.93
  L 196.46 621.00
  L 192.05 620.07
  L 186.83 618.76
  L 182.23 617.56
  L 182.62 617.38
  L 182.79 617.30
  L 182.86 617.13
  L 183.05 616.62
  L 183.11 616.53
  L 183.44 616.26
  L 183.88 616.26
  L 189.45 617.62
  L 203.13 620.36
  L 204.38 621.04
  L 204.76 621.23
  L 205.14 621.24
  L 208.25 621.35
  L 210.30 622.16
  L 210.76 622.34
  L 211.29 622.38
  L 214.43 622.46
  L 217.84 623.37
  L 218.29 623.48
  L 218.85 623.44
  L 221.50 623.30
  L 223.75 624.03
  L 224.75 623.94
  L 224.90 623.86
  L 225.02 623.73
  L 225.68 623.62
  L 225.70 623.64
  L 225.74 623.67
  L 228.34 624.94
  Z"
/>
<path fill="#244139" d="
  M 255.78 625.15
  L 255.49 625.13
  L 254.72 625.69
  L 254.37 625.99
  L 253.94 626.09
  L 233.37 626.07
  L 232.93 625.99
  L 232.59 625.80
  L 232.09 625.47
  L 230.76 625.04
  L 233.50 624.30
  L 243.81 623.99
  L 250.48 624.12
  L 251.89 624.09
  L 254.27 624.26
  L 255.78 625.15
  Z"
/>
</svg>
