<?xml version="1.0" encoding="UTF-8" standalone="no"?>
<!DOCTYPE svg PUBLIC "-//W3C//DTD SVG 1.1//EN" "http://www.w3.org/Graphics/SVG/1.1/DTD/svg11.dtd">
<svg xmlns="http://www.w3.org/2000/svg" version="1.1" viewBox="0.00 0.00 522.00 575.00">
<path fill="#143a1f" d="
  M 273.54 23.79
  L 273.10 24.24
  L 272.79 25.37
  L 272.89 173.51
  L 272.79 196.33
  L 272.68 219.01
  L 272.78 219.86
  L 273.09 219.06
  L 292.53 139.52
  L 293.92 136.23
  L 296.09 134.01
  L 298.80 132.84
  L 301.83 132.67
  L 304.98 133.48
  L 308.02 135.23
  L 310.09 138.40
  L 310.84 142.17
  L 310.22 146.50
  L 303.45 174.39
  L 296.77 202.15
  L 292.89 215.82
  L 292.76 216.84
  L 293.49 216.11
  L 298.97 208.94
  L 303.95 203.47
  L 310.00 198.27
  L 316.61 193.77
  L 324.16 189.68
  L 324.63 188.94
  L 324.77 74.12
  L 324.03 73.17
  L 323.29 73.21
  L 322.62 74.20
  L 314.14 109.18
  L 310.90 112.72
  L 307.26 114.45
  L 306.52 114.58
  L 304.43 114.61
  L 301.45 113.86
  L 298.91 112.26
  L 297.01 109.99
  L 295.94 107.19
  L 296.02 103.48
  L 307.62 58.31
  L 309.90 52.45
  L 312.11 50.46
  L 314.86 49.31
  L 318.17 48.97
  L 321.41 49.57
  L 323.56 50.92
  L 324.47 51.61
  L 324.96 51.76
  L 325.10 51.27
  L 324.84 36.24
  L 325.32 21.77
  L 330.53 19.41
  L 335.29 18.13
  L 336.54 18.03
  L 339.49 18.62
  L 340.93 19.02
  L 344.00 20.15
  L 346.39 21.81
  L 348.56 24.51
  L 349.96 27.77
  L 350.78 31.85
  L 351.03 36.86
  L 351.09 86.38
  L 351.13 142.25
  L 351.00 217.18
  L 351.04 259.99
  L 351.54 279.97
  L 353.85 289.97
  L 353.85 289.97
  L 356.76 296.96
  L 360.69 303.61
  L 366.38 310.01
  L 369.24 312.95
  L 370.57 313.74
  L 371.01 312.26
  L 371.02 77.00
  L 371.46 70.15
  L 373.16 65.53
  L 376.99 61.69
  L 378.58 60.80
  L 383.06 59.86
  L 387.53 60.72
  L 391.67 63.26
  L 394.52 67.12
  L 395.63 71.50
  L 396.01 78.10
  L 396.01 129.78
  L 396.37 130.65
  L 397.24 131.01
  L 421.50 131.02
  L 424.62 131.42
  L 427.09 132.54
  L 429.52 134.94
  L 431.29 138.72
  L 432.27 143.54
  L 432.68 150.05
  L 432.43 150.13
  L 432.37 150.21
  L 432.27 177.54
  L 432.57 178.43
  L 433.49 178.66
  L 439.97 178.35
  L 445.36 178.43
  L 445.38 178.43
  L 458.72 178.31
  L 460.44 178.77
  L 463.90 179.96
  L 466.60 181.89
  L 468.58 184.27
  L 468.58 184.27
  L 468.58 184.27
  L 469.81 187.01
  L 470.36 190.18
  L 470.36 285.74
  L 470.08 310.75
  L 470.23 311.22
  L 470.68 311.38
  L 471.10 311.37
  L 473.43 310.17
  L 479.49 303.34
  L 484.25 295.83
  L 488.08 286.44
  L 490.21 276.16
  L 490.68 203.50
  L 490.59 194.45
  L 490.52 179.50
  L 490.73 144.00
  L 490.08 102.53
  L 490.97 97.66
  L 492.46 93.68
  L 494.51 90.62
  L 497.32 88.34
  L 499.93 87.33
  L 503.04 86.98
  L 507.06 87.49
  L 510.46 88.97
  L 514.18 92.68
  L 516.68 98.29
  L 516.23 150.55
  L 516.37 179.99
  L 516.48 218.76
  L 516.78 270.98
  L 516.11 282.68
  L 514.99 289.32
  L 513.28 295.73
  L 509.38 305.49
  L 504.13 314.56
  L 497.42 323.10
  L 489.48 330.75
  L 482.88 335.63
  L 473.28 342.85
  L 465.34 350.53
  L 459.08 358.47
  L 453.46 368.29
  L 448.88 379.78
  L 449.29 380.68
  L 460.11 385.29
  L 467.96 389.15
  L 475.39 393.63
  L 475.39 393.63
  L 482.55 398.85
  L 489.27 404.73
  L 499.12 416.40
  L 504.91 424.96
  L 510.50 435.63
  L 513.51 442.79
  L 515.93 450.11
  L 515.93 450.11
  L 517.91 458.33
  L 519.19 466.75
  L 520.10 484.80
  L 518.80 502.10
  L 517.38 509.98
  L 515.38 517.68
  L 512.90 524.75
  L 509.83 531.53
  L 506.23 537.78
  L 502.47 542.76
  L 499.86 545.89
  L 494.18 552.13
  L 488.59 556.94
  L 480.42 562.94
  L 472.11 567.33
  L 463.30 570.53
  L 454.08 572.53
  L 444.53 573.34
  L 416.98 573.46
  L 346.03 573.48
  L 192.26 573.50
  L 81.99 573.44
  L 79.52 573.25
  L 77.05 573.77
  L 68.81 572.83
  L 60.83 571.01
  L 60.83 571.01
  L 49.79 566.86
  L 39.28 560.90
  L 32.08 555.46
  L 25.60 549.29
  L 19.68 542.23
  L 14.60 534.56
  L 10.38 526.37
  L 7.07 517.74
  L 4.70 508.76
  L 3.31 499.51
  L 2.77 488.27
  L 3.37 477.42
  L 5.08 467.22
  L 7.94 457.36
  L 10.77 450.38
  L 14.25 443.57
  L 18.39 436.93
  L 23.20 430.45
  L 29.21 423.58
  L 35.64 417.39
  L 42.47 411.89
  L 49.72 407.07
  L 49.72 407.07
  L 57.75 402.75
  L 66.24 399.18
  L 75.17 396.36
  L 84.56 394.29
  L 87.75 393.89
  L 88.67 393.46
  L 89.06 392.51
  L 88.92 366.50
  L 87.75 360.80
  L 84.65 354.07
  L 79.85 346.92
  L 74.26 340.80
  L 73.40 340.46
  L 72.53 340.77
  L 67.85 344.62
  L 62.87 347.98
  L 56.81 350.82
  L 50.01 352.98
  L 42.36 354.54
  L 37.65 355.00
  L 33.68 354.74
  L 30.45 353.65
  L 28.41 351.94
  L 27.38 350.01
  L 26.94 347.46
  L 27.51 343.10
  L 28.83 340.26
  L 30.91 337.67
  L 32.67 335.73
  L 32.54 335.20
  L 32.46 335.18
  L 31.91 335.09
  L 27.74 334.01
  L 23.29 332.11
  L 13.90 325.93
  L 8.68 320.56
  L 4.22 313.73
  L 2.17 308.06
  L 2.00 305.75
  L 2.42 303.69
  L 3.94 300.94
  L 6.12 298.72
  L 8.81 297.08
  L 12.27 295.86
  L 16.08 295.17
  L 25.72 295.16
  L 37.50 296.99
  L 39.74 297.01
  L 40.52 296.78
  L 41.00 296.03
  L 41.34 290.39
  L 41.88 288.39
  L 43.53 285.07
  L 45.75 283.02
  L 49.61 281.94
  L 54.57 282.70
  L 60.40 285.31
  L 66.34 289.34
  L 72.17 295.12
  L 76.68 302.08
  L 79.37 309.62
  L 80.03 317.00
  L 80.44 318.54
  L 82.26 321.05
  L 86.33 325.03
  L 88.24 326.85
  L 89.07 327.61
  L 89.48 327.63
  L 89.65 327.25
  L 89.35 325.99
  L 88.80 326.01
  L 89.03 320.88
  L 89.00 281.75
  L 88.27 276.85
  L 86.11 271.58
  L 82.43 265.81
  L 76.60 258.54
  L 73.02 254.19
  L 71.63 254.05
  L 71.60 254.08
  L 68.81 256.76
  L 62.75 262.22
  L 56.54 266.18
  L 49.96 269.11
  L 43.27 270.95
  L 39.03 271.44
  L 35.24 271.17
  L 32.39 270.20
  L 30.22 268.35
  L 29.22 266.17
  L 29.03 263.23
  L 28.70 262.27
  L 27.77 261.86
  L 27.67 261.86
  L 19.60 261.57
  L 11.97 259.81
  L 6.79 256.99
  L 5.16 255.25
  L 4.11 253.19
  L 4.11 253.18
  L 3.78 250.22
  L 4.59 247.56
  L 6.71 244.79
  L 9.88 242.31
  L 14.07 240.04
  L 14.72 239.41
  L 14.26 238.61
  L 8.70 232.85
  L 4.15 226.13
  L 1.27 219.51
  L 0.17 213.41
  L 0.67 208.98
  L 2.38 205.88
  L 4.36 204.30
  L 6.82 203.33
  L 13.44 202.93
  L 22.24 204.68
  L 31.95 208.26
  L 32.95 208.24
  L 33.57 207.46
  L 33.60 207.23
  L 34.02 197.50
  L 35.26 193.48
  L 38.11 190.24
  L 41.97 188.32
  L 46.23 188.29
  L 47.69 188.82
  L 57.87 195.30
  L 58.07 195.44
  L 65.17 201.62
  L 65.17 201.62
  L 69.25 206.57
  L 72.71 212.11
  L 74.08 215.08
  L 75.99 222.97
  L 76.82 227.43
  L 76.84 227.93
  L 76.71 228.32
  L 76.32 230.58
  L 78.03 232.73
  L 83.14 236.72
  L 86.76 241.00
  L 88.38 242.48
  L 88.99 240.37
  L 89.06 215.70
  L 88.68 211.72
  L 87.69 208.50
  L 84.20 202.90
  L 78.94 197.49
  L 72.57 192.89
  L 65.54 189.41
  L 61.74 187.77
  L 59.21 186.06
  L 56.79 183.14
  L 55.22 179.62
  L 54.99 176.29
  L 54.99 176.29
  L 55.69 173.91
  L 57.14 171.64
  L 62.28 167.39
  L 64.61 167.20
  L 70.85 168.15
  L 77.12 171.20
  L 84.15 176.12
  L 89.39 180.56
  L 89.67 180.70
  L 89.78 180.40
  L 89.92 176.47
  L 89.79 168.99
  L 88.40 163.14
  L 84.83 156.79
  L 79.15 149.89
  L 70.73 141.61
  L 70.04 140.97
  L 58.25 129.44
  L 47.06 117.53
  L 45.76 116.95
  L 44.46 117.53
  L 44.46 117.53
  L 36.41 126.36
  L 36.08 127.24
  L 36.44 128.10
  L 61.34 152.66
  L 62.12 153.62
  L 62.46 154.29
  L 62.56 154.74
  L 62.47 155.24
  L 61.15 157.94
  L 59.50 160.01
  L 52.97 165.11
  L 46.95 167.29
  L 43.27 168.01
  L 39.56 168.06
  L 31.12 168.01
  L 25.35 167.18
  L 20.08 165.36
  L 15.66 162.88
  L 12.56 159.91
  L 11.04 156.75
  L 10.76 153.75
  L 11.68 150.05
  L 14.18 146.35
  L 17.82 143.28
  L 22.46 140.87
  L 23.28 140.02
  L 23.14 138.85
  L 23.14 138.85
  L 22.97 138.64
  L 16.83 130.91
  L 12.13 122.37
  L 9.53 114.27
  L 9.01 106.75
  L 9.91 103.95
  L 11.87 101.45
  L 14.76 99.30
  L 17.77 98.15
  L 23.84 98.28
  L 30.54 100.73
  L 38.22 105.69
  L 46.52 112.97
  L 48.71 113.62
  L 48.65 114.63
  L 49.51 113.34
  L 49.59 113.15
  L 49.68 112.62
  L 49.37 101.96
  L 49.37 101.96
  L 50.38 97.26
  L 52.18 94.28
  L 55.13 92.39
  L 59.33 92.32
  L 64.29 94.62
  L 69.89 99.21
  L 76.01 105.92
  L 76.44 106.19
  L 76.71 105.75
  L 76.84 105.08
  L 76.52 98.47
  L 76.02 94.66
  L 75.53 91.24
  L 75.04 87.42
  L 74.93 84.61
  L 74.80 79.12
  L 75.24 75.14
  L 76.42 72.00
  L 78.13 70.13
  L 80.29 69.22
  L 83.19 69.11
  L 84.78 69.64
  L 87.57 70.23
  L 88.13 70.06
  L 88.53 69.76
  L 88.71 69.33
  L 90.61 62.63
  L 92.61 58.58
  L 94.96 55.54
  L 97.91 53.32
  L 100.95 52.23
  L 104.08 52.29
  L 106.73 53.45
  L 109.18 55.79
  L 112.08 60.10
  L 114.35 64.68
  L 116.09 69.97
  L 116.97 70.42
  L 117.05 70.38
  L 120.58 69.13
  L 123.81 69.35
  L 126.04 70.44
  L 127.87 72.22
  L 129.18 74.59
  L 129.88 77.43
  L 129.37 82.54
  L 129.08 87.01
  L 128.78 91.38
  L 128.05 96.96
  L 126.83 104.48
  L 127.03 106.27
  L 126.47 106.66
  L 126.39 107.24
  L 126.64 107.70
  L 127.17 107.72
  L 127.30 107.66
  L 127.45 107.55
  L 127.56 107.41
  L 127.63 107.16
  L 127.76 106.80
  L 127.85 106.84
  L 129.80 104.76
  L 139.14 95.59
  L 142.85 93.10
  L 145.85 92.01
  L 148.69 91.93
  L 150.89 92.68
  L 152.99 94.74
  L 154.44 98.32
  L 155.06 103.07
  L 155.03 109.58
  L 154.97 111.63
  L 155.70 113.35
  L 157.01 113.98
  L 158.59 113.12
  L 165.44 106.67
  L 173.12 101.31
  L 174.55 100.53
  L 180.73 98.45
  L 187.74 98.03
  L 189.65 98.34
  L 193.16 100.27
  L 195.94 103.93
  L 197.20 109.11
  L 196.46 115.53
  L 193.60 123.43
  L 189.04 131.52
  L 186.49 134.86
  L 182.92 139.65
  L 182.90 139.69
  L 183.21 140.63
  L 190.45 145.04
  L 192.90 147.52
  L 194.82 150.49
  L 195.72 152.76
  L 195.57 154.41
  L 195.71 155.56
  L 192.39 160.66
  L 187.85 164.23
  L 181.90 166.57
  L 174.29 167.77
  L 164.25 167.93
  L 156.13 166.66
  L 150.05 164.02
  L 144.59 158.06
  L 143.52 156.43
  L 142.97 154.37
  L 144.06 152.53
  L 169.91 127.05
  L 170.09 126.67
  L 169.91 126.28
  L 160.88 116.59
  L 159.81 116.11
  L 158.73 116.54
  L 158.71 116.56
  L 127.48 147.23
  L 122.19 152.70
  L 117.95 157.98
  L 116.65 159.99
  L 114.74 164.12
  L 113.48 169.04
  L 112.97 174.40
  L 113.09 180.67
  L 113.55 180.95
  L 113.65 180.88
  L 121.25 174.43
  L 129.70 169.70
  L 137.45 167.52
  L 141.00 167.36
  L 144.44 167.85
  L 147.86 170.33
  L 150.07 173.59
  L 150.97 177.28
  L 150.45 181.00
  L 149.19 183.43
  L 147.16 185.57
  L 143.68 187.56
  L 138.03 189.54
  L 135.54 190.34
  L 129.90 192.85
  L 124.31 196.53
  L 119.37 201.08
  L 115.70 205.86
  L 114.50 208.57
  L 113.67 212.45
  L 113.33 223.09
  L 113.33 223.25
  L 113.46 228.94
  L 113.75 262.92
  L 113.26 290.15
  L 113.63 291.44
  L 114.80 290.80
  L 122.15 283.33
  L 123.04 280.99
  L 122.49 277.66
  L 121.94 273.96
  L 122.27 268.08
  L 123.26 262.35
  L 124.90 256.83
  L 127.15 251.59
  L 129.93 246.82
  L 133.26 242.42
  L 137.13 238.47
  L 141.52 235.02
  L 148.92 230.97
  L 151.74 230.21
  L 154.26 230.37
  L 157.22 231.82
  L 159.85 234.89
  L 161.51 238.98
  L 162.00 243.25
  L 162.29 243.90
  L 162.98 244.08
  L 162.98 244.08
  L 163.16 244.02
  L 166.62 242.41
  L 174.69 238.82
  L 180.86 236.77
  L 186.34 235.86
  L 191.27 236.03
  L 194.57 236.97
  L 197.09 238.69
  L 199.20 242.05
  L 199.84 245.06
  L 199.75 248.30
  L 197.45 255.79
  L 192.22 264.44
  L 185.53 271.71
  L 185.33 272.06
  L 185.54 272.39
  L 189.69 275.45
  L 195.87 280.40
  L 197.31 282.44
  L 197.93 284.67
  L 197.65 286.65
  L 196.56 288.79
  L 192.15 293.14
  L 187.02 296.47
  L 180.94 299.22
  L 174.47 301.14
  L 167.23 302.40
  L 166.00 302.51
  L 165.91 302.67
  L 165.95 303.01
  L 166.11 303.21
  L 166.47 303.31
  L 166.51 303.82
  L 166.58 304.21
  L 166.81 304.71
  L 170.07 310.96
  L 170.56 313.42
  L 170.28 315.82
  L 169.23 318.13
  L 167.79 319.81
  L 165.75 321.07
  L 163.38 321.73
  L 156.98 321.61
  L 148.40 319.64
  L 140.53 316.40
  L 133.66 311.97
  L 128.47 306.76
  L 127.58 306.28
  L 126.62 306.62
  L 126.54 306.70
  L 121.32 313.27
  L 116.89 320.28
  L 116.89 320.28
  L 115.61 322.67
  L 114.11 328.12
  L 113.80 336.75
  L 113.66 343.23
  L 113.03 358.19
  L 113.62 378.93
  L 114.08 391.27
  L 114.79 393.37
  L 117.46 394.13
  L 118.95 394.29
  L 132.31 397.89
  L 144.90 403.06
  L 155.92 409.43
  L 165.15 416.85
  L 172.14 423.68
  L 172.99 424.54
  L 182.01 435.46
  L 189.08 447.60
  L 194.25 461.00
  L 197.28 475.17
  L 198.25 476.01
  L 215.51 476.04
  L 216.60 475.69
  L 217.00 474.62
  L 216.85 471.51
  L 209.22 396.84
  L 207.56 380.24
  L 207.22 376.54
  L 206.73 368.25
  L 207.48 358.64
  L 209.07 352.81
  L 211.45 347.34
  L 214.71 342.02
  L 218.67 337.19
  L 223.34 332.82
  L 228.55 329.06
  L 234.22 325.95
  L 240.26 323.54
  L 243.21 323.01
  L 243.41 322.98
  L 243.99 322.50
  L 243.97 321.74
  L 242.85 316.57
  L 242.67 314.86
  L 239.09 295.21
  L 235.18 280.15
  L 232.09 271.05
  L 226.85 258.93
  L 220.39 247.60
  L 220.39 247.60
  L 211.09 235.08
  L 200.06 223.68
  L 188.48 213.76
  L 176.75 204.98
  L 173.32 202.10
  L 170.69 198.74
  L 169.26 195.40
  L 168.99 191.88
  L 169.97 188.57
  L 172.32 185.28
  L 175.80 182.48
  L 179.53 181.08
  L 179.53 181.08
  L 183.16 181.01
  L 187.01 182.11
  L 200.97 191.57
  L 213.47 202.52
  L 213.47 202.52
  L 223.62 213.84
  L 224.27 214.40
  L 224.18 213.55
  L 216.17 184.92
  L 215.05 178.50
  L 215.67 175.88
  L 218.11 172.72
  L 221.73 170.87
  L 226.15 170.43
  L 230.27 171.72
  L 233.32 174.94
  L 235.14 180.11
  L 238.29 192.82
  L 241.11 204.16
  L 248.92 241.28
  L 249.26 242.44
  L 249.25 241.23
  L 248.87 232.50
  L 248.16 167.30
  L 248.07 78.12
  L 248.09 23.15
  L 247.61 22.48
  L 247.41 16.17
  L 247.85 13.31
  L 248.87 9.17
  L 252.54 4.99
  L 255.01 3.55
  L 257.67 2.73
  L 262.05 2.71
  L 266.24 4.27
  L 269.62 7.15
  L 272.14 11.37
  L 273.01 15.45
  L 272.96 21.45
  L 272.88 23.00
  L 273.07 23.63
  L 273.54 23.79
  Z
  M 409.71 354.50
  L 409.75 157.26
  L 408.76 156.27
  L 396.49 156.26
  L 395.55 156.57
  L 395.24 157.51
  L 395.29 333.80
  L 395.57 335.25
  L 396.41 336.47
  L 401.16 342.05
  L 406.36 350.07
  L 409.21 354.65
  L 409.58 355.00
  L 409.71 354.50
  Z
  M 436.82 345.80
  L 444.28 335.07
  L 445.68 332.62
  L 446.52 326.75
  L 446.54 204.54
  L 446.23 204.22
  L 446.23 204.22
  L 433.01 204.26
  L 432.64 204.62
  L 432.64 204.62
  L 432.60 352.37
  L 432.66 352.60
  L 432.86 352.46
  L 436.82 345.80
  Z
  M 276.89 319.82
  L 276.39 321.41
  L 276.48 321.65
  L 276.60 321.77
  L 276.73 321.67
  L 276.89 321.45
  L 277.04 322.34
  L 277.04 322.35
  L 277.70 322.81
  L 286.56 326.14
  L 294.29 330.72
  L 300.80 336.46
  L 305.98 343.25
  L 309.29 349.84
  L 311.47 357.06
  L 312.45 364.54
  L 312.28 372.50
  L 308.89 407.23
  L 307.78 418.04
  L 304.23 457.27
  L 303.75 462.08
  L 303.07 474.89
  L 303.45 475.69
  L 304.27 476.01
  L 320.72 476.01
  L 321.48 475.70
  L 321.81 474.95
  L 322.54 465.25
  L 324.07 455.84
  L 326.37 446.76
  L 329.44 438.05
  L 333.24 429.74
  L 337.76 421.87
  L 342.97 414.50
  L 348.86 407.64
  L 358.11 399.07
  L 368.55 391.69
  L 379.86 385.72
  L 392.22 381.07
  L 393.11 380.28
  L 393.11 379.10
  L 393.02 378.93
  L 392.07 376.99
  L 387.51 366.97
  L 380.93 356.82
  L 376.39 351.51
  L 370.86 346.15
  L 354.44 333.14
  L 349.42 329.37
  L 341.95 322.33
  L 335.34 313.23
  L 329.98 302.60
  L 326.39 291.31
  L 325.36 283.94
  L 325.00 274.08
  L 324.98 247.64
  L 325.00 221.20
  L 324.87 220.81
  L 324.49 220.69
  L 321.01 222.49
  L 315.24 228.09
  L 313.32 230.08
  L 305.59 239.24
  L 295.49 254.46
  L 289.58 266.30
  L 287.60 271.52
  L 287.60 271.52
  L 283.80 283.19
  L 280.74 295.13
  L 278.44 307.34
  L 276.89 319.82
  Z
  M 257.05 345.07
  L 252.17 346.11
  L 247.82 347.70
  L 244.01 349.83
  L 240.72 352.50
  L 236.24 358.50
  L 233.39 366.17
  L 233.82 366.78
  L 233.88 366.78
  L 247.40 366.70
  L 253.49 367.51
  L 255.74 368.97
  L 257.64 371.82
  L 258.30 375.24
  L 257.76 379.10
  L 256.05 382.56
  L 253.32 384.62
  L 248.69 385.75
  L 242.50 385.91
  L 234.50 385.17
  L 234.41 385.16
  L 234.34 385.16
  L 233.81 385.78
  L 237.64 413.25
  L 237.82 413.62
  L 238.24 413.76
  L 242.07 413.66
  L 250.54 413.70
  L 255.59 415.02
  L 258.16 417.07
  L 259.81 419.72
  L 260.46 423.85
  L 259.17 428.09
  L 256.69 431.02
  L 254.26 432.39
  L 251.53 433.09
  L 243.52 433.07
  L 240.11 432.87
  L 240.10 432.87
  L 239.92 433.07
  L 246.19 490.09
  L 250.51 527.99
  L 250.69 529.83
  L 251.37 535.39
  L 252.40 539.37
  L 254.08 542.49
  L 256.17 544.39
  L 258.32 545.25
  L 260.99 545.50
  L 263.70 544.66
  L 265.83 543.22
  L 267.77 540.38
  L 268.70 536.48
  L 271.78 510.62
  L 274.95 484.20
  L 279.11 444.86
  L 285.62 380.99
  L 285.98 370.02
  L 285.33 365.46
  L 283.93 361.22
  L 282.03 357.59
  L 279.59 354.34
  L 276.68 351.50
  L 273.36 349.12
  L 269.67 347.24
  L 265.69 345.91
  L 261.46 345.17
  L 257.05 345.07
  Z
  M 369.73 476.03
  L 453.34 476.03
  L 468.54 475.98
  L 491.77 476.07
  L 492.09 475.96
  L 492.18 475.66
  L 490.95 463.49
  L 489.08 455.81
  L 486.43 448.43
  L 482.89 441.15
  L 478.59 434.28
  L 473.58 427.87
  L 467.92 421.98
  L 461.66 416.64
  L 454.84 411.90
  L 452.03 410.26
  L 441.44 405.79
  L 429.72 403.39
  L 420.98 402.19
  L 412.49 402.51
  L 399.61 405.37
  L 393.32 407.73
  L 387.35 410.63
  L 379.06 415.93
  L 371.63 422.29
  L 365.14 429.59
  L 359.67 437.72
  L 355.29 446.57
  L 352.07 456.03
  L 350.12 465.70
  L 349.40 475.75
  L 349.40 475.75
  L 349.73 476.08
  L 369.73 476.03
  Z
  M 93.67 420.12
  L 87.83 420.45
  L 82.03 421.48
  L 76.06 423.23
  L 70.27 425.62
  L 64.53 428.70
  L 59.14 432.29
  L 54.19 436.34
  L 49.75 440.75
  L 40.86 452.12
  L 37.62 457.73
  L 35.00 463.62
  L 33.19 469.26
  L 31.90 475.28
  L 32.41 475.95
  L 32.46 475.95
  L 124.98 476.17
  L 144.49 476.00
  L 168.99 476.04
  L 169.01 476.04
  L 169.54 475.44
  L 169.05 472.00
  L 167.66 467.31
  L 164.55 460.32
  L 160.92 453.81
  L 156.78 447.77
  L 152.12 442.22
  L 152.12 442.22
  L 146.95 437.15
  L 141.28 432.57
  L 135.09 428.46
  L 128.38 424.82
  L 122.06 422.39
  L 117.13 421.33
  L 112.02 420.91
  L 103.11 419.58
  L 93.67 420.12
  Z
  M 60.63 543.19
  L 63.07 544.26
  L 68.31 545.96
  L 74.23 547.06
  L 90.63 547.71
  L 91.00 547.71
  L 226.05 547.78
  L 226.51 547.29
  L 226.51 547.26
  L 220.61 502.54
  L 220.51 502.32
  L 220.28 502.25
  L 31.74 502.24
  L 31.36 502.66
  L 31.36 502.69
  L 32.91 509.19
  L 35.15 515.47
  L 38.05 521.46
  L 41.60 527.05
  L 45.64 532.03
  L 50.26 536.47
  L 55.20 540.14
  L 60.63 543.19
  Z
  M 297.86 511.88
  L 293.41 547.29
  L 293.41 547.31
  L 293.75 547.67
  L 370.78 547.62
  L 439.25 547.66
  L 446.17 547.28
  L 452.65 546.13
  L 458.94 544.16
  L 464.75 541.45
  L 469.58 538.41
  L 473.99 534.83
  L 478.00 530.76
  L 481.59 526.22
  L 487.71 515.51
  L 492.01 503.29
  L 491.95 502.55
  L 491.26 502.31
  L 299.22 502.18
  L 298.74 502.34
  L 298.57 502.81
  L 297.86 511.88
  Z"
/>
<path fill="#b1c57d" d="
  M 247.41 16.17
  L 247.61 22.48
  L 247.40 21.94
  L 247.40 21.94
  L 246.96 19.21
  L 247.41 16.17
  Z"
/>
<path fill="#b1c57d" d="
  M 248.09 23.15
  L 248.07 78.12
  L 248.16 167.30
  L 248.87 232.50
  L 249.25 241.23
  L 249.26 242.44
  L 248.92 241.28
  L 241.11 204.16
  L 238.29 192.82
  L 235.14 180.11
  L 233.32 174.94
  L 230.27 171.72
  L 226.15 170.43
  L 221.73 170.87
  L 218.11 172.72
  L 215.67 175.88
  L 215.05 178.50
  L 216.17 184.92
  L 224.18 213.55
  L 224.27 214.40
  L 223.62 213.84
  L 213.47 202.52
  L 213.47 202.52
  L 200.97 191.57
  L 187.01 182.11
  L 194.03 174.91
  L 197.62 170.89
  L 199.87 168.71
  L 205.80 162.69
  L 209.12 158.17
  L 211.03 152.48
  L 210.77 146.90
  L 208.45 141.09
  L 204.40 135.77
  L 198.76 131.05
  L 198.53 130.75
  L 198.73 130.44
  L 205.23 124.73
  L 209.86 119.24
  L 212.98 113.18
  L 212.98 113.18
  L 212.98 113.18
  L 214.27 108.53
  L 214.80 103.59
  L 218.94 100.70
  L 221.16 97.19
  L 221.16 97.19
  L 221.57 94.60
  L 221.19 91.75
  L 211.74 56.26
  L 209.67 52.47
  L 207.80 50.97
  L 205.63 50.04
  L 202.97 49.61
  L 200.27 49.80
  L 197.57 50.61
  L 195.25 52.00
  L 193.70 53.68
  L 192.79 55.72
  L 192.86 59.06
  L 200.88 89.23
  L 195.87 85.44
  L 189.39 82.72
  L 181.95 81.25
  L 173.76 81.03
  L 171.63 80.43
  L 170.81 78.00
  L 171.01 34.53
  L 171.34 29.95
  L 172.33 26.70
  L 174.46 23.67
  L 177.73 21.23
  L 181.75 19.78
  L 182.93 19.48
  L 186.46 18.97
  L 191.06 19.65
  L 195.10 20.90
  L 198.83 22.77
  L 202.28 25.15
  L 210.39 32.87
  L 213.66 37.06
  L 216.47 42.22
  L 218.82 48.35
  L 220.70 55.45
  L 220.72 55.52
  L 221.27 55.67
  L 221.56 55.47
  L 221.98 54.60
  L 222.33 47.00
  L 224.30 40.02
  L 227.78 33.95
  L 232.70 29.06
  L 238.62 25.77
  L 245.68 24.04
  L 248.09 23.15
  Z"
/>
<path fill="#b1c57d" d="
  M 325.32 21.77
  L 324.84 36.24
  L 325.10 51.27
  L 324.96 51.76
  L 324.47 51.61
  L 323.56 50.92
  L 321.41 49.57
  L 318.17 48.97
  L 314.86 49.31
  L 312.11 50.46
  L 309.90 52.45
  L 307.62 58.31
  L 296.02 103.48
  L 295.94 107.19
  L 297.01 109.99
  L 298.91 112.26
  L 301.45 113.86
  L 304.43 114.61
  L 306.52 114.58
  L 307.26 114.45
  L 310.90 112.72
  L 314.14 109.18
  L 310.48 126.00
  L 308.02 135.23
  L 304.98 133.48
  L 301.83 132.67
  L 298.80 132.84
  L 296.09 134.01
  L 293.92 136.23
  L 292.53 139.52
  L 273.09 219.06
  L 272.78 219.86
  L 272.68 219.01
  L 272.79 196.33
  L 272.89 173.51
  L 272.79 25.37
  L 273.10 24.24
  L 273.54 23.79
  L 279.19 24.93
  L 283.62 26.34
  L 288.80 29.38
  L 293.07 33.54
  L 296.47 38.86
  L 298.68 44.91
  L 299.05 47.64
  L 299.62 51.31
  L 299.98 52.92
  L 300.00 56.26
  L 300.00 56.27
  L 300.04 56.41
  L 300.17 56.47
  L 300.45 56.49
  L 300.79 56.42
  L 300.96 56.11
  L 303.07 47.58
  L 306.26 40.01
  L 310.58 33.37
  L 315.75 28.15
  L 325.32 21.77
  Z"
/>
<path fill="#143a1f" d="
  M 214.80 103.59
  L 211.08 98.54
  L 204.28 92.14
  L 200.88 89.23
  L 192.86 59.06
  L 192.79 55.72
  L 193.70 53.68
  L 195.25 52.00
  L 197.57 50.61
  L 200.27 49.80
  L 202.97 49.61
  L 205.63 50.04
  L 207.80 50.97
  L 209.67 52.47
  L 211.74 56.26
  L 221.19 91.75
  L 221.57 94.60
  L 221.16 97.19
  L 221.16 97.19
  L 221.16 97.19
  L 218.94 100.70
  L 214.80 103.59
  Z"
/>
<path fill="#567817" d="
  M 308.02 135.23
  L 310.48 126.00
  L 314.14 109.18
  L 322.62 74.20
  L 323.29 73.21
  L 324.03 73.17
  L 324.77 74.12
  L 324.63 188.94
  L 324.16 189.68
  L 316.61 193.77
  L 310.00 198.27
  L 303.95 203.47
  L 298.97 208.94
  L 293.49 216.11
  L 292.76 216.84
  L 292.89 215.82
  L 296.77 202.15
  L 303.45 174.39
  L 310.22 146.50
  L 310.84 142.17
  L 310.09 138.40
  L 310.09 138.40
  L 308.02 135.23
  Z"
/>
<path fill="#b1c57d" d="
  M 516.68 98.29
  L 516.78 270.98
  L 516.48 218.76
  L 516.37 179.99
  L 516.23 150.55
  L 516.68 98.29
  Z"
/>
<path fill="#b1c57d" d="
  M 49.37 101.96
  L 49.68 112.62
  L 49.59 113.15
  L 49.51 113.34
  L 48.65 114.63
  L 48.71 113.62
  L 49.37 101.96
  Z"
/>
<path fill="#b1c57d" d="
  M 490.08 102.53
  L 490.73 144.00
  L 490.52 179.50
  L 490.59 194.45
  L 490.68 203.50
  L 490.21 276.16
  L 490.08 102.53
  Z"
/>
<path fill="#b1c57d" d="
  M 127.03 106.27
  L 127.85 106.84
  L 127.76 106.80
  L 127.63 107.16
  L 127.56 107.41
  L 127.45 107.55
  L 127.30 107.66
  L 127.17 107.72
  L 126.64 107.70
  L 126.39 107.24
  L 126.47 106.66
  L 127.03 106.27
  Z"
/>
<path fill="#b1c57d" d="
  M 150.05 164.02
  L 148.83 166.12
  L 146.44 167.16
  L 144.44 167.85
  L 141.00 167.36
  L 137.45 167.52
  L 129.70 169.70
  L 121.25 174.43
  L 113.65 180.88
  L 113.55 180.95
  L 113.09 180.67
  L 112.97 174.40
  L 113.48 169.04
  L 114.74 164.12
  L 116.65 159.99
  L 117.95 157.98
  L 122.19 152.70
  L 127.48 147.23
  L 158.71 116.56
  L 158.73 116.54
  L 159.81 116.11
  L 160.88 116.59
  L 169.91 126.28
  L 170.09 126.67
  L 169.91 127.05
  L 144.06 152.53
  L 142.97 154.37
  L 143.52 156.43
  L 144.59 158.06
  L 150.05 164.02
  Z"
/>
<path fill="#b1c57d" d="
  M 62.28 167.39
  L 57.63 166.75
  L 52.97 165.11
  L 59.50 160.01
  L 61.15 157.94
  L 62.47 155.24
  L 62.56 154.74
  L 62.46 154.29
  L 62.12 153.62
  L 61.34 152.66
  L 36.44 128.10
  L 36.08 127.24
  L 36.41 126.36
  L 44.46 117.53
  L 45.41 116.99
  L 47.06 117.53
  L 58.25 129.44
  L 70.04 140.97
  L 70.73 141.61
  L 79.15 149.89
  L 84.83 156.79
  L 88.40 163.14
  L 89.79 168.99
  L 89.92 176.47
  L 89.78 180.40
  L 89.67 180.70
  L 89.39 180.56
  L 84.15 176.12
  L 77.12 171.20
  L 70.85 168.15
  L 64.61 167.20
  L 62.28 167.39
  Z"
/>
<path fill="#b1c57d" d="
  M 432.68 150.05
  L 432.80 176.32
  L 433.33 177.59
  L 434.59 178.12
  L 458.72 178.31
  L 445.38 178.43
  L 445.36 178.43
  L 439.97 178.35
  L 433.49 178.66
  L 432.57 178.43
  L 432.27 177.54
  L 432.37 150.21
  L 432.43 150.13
  L 432.68 150.05
  Z"
/>
<path fill="#b1c57d" d="
  M 195.72 152.76
  L 195.71 155.56
  L 195.57 154.41
  L 195.72 152.76
  Z"
/>
<path fill="#b1c57d" d="
  M 409.21 354.65
  L 406.36 350.07
  L 401.16 342.05
  L 396.41 336.47
  L 395.57 335.25
  L 395.29 333.80
  L 395.24 157.51
  L 395.55 156.57
  L 396.49 156.26
  L 408.76 156.27
  L 409.75 157.26
  L 409.71 354.50
  L 409.58 355.00
  L 409.21 354.65
  Z"
/>
<path fill="#b1c57d" d="
  M 470.36 190.18
  L 471.15 218.31
  L 471.12 256.61
  L 471.02 281.50
  L 470.36 285.74
  L 470.36 190.18
  Z"
/>
<path fill="#567817" d="
  M 436.82 345.80
  L 432.86 352.46
  L 432.66 352.60
  L 432.60 352.37
  L 432.64 204.62
  L 432.64 204.62
  L 433.01 204.26
  L 446.23 204.22
  L 446.54 204.54
  L 446.52 326.75
  L 445.68 332.62
  L 444.28 335.07
  L 436.82 345.80
  Z"
/>
<path fill="#b1c57d" d="
  M 167.23 302.40
  L 166.47 303.31
  L 166.11 303.21
  L 165.95 303.01
  L 165.91 302.67
  L 166.00 302.51
  L 167.23 302.40
  Z"
/>
<path fill="#b1c57d" d="
  M 276.89 319.82
  L 276.89 321.45
  L 276.73 321.67
  L 276.60 321.77
  L 276.48 321.65
  L 276.39 321.41
  L 276.89 319.82
  Z"
/>
<path fill="#b1c57d" d="
  M 88.80 326.01
  L 89.35 325.99
  L 89.65 327.25
  L 89.48 327.63
  L 89.07 327.61
  L 88.24 326.85
  L 88.80 326.01
  Z"
/>
<path fill="#bd6411" d="
  M 260.99 545.50
  L 263.28 498.97
  L 265.26 462.27
  L 265.76 451.23
  L 266.32 431.26
  L 266.74 367.09
  L 266.49 361.76
  L 265.71 357.36
  L 264.36 353.48
  L 262.28 349.96
  L 259.98 347.37
  L 257.05 345.07
  L 261.46 345.17
  L 265.69 345.91
  L 269.67 347.24
  L 273.36 349.12
  L 276.68 351.50
  L 279.59 354.34
  L 282.03 357.59
  L 283.93 361.22
  L 285.33 365.46
  L 285.98 370.02
  L 285.62 380.99
  L 279.11 444.86
  L 274.95 484.20
  L 271.78 510.62
  L 268.70 536.48
  L 267.77 540.38
  L 265.83 543.22
  L 263.70 544.66
  L 260.99 545.50
  Z"
/>
<path fill="#ff9c40" d="
  M 257.05 345.07
  L 259.98 347.37
  L 262.28 349.96
  L 264.36 353.48
  L 265.71 357.36
  L 266.49 361.76
  L 266.74 367.09
  L 266.32 431.26
  L 265.76 451.23
  L 265.26 462.27
  L 263.28 498.97
  L 260.99 545.50
  L 258.32 545.25
  L 256.17 544.39
  L 254.08 542.49
  L 252.40 539.37
  L 251.37 535.39
  L 250.69 529.83
  L 250.51 527.99
  L 246.19 490.09
  L 239.92 433.07
  L 240.10 432.87
  L 240.11 432.87
  L 243.52 433.07
  L 251.53 433.09
  L 254.26 432.39
  L 256.69 431.02
  L 259.17 428.09
  L 260.46 423.85
  L 259.81 419.72
  L 258.16 417.07
  L 255.59 415.02
  L 250.54 413.70
  L 242.07 413.66
  L 238.24 413.76
  L 237.82 413.62
  L 237.64 413.25
  L 233.81 385.78
  L 234.34 385.16
  L 234.41 385.16
  L 234.50 385.17
  L 242.63 385.92
  L 248.86 385.73
  L 253.39 384.59
  L 256.05 382.56
  L 257.76 379.10
  L 258.30 375.24
  L 257.64 371.82
  L 255.74 368.97
  L 253.49 367.51
  L 247.40 366.70
  L 233.88 366.78
  L 233.82 366.78
  L 233.39 366.17
  L 236.24 358.50
  L 240.72 352.50
  L 244.01 349.83
  L 247.82 347.70
  L 252.17 346.11
  L 257.05 345.07
  Z"
/>
<circle fill="#143a1f" cx="167.06" cy="368.21" r="14.57"/>
<ellipse fill="#143a1f" cx="0.00" cy="0.00" transform="translate(336.72,381.85) rotate(97.9)" rx="8.89" ry="8.66"/>
<ellipse fill="#143a1f" cx="0.00" cy="0.00" transform="translate(23.92,392.44) rotate(25.2)" rx="8.99" ry="8.53"/>
<path fill="#fefae7" d="
  M 429.72 403.39
  L 438.54 409.05
  L 446.29 415.30
  L 452.96 422.12
  L 458.55 429.52
  L 462.89 437.15
  L 466.10 445.14
  L 466.10 445.14
  L 468.00 452.43
  L 469.03 460.00
  L 469.22 467.85
  L 468.54 475.98
  L 453.34 476.03
  L 454.17 462.30
  L 453.73 456.06
  L 452.73 450.24
  L 450.87 444.33
  L 447.99 438.25
  L 444.39 432.58
  L 440.08 427.33
  L 435.67 423.19
  L 430.83 419.81
  L 426.04 417.55
  L 421.01 416.29
  L 415.87 415.99
  L 415.87 415.99
  L 408.45 417.03
  L 401.07 419.79
  L 391.32 425.88
  L 383.20 433.58
  L 376.73 442.82
  L 372.24 453.17
  L 369.86 464.33
  L 369.73 476.03
  L 349.73 476.08
  L 349.40 475.75
  L 349.40 475.75
  L 350.12 465.70
  L 352.07 456.03
  L 355.29 446.57
  L 359.67 437.72
  L 365.14 429.59
  L 371.63 422.29
  L 379.06 415.93
  L 387.35 410.63
  L 393.32 407.73
  L 399.61 405.37
  L 412.49 402.51
  L 420.98 402.19
  L 429.72 403.39
  Z"
/>
<path fill="#bd6411" d="
  M 429.72 403.39
  L 441.44 405.79
  L 452.03 410.26
  L 452.03 410.26
  L 454.84 411.90
  L 461.66 416.64
  L 467.92 421.98
  L 473.58 427.87
  L 478.59 434.28
  L 482.89 441.15
  L 486.43 448.43
  L 489.08 455.81
  L 490.95 463.49
  L 492.18 475.66
  L 492.09 475.96
  L 491.77 476.07
  L 468.54 475.98
  L 469.22 467.85
  L 469.03 460.00
  L 468.00 452.43
  L 466.10 445.14
  L 466.10 445.14
  L 466.10 445.14
  L 462.89 437.15
  L 458.55 429.52
  L 452.96 422.12
  L 446.29 415.30
  L 438.54 409.05
  L 429.72 403.39
  Z"
/>
<path fill="#cfa269" d="
  M 453.34 476.03
  L 369.73 476.03
  L 369.86 464.33
  L 372.24 453.17
  L 376.73 442.82
  L 383.20 433.58
  L 391.32 425.88
  L 401.07 419.79
  L 408.45 417.03
  L 415.87 415.99
  L 415.87 415.99
  L 421.01 416.29
  L 426.04 417.55
  L 430.83 419.81
  L 435.67 423.19
  L 440.08 427.33
  L 444.39 432.58
  L 447.99 438.25
  L 450.87 444.33
  L 452.73 450.24
  L 453.73 456.06
  L 454.17 462.30
  L 453.34 476.03
  Z"
/>
<path fill="#b1c57d" d="
  M 112.02 420.91
  L 116.95 424.05
  L 124.94 430.83
  L 131.94 439.23
  L 137.48 448.67
  L 141.80 459.50
  L 143.35 466.25
  L 144.46 475.69
  L 144.49 476.00
  L 124.98 476.17
  L 124.14 461.94
  L 121.54 449.61
  L 117.20 439.29
  L 114.37 434.80
  L 110.98 430.62
  L 107.13 426.90
  L 102.69 423.54
  L 93.67 420.12
  L 103.11 419.58
  L 112.02 420.91
  Z"
/>
<path fill="#fefae7" d="
  M 93.67 420.12
  L 102.69 423.54
  L 107.13 426.90
  L 110.98 430.62
  L 114.37 434.80
  L 117.20 439.29
  L 121.54 449.61
  L 124.14 461.94
  L 124.98 476.17
  L 32.46 475.95
  L 32.41 475.95
  L 31.90 475.28
  L 33.19 469.26
  L 35.00 463.62
  L 37.62 457.73
  L 40.86 452.12
  L 49.75 440.75
  L 54.19 436.34
  L 59.14 432.29
  L 64.53 428.70
  L 70.27 425.62
  L 76.06 423.23
  L 82.03 421.48
  L 87.83 420.45
  L 93.67 420.12
  Z"
/>
<path fill="#567817" d="
  M 112.02 420.91
  L 117.13 421.33
  L 122.06 422.39
  L 128.38 424.82
  L 135.09 428.46
  L 141.28 432.57
  L 146.95 437.15
  L 152.12 442.22
  L 152.12 442.22
  L 152.12 442.22
  L 156.78 447.77
  L 160.92 453.81
  L 164.55 460.32
  L 167.66 467.31
  L 169.05 472.00
  L 169.54 475.44
  L 169.01 476.04
  L 168.99 476.04
  L 144.49 476.00
  L 144.46 475.69
  L 143.35 466.25
  L 141.80 459.50
  L 137.48 448.67
  L 131.94 439.23
  L 124.94 430.83
  L 116.95 424.05
  L 112.02 420.91
  Z"
/>
<path fill="#cfa269" d="
  M 60.63 543.19
  L 55.20 540.14
  L 50.26 536.47
  L 45.64 532.03
  L 41.60 527.05
  L 38.05 521.46
  L 35.15 515.47
  L 32.91 509.19
  L 31.36 502.69
  L 31.36 502.66
  L 31.74 502.24
  L 220.28 502.25
  L 220.51 502.32
  L 220.61 502.54
  L 226.51 547.26
  L 226.51 547.29
  L 226.05 547.78
  L 91.00 547.71
  L 90.63 547.71
  L 74.23 547.06
  L 68.31 545.96
  L 63.07 544.26
  L 60.63 543.19
  Z
  M 143.2513 523.4803
  L 143.2199 519.2554
  L 141.5093 515.3373
  L 138.3799 512.3223
  L 134.3082 510.6696
  L 129.9140 510.6306
  L 125.8662 512.2115
  L 122.7813 515.1714
  L 121.1287 519.0597
  L 121.1601 523.2846
  L 122.8707 527.2027
  L 126.0001 530.2177
  L 130.0718 531.8704
  L 134.4660 531.9094
  L 138.5138 530.3285
  L 141.5987 527.3686
  L 143.2513 523.4803
  Z
  M 85.1728 526.7236
  L 85.4068 523.6241
  L 84.4141 520.6594
  L 82.3460 518.2809
  L 79.5174 516.8507
  L 76.3587 516.5866
  L 73.3510 517.5288
  L 70.9521 519.5338
  L 69.5272 522.2964
  L 69.2932 525.3959
  L 70.2859 528.3606
  L 72.3540 530.7391
  L 75.1826 532.1693
  L 78.3413 532.4334
  L 81.3490 531.4912
  L 83.7479 529.4862
  L 85.1728 526.7236
  Z
  M 190.20 524.80
  L 189.57 521.64
  L 187.78 518.97
  L 185.11 517.18
  L 181.95 516.55
  L 178.79 517.18
  L 176.12 518.97
  L 174.33 521.64
  L 173.70 524.80
  L 174.33 527.96
  L 176.12 530.63
  L 178.79 532.42
  L 181.95 533.05
  L 185.11 532.42
  L 187.78 530.63
  L 189.57 527.96
  L 190.20 524.80
  Z"
/>
<path fill="#cfa269" d="
  M 297.86 511.88
  L 298.57 502.81
  L 298.74 502.34
  L 299.22 502.18
  L 491.26 502.31
  L 491.95 502.55
  L 492.01 503.29
  L 487.71 515.51
  L 481.59 526.22
  L 478.00 530.76
  L 473.99 534.83
  L 469.58 538.41
  L 464.75 541.45
  L 458.94 544.16
  L 452.65 546.13
  L 446.17 547.28
  L 439.25 547.66
  L 370.78 547.62
  L 293.75 547.67
  L 293.41 547.31
  L 293.41 547.29
  L 297.86 511.88
  Z
  M 459.90 524.17
  L 459.25 520.89
  L 457.39 518.11
  L 454.61 516.25
  L 451.33 515.60
  L 448.05 516.25
  L 445.27 518.11
  L 443.41 520.89
  L 442.76 524.17
  L 443.41 527.45
  L 445.27 530.23
  L 448.05 532.09
  L 451.33 532.74
  L 454.61 532.09
  L 457.39 530.23
  L 459.25 527.45
  L 459.90 524.17
  Z
  M 356.9434 525.8245
  L 356.7770 522.5521
  L 355.3429 519.5824
  L 352.8594 517.3674
  L 349.7046 516.2443
  L 346.3588 516.3842
  L 343.3314 517.7658
  L 341.0832 520.1787
  L 339.9566 523.2555
  L 340.1230 526.5279
  L 341.5571 529.4976
  L 344.0406 531.7126
  L 347.1954 532.8357
  L 350.5412 532.6958
  L 353.5686 531.3142
  L 355.8168 528.9013
  L 356.9434 525.8245
  Z
  M 403.4781 532.7257
  L 406.1386 530.9688
  L 407.9163 528.2850
  L 408.5406 525.0827
  L 407.9164 521.8496
  L 406.1388 519.0779
  L 403.4784 517.1895
  L 400.3402 516.4718
  L 397.2019 517.0343
  L 394.5414 518.7912
  L 392.7637 521.4750
  L 392.1394 524.6773
  L 392.7636 527.9104
  L 394.5412 530.6821
  L 397.2016 532.5705
  L 400.3398 533.2882
  L 403.4781 532.7257
  Z"
/>
<ellipse fill="#143a1f" cx="0.00" cy="0.00" transform="translate(132.19,521.27) rotate(11.3)" rx="11.28" ry="10.81"/>
<circle fill="#143a1f" cx="451.33" cy="524.17" r="8.57"/>
<ellipse fill="#143a1f" cx="0.00" cy="0.00" transform="translate(348.45,524.54) rotate(8.6)" rx="8.59" ry="8.39"/>
<ellipse fill="#143a1f" cx="0.00" cy="0.00" transform="translate(77.35,524.51) rotate(15.8)" rx="8.13" ry="7.96"/>
<circle fill="#143a1f" cx="181.95" cy="524.80" r="8.25"/>
<ellipse fill="#143a1f" cx="0.00" cy="0.00" transform="translate(400.34,524.88) rotate(68.2)" rx="8.45" ry="8.16"/>
<path fill="#b1c57d" d="
  M 192.26 573.50
  L 178.00 574.00
  L 77.05 573.77
  L 79.52 573.25
  L 81.99 573.44
  L 192.26 573.50
  Z"
/>
<path fill="#b1c57d" d="
  M 416.98 573.46
  L 409.00 573.99
  L 393.16 574.10
  L 365.85 574.16
  L 346.03 573.48
  L 416.98 573.46
  Z"
/>
</svg>
