<?xml version="1.0" encoding="UTF-8" standalone="no"?>
<!DOCTYPE svg PUBLIC "-//W3C//DTD SVG 1.1//EN" "http://www.w3.org/Graphics/SVG/1.1/DTD/svg11.dtd">
<svg xmlns="http://www.w3.org/2000/svg" version="1.1" viewBox="0.00 0.00 106.00 98.00">
<g stroke-width="2.00" fill="none" stroke-linecap="butt">
<path stroke="#d3d4d3" vector-effect="non-scaling-stroke" d="
  M 41.19 0.00
  Q 48.76 2.43 56.44 0.00"
/>
<path stroke="#a1a1a1" vector-effect="non-scaling-stroke" d="
  M 89.65 51.87
  Q 88.22 52.19 85.72 51.48"
/>
<path stroke="#d3d4d3" vector-effect="non-scaling-stroke" d="
  M 85.72 51.48
  L 89.83 40.24
  A 0.72 0.72 0.0 0 0 88.99 39.29
  Q 84.14 40.42 79.22 39.62
  A 1.10 1.09 14.6 0 0 78.02 40.32
  L 73.91 51.15
  A 1.95 1.94 37.4 0 0 74.16 52.98
  C 79.51 60.30 74.27 71.09 65.06 71.75
  C 62.60 71.92 61.06 71.72 58.68 72.70
  C 55.68 73.96 52.96 75.23 49.63 75.39
  Q 44.58 75.62 39.35 75.53"
/>
<path stroke="#a1a1a1" vector-effect="non-scaling-stroke" d="
  M 39.35 75.53
  Q 40.40 74.67 40.33 73.53
  Q 40.28 72.75 39.49 72.75
  L 38.99 72.75
  A 0.41 0.41 0.0 0 0 38.59 73.27
  Q 38.84 74.17 38.02 75.00"
/>
<path stroke="#a1a1a1" vector-effect="non-scaling-stroke" d="
  M 26.47 47.11
  Q 26.05 47.77 26.85 48.22
  A 0.77 0.75 49.8 0 0 27.47 48.28
  C 30.63 47.21 33.58 46.31 36.89 44.82
  C 40.21 43.32 43.54 43.61 44.92 39.48
  Q 46.70 34.13 48.80 30.80"
/>
<path stroke="#868786" vector-effect="non-scaling-stroke" d="
  M 48.80 30.80
  L 50.12 31.87
  A 0.82 0.82 0.0 0 0 51.45 31.20
  Q 51.41 30.25 50.87 29.72"
/>
<path stroke="#a1a1a1" vector-effect="non-scaling-stroke" d="
  M 50.87 29.72
  Q 51.18 28.43 51.72 28.32"
/>
<path stroke="#d3d4d3" vector-effect="non-scaling-stroke" d="
  M 51.72 28.32
  Q 52.23 29.18 53.50 29.95
  Q 53.92 30.20 54.19 29.79
  L 56.75 25.96
  Q 56.79 25.89 56.87 25.93
  L 57.13 26.06
  Q 57.51 26.24 57.32 26.62
  Q 55.73 29.86 53.03 32.25
  Q 52.63 32.61 52.56 33.15
  Q 52.35 34.81 52.95 36.37
  Q 53.16 36.93 52.60 37.14
  L 52.25 37.27
  A 0.61 0.60 -24.4 0 1 51.50 36.99
  Q 50.99 36.06 50.85 34.98
  Q 50.47 31.92 49.36 34.69
  L 46.05 42.92
  Q 45.85 43.44 45.38 43.75
  Q 42.53 45.66 39.24 46.65
  C 35.78 47.69 32.84 49.72 29.25 50.06
  Q 24.93 50.47 20.61 49.84
  Q 18.76 49.56 18.08 51.30
  L 15.42 58.08
  Q 15.10 58.88 15.96 58.90
  L 40.55 59.55"
/>
<path stroke="#a1a1a1" vector-effect="non-scaling-stroke" d="
  M 40.55 59.55
  Q 41.60 61.04 46.01 58.95
  A 0.75 0.74 54.9 0 1 46.85 59.10
  L 47.11 59.36
  Q 47.42 59.67 47.84 59.55
  Q 49.23 59.18 50.72 59.67"
/>
<path stroke="#d3d4d3" vector-effect="non-scaling-stroke" d="
  M 50.72 59.67
  L 44.47 62.18"
/>
<path stroke="#bdbdbd" vector-effect="non-scaling-stroke" d="
  M 44.47 62.18
  L 32.92 62.28
  Q 32.44 62.28 31.99 62.11
  Q 28.57 60.76 27.79 63.13"
/>
<path stroke="#d3d4d3" vector-effect="non-scaling-stroke" d="
  M 27.79 63.13
  L 24.56 71.59
  A 0.60 0.60 0.0 0 0 25.13 72.41
  L 49.46 72.10"
/>
<path stroke="#949594" vector-effect="non-scaling-stroke" d="
  M 49.46 72.10
  Q 49.23 72.56 49.52 73.02
  A 0.45 0.45 0.0 0 0 50.06 73.21
  L 57.37 70.42
  Q 57.84 70.24 58.34 70.35
  Q 61.49 71.04 64.61 70.14"
/>
<path stroke="#bdbdbd" vector-effect="non-scaling-stroke" d="
  M 64.61 70.14
  Q 64.59 70.37 64.64 70.54
  Q 64.80 71.01 65.28 70.85
  C 72.13 68.50 76.84 61.43 73.70 54.14
  Q 73.45 53.58 73.00 54.00
  Q 72.63 54.35 72.56 55.25"
/>
<path stroke="#949594" vector-effect="non-scaling-stroke" d="
  M 72.56 55.25
  C 72.29 54.07 72.98 51.81 72.39 51.02
  Q 72.17 50.72 71.88 50.97
  Q 71.41 51.36 70.30 50.39"
/>
<path stroke="#d3d4d3" vector-effect="non-scaling-stroke" d="
  M 70.30 50.39
  L 78.29 28.72
  Q 78.63 27.81 77.67 27.88
  L 70.56 28.42
  A 0.72 0.68 16.8 0 0 70.06 28.67
  C 68.49 30.57 67.47 34.71 66.60 37.11
  Q 66.44 37.57 66.50 38.05
  L 66.65 39.29"
/>
<path stroke="#949594" vector-effect="non-scaling-stroke" d="
  M 66.65 39.29
  Q 65.91 39.07 65.19 39.44"
/>
<path stroke="#868786" vector-effect="non-scaling-stroke" d="
  M 65.19 39.44
  Q 63.68 39.91 62.07 38.53"
/>
<path stroke="#d3d4d3" vector-effect="non-scaling-stroke" d="
  M 62.07 38.53
  L 71.01 15.09
  A 0.82 0.81 -85.6 0 0 70.08 14.00
  Q 63.99 15.26 57.23 14.08"
/>
<path stroke="#a1a1a1" vector-effect="non-scaling-stroke" d="
  M 57.23 14.08
  Q 58.56 13.08 53.86 12.65"
/>
<path stroke="#d3d4d3" vector-effect="non-scaling-stroke" d="
  M 53.86 12.65
  L 57.62 2.58
  A 0.57 0.56 -80.8 0 0 57.08 1.82
  Q 48.72 2.11 40.08 1.93
  C 37.90 1.89 35.28 1.16 32.66 1.46
  Q 32.14 1.52 31.67 1.30
  Q 30.26 0.65 28.83 1.31
  Q 28.34 1.53 27.82 1.47
  Q 25.43 1.20 23.16 1.81
  Q 22.61 1.96 22.06 1.79
  Q 20.78 1.39 19.56 1.81
  A 0.92 0.90 0.5 0 0 19.01 2.34
  L 1.78 46.27
  Q 1.49 47.02 2.29 47.03
  L 26.47 47.11"
/>
<path stroke="#cccccc" vector-effect="non-scaling-stroke" d="
  M 53.86 12.65
  L 43.39 39.81
  Q 42.56 41.96 40.59 40.77
  L 36.12 38.09
  A 0.70 0.70 0.0 0 0 35.19 38.30
  C 33.41 40.92 29.74 46.43 26.47 47.11"
/>
<path stroke="#cccccc" vector-effect="non-scaling-stroke" d="
  M 57.23 14.08
  L 51.72 28.32"
/>
<path stroke="#7f7f7f" vector-effect="non-scaling-stroke" d="
  M 50.87 29.72
  Q 50.09 29.22 48.80 30.80"
/>
<path stroke="#b1b1b1" vector-effect="non-scaling-stroke" d="
  M 62.07 38.53
  L 59.40 45.97"
/>
<path stroke="#cccccc" vector-effect="non-scaling-stroke" d="
  M 59.40 45.97
  Q 58.16 48.66 57.07 51.44
  Q 56.54 52.81 55.94 53.21
  Q 54.89 53.90 53.51 52.99
  Q 51.60 51.73 49.55 50.45
  Q 49.04 50.13 48.72 50.63
  Q 45.20 56.10 40.55 59.55"
/>
<path stroke="#727272" vector-effect="non-scaling-stroke" d="
  M 65.19 39.44
  L 62.63 47.16
  Q 62.48 47.64 62.60 48.12
  L 62.76 48.71"
/>
<path stroke="#7f7f7f" vector-effect="non-scaling-stroke" d="
  M 60.64 52.23
  Q 60.46 51.45 59.77 50.80
  Q 59.35 50.40 59.63 49.90
  Q 60.04 49.17 59.55 48.39
  A 1.08 1.06 29.8 0 1 59.38 47.78
  L 59.40 45.97"
/>
<path stroke="#bfbfbf" vector-effect="non-scaling-stroke" d="
  M 70.30 50.39
  Q 67.72 57.79 64.88 64.99
  Q 63.98 67.27 61.65 65.85
  Q 59.72 64.68 57.77 63.47
  Q 57.30 63.18 56.99 63.63
  C 55.48 65.82 51.85 71.29 49.46 72.10"
/>
<path stroke="#e8e8e8" vector-effect="non-scaling-stroke" d="
  M 27.79 63.13
  L 41.93 63.23"
/>
<path stroke="#959193" vector-effect="non-scaling-stroke" d="
  M 41.93 63.23
  Q 42.84 64.03 44.28 63.43
  A 0.68 0.68 0.0 0 1 45.13 64.41
  L 44.47 65.52
  A 0.23 0.22 88.0 0 0 44.79 65.82
  Q 45.77 65.15 45.91 63.96
  Q 45.97 63.47 45.52 63.25
  L 44.54 62.79"
/>
<path stroke="#e8e8e8" vector-effect="non-scaling-stroke" d="
  M 44.54 62.79
  Q 44.71 62.19 44.47 62.18"
/>
<path stroke="#cccccc" vector-effect="non-scaling-stroke" d="
  M 50.72 59.67
  C 55.43 57.99 59.67 57.33 60.64 52.23"
/>
<path stroke="#b1b1b1" vector-effect="non-scaling-stroke" d="
  M 60.64 52.23
  Q 61.69 51.50 62.01 49.50
  Q 62.11 48.89 62.76 48.71"
/>
<path stroke="#bfbfbf" vector-effect="non-scaling-stroke" d="
  M 62.76 48.71
  Q 65.94 49.77 64.54 52.43
  Q 64.21 53.05 64.90 53.20
  L 65.83 53.40
  A 0.40 0.40 0.0 0 1 66.14 53.70
  Q 66.20 53.94 66.09 54.15
  Q 65.85 54.57 66.32 54.71
  Q 66.73 54.84 67.12 54.59
  Q 67.37 54.43 67.53 54.03
  Q 68.13 52.51 68.38 50.86
  Q 68.45 50.39 68.00 50.24
  Q 67.66 50.12 67.50 49.87
  Q 67.20 49.43 67.73 49.39
  L 68.80 49.29
  Q 69.35 49.25 69.32 48.70
  L 69.27 47.77
  Q 69.25 47.41 69.53 47.20
  Q 71.76 45.51 70.31 43.50
  Q 69.19 41.96 70.85 42.63
  Q 71.34 42.83 71.88 42.19
  C 72.45 41.51 72.26 40.67 71.91 39.93
  Q 71.67 39.42 71.28 39.82
  Q 70.99 40.12 70.92 40.52
  A 0.42 0.42 0.0 0 1 70.14 40.65
  L 69.93 40.29
  Q 69.65 39.82 69.10 39.81
  Q 67.74 39.78 66.65 39.29"
/>
<path stroke="#7f7b7d" vector-effect="non-scaling-stroke" d="
  M 44.54 62.79
  L 41.93 63.23"
/>
<path stroke="#a9a9a9" vector-effect="non-scaling-stroke" d="
  M 72.56 55.25
  Q 70.00 61.63 67.62 68.12
  Q 67.16 69.39 64.61 70.14"
/>
<path stroke="#e8e8e8" vector-effect="non-scaling-stroke" d="
  M 51.2207 6.1114
  A 0.64 0.64 0.0 0 0 50.5840 5.4681
  L 20.7644 5.3119
  A 0.64 0.64 0.0 0 0 20.1211 5.9486
  L 20.1193 6.2886
  A 0.64 0.64 0.0 0 0 20.7560 6.9319
  L 50.5756 7.0881
  A 0.64 0.64 0.0 0 0 51.2189 6.4514
  L 51.2207 6.1114"
/>
<path stroke="#e8e8e8" vector-effect="non-scaling-stroke" d="
  M 50.2699 9.3719
  A 0.77 0.77 0.0 0 0 49.5039 8.5979
  L 19.7443 8.4421
  A 0.77 0.77 0.0 0 0 18.9703 9.2081
  L 18.9701 9.2481
  A 0.77 0.77 0.0 0 0 19.7361 10.0221
  L 49.4957 10.1779
  A 0.77 0.77 0.0 0 0 50.2697 9.4119
  L 50.2699 9.3719"
/>
<path stroke="#e8e8e8" vector-effect="non-scaling-stroke" d="
  M 48.9898 12.1485
  A 0.84 0.84 0.0 0 0 48.1556 11.3026
  L 18.7564 11.0974
  A 0.84 0.84 0.0 0 0 17.9105 11.9315
  L 17.9102 11.9715
  A 0.84 0.84 0.0 0 0 18.7444 12.8174
  L 48.1436 13.0226
  A 0.84 0.84 0.0 0 0 48.9895 12.1885
  L 48.9898 12.1485"
/>
<path stroke="#e8e8e8" vector-effect="non-scaling-stroke" d="
  M 47.77 14.17
  L 16.45 14.07
  A 0.12 0.12 0.0 0 0 16.33 14.18
  L 16.33 14.23
  A 1.79 1.61 0.2 0 0 18.12 15.85
  L 46.10 15.95
  A 1.79 1.61 0.2 0 0 47.89 14.35
  L 47.89 14.30
  A 0.12 0.12 0.0 0 0 47.77 14.17"
/>
<path stroke="#e8e8e8" vector-effect="non-scaling-stroke" d="
  M 15.25 17.28
  L 15.25 18.76
  A 0.27 0.27 0.0 0 0 15.51 19.03
  L 15.66 19.03
  A 30.82 0.86 0.3 0 0 46.49 18.33
  L 46.49 18.03
  A 30.82 0.86 0.3 0 0 15.68 17.01
  L 15.53 17.01
  A 0.27 0.27 0.0 0 0 15.25 17.28"
/>
<path stroke="#e8e8e8" vector-effect="non-scaling-stroke" d="
  M 45.30 21.09
  A 0.61 0.61 0.0 0 0 44.69 20.48
  L 14.87 20.48
  A 0.61 0.61 0.0 0 0 14.26 21.09
  L 14.26 21.29
  A 0.61 0.61 0.0 0 0 14.87 21.90
  L 44.69 21.90
  A 0.61 0.61 0.0 0 0 45.30 21.29
  L 45.30 21.09"
/>
<path stroke="#e8e8e8" vector-effect="non-scaling-stroke" d="
  M 44.2900 24.0343
  A 0.85 0.85 0.0 0 0 43.4429 23.1814
  L 14.0031 23.0786
  A 0.85 0.85 0.0 0 0 13.1502 23.9257
  L 13.1500 23.9657
  A 0.85 0.85 0.0 0 0 13.9971 24.8186
  L 43.4369 24.9214
  A 0.85 0.85 0.0 0 0 44.2898 24.0743
  L 44.2900 24.0343"
/>
<path stroke="#e8e8e8" vector-effect="non-scaling-stroke" d="
  M 42.8198 26.9683
  A 0.80 0.80 0.0 0 0 42.0254 26.1628
  L 12.5861 25.9573
  A 0.80 0.80 0.0 0 0 11.7805 26.7517
  L 11.7802 26.7917
  A 0.80 0.80 0.0 0 0 12.5746 27.5972
  L 42.0139 27.8027
  A 0.80 0.80 0.0 0 0 42.8195 27.0083
  L 42.8198 26.9683"
/>
<path stroke="#e8e8e8" vector-effect="non-scaling-stroke" d="
  M 41.62 30.68
  L 41.62 29.42
  A 0.27 0.27 0.0 0 0 41.35 29.15
  L 11.64 29.05
  A 1.12 0.58 0.2 0 0 10.52 29.63
  L 10.52 30.27
  A 1.12 0.58 0.2 0 0 11.64 30.85
  L 41.35 30.95
  A 0.27 0.27 0.0 0 0 41.62 30.68"
/>
<path stroke="#e8e8e8" vector-effect="non-scaling-stroke" d="
  M 21.91 34.37
  A 0.27 0.27 0.0 0 1 21.65 34.56
  L 9.52 34.46
  A 0.27 0.27 0.0 0 0 9.28 34.60
  L 8.68 35.67
  A 0.27 0.27 0.0 0 0 8.91 36.07
  L 39.43 36.27
  A 0.27 0.27 0.0 0 0 39.70 36.00
  L 39.70 35.36
  A 0.27 0.27 0.0 0 0 39.43 35.09
  L 29.65 35.13
  A 0.27 0.27 0.0 0 1 29.38 34.86
  L 29.38 33.57
  A 0.27 0.27 0.0 0 1 29.65 33.30
  L 40.59 33.37
  A 0.27 0.27 0.0 0 0 40.83 33.22
  L 41.12 32.63
  A 0.27 0.27 0.0 0 0 40.89 32.24
  L 10.73 31.62
  A 0.27 0.27 0.0 0 0 10.47 31.80
  L 10.09 32.87
  A 0.27 0.27 0.0 0 0 10.34 33.23
  L 21.88 33.32
  A 0.27 0.27 0.0 0 1 22.14 33.67
  L 21.91 34.37"
/>
<path stroke="#b1b1b1" vector-effect="non-scaling-stroke" d="
  M 22.62 38.51
  Q 22.78 42.10 20.89 45.25
  A 0.43 0.43 0.0 0 0 21.19 45.90
  L 21.58 45.96
  A 0.29 0.29 0.0 0 0 21.89 45.77
  L 24.59 38.44
  Q 24.76 37.99 24.27 38.01
  L 23.03 38.06
  Q 22.60 38.08 22.62 38.51"
/>
<path stroke="#b5b5b5" vector-effect="non-scaling-stroke" d="
  M 39.58 42.44
  A 0.41 0.41 0.0 0 0 39.65 41.71
  L 36.73 39.85
  A 1.04 1.03 34.5 0 0 35.35 40.10
  L 31.41 45.34
  Q 31.11 45.73 31.57 45.56
  L 39.58 42.44"
/>
<path stroke="#b1b1b1" vector-effect="non-scaling-stroke" d="
  M 34.71 51.30
  C 35.74 53.50 31.03 56.50 29.63 57.38
  A 0.40 0.40 0.0 0 0 29.87 58.12
  Q 31.15 58.01 31.73 56.96
  Q 32.02 56.42 32.53 56.07
  Q 34.43 54.78 35.65 52.84
  A 1.75 1.75 0.0 0 0 34.34 50.17
  Q 33.04 50.04 32.01 50.98
  Q 31.45 51.49 32.21 51.51
  Q 32.80 51.52 33.06 51.15
  A 0.97 0.96 -39.6 0 1 34.71 51.30"
/>
<path stroke="#cccccc" vector-effect="non-scaling-stroke" d="
  M 32.47 57.95
  Q 33.17 58.29 33.89 58.03
  Q 34.50 57.80 33.95 57.46
  Q 32.82 56.77 32.35 57.55
  Q 32.19 57.81 32.47 57.95"
/>
<path stroke="#959193" vector-effect="non-scaling-stroke" d="
  M 43.90 67.84
  C 44.35 69.86 41.58 70.27 40.22 69.81
  A 0.29 0.28 -69.9 0 0 39.86 69.98
  L 39.78 70.22
  Q 39.74 70.33 39.85 70.36
  C 44.50 71.68 46.76 66.20 42.43 66.16
  Q 42.19 66.16 42.16 66.41
  L 42.15 66.42
  Q 42.12 66.66 42.37 66.69
  Q 43.68 66.82 43.90 67.84"
/>
<path stroke="#cccccc" vector-effect="non-scaling-stroke" d="
  M 85.72 51.48
  Q 81.01 63.70 76.59 75.65
  C 75.36 78.96 71.20 75.46 69.67 74.38
  A 0.59 0.59 0.0 0 0 68.86 74.51
  Q 66.51 77.72 63.92 80.92
  C 61.31 84.14 57.87 83.28 54.18 83.23
  Q 53.96 83.22 53.94 83.00
  Q 53.92 82.85 54.01 82.73"
/>
<path stroke="#959193" vector-effect="non-scaling-stroke" d="
  M 54.01 82.73
  Q 54.23 81.08 55.67 80.58
  Q 55.98 80.48 55.69 80.31
  L 55.40 80.14
  A 0.58 0.56 -66.0 0 1 55.15 79.46
  L 56.05 76.77
  A 0.22 0.22 0.0 0 0 55.65 76.58
  Q 54.69 78.01 54.41 79.71
  A 0.66 0.65 -85.3 0 1 53.77 80.26
  L 52.20 80.27
  A 0.41 0.41 0.0 0 1 51.90 79.57
  L 54.57 76.82
  Q 54.94 76.43 55.47 76.42
  Q 56.05 76.40 56.47 76.05
  Q 57.01 75.59 56.40 75.23
  Q 55.83 74.90 55.22 75.47
  Q 52.88 77.63 50.77 80.09
  Q 50.39 80.53 50.97 80.60
  L 53.72 80.90
  Q 54.10 80.95 53.91 81.28
  L 52.91 83.00"
/>
<path stroke="#cccccc" vector-effect="non-scaling-stroke" d="
  M 52.91 83.00
  L 37.44 82.99
  Q 36.47 82.99 36.82 82.09
  L 39.35 75.53"
/>
<path stroke="#b5b5b5" vector-effect="non-scaling-stroke" d="
  M 53.38 54.67
  A 0.33 0.33 0.0 0 0 53.42 54.08
  L 49.58 51.82
  A 0.33 0.33 0.0 0 0 49.15 51.90
  L 45.01 57.38
  A 0.33 0.33 0.0 0 0 45.40 57.88
  L 53.38 54.67"
/>
<path stroke="#a9a9a9" vector-effect="non-scaling-stroke" d="
  M 61.66 67.67
  A 0.33 0.33 0.0 0 0 61.71 67.08
  L 58.15 64.94
  A 0.69 0.69 0.0 0 0 57.24 65.11
  L 53.32 70.25
  Q 52.64 71.14 53.69 70.74
  L 61.66 67.67"
/>
<path stroke="#a1a1a1" vector-effect="non-scaling-stroke" d="
  M 44.07 95.52
  Q 44.60 95.86 44.97 95.82"
/>
<path stroke="#d3d4d3" vector-effect="non-scaling-stroke" d="
  M 44.97 95.82
  Q 45.60 96.10 46.37 96.08
  Q 56.85 95.92 67.34 95.97
  C 71.66 95.99 74.38 90.99 76.58 88.04
  A 1.31 1.31 0.0 0 1 78.28 87.68
  L 82.16 89.87
  A 1.68 1.68 0.0 0 0 84.55 88.99
  L 97.82 53.53
  A 0.67 0.66 -80.8 0 0 97.18 52.63
  L 89.26 52.93"
/>
<path stroke="#a1a1a1" vector-effect="non-scaling-stroke" d="
  M 89.26 52.93
  L 94.87 52.27"
/>
<path stroke="#bdbdbd" vector-effect="non-scaling-stroke" d="
  M 74.74 93.95
  L 80.45 91.54
  Q 81.28 91.19 80.52 90.70
  L 78.45 89.36
  A 1.05 1.04 34.4 0 0 77.03 89.62
  L 74.30 93.39
  A 0.37 0.37 0.0 0 0 74.74 93.95"
/>
<path stroke="#cccccc" vector-effect="non-scaling-stroke" d="
  M 89.26 52.93
  L 82.05 72.27
  Q 81.87 72.74 81.52 73.10
  Q 80.88 73.75 81.01 74.72
  A 1.30 1.29 59.5 0 1 80.77 75.66
  Q 79.98 76.71 79.87 78.01
  Q 79.83 78.52 79.50 78.90
  Q 76.39 82.47 71.39 82.88"
/>
<path stroke="#b5b5b5" vector-effect="non-scaling-stroke" d="
  M 71.39 82.88
  L 67.17 85.52"
/>
<path stroke="#cccccc" vector-effect="non-scaling-stroke" d="
  M 67.17 85.52
  C 65.24 85.67 63.42 86.14 61.60 86.17
  Q 55.32 86.24 49.01 86.12"
/>
<path stroke="#7f7f7f" vector-effect="non-scaling-stroke" d="
  M 49.01 86.12
  L 49.14 84.56
  A 0.36 0.35 86.5 0 0 48.72 84.18
  Q 48.32 84.27 48.14 84.64
  Q 47.38 86.21 48.81 86.25"
/>
<path stroke="#cccccc" vector-effect="non-scaling-stroke" d="
  M 48.81 86.25
  L 44.97 95.82"
/>
<path stroke="#635f61" vector-effect="non-scaling-stroke" d="
  M 52.91 83.00
  L 54.01 82.73"
/>
<path stroke="#b5b5b5" vector-effect="non-scaling-stroke" d="
  M 72.72 78.59
  A 0.31 0.31 0.0 0 0 72.77 78.05
  L 69.67 75.86
  A 0.31 0.31 0.0 0 0 69.24 75.93
  L 65.55 80.99
  A 0.31 0.31 0.0 0 0 65.92 81.46
  L 72.72 78.59"
/>
<path stroke="#b1b1b1" vector-effect="non-scaling-stroke" d="
  M 48.81 86.25
  Q 48.91 86.19 49.01 86.12"
/>
<path stroke="#e8e8e8" vector-effect="non-scaling-stroke" d="
  M 67.17 85.52
  L 81.52 85.51
  A 0.73 0.73 0.0 0 0 82.21 85.02
  L 82.38 84.54
  Q 82.57 84.01 82.01 84.06
  Q 77.17 84.42 72.13 84.04
  Q 70.79 83.94 71.39 82.88"
/>
<path stroke="#959193" vector-effect="non-scaling-stroke" d="
  M 65.28 92.35
  Q 64.04 95.11 61.01 94.23
  Q 60.75 94.16 60.69 94.39
  L 60.68 94.39
  Q 60.63 94.56 60.75 94.60
  Q 64.76 95.82 66.10 92.10
  Q 66.30 91.55 65.87 91.15
  Q 65.06 90.43 63.98 90.29
  A 0.59 0.59 0.0 0 1 63.49 89.52
  Q 64.31 87.08 67.24 87.85
  Q 67.27 87.85 67.27 87.82
  L 67.31 87.56
  Q 67.34 87.30 67.08 87.26
  Q 63.33 86.64 62.72 90.23
  Q 62.64 90.69 63.11 90.71
  Q 64.21 90.76 65.08 91.49
  Q 65.50 91.85 65.28 92.35"
/>
</g>
<path fill="#a8a9a8" d="
  M 22.37 0.00
  L 41.19 0.00
  Q 48.76 2.43 56.44 0.00
  L 59.76 0.00
  Q 59.63 0.50 59.00 1.74
  Q 58.71 2.30 59.07 2.69
  Q 59.43 3.08 59.81 2.70
  Q 60.39 2.13 61.18 1.99
  Q 62.02 1.84 61.65 2.61
  Q 59.81 6.39 58.75 10.48
  A 0.70 0.64 80.8 0 1 58.53 10.82
  Q 57.74 11.45 58.01 12.49
  Q 58.15 13.01 58.69 13.01
  L 70.25 12.98
  Q 70.37 12.98 71.25 12.81
  Q 71.86 12.70 72.40 12.36
  A 0.41 0.41 0.0 0 1 73.03 12.77
  Q 72.79 14.45 74.19 15.14
  Q 74.79 15.45 74.54 16.07
  L 71.18 24.48
  Q 70.43 26.34 72.37 26.83
  Q 75.13 27.53 79.06 26.46
  Q 79.97 26.22 80.03 28.21
  Q 80.05 28.91 80.69 28.64
  L 81.22 28.42
  A 0.69 0.68 -0.2 0 1 82.12 29.31
  L 79.10 36.61
  Q 78.91 37.05 79.11 37.48
  Q 80.19 39.87 82.76 39.00
  Q 87.15 37.53 90.96 38.22
  Q 91.78 38.37 91.42 39.12
  Q 91.36 39.25 91.36 39.40
  Q 91.37 39.99 91.96 39.98
  L 93.18 39.96
  A 0.53 0.53 0.0 0 1 93.68 40.67
  L 89.65 51.87
  Q 88.22 52.19 85.72 51.48
  L 89.83 40.24
  A 0.72 0.72 0.0 0 0 88.99 39.29
  Q 84.14 40.42 79.22 39.62
  A 1.10 1.09 14.6 0 0 78.02 40.32
  L 73.91 51.15
  A 1.95 1.94 37.4 0 0 74.16 52.98
  C 79.51 60.30 74.27 71.09 65.06 71.75
  C 62.60 71.92 61.06 71.72 58.68 72.70
  C 55.68 73.96 52.96 75.23 49.63 75.39
  Q 44.58 75.62 39.35 75.53
  Q 40.40 74.67 40.33 73.53
  Q 40.28 72.75 39.49 72.75
  L 38.99 72.75
  A 0.41 0.41 0.0 0 0 38.59 73.27
  Q 38.84 74.17 38.02 75.00
  L 26.08 74.99
  A 1.33 1.30 67.4 0 1 25.14 74.59
  Q 24.58 74.02 23.76 73.90
  A 0.95 0.94 10.1 0 1 22.96 72.76
  Q 23.80 68.98 25.81 65.67
  Q 26.05 65.26 26.04 64.79
  L 25.99 62.49
  Q 25.98 62.01 25.49 62.01
  L 17.04 61.98
  Q 16.38 61.98 16.13 61.37
  Q 15.64 60.10 14.36 59.63
  A 0.74 0.74 0.0 0 1 13.94 58.65
  L 15.88 53.95
  Q 16.03 53.58 16.03 53.19
  Q 16.03 52.42 16.72 51.95
  Q 17.12 51.68 17.10 51.20
  L 17.07 50.54
  Q 17.05 50.04 16.54 50.03
  L 2.73 49.93
  A 0.48 0.48 0.0 0 1 2.39 49.11
  L 2.64 48.85
  Q 3.26 48.24 2.39 48.20
  Q 1.00 48.13 0.00 47.50
  Q -0.04 47.09 0.00 47.07
  L 10.85 20.32
  Q 11.04 19.85 11.00 19.34
  Q 10.93 18.48 11.65 17.95
  A 0.93 0.92 -22.9 0 0 12.02 17.04
  Q 11.89 16.23 12.63 15.84
  Q 13.01 15.65 13.01 15.22
  L 13.03 13.95
  Q 13.03 13.41 13.46 13.06
  Q 14.30 12.38 13.97 11.18
  A 0.81 0.80 67.4 0 1 14.34 10.26
  Q 15.17 9.77 15.03 8.77
  Q 14.97 8.35 15.32 8.09
  Q 16.24 7.40 15.99 6.18
  A 0.95 0.93 65.9 0 1 16.33 5.26
  Q 16.96 4.77 17.02 3.99
  Q 17.07 3.39 17.54 3.02
  Q 18.23 2.48 18.00 1.54
  A 0.45 0.45 0.0 0 1 18.51 0.99
  Q 21.59 1.42 22.37 0.00
  Z
  M 26.47 47.11
  Q 26.05 47.77 26.85 48.22
  A 0.77 0.75 49.8 0 0 27.47 48.28
  C 30.63 47.21 33.58 46.31 36.89 44.82
  C 40.21 43.32 43.54 43.61 44.92 39.48
  Q 46.70 34.13 48.80 30.80
  L 50.12 31.87
  A 0.82 0.82 0.0 0 0 51.45 31.20
  Q 51.41 30.25 50.87 29.72
  Q 51.18 28.43 51.72 28.32
  Q 52.23 29.18 53.50 29.95
  Q 53.92 30.20 54.19 29.79
  L 56.75 25.96
  Q 56.79 25.89 56.87 25.93
  L 57.13 26.06
  Q 57.51 26.24 57.32 26.62
  Q 55.73 29.86 53.03 32.25
  Q 52.63 32.61 52.56 33.15
  Q 52.35 34.81 52.95 36.37
  Q 53.16 36.93 52.60 37.14
  L 52.25 37.27
  A 0.61 0.60 -24.4 0 1 51.50 36.99
  Q 50.99 36.06 50.85 34.98
  Q 50.47 31.92 49.36 34.69
  L 46.05 42.92
  Q 45.85 43.44 45.38 43.75
  Q 42.53 45.66 39.24 46.65
  C 35.78 47.69 32.84 49.72 29.25 50.06
  Q 24.93 50.47 20.61 49.84
  Q 18.76 49.56 18.08 51.30
  L 15.42 58.08
  Q 15.10 58.88 15.96 58.90
  L 40.55 59.55
  Q 41.60 61.04 46.01 58.95
  A 0.75 0.74 54.9 0 1 46.85 59.10
  L 47.11 59.36
  Q 47.42 59.67 47.84 59.55
  Q 49.23 59.18 50.72 59.67
  L 44.47 62.18
  L 32.92 62.28
  Q 32.44 62.28 31.99 62.11
  Q 28.57 60.76 27.79 63.13
  L 24.56 71.59
  A 0.60 0.60 0.0 0 0 25.13 72.41
  L 49.46 72.10
  Q 49.23 72.56 49.52 73.02
  A 0.45 0.45 0.0 0 0 50.06 73.21
  L 57.37 70.42
  Q 57.84 70.24 58.34 70.35
  Q 61.49 71.04 64.61 70.14
  Q 64.59 70.37 64.64 70.54
  Q 64.80 71.01 65.28 70.85
  C 72.13 68.50 76.84 61.43 73.70 54.14
  Q 73.45 53.58 73.00 54.00
  Q 72.63 54.35 72.56 55.25
  C 72.29 54.07 72.98 51.81 72.39 51.02
  Q 72.17 50.72 71.88 50.97
  Q 71.41 51.36 70.30 50.39
  L 78.29 28.72
  Q 78.63 27.81 77.67 27.88
  L 70.56 28.42
  A 0.72 0.68 16.8 0 0 70.06 28.67
  C 68.49 30.57 67.47 34.71 66.60 37.11
  Q 66.44 37.57 66.50 38.05
  L 66.65 39.29
  Q 65.91 39.07 65.19 39.44
  Q 63.68 39.91 62.07 38.53
  L 71.01 15.09
  A 0.82 0.81 -85.6 0 0 70.08 14.00
  Q 63.99 15.26 57.23 14.08
  Q 58.56 13.08 53.86 12.65
  L 57.62 2.58
  A 0.57 0.56 -80.8 0 0 57.08 1.82
  Q 48.72 2.11 40.08 1.93
  C 37.90 1.89 35.28 1.16 32.66 1.46
  Q 32.14 1.52 31.67 1.30
  Q 30.26 0.65 28.83 1.31
  Q 28.34 1.53 27.82 1.47
  Q 25.43 1.20 23.16 1.81
  Q 22.61 1.96 22.06 1.79
  Q 20.78 1.39 19.56 1.81
  A 0.92 0.90 0.5 0 0 19.01 2.34
  L 1.78 46.27
  Q 1.49 47.02 2.29 47.03
  L 26.47 47.11
  Z"
/>
<path fill="#fefefe" d="
  M 41.19 0.00
  L 56.44 0.00
  Q 48.76 2.43 41.19 0.00
  Z"
/>
<path fill="#fefefe" d="
  M 53.86 12.65
  L 43.39 39.81
  Q 42.56 41.96 40.59 40.77
  L 36.12 38.09
  A 0.70 0.70 0.0 0 0 35.19 38.30
  C 33.41 40.92 29.74 46.43 26.47 47.11
  L 2.29 47.03
  Q 1.49 47.02 1.78 46.27
  L 19.01 2.34
  A 0.92 0.90 0.5 0 1 19.56 1.81
  Q 20.78 1.39 22.06 1.79
  Q 22.61 1.96 23.16 1.81
  Q 25.43 1.20 27.82 1.47
  Q 28.34 1.53 28.83 1.31
  Q 30.26 0.65 31.67 1.30
  Q 32.14 1.52 32.66 1.46
  C 35.28 1.16 37.90 1.89 40.08 1.93
  Q 48.72 2.11 57.08 1.82
  A 0.57 0.56 -80.8 0 1 57.62 2.58
  L 53.86 12.65
  Z
  M 51.2207 6.1114
  A 0.64 0.64 0.0 0 0 50.5840 5.4681
  L 20.7644 5.3119
  A 0.64 0.64 0.0 0 0 20.1211 5.9486
  L 20.1193 6.2886
  A 0.64 0.64 0.0 0 0 20.7560 6.9319
  L 50.5756 7.0881
  A 0.64 0.64 0.0 0 0 51.2189 6.4514
  L 51.2207 6.1114
  Z
  M 50.2699 9.3719
  A 0.77 0.77 0.0 0 0 49.5039 8.5979
  L 19.7443 8.4421
  A 0.77 0.77 0.0 0 0 18.9703 9.2081
  L 18.9701 9.2481
  A 0.77 0.77 0.0 0 0 19.7361 10.0221
  L 49.4957 10.1779
  A 0.77 0.77 0.0 0 0 50.2697 9.4119
  L 50.2699 9.3719
  Z
  M 48.9898 12.1485
  A 0.84 0.84 0.0 0 0 48.1556 11.3026
  L 18.7564 11.0974
  A 0.84 0.84 0.0 0 0 17.9105 11.9315
  L 17.9102 11.9715
  A 0.84 0.84 0.0 0 0 18.7444 12.8174
  L 48.1436 13.0226
  A 0.84 0.84 0.0 0 0 48.9895 12.1885
  L 48.9898 12.1485
  Z
  M 47.77 14.17
  L 16.45 14.07
  A 0.12 0.12 0.0 0 0 16.33 14.18
  L 16.33 14.23
  A 1.79 1.61 0.2 0 0 18.12 15.85
  L 46.10 15.95
  A 1.79 1.61 0.2 0 0 47.89 14.35
  L 47.89 14.30
  A 0.12 0.12 0.0 0 0 47.77 14.17
  Z
  M 15.25 17.28
  L 15.25 18.76
  A 0.27 0.27 0.0 0 0 15.51 19.03
  L 15.66 19.03
  A 30.82 0.86 0.3 0 0 46.49 18.33
  L 46.49 18.03
  A 30.82 0.86 0.3 0 0 15.68 17.01
  L 15.53 17.01
  A 0.27 0.27 0.0 0 0 15.25 17.28
  Z
  M 45.30 21.09
  A 0.61 0.61 0.0 0 0 44.69 20.48
  L 14.87 20.48
  A 0.61 0.61 0.0 0 0 14.26 21.09
  L 14.26 21.29
  A 0.61 0.61 0.0 0 0 14.87 21.90
  L 44.69 21.90
  A 0.61 0.61 0.0 0 0 45.30 21.29
  L 45.30 21.09
  Z
  M 44.2900 24.0343
  A 0.85 0.85 0.0 0 0 43.4429 23.1814
  L 14.0031 23.0786
  A 0.85 0.85 0.0 0 0 13.1502 23.9257
  L 13.1500 23.9657
  A 0.85 0.85 0.0 0 0 13.9971 24.8186
  L 43.4369 24.9214
  A 0.85 0.85 0.0 0 0 44.2898 24.0743
  L 44.2900 24.0343
  Z
  M 42.8198 26.9683
  A 0.80 0.80 0.0 0 0 42.0254 26.1628
  L 12.5861 25.9573
  A 0.80 0.80 0.0 0 0 11.7805 26.7517
  L 11.7802 26.7917
  A 0.80 0.80 0.0 0 0 12.5746 27.5972
  L 42.0139 27.8027
  A 0.80 0.80 0.0 0 0 42.8195 27.0083
  L 42.8198 26.9683
  Z
  M 41.62 30.68
  L 41.62 29.42
  A 0.27 0.27 0.0 0 0 41.35 29.15
  L 11.64 29.05
  A 1.12 0.58 0.2 0 0 10.52 29.63
  L 10.52 30.27
  A 1.12 0.58 0.2 0 0 11.64 30.85
  L 41.35 30.95
  A 0.27 0.27 0.0 0 0 41.62 30.68
  Z
  M 21.91 34.37
  A 0.27 0.27 0.0 0 1 21.65 34.56
  L 9.52 34.46
  A 0.27 0.27 0.0 0 0 9.28 34.60
  L 8.68 35.67
  A 0.27 0.27 0.0 0 0 8.91 36.07
  L 39.43 36.27
  A 0.27 0.27 0.0 0 0 39.70 36.00
  L 39.70 35.36
  A 0.27 0.27 0.0 0 0 39.43 35.09
  L 29.65 35.13
  A 0.27 0.27 0.0 0 1 29.38 34.86
  L 29.38 33.57
  A 0.27 0.27 0.0 0 1 29.65 33.30
  L 40.59 33.37
  A 0.27 0.27 0.0 0 0 40.83 33.22
  L 41.12 32.63
  A 0.27 0.27 0.0 0 0 40.89 32.24
  L 10.73 31.62
  A 0.27 0.27 0.0 0 0 10.47 31.80
  L 10.09 32.87
  A 0.27 0.27 0.0 0 0 10.34 33.23
  L 21.88 33.32
  A 0.27 0.27 0.0 0 1 22.14 33.67
  L 21.91 34.37
  Z
  M 22.62 38.51
  Q 22.78 42.10 20.89 45.25
  A 0.43 0.43 0.0 0 0 21.19 45.90
  L 21.58 45.96
  A 0.29 0.29 0.0 0 0 21.89 45.77
  L 24.59 38.44
  Q 24.76 37.99 24.27 38.01
  L 23.03 38.06
  Q 22.60 38.08 22.62 38.51
  Z"
/>
<rect fill="#d1d1d1" x="-15.55" y="-0.81" transform="translate(35.67,6.20) rotate(0.3)" width="31.10" height="1.62" rx="0.64"/>
<rect fill="#d1d1d1" x="-15.65" y="-0.79" transform="translate(34.62,9.31) rotate(0.3)" width="31.30" height="1.58" rx="0.77"/>
<rect fill="#d1d1d1" x="-15.54" y="-0.86" transform="translate(33.45,12.06) rotate(0.4)" width="31.08" height="1.72" rx="0.84"/>
<path fill="#999999" d="
  M 53.86 12.65
  Q 58.56 13.08 57.23 14.08
  L 51.72 28.32
  Q 51.18 28.43 50.87 29.72
  Q 50.09 29.22 48.80 30.80
  Q 46.70 34.13 44.92 39.48
  C 43.54 43.61 40.21 43.32 36.89 44.82
  C 33.58 46.31 30.63 47.21 27.47 48.28
  A 0.77 0.75 49.8 0 1 26.85 48.22
  Q 26.05 47.77 26.47 47.11
  C 29.74 46.43 33.41 40.92 35.19 38.30
  A 0.70 0.70 0.0 0 1 36.12 38.09
  L 40.59 40.77
  Q 42.56 41.96 43.39 39.81
  L 53.86 12.65
  Z
  M 39.58 42.44
  A 0.41 0.41 0.0 0 0 39.65 41.71
  L 36.73 39.85
  A 1.04 1.03 34.5 0 0 35.35 40.10
  L 31.41 45.34
  Q 31.11 45.73 31.57 45.56
  L 39.58 42.44
  Z"
/>
<path fill="#d1d1d1" d="
  M 47.77 14.17
  A 0.12 0.12 0.0 0 1 47.89 14.30
  L 47.89 14.35
  A 1.79 1.61 0.2 0 1 46.10 15.95
  L 18.12 15.85
  A 1.79 1.61 0.2 0 1 16.33 14.23
  L 16.33 14.18
  A 0.12 0.12 0.0 0 1 16.45 14.07
  L 47.77 14.17
  Z"
/>
<path fill="#fefefe" d="
  M 62.07 38.53
  L 59.40 45.97
  Q 58.16 48.66 57.07 51.44
  Q 56.54 52.81 55.94 53.21
  Q 54.89 53.90 53.51 52.99
  Q 51.60 51.73 49.55 50.45
  Q 49.04 50.13 48.72 50.63
  Q 45.20 56.10 40.55 59.55
  L 15.96 58.90
  Q 15.10 58.88 15.42 58.08
  L 18.08 51.30
  Q 18.76 49.56 20.61 49.84
  Q 24.93 50.47 29.25 50.06
  C 32.84 49.72 35.78 47.69 39.24 46.65
  Q 42.53 45.66 45.38 43.75
  Q 45.85 43.44 46.05 42.92
  L 49.36 34.69
  Q 50.47 31.92 50.85 34.98
  Q 50.99 36.06 51.50 36.99
  A 0.61 0.60 -24.4 0 0 52.25 37.27
  L 52.60 37.14
  Q 53.16 36.93 52.95 36.37
  Q 52.35 34.81 52.56 33.15
  Q 52.63 32.61 53.03 32.25
  Q 55.73 29.86 57.32 26.62
  Q 57.51 26.24 57.13 26.06
  L 56.87 25.93
  Q 56.79 25.89 56.75 25.96
  L 54.19 29.79
  Q 53.92 30.20 53.50 29.95
  Q 52.23 29.18 51.72 28.32
  L 57.23 14.08
  Q 63.99 15.26 70.08 14.00
  A 0.82 0.81 -85.6 0 1 71.01 15.09
  L 62.07 38.53
  Z
  M 34.71 51.30
  C 35.74 53.50 31.03 56.50 29.63 57.38
  A 0.40 0.40 0.0 0 0 29.87 58.12
  Q 31.15 58.01 31.73 56.96
  Q 32.02 56.42 32.53 56.07
  Q 34.43 54.78 35.65 52.84
  A 1.75 1.75 0.0 0 0 34.34 50.17
  Q 33.04 50.04 32.01 50.98
  Q 31.45 51.49 32.21 51.51
  Q 32.80 51.52 33.06 51.15
  A 0.97 0.96 -39.6 0 1 34.71 51.30
  Z
  M 32.47 57.95
  Q 33.17 58.29 33.89 58.03
  Q 34.50 57.80 33.95 57.46
  Q 32.82 56.77 32.35 57.55
  Q 32.19 57.81 32.47 57.95
  Z"
/>
<path fill="#d1d1d1" d="
  M 15.25 17.28
  A 0.27 0.27 0.0 0 1 15.53 17.01
  L 15.68 17.01
  A 30.82 0.86 0.3 0 1 46.49 18.03
  L 46.49 18.33
  A 30.82 0.86 0.3 0 1 15.66 19.03
  L 15.51 19.03
  A 0.27 0.27 0.0 0 1 15.25 18.76
  L 15.25 17.28
  Z"
/>
<rect fill="#d1d1d1" x="14.26" y="20.48" width="31.04" height="1.42" rx="0.61"/>
<rect fill="#d1d1d1" x="-15.57" y="-0.87" transform="translate(28.72,24.00) rotate(0.2)" width="31.14" height="1.74" rx="0.85"/>
<rect fill="#d1d1d1" x="-15.52" y="-0.82" transform="translate(27.30,26.88) rotate(0.4)" width="31.04" height="1.64" rx="0.80"/>
<path fill="#fefefe" d="
  M 70.30 50.39
  Q 67.72 57.79 64.88 64.99
  Q 63.98 67.27 61.65 65.85
  Q 59.72 64.68 57.77 63.47
  Q 57.30 63.18 56.99 63.63
  C 55.48 65.82 51.85 71.29 49.46 72.10
  L 25.13 72.41
  A 0.60 0.60 0.0 0 1 24.56 71.59
  L 27.79 63.13
  L 41.93 63.23
  Q 42.84 64.03 44.28 63.43
  A 0.68 0.68 0.0 0 1 45.13 64.41
  L 44.47 65.52
  A 0.23 0.22 88.0 0 0 44.79 65.82
  Q 45.77 65.15 45.91 63.96
  Q 45.97 63.47 45.52 63.25
  L 44.54 62.79
  Q 44.71 62.19 44.47 62.18
  L 50.72 59.67
  C 55.43 57.99 59.67 57.33 60.64 52.23
  Q 61.69 51.50 62.01 49.50
  Q 62.11 48.89 62.76 48.71
  Q 65.94 49.77 64.54 52.43
  Q 64.21 53.05 64.90 53.20
  L 65.83 53.40
  A 0.40 0.40 0.0 0 1 66.14 53.70
  Q 66.20 53.94 66.09 54.15
  Q 65.85 54.57 66.32 54.71
  Q 66.73 54.84 67.12 54.59
  Q 67.37 54.43 67.53 54.03
  Q 68.13 52.51 68.38 50.86
  Q 68.45 50.39 68.00 50.24
  Q 67.66 50.12 67.50 49.87
  Q 67.20 49.43 67.73 49.39
  L 68.80 49.29
  Q 69.35 49.25 69.32 48.70
  L 69.27 47.77
  Q 69.25 47.41 69.53 47.20
  Q 71.76 45.51 70.31 43.50
  Q 69.19 41.96 70.85 42.63
  Q 71.34 42.83 71.88 42.19
  C 72.45 41.51 72.26 40.67 71.91 39.93
  Q 71.67 39.42 71.28 39.82
  Q 70.99 40.12 70.92 40.52
  A 0.42 0.42 0.0 0 1 70.14 40.65
  L 69.93 40.29
  Q 69.65 39.82 69.10 39.81
  Q 67.74 39.78 66.65 39.29
  L 66.50 38.05
  Q 66.44 37.57 66.60 37.11
  C 67.47 34.71 68.49 30.57 70.06 28.67
  A 0.72 0.68 16.8 0 1 70.56 28.42
  L 77.67 27.88
  Q 78.63 27.81 78.29 28.72
  L 70.30 50.39
  Z
  M 43.90 67.84
  C 44.35 69.86 41.58 70.27 40.22 69.81
  A 0.29 0.28 -69.9 0 0 39.86 69.98
  L 39.78 70.22
  Q 39.74 70.33 39.85 70.36
  C 44.50 71.68 46.76 66.20 42.43 66.16
  Q 42.19 66.16 42.16 66.41
  L 42.15 66.42
  Q 42.12 66.66 42.37 66.69
  Q 43.68 66.82 43.90 67.84
  Z"
/>
<path fill="#d1d1d1" d="
  M 41.62 30.68
  A 0.27 0.27 0.0 0 1 41.35 30.95
  L 11.64 30.85
  A 1.12 0.58 0.2 0 1 10.52 30.27
  L 10.52 29.63
  A 1.12 0.58 0.2 0 1 11.64 29.05
  L 41.35 29.15
  A 0.27 0.27 0.0 0 1 41.62 29.42
  L 41.62 30.68
  Z"
/>
<path fill="#646464" d="
  M 50.87 29.72
  Q 51.41 30.25 51.45 31.20
  A 0.82 0.82 0.0 0 1 50.12 31.87
  L 48.80 30.80
  Q 50.09 29.22 50.87 29.72
  Z"
/>
<path fill="#d1d1d1" d="
  M 21.91 34.37
  L 22.14 33.67
  A 0.27 0.27 0.0 0 0 21.88 33.32
  L 10.34 33.23
  A 0.27 0.27 0.0 0 1 10.09 32.87
  L 10.47 31.80
  A 0.27 0.27 0.0 0 1 10.73 31.62
  L 40.89 32.24
  A 0.27 0.27 0.0 0 1 41.12 32.63
  L 40.83 33.22
  A 0.27 0.27 0.0 0 1 40.59 33.37
  L 29.65 33.30
  A 0.27 0.27 0.0 0 0 29.38 33.57
  L 29.38 34.86
  A 0.27 0.27 0.0 0 0 29.65 35.13
  L 39.43 35.09
  A 0.27 0.27 0.0 0 1 39.70 35.36
  L 39.70 36.00
  A 0.27 0.27 0.0 0 1 39.43 36.27
  L 8.91 36.07
  A 0.27 0.27 0.0 0 1 8.68 35.67
  L 9.28 34.60
  A 0.27 0.27 0.0 0 1 9.52 34.46
  L 21.65 34.56
  A 0.27 0.27 0.0 0 0 21.91 34.37
  Z"
/>
<path fill="#646464" d="
  M 22.62 38.51
  Q 22.60 38.08 23.03 38.06
  L 24.27 38.01
  Q 24.76 37.99 24.59 38.44
  L 21.89 45.77
  A 0.29 0.29 0.0 0 1 21.58 45.96
  L 21.19 45.90
  A 0.43 0.43 0.0 0 1 20.89 45.25
  Q 22.78 42.10 22.62 38.51
  Z"
/>
<path fill="#646464" d="
  M 65.19 39.44
  L 62.63 47.16
  Q 62.48 47.64 62.60 48.12
  L 62.76 48.71
  Q 62.11 48.89 62.01 49.50
  Q 61.69 51.50 60.64 52.23
  Q 60.46 51.45 59.77 50.80
  Q 59.35 50.40 59.63 49.90
  Q 60.04 49.17 59.55 48.39
  A 1.08 1.06 29.8 0 1 59.38 47.78
  L 59.40 45.97
  L 62.07 38.53
  Q 63.68 39.91 65.19 39.44
  Z"
/>
<path fill="#808080" d="
  M 66.65 39.29
  Q 67.74 39.78 69.10 39.81
  Q 69.65 39.82 69.93 40.29
  L 70.14 40.65
  A 0.42 0.42 0.0 0 0 70.92 40.52
  Q 70.99 40.12 71.28 39.82
  Q 71.67 39.42 71.91 39.93
  C 72.26 40.67 72.45 41.51 71.88 42.19
  Q 71.34 42.83 70.85 42.63
  Q 69.19 41.96 70.31 43.50
  Q 71.76 45.51 69.53 47.20
  Q 69.25 47.41 69.27 47.77
  L 69.32 48.70
  Q 69.35 49.25 68.80 49.29
  L 67.73 49.39
  Q 67.20 49.43 67.50 49.87
  Q 67.66 50.12 68.00 50.24
  Q 68.45 50.39 68.38 50.86
  Q 68.13 52.51 67.53 54.03
  Q 67.37 54.43 67.12 54.59
  Q 66.73 54.84 66.32 54.71
  Q 65.85 54.57 66.09 54.15
  Q 66.20 53.94 66.14 53.70
  A 0.40 0.40 0.0 0 0 65.83 53.40
  L 64.90 53.20
  Q 64.21 53.05 64.54 52.43
  Q 65.94 49.77 62.76 48.71
  L 62.60 48.12
  Q 62.48 47.64 62.63 47.16
  L 65.19 39.44
  Q 65.91 39.07 66.65 39.29
  Z"
/>
<path fill="#fefefe" d="
  M 85.72 51.48
  Q 81.01 63.70 76.59 75.65
  C 75.36 78.96 71.20 75.46 69.67 74.38
  A 0.59 0.59 0.0 0 0 68.86 74.51
  Q 66.51 77.72 63.92 80.92
  C 61.31 84.14 57.87 83.28 54.18 83.23
  Q 53.96 83.22 53.94 83.00
  Q 53.92 82.85 54.01 82.73
  Q 54.23 81.08 55.67 80.58
  Q 55.98 80.48 55.69 80.31
  L 55.40 80.14
  A 0.58 0.56 -66.0 0 1 55.15 79.46
  L 56.05 76.77
  A 0.22 0.22 0.0 0 0 55.65 76.58
  Q 54.69 78.01 54.41 79.71
  A 0.66 0.65 -85.3 0 1 53.77 80.26
  L 52.20 80.27
  A 0.41 0.41 0.0 0 1 51.90 79.57
  L 54.57 76.82
  Q 54.94 76.43 55.47 76.42
  Q 56.05 76.40 56.47 76.05
  Q 57.01 75.59 56.40 75.23
  Q 55.83 74.90 55.22 75.47
  Q 52.88 77.63 50.77 80.09
  Q 50.39 80.53 50.97 80.60
  L 53.72 80.90
  Q 54.10 80.95 53.91 81.28
  L 52.91 83.00
  L 37.44 82.99
  Q 36.47 82.99 36.82 82.09
  L 39.35 75.53
  Q 44.58 75.62 49.63 75.39
  C 52.96 75.23 55.68 73.96 58.68 72.70
  C 61.06 71.72 62.60 71.92 65.06 71.75
  C 74.27 71.09 79.51 60.30 74.16 52.98
  A 1.95 1.94 37.4 0 1 73.91 51.15
  L 78.02 40.32
  A 1.10 1.09 14.6 0 1 79.22 39.62
  Q 84.14 40.42 88.99 39.29
  A 0.72 0.72 0.0 0 1 89.83 40.24
  L 85.72 51.48
  Z"
/>
<path fill="#d1d1d1" d="
  M 39.58 42.44
  L 31.57 45.56
  Q 31.11 45.73 31.41 45.34
  L 35.35 40.10
  A 1.04 1.03 34.5 0 1 36.73 39.85
  L 39.65 41.71
  A 0.41 0.41 0.0 0 1 39.58 42.44
  Z"
/>
<path fill="#999999" d="
  M 59.40 45.97
  L 59.38 47.78
  A 1.08 1.06 29.8 0 0 59.55 48.39
  Q 60.04 49.17 59.63 49.90
  Q 59.35 50.40 59.77 50.80
  Q 60.46 51.45 60.64 52.23
  C 59.67 57.33 55.43 57.99 50.72 59.67
  Q 49.23 59.18 47.84 59.55
  Q 47.42 59.67 47.11 59.36
  L 46.85 59.10
  A 0.75 0.74 54.9 0 0 46.01 58.95
  Q 41.60 61.04 40.55 59.55
  Q 45.20 56.10 48.72 50.63
  Q 49.04 50.13 49.55 50.45
  Q 51.60 51.73 53.51 52.99
  Q 54.89 53.90 55.94 53.21
  Q 56.54 52.81 57.07 51.44
  Q 58.16 48.66 59.40 45.97
  Z
  M 53.38 54.67
  A 0.33 0.33 0.0 0 0 53.42 54.08
  L 49.58 51.82
  A 0.33 0.33 0.0 0 0 49.15 51.90
  L 45.01 57.38
  A 0.33 0.33 0.0 0 0 45.40 57.88
  L 53.38 54.67
  Z"
/>
<path fill="#646464" d="
  M 34.71 51.30
  A 0.97 0.96 -39.6 0 0 33.06 51.15
  Q 32.80 51.52 32.21 51.51
  Q 31.45 51.49 32.01 50.98
  Q 33.04 50.04 34.34 50.17
  A 1.75 1.75 0.0 0 1 35.65 52.84
  Q 34.43 54.78 32.53 56.07
  Q 32.02 56.42 31.73 56.96
  Q 31.15 58.01 29.87 58.12
  A 0.40 0.40 0.0 0 1 29.63 57.38
  C 31.03 56.50 35.74 53.50 34.71 51.30
  Z"
/>
<path fill="#808080" d="
  M 70.30 50.39
  Q 71.41 51.36 71.88 50.97
  Q 72.17 50.72 72.39 51.02
  C 72.98 51.81 72.29 54.07 72.56 55.25
  Q 70.00 61.63 67.62 68.12
  Q 67.16 69.39 64.61 70.14
  Q 61.49 71.04 58.34 70.35
  Q 57.84 70.24 57.37 70.42
  L 50.06 73.21
  A 0.45 0.45 0.0 0 1 49.52 73.02
  Q 49.23 72.56 49.46 72.10
  C 51.85 71.29 55.48 65.82 56.99 63.63
  Q 57.30 63.18 57.77 63.47
  Q 59.72 64.68 61.65 65.85
  Q 63.98 67.27 64.88 64.99
  Q 67.72 57.79 70.30 50.39
  Z
  M 61.66 67.67
  A 0.33 0.33 0.0 0 0 61.71 67.08
  L 58.15 64.94
  A 0.69 0.69 0.0 0 0 57.24 65.11
  L 53.32 70.25
  Q 52.64 71.14 53.69 70.74
  L 61.66 67.67
  Z"
/>
<path fill="#a8a9a8" d="
  M 73.39 98.00
  L 46.23 98.00
  Q 46.07 96.84 44.64 96.91
  Q 44.11 96.94 44.01 96.42
  Q 43.95 96.06 44.07 95.52
  Q 44.60 95.86 44.97 95.82
  Q 45.60 96.10 46.37 96.08
  Q 56.85 95.92 67.34 95.97
  C 71.66 95.99 74.38 90.99 76.58 88.04
  A 1.31 1.31 0.0 0 1 78.28 87.68
  L 82.16 89.87
  A 1.68 1.68 0.0 0 0 84.55 88.99
  L 97.82 53.53
  A 0.67 0.66 -80.8 0 0 97.18 52.63
  L 89.26 52.93
  L 94.87 52.27
  L 98.93 51.08
  A 1.02 1.02 0.0 0 1 100.23 51.90
  Q 100.35 52.70 101.00 52.93
  Q 101.58 53.13 101.44 53.73
  Q 100.82 56.40 100.38 57.58
  Q 93.98 74.57 87.59 91.56
  C 86.41 94.71 76.39 97.41 73.39 98.00
  Z
  M 74.74 93.95
  L 80.45 91.54
  Q 81.28 91.19 80.52 90.70
  L 78.45 89.36
  A 1.05 1.04 34.4 0 0 77.03 89.62
  L 74.30 93.39
  A 0.37 0.37 0.0 0 0 74.74 93.95
  Z"
/>
<path fill="#999999" d="
  M 89.65 51.87
  L 94.87 52.27
  L 89.26 52.93
  L 82.05 72.27
  Q 81.87 72.74 81.52 73.10
  Q 80.88 73.75 81.01 74.72
  A 1.30 1.29 59.5 0 1 80.77 75.66
  Q 79.98 76.71 79.87 78.01
  Q 79.83 78.52 79.50 78.90
  Q 76.39 82.47 71.39 82.88
  L 67.17 85.52
  C 65.24 85.67 63.42 86.14 61.60 86.17
  Q 55.32 86.24 49.01 86.12
  L 49.14 84.56
  A 0.36 0.35 86.5 0 0 48.72 84.18
  Q 48.32 84.27 48.14 84.64
  Q 47.38 86.21 48.81 86.25
  L 44.97 95.82
  Q 44.60 95.86 44.07 95.52
  Q 43.70 94.45 44.76 93.77
  A 0.70 0.70 0.0 0 0 45.05 92.97
  Q 44.64 91.66 45.66 90.91
  Q 46.14 90.56 46.02 89.98
  Q 45.87 89.28 46.52 89.06
  A 0.84 0.83 -11.2 0 0 47.07 88.25
  L 47.01 86.50
  Q 46.99 86.00 46.50 86.00
  L 37.95 86.00
  Q 37.37 86.00 37.16 85.46
  L 36.87 84.72
  A 1.24 1.22 -89.6 0 0 36.22 84.05
  L 35.39 83.68
  Q 34.86 83.45 35.08 82.91
  C 35.83 81.10 37.09 79.87 37.01 77.86
  Q 36.99 77.37 37.41 77.13
  Q 38.48 76.55 38.02 75.00
  Q 38.84 74.17 38.59 73.27
  A 0.41 0.41 0.0 0 1 38.99 72.75
  L 39.49 72.75
  Q 40.28 72.75 40.33 73.53
  Q 40.40 74.67 39.35 75.53
  L 36.82 82.09
  Q 36.47 82.99 37.44 82.99
  L 52.91 83.00
  L 54.01 82.73
  Q 53.92 82.85 53.94 83.00
  Q 53.96 83.22 54.18 83.23
  C 57.87 83.28 61.31 84.14 63.92 80.92
  Q 66.51 77.72 68.86 74.51
  A 0.59 0.59 0.0 0 1 69.67 74.38
  C 71.20 75.46 75.36 78.96 76.59 75.65
  Q 81.01 63.70 85.72 51.48
  Q 88.22 52.19 89.65 51.87
  Z
  M 72.72 78.59
  A 0.31 0.31 0.0 0 0 72.77 78.05
  L 69.67 75.86
  A 0.31 0.31 0.0 0 0 69.24 75.93
  L 65.55 80.99
  A 0.31 0.31 0.0 0 0 65.92 81.46
  L 72.72 78.59
  Z"
/>
<path fill="#d1d1d1" d="
  M 53.38 54.67
  L 45.40 57.88
  A 0.33 0.33 0.0 0 1 45.01 57.38
  L 49.15 51.90
  A 0.33 0.33 0.0 0 1 49.58 51.82
  L 53.42 54.08
  A 0.33 0.33 0.0 0 1 53.38 54.67
  Z"
/>
<path fill="#fefefe" d="
  M 44.97 95.82
  L 48.81 86.25
  Q 48.91 86.19 49.01 86.12
  Q 55.32 86.24 61.60 86.17
  C 63.42 86.14 65.24 85.67 67.17 85.52
  L 81.52 85.51
  A 0.73 0.73 0.0 0 0 82.21 85.02
  L 82.38 84.54
  Q 82.57 84.01 82.01 84.06
  Q 77.17 84.42 72.13 84.04
  Q 70.79 83.94 71.39 82.88
  Q 76.39 82.47 79.50 78.90
  Q 79.83 78.52 79.87 78.01
  Q 79.98 76.71 80.77 75.66
  A 1.30 1.29 59.5 0 0 81.01 74.72
  Q 80.88 73.75 81.52 73.10
  Q 81.87 72.74 82.05 72.27
  L 89.26 52.93
  L 97.18 52.63
  A 0.67 0.66 -80.8 0 1 97.82 53.53
  L 84.55 88.99
  A 1.68 1.68 0.0 0 1 82.16 89.87
  L 78.28 87.68
  A 1.31 1.31 0.0 0 0 76.58 88.04
  C 74.38 90.99 71.66 95.99 67.34 95.97
  Q 56.85 95.92 46.37 96.08
  Q 45.60 96.10 44.97 95.82
  Z
  M 65.28 92.35
  Q 64.04 95.11 61.01 94.23
  Q 60.75 94.16 60.69 94.39
  L 60.68 94.39
  Q 60.63 94.56 60.75 94.60
  Q 64.76 95.82 66.10 92.10
  Q 66.30 91.55 65.87 91.15
  Q 65.06 90.43 63.98 90.29
  A 0.59 0.59 0.0 0 1 63.49 89.52
  Q 64.31 87.08 67.24 87.85
  Q 67.27 87.85 67.27 87.82
  L 67.31 87.56
  Q 67.34 87.30 67.08 87.26
  Q 63.33 86.64 62.72 90.23
  Q 62.64 90.69 63.11 90.71
  Q 64.21 90.76 65.08 91.49
  Q 65.50 91.85 65.28 92.35
  Z"
/>
<path fill="#d1d1d1" d="
  M 64.61 70.14
  Q 67.16 69.39 67.62 68.12
  Q 70.00 61.63 72.56 55.25
  Q 72.63 54.35 73.00 54.00
  Q 73.45 53.58 73.70 54.14
  C 76.84 61.43 72.13 68.50 65.28 70.85
  Q 64.80 71.01 64.64 70.54
  Q 64.59 70.37 64.61 70.14
  Z"
/>
<path fill="#999999" d="
  M 32.47 57.95
  Q 32.19 57.81 32.35 57.55
  Q 32.82 56.77 33.95 57.46
  Q 34.50 57.80 33.89 58.03
  Q 33.17 58.29 32.47 57.95
  Z"
/>
<path fill="#d1d1d1" d="
  M 44.47 62.18
  Q 44.71 62.19 44.54 62.79
  L 41.93 63.23
  L 27.79 63.13
  Q 28.57 60.76 31.99 62.11
  Q 32.44 62.28 32.92 62.28
  L 44.47 62.18
  Z"
/>
<path fill="#2c2428" d="
  M 44.54 62.79
  L 45.52 63.25
  Q 45.97 63.47 45.91 63.96
  Q 45.77 65.15 44.79 65.82
  A 0.23 0.22 88.0 0 1 44.47 65.52
  L 45.13 64.41
  A 0.68 0.68 0.0 0 0 44.28 63.43
  Q 42.84 64.03 41.93 63.23
  L 44.54 62.79
  Z"
/>
<path fill="#d1d1d1" d="
  M 61.66 67.67
  L 53.69 70.74
  Q 52.64 71.14 53.32 70.25
  L 57.24 65.11
  A 0.69 0.69 0.0 0 1 58.15 64.94
  L 61.71 67.08
  A 0.33 0.33 0.0 0 1 61.66 67.67
  Z"
/>
<path fill="#2c2428" d="
  M 43.90 67.84
  Q 43.68 66.82 42.37 66.69
  Q 42.12 66.66 42.15 66.42
  L 42.16 66.41
  Q 42.19 66.16 42.43 66.16
  C 46.76 66.20 44.50 71.68 39.85 70.36
  Q 39.74 70.33 39.78 70.22
  L 39.86 69.98
  A 0.29 0.28 -69.9 0 1 40.22 69.81
  C 41.58 70.27 44.35 69.86 43.90 67.84
  Z"
/>
<path fill="#2c2428" d="
  M 54.01 82.73
  L 52.91 83.00
  L 53.91 81.28
  Q 54.10 80.95 53.72 80.90
  L 50.97 80.60
  Q 50.39 80.53 50.77 80.09
  Q 52.88 77.63 55.22 75.47
  Q 55.83 74.90 56.40 75.23
  Q 57.01 75.59 56.47 76.05
  Q 56.05 76.40 55.47 76.42
  Q 54.94 76.43 54.57 76.82
  L 51.90 79.57
  A 0.41 0.41 0.0 0 0 52.20 80.27
  L 53.77 80.26
  A 0.66 0.65 -85.3 0 0 54.41 79.71
  Q 54.69 78.01 55.65 76.58
  A 0.22 0.22 0.0 0 1 56.05 76.77
  L 55.15 79.46
  A 0.58 0.56 -66.0 0 0 55.40 80.14
  L 55.69 80.31
  Q 55.98 80.48 55.67 80.58
  Q 54.23 81.08 54.01 82.73
  Z"
/>
<path fill="#d1d1d1" d="
  M 72.72 78.59
  L 65.92 81.46
  A 0.31 0.31 0.0 0 1 65.55 80.99
  L 69.24 75.93
  A 0.31 0.31 0.0 0 1 69.67 75.86
  L 72.77 78.05
  A 0.31 0.31 0.0 0 1 72.72 78.59
  Z"
/>
<path fill="#d1d1d1" d="
  M 71.39 82.88
  Q 70.79 83.94 72.13 84.04
  Q 77.17 84.42 82.01 84.06
  Q 82.57 84.01 82.38 84.54
  L 82.21 85.02
  A 0.73 0.73 0.0 0 1 81.52 85.51
  L 67.17 85.52
  L 71.39 82.88
  Z"
/>
<path fill="#646464" d="
  M 49.01 86.12
  Q 48.91 86.19 48.81 86.25
  Q 47.38 86.21 48.14 84.64
  Q 48.32 84.27 48.72 84.18
  A 0.36 0.35 86.5 0 1 49.14 84.56
  L 49.01 86.12
  Z"
/>
<path fill="#2c2428" d="
  M 65.08 91.49
  Q 64.21 90.76 63.11 90.71
  Q 62.64 90.69 62.72 90.23
  Q 63.33 86.64 67.08 87.26
  Q 67.34 87.30 67.31 87.56
  L 67.27 87.82
  Q 67.27 87.85 67.24 87.85
  Q 64.31 87.08 63.49 89.52
  A 0.59 0.59 0.0 0 0 63.98 90.29
  Q 65.06 90.43 65.87 91.15
  Q 66.30 91.55 66.10 92.10
  Q 64.76 95.82 60.75 94.60
  Q 60.63 94.56 60.68 94.39
  L 60.69 94.39
  Q 60.75 94.16 61.01 94.23
  Q 64.04 95.11 65.28 92.35
  Q 65.50 91.85 65.08 91.49
  Z"
/>
<path fill="#d1d1d1" d="
  M 74.74 93.95
  A 0.37 0.37 0.0 0 1 74.30 93.39
  L 77.03 89.62
  A 1.05 1.04 34.4 0 1 78.45 89.36
  L 80.52 90.70
  Q 81.28 91.19 80.45 91.54
  L 74.74 93.95
  Z"
/>
</svg>
