<?xml version="1.0" encoding="UTF-8" standalone="no"?>
<!DOCTYPE svg PUBLIC "-//W3C//DTD SVG 1.1//EN" "http://www.w3.org/Graphics/SVG/1.1/DTD/svg11.dtd">
<svg xmlns="http://www.w3.org/2000/svg" version="1.1" viewBox="0.00 0.00 155.00 150.00">
<path fill="#453609" d="
  M 144.73 53.95
  L 141.30 57.33
  L 141.07 57.74
  L 141.19 58.20
  L 142.52 59.41
  L 143.89 59.52
  L 149.65 63.84
  L 151.06 65.66
  L 150.85 68.01
  L 150.78 68.46
  L 150.99 68.89
  L 151.93 70.41
  L 152.15 71.75
  L 151.26 73.72
  L 148.69 75.94
  L 146.96 77.33
  L 146.66 78.07
  L 147.04 78.76
  L 147.19 78.85
  L 149.54 80.72
  L 150.62 83.32
  L 151.19 84.32
  L 152.44 86.43
  L 151.69 88.67
  L 148.92 91.35
  L 147.97 92.15
  L 147.90 92.22
  L 148.06 93.50
  L 151.16 96.03
  L 152.20 98.45
  L 151.55 100.48
  L 151.39 100.91
  L 151.45 101.37
  L 151.92 102.50
  L 152.52 104.81
  L 151.68 106.69
  L 147.11 110.11
  L 87.28 146.51
  L 83.83 147.69
  L 81.47 147.52
  L 79.10 146.60
  L 3.21 104.33
  L 2.10 103.29
  L 1.73 101.82
  L 1.73 101.27
  L 2.12 100.17
  L 3.28 100.37
  L 80.29 143.46
  L 82.47 143.85
  L 85.10 143.15
  L 93.05 138.34
  L 93.95 137.71
  L 105.26 130.43
  L 127.31 116.97
  L 129.67 116.18
  L 132.00 113.96
  L 133.48 113.05
  L 133.92 112.66
  L 136.61 111.85
  L 147.13 105.03
  L 147.81 104.58
  L 147.96 104.46
  L 147.93 104.25
  L 147.90 104.20
  L 147.69 104.12
  L 144.93 104.40
  L 142.67 105.54
  L 140.53 107.01
  L 135.45 110.83
  L 131.94 112.55
  L 130.56 113.43
  L 129.30 114.25
  L 127.83 115.57
  L 124.47 116.53
  L 119.77 119.30
  L 116.56 121.27
  L 113.50 123.44
  L 110.28 125.49
  L 102.05 130.38
  L 93.08 136.75
  L 92.92 136.97
  L 92.95 137.25
  L 93.06 137.47
  L 92.24 137.54
  L 92.13 137.63
  L 89.01 140.03
  L 85.81 141.71
  L 83.01 142.31
  L 81.07 141.86
  L 4.24 99.50
  L 3.35 98.70
  L 2.97 97.50
  L 3.45 94.70
  L 4.71 93.22
  L 6.99 91.82
  L 8.01 91.26
  L 8.17 91.14
  L 8.02 89.94
  L 7.09 89.41
  L 3.08 86.69
  L 1.73 84.12
  L 2.82 81.57
  L 3.06 80.73
  L 2.93 78.24
  L 3.44 76.58
  L 6.53 74.29
  L 7.59 73.74
  L 8.05 73.08
  L 7.77 72.33
  L 7.53 72.17
  L 3.55 69.76
  L 2.51 68.51
  L 2.05 67.07
  L 2.96 64.55
  L 3.18 64.14
  L 3.24 63.64
  L 3.09 62.34
  L 3.16 59.79
  L 4.46 58.38
  L 8.19 55.93
  L 8.30 54.89
  L 8.21 54.81
  L 1.73 50.05
  L 1.28 49.23
  L 1.52 48.02
  L 2.66 47.17
  L 3.91 47.15
  L 4.91 47.90
  L 6.89 49.83
  L 9.71 50.74
  L 10.26 50.66
  L 9.92 50.23
  L 8.12 49.04
  L 5.85 47.49
  L 4.65 46.00
  L 4.27 43.79
  L 5.19 42.00
  L 7.53 40.15
  L 65.39 3.61
  L 67.72 2.46
  L 69.84 2.06
  L 73.09 2.71
  L 77.57 5.13
  L 78.06 5.43
  L 144.96 45.78
  L 146.54 47.12
  L 147.27 48.61
  L 146.85 51.38
  L 144.73 53.95
  Z
  M 75.24 83.74
  L 75.02 83.73
  L 74.90 83.94
  L 75.14 84.62
  L 81.11 88.26
  L 83.23 88.76
  L 84.99 88.36
  L 116.75 68.24
  L 117.85 67.69
  L 120.14 66.42
  L 121.16 64.94
  L 121.19 64.31
  L 144.12 50.29
  L 144.63 49.59
  L 144.49 48.75
  L 144.49 48.75
  L 144.49 48.74
  L 143.86 47.89
  L 141.09 45.83
  L 140.39 45.41
  L 73.43 5.36
  L 70.17 4.32
  L 67.94 4.60
  L 65.67 5.66
  L 8.57 42.07
  L 7.21 43.61
  L 7.06 45.15
  L 7.58 45.95
  L 10.89 47.85
  L 16.57 49.97
  L 22.96 52.47
  L 44.06 64.94
  L 75.24 83.74
  Z
  M 87.58 104.15
  L 88.62 104.50
  L 91.36 103.57
  L 99.67 98.03
  L 102.75 96.10
  L 103.11 95.36
  L 102.75 95.08
  L 114.91 87.81
  L 136.78 74.35
  L 148.29 66.57
  L 148.72 65.83
  L 148.42 65.04
  L 148.24 64.91
  L 140.86 60.80
  L 139.17 60.23
  L 135.90 60.67
  L 131.77 63.10
  L 130.06 64.25
  L 130.02 63.97
  L 129.63 63.45
  L 128.98 63.50
  L 128.78 63.71
  L 127.12 65.19
  L 123.97 66.50
  L 122.32 67.11
  L 118.61 69.65
  L 115.04 72.17
  L 104.87 78.12
  L 100.96 80.70
  L 94.12 84.81
  L 86.48 89.43
  L 83.79 90.30
  L 81.27 90.33
  L 80.85 90.15
  L 80.57 89.79
  L 80.30 89.30
  L 80.29 89.29
  L 79.55 88.69
  L 74.42 86.36
  L 71.62 85.90
  L 70.67 85.42
  L 70.33 85.58
  L 67.87 87.23
  L 65.50 88.15
  L 64.53 88.22
  L 65.26 87.59
  L 68.64 85.44
  L 68.72 85.38
  L 68.72 84.32
  L 68.49 84.12
  L 67.33 83.97
  L 61.88 86.66
  L 61.76 86.68
  L 61.66 86.59
  L 61.46 86.19
  L 61.61 85.69
  L 65.54 83.36
  L 65.76 82.97
  L 65.54 82.58
  L 65.21 82.38
  L 63.48 82.32
  L 58.42 84.88
  L 58.36 84.91
  L 57.58 84.49
  L 57.52 84.25
  L 57.52 84.17
  L 57.59 84.09
  L 61.63 81.72
  L 61.89 80.94
  L 61.19 80.10
  L 60.23 79.99
  L 57.67 80.97
  L 54.38 83.15
  L 53.99 83.28
  L 53.66 83.04
  L 53.45 82.76
  L 53.53 82.25
  L 57.91 79.11
  L 57.91 78.25
  L 57.75 78.17
  L 56.24 77.49
  L 54.97 76.37
  L 54.74 76.24
  L 54.52 76.38
  L 54.41 76.56
  L 54.34 76.73
  L 54.36 77.00
  L 54.63 77.09
  L 55.00 77.08
  L 55.13 77.12
  L 55.18 77.24
  L 55.20 77.50
  L 55.20 77.52
  L 55.00 77.64
  L 54.65 77.62
  L 54.49 77.49
  L 54.08 77.39
  L 49.31 79.53
  L 48.81 79.17
  L 48.89 78.99
  L 50.52 77.45
  L 52.45 76.43
  L 53.00 75.51
  L 52.93 75.07
  L 52.58 74.41
  L 51.84 74.52
  L 46.51 77.37
  L 45.98 77.27
  L 45.81 77.07
  L 45.65 76.65
  L 45.93 76.31
  L 49.48 74.05
  L 49.74 73.72
  L 49.55 73.34
  L 49.33 73.13
  L 48.68 72.79
  L 47.97 72.91
  L 42.77 75.28
  L 42.12 74.77
  L 42.26 74.52
  L 43.54 73.50
  L 45.71 72.44
  L 45.76 72.42
  L 45.96 71.71
  L 45.62 71.17
  L 44.53 70.86
  L 39.77 73.14
  L 39.07 72.94
  L 38.92 72.72
  L 38.85 72.40
  L 39.06 72.06
  L 41.94 70.13
  L 42.19 69.83
  L 42.20 69.44
  L 42.10 69.08
  L 41.82 68.66
  L 41.32 68.69
  L 35.97 70.88
  L 35.92 70.90
  L 35.36 70.53
  L 35.32 70.23
  L 35.34 70.11
  L 35.41 70.04
  L 39.10 67.81
  L 39.36 67.50
  L 39.07 67.23
  L 38.42 67.01
  L 36.15 67.19
  L 33.05 68.79
  L 32.17 69.31
  L 31.25 69.18
  L 31.04 68.97
  L 31.02 68.95
  L 31.10 68.52
  L 34.71 66.37
  L 35.36 65.66
  L 34.54 65.13
  L 34.53 65.13
  L 34.53 65.13
  L 32.18 65.34
  L 29.40 67.12
  L 28.67 67.20
  L 28.25 66.98
  L 28.02 66.73
  L 28.19 66.44
  L 31.66 63.59
  L 31.69 63.56
  L 31.67 62.77
  L 31.45 62.57
  L 30.44 62.44
  L 25.49 64.97
  L 25.27 65.00
  L 25.12 64.86
  L 24.92 64.50
  L 25.09 63.82
  L 28.55 61.64
  L 28.64 61.57
  L 28.53 60.80
  L 20.91 56.30
  L 20.11 56.59
  L 20.09 56.70
  L 19.96 57.78
  L 19.47 58.39
  L 17.78 59.17
  L 16.42 60.17
  L 16.34 60.23
  L 15.74 59.97
  L 15.38 58.59
  L 15.40 58.07
  L 15.77 57.70
  L 19.13 55.90
  L 19.36 55.65
  L 19.12 55.42
  L 18.84 55.30
  L 16.50 54.87
  L 13.47 55.46
  L 10.21 57.05
  L 6.45 59.65
  L 5.68 61.10
  L 6.28 62.62
  L 6.52 62.81
  L 14.66 66.82
  L 21.48 69.98
  L 79.78 104.72
  L 82.22 105.61
  L 82.22 105.61
  L 84.82 105.42
  L 87.58 104.15
  Z
  M 11.3478 68.6783
  L 11.2567 68.3075
  L 5.2179 64.6502
  L 4.8471 64.7413
  L 4.1322 65.9217
  L 4.2233 66.2925
  L 10.2621 69.9498
  L 10.6329 69.8587
  L 11.3478 68.6783
  Z
  M 142.58 79.24
  L 140.38 78.05
  L 138.12 78.65
  L 116.86 91.40
  L 115.22 91.36
  L 112.68 92.40
  L 97.70 101.82
  L 90.75 105.99
  L 89.93 106.95
  L 90.00 107.87
  L 86.80 109.49
  L 86.80 109.49
  L 83.31 110.11
  L 79.50 109.74
  L 78.82 109.67
  L 78.82 109.67
  L 77.32 110.03
  L 75.82 111.11
  L 74.95 110.92
  L 74.71 110.76
  L 74.68 110.01
  L 74.75 109.96
  L 76.40 108.94
  L 76.49 108.87
  L 76.46 107.84
  L 75.82 107.46
  L 75.33 107.29
  L 74.28 107.60
  L 73.10 108.31
  L 71.72 107.88
  L 69.94 106.93
  L 67.63 106.33
  L 67.38 106.21
  L 67.30 105.92
  L 67.32 105.58
  L 67.39 105.28
  L 68.03 104.75
  L 68.83 104.98
  L 70.99 106.53
  L 72.87 106.79
  L 72.87 106.79
  L 73.30 106.66
  L 73.88 106.21
  L 73.24 105.83
  L 70.29 105.05
  L 69.85 104.78
  L 66.55 101.74
  L 62.47 99.56
  L 62.16 99.53
  L 61.89 99.69
  L 61.69 99.90
  L 61.31 100.08
  L 61.03 99.78
  L 60.64 98.88
  L 59.94 98.09
  L 51.05 92.67
  L 50.61 92.49
  L 50.14 92.47
  L 47.92 92.47
  L 46.20 91.87
  L 46.87 90.54
  L 46.16 89.71
  L 44.35 89.06
  L 43.31 88.21
  L 41.91 88.57
  L 40.10 89.45
  L 38.89 89.15
  L 38.69 88.95
  L 38.64 88.89
  L 38.81 88.18
  L 39.96 87.62
  L 40.35 87.25
  L 40.29 86.72
  L 39.95 86.30
  L 39.45 86.11
  L 38.56 86.34
  L 37.26 86.93
  L 34.65 87.75
  L 34.26 87.71
  L 34.27 87.30
  L 34.63 86.88
  L 36.27 85.62
  L 36.81 84.24
  L 35.24 83.99
  L 34.47 84.21
  L 33.58 84.89
  L 33.18 85.17
  L 32.71 85.23
  L 31.92 84.98
  L 31.19 84.25
  L 33.32 83.19
  L 33.72 82.77
  L 33.45 82.28
  L 32.58 81.49
  L 31.82 81.11
  L 31.00 81.28
  L 30.75 81.42
  L 29.28 83.17
  L 27.38 83.05
  L 27.19 82.90
  L 27.33 82.06
  L 27.52 82.01
  L 28.52 81.73
  L 29.22 81.03
  L 29.23 81.02
  L 29.36 80.22
  L 28.88 79.58
  L 21.03 74.92
  L 20.96 74.88
  L 20.17 74.86
  L 19.62 75.42
  L 18.30 77.09
  L 16.26 77.20
  L 15.85 76.76
  L 15.86 76.41
  L 15.88 76.35
  L 16.07 76.07
  L 16.39 75.97
  L 17.94 75.44
  L 18.62 74.58
  L 18.70 74.15
  L 18.51 73.78
  L 17.71 73.10
  L 15.44 72.55
  L 12.83 73.10
  L 9.55 74.76
  L 6.40 77.16
  L 5.64 78.49
  L 6.04 79.91
  L 7.78 81.43
  L 22.43 90.72
  L 35.69 99.23
  L 73.28 120.98
  L 73.75 121.07
  L 74.00 120.67
  L 74.09 120.27
  L 74.06 119.72
  L 73.69 119.34
  L 30.36 94.31
  L 29.61 92.84
  L 29.68 92.25
  L 29.89 91.82
  L 30.37 91.91
  L 81.33 121.40
  L 83.44 121.95
  L 85.54 121.35
  L 146.45 83.88
  L 147.26 82.90
  L 146.87 81.67
  L 146.63 81.37
  L 144.93 80.03
  L 142.58 79.24
  Z
  M 10.2271 86.2783
  L 10.0067 85.2842
  L 5.2500 82.2538
  L 4.2559 82.4742
  L 4.2129 82.5417
  L 4.4333 83.5358
  L 9.1900 86.5662
  L 10.1841 86.3458
  L 10.2271 86.2783
  Z
  M 148.33 86.94
  L 149.20 86.35
  L 149.62 85.75
  L 149.78 85.13
  L 149.19 85.38
  L 146.82 87.05
  L 146.45 87.42
  L 146.97 87.39
  L 148.33 86.94
  Z
  M 134.59 97.30
  L 132.73 97.67
  L 131.05 99.52
  L 95.25 121.78
  L 87.72 125.35
  L 86.40 126.26
  L 83.33 127.10
  L 82.31 127.14
  L 79.61 127.80
  L 76.98 129.24
  L 75.91 128.91
  L 76.38 127.87
  L 78.42 126.11
  L 78.48 126.05
  L 78.40 125.29
  L 76.14 124.18
  L 73.17 123.74
  L 72.61 123.83
  L 72.05 124.15
  L 70.48 125.01
  L 68.59 125.12
  L 68.36 125.02
  L 68.45 124.14
  L 70.30 123.24
  L 70.63 122.91
  L 70.58 122.44
  L 69.63 121.37
  L 67.01 121.61
  L 64.14 121.86
  L 63.39 121.31
  L 65.57 120.01
  L 66.10 119.59
  L 65.72 119.04
  L 65.23 118.66
  L 63.54 118.64
  L 61.12 120.37
  L 59.81 120.26
  L 59.45 119.38
  L 59.72 119.21
  L 60.96 118.69
  L 61.83 118.02
  L 61.79 116.81
  L 61.74 116.77
  L 61.54 116.61
  L 59.60 116.51
  L 56.27 118.49
  L 55.55 118.16
  L 55.56 117.98
  L 55.78 116.98
  L 56.80 116.04
  L 57.65 115.84
  L 58.26 115.56
  L 58.55 115.24
  L 58.38 114.85
  L 57.41 114.18
  L 55.74 114.18
  L 53.44 115.24
  L 52.05 115.95
  L 51.45 115.71
  L 51.29 115.34
  L 51.53 114.64
  L 53.87 113.35
  L 53.99 113.27
  L 53.92 112.28
  L 53.26 111.83
  L 51.92 111.83
  L 49.94 112.87
  L 48.17 113.40
  L 48.01 113.40
  L 47.82 112.81
  L 48.88 111.79
  L 50.48 110.92
  L 50.62 110.83
  L 50.50 110.13
  L 48.89 109.45
  L 48.39 109.36
  L 47.87 109.55
  L 47.13 110.03
  L 45.32 111.01
  L 44.28 111.15
  L 43.88 110.90
  L 43.76 110.73
  L 44.23 109.90
  L 45.44 109.54
  L 46.11 109.05
  L 46.33 108.68
  L 46.27 108.26
  L 45.23 107.12
  L 44.23 107.17
  L 39.24 109.13
  L 39.22 109.14
  L 39.04 109.02
  L 38.98 108.75
  L 38.99 108.62
  L 39.05 108.54
  L 41.40 106.65
  L 42.07 105.68
  L 40.77 105.25
  L 37.83 106.41
  L 36.43 106.50
  L 35.97 106.28
  L 35.83 105.51
  L 35.97 105.41
  L 38.02 104.46
  L 38.74 103.80
  L 38.00 103.18
  L 36.61 102.94
  L 35.27 103.40
  L 33.98 104.55
  L 32.95 104.79
  L 32.66 104.67
  L 32.45 103.81
  L 32.55 103.71
  L 34.76 102.10
  L 34.72 101.10
  L 34.52 101.02
  L 32.60 100.63
  L 31.60 100.95
  L 30.09 101.96
  L 28.41 102.10
  L 28.20 102.01
  L 28.09 101.82
  L 28.02 101.57
  L 28.04 101.28
  L 28.27 101.09
  L 30.47 100.25
  L 30.66 99.39
  L 30.49 99.27
  L 27.97 99.03
  L 26.56 100.08
  L 26.17 100.35
  L 25.70 100.27
  L 25.10 99.97
  L 25.00 99.90
  L 25.04 99.12
  L 26.81 97.85
  L 26.98 97.66
  L 26.52 96.73
  L 25.86 96.72
  L 23.64 97.68
  L 22.20 98.47
  L 21.63 98.53
  L 21.11 98.27
  L 20.88 98.08
  L 20.75 97.85
  L 20.90 97.64
  L 23.63 95.76
  L 23.71 95.69
  L 23.60 94.89
  L 17.72 91.32
  L 16.62 90.83
  L 14.69 90.64
  L 12.74 91.08
  L 7.66 93.97
  L 6.88 94.50
  L 6.50 94.82
  L 5.96 96.61
  L 7.03 98.14
  L 77.38 137.56
  L 80.65 139.05
  L 83.19 139.35
  L 86.08 138.34
  L 148.09 100.36
  L 149.41 98.72
  L 148.57 96.72
  L 146.05 94.62
  L 143.41 93.66
  L 139.14 94.20
  L 134.59 97.30
  Z"
/>
<path fill="#fefcf9" d="
  M 121.19 64.31
  L 86.77 85.83
  L 84.74 86.70
  L 81.50 86.55
  L 77.24 84.72
  L 75.24 83.74
  L 44.06 64.94
  L 22.96 52.47
  L 16.57 49.97
  L 10.89 47.85
  L 7.58 45.95
  L 7.06 45.15
  L 7.21 43.61
  L 8.57 42.07
  L 65.67 5.66
  L 67.94 4.60
  L 70.17 4.32
  L 70.17 4.32
  L 73.43 5.36
  L 140.39 45.41
  L 141.09 45.83
  L 143.86 47.89
  L 144.49 48.74
  L 144.49 48.75
  L 144.63 49.59
  L 144.12 50.29
  L 121.19 64.31
  Z
  M 67.54 12.30
  L 67.75 12.41
  L 69.96 13.45
  L 71.45 13.52
  L 73.25 12.00
  L 73.45 10.73
  L 72.64 9.73
  L 72.50 9.67
  L 70.18 9.09
  L 67.50 9.17
  L 67.47 9.18
  L 66.58 9.78
  L 66.38 10.84
  L 66.60 11.42
  L 67.54 12.30
  Z
  M 61.36 15.00
  L 62.75 15.67
  L 66.64 16.97
  L 67.03 16.19
  L 66.91 16.04
  L 63.73 13.41
  L 62.26 13.34
  L 61.26 14.04
  L 60.87 14.56
  L 61.36 15.00
  Z
  M 77.7436 14.1072
  L 76.6374 13.8700
  L 53.6318 28.7530
  L 53.3946 29.8592
  L 53.4164 29.8928
  L 54.5226 30.1300
  L 77.5282 15.2470
  L 77.7654 14.1408
  L 77.7436 14.1072
  Z
  M 80.7201 15.9616
  L 80.1808 15.8460
  L 29.9884 48.3170
  L 29.8727 48.8563
  L 30.3399 49.5784
  L 30.8792 49.6940
  L 81.0716 17.2230
  L 81.1873 16.6837
  L 80.7201 15.9616
  Z
  M 84.2086 18.1724
  L 83.4622 18.0111
  L 33.9528 49.9177
  L 33.7914 50.6641
  L 34.0514 51.0676
  L 34.7978 51.2289
  L 84.3072 19.3223
  L 84.4686 18.5759
  L 84.2086 18.1724
  Z
  M 88.1018 19.9737
  L 87.2175 19.7808
  L 37.1981 51.8927
  L 37.0053 52.7771
  L 37.1782 53.0463
  L 38.0625 53.2392
  L 88.0819 21.1273
  L 88.2747 20.2429
  L 88.1018 19.9737
  Z
  M 53.0819 21.1611
  L 52.7228 21.0822
  L 31.6952 34.5299
  L 31.6162 34.8890
  L 32.1981 35.7989
  L 32.5572 35.8778
  L 53.5848 22.4301
  L 53.6638 22.0710
  L 53.0819 21.1611
  Z
  M 91.4585 21.9420
  L 90.6433 21.7642
  L 40.2031 54.1462
  L 40.0254 54.9614
  L 40.2415 55.2980
  L 41.0567 55.4758
  L 91.4969 23.0938
  L 91.6746 22.2786
  L 91.4585 21.9420
  Z
  M 57.1012 23.0355
  L 56.6316 22.9322
  L 35.7556 36.2830
  L 35.6524 36.7526
  L 36.1588 37.5445
  L 36.6284 37.6478
  L 57.5044 24.2970
  L 57.6076 23.8274
  L 57.1012 23.0355
  Z
  M 94.3364 24.2633
  L 93.4935 24.0795
  L 43.6929 56.0509
  L 43.5091 56.8938
  L 43.7036 57.1967
  L 44.5465 57.3805
  L 94.3471 25.4091
  L 94.5309 24.5662
  L 94.3364 24.2633
  Z
  M 97.7163 26.3266
  L 96.7211 26.1114
  L 47.3630 57.9205
  L 47.1478 58.9157
  L 47.2237 59.0334
  L 48.2189 59.2486
  L 97.5770 27.4395
  L 97.7922 26.4443
  L 97.7163 26.3266
  Z
  M 101.0402 28.0642
  L 100.3629 27.9178
  L 50.3828 60.1277
  L 50.2364 60.8051
  L 50.5398 61.2758
  L 51.2171 61.4222
  L 101.1972 29.2123
  L 101.3436 28.5349
  L 101.0402 28.0642
  Z
  M 104.3625 30.1498
  L 103.5881 29.9838
  L 53.8154 62.1832
  L 53.6494 62.9575
  L 53.8775 63.3102
  L 54.6519 63.4762
  L 104.4246 31.2768
  L 104.5906 30.5025
  L 104.3625 30.1498
  Z
  M 107.6629 32.3101
  L 106.7226 32.1085
  L 57.5209 63.9385
  L 57.3193 64.8788
  L 57.4171 65.0299
  L 58.3574 65.2315
  L 107.5591 33.4015
  L 107.7607 32.4612
  L 107.6629 32.3101
  Z
  M 111.5042 33.9503
  L 110.7160 33.7813
  L 60.3892 66.3392
  L 60.2202 67.1274
  L 60.4158 67.4297
  L 61.2040 67.5987
  L 111.5308 35.0408
  L 111.6998 34.2526
  L 111.5042 33.9503
  Z
  M 114.5278 35.8483
  L 114.1545 35.7683
  L 63.3742 68.6195
  L 63.2942 68.9928
  L 63.7722 69.7317
  L 64.1455 69.8117
  L 114.9258 36.9605
  L 115.0058 36.5872
  L 114.5278 35.8483
  Z
  M 24.29 42.99
  L 24.46 43.75
  L 24.71 44.17
  L 25.18 44.06
  L 27.64 42.40
  L 28.63 41.99
  L 29.22 42.14
  L 29.66 42.60
  L 29.81 43.03
  L 29.32 44.44
  L 28.15 45.48
  L 27.98 45.83
  L 28.02 46.50
  L 28.16 46.82
  L 28.51 46.74
  L 31.88 44.61
  L 32.51 43.12
  L 31.46 41.06
  L 29.48 40.09
  L 26.19 39.93
  L 24.00 39.91
  L 23.98 39.91
  L 23.52 39.28
  L 23.75 37.80
  L 23.75 37.67
  L 23.13 37.32
  L 21.61 38.16
  L 20.47 39.11
  L 20.25 39.47
  L 20.23 39.90
  L 20.79 41.56
  L 21.72 42.50
  L 23.66 42.60
  L 24.08 42.63
  L 24.29 42.99
  Z
  M 117.5345 38.3966
  L 116.8849 38.2561
  L 67.4259 70.1303
  L 67.2855 70.7799
  L 67.5455 71.1834
  L 68.1951 71.3239
  L 117.6541 39.4497
  L 117.7945 38.8001
  L 117.5345 38.3966
  Z
  M 121.0895 40.1976
  L 120.4951 40.0691
  L 71.3556 71.7373
  L 71.2271 72.3317
  L 71.5305 72.8024
  L 72.1249 72.9309
  L 121.2644 41.2627
  L 121.3929 40.6683
  L 121.0895 40.1976
  Z
  M 124.9199 41.7458
  L 124.5607 41.6675
  L 73.9522 74.1576
  L 73.8739 74.5168
  L 74.3601 75.2742
  L 74.7193 75.3525
  L 125.3278 42.8624
  L 125.4061 42.5032
  L 124.9199 41.7458
  Z
  M 127.8884 44.1267
  L 127.4187 44.0235
  L 77.2254 76.1234
  L 77.1222 76.5930
  L 77.5316 77.2333
  L 78.0013 77.3365
  L 128.1946 45.2366
  L 128.2978 44.7670
  L 127.8884 44.1267
  Z
  M 131.4718 46.2081
  L 130.8781 46.0765
  L 80.8482 77.9491
  L 80.7165 78.5428
  L 81.0282 79.0319
  L 81.6219 79.1635
  L 131.6518 47.2909
  L 131.7835 46.6972
  L 131.4718 46.2081
  Z
  M 134.7293 48.1092
  L 134.3703 48.0296
  L 84.2560 79.9559
  L 84.1764 80.3149
  L 84.6707 81.0908
  L 85.0297 81.1704
  L 135.1440 49.2441
  L 135.2236 48.8851
  L 134.7293 48.1092
  Z"
/>
<path fill="#070705" d="
  M 67.54 12.30
  L 66.60 11.42
  L 66.38 10.84
  L 66.58 9.78
  L 67.47 9.18
  L 67.47 9.18
  L 67.50 9.17
  L 70.18 9.09
  L 72.50 9.67
  L 72.64 9.73
  L 73.45 10.73
  L 73.25 12.00
  L 71.45 13.52
  L 69.96 13.45
  L 67.75 12.41
  L 67.54 12.30
  Z
  M 69.20 10.09
  L 68.51 10.19
  L 68.69 10.86
  L 69.56 11.84
  L 71.07 12.57
  L 71.75 12.38
  L 71.93 11.70
  L 71.75 11.39
  L 70.71 10.60
  L 69.20 10.09
  Z"
/>
<path fill="#fefcf9" d="
  M 69.20 10.09
  L 70.71 10.60
  L 71.75 11.39
  L 71.93 11.70
  L 71.75 12.38
  L 71.07 12.57
  L 69.56 11.84
  L 68.69 10.86
  L 68.51 10.19
  L 69.20 10.09
  Z"
/>
<path fill="#070705" d="
  M 66.64 16.97
  L 62.75 15.67
  L 61.36 15.00
  L 60.87 14.56
  L 61.26 14.04
  L 62.26 13.34
  L 63.73 13.41
  L 66.91 16.04
  L 67.03 16.19
  L 66.64 16.97
  Z"
/>
<rect fill="#282826" x="-14.50" y="-0.82" transform="translate(65.58,22.00) rotate(-32.9)" width="29.00" height="1.64" rx="0.80"/>
<rect fill="#282826" x="-30.28" y="-0.82" transform="translate(55.53,32.77) rotate(-32.9)" width="60.56" height="1.64" rx="0.39"/>
<rect fill="#282826" x="-29.99" y="-0.78" transform="translate(59.13,34.62) rotate(-32.8)" width="59.98" height="1.56" rx="0.54"/>
<rect fill="#282826" x="-30.36" y="-0.80" transform="translate(62.64,36.51) rotate(-32.7)" width="60.72" height="1.60" rx="0.64"/>
<rect fill="#282826" x="-12.74" y="-0.80" transform="translate(42.64,28.48) rotate(-32.6)" width="25.48" height="1.60" rx="0.26"/>
<rect fill="#282826" x="-30.56" y="-0.79" transform="translate(65.85,38.62) rotate(-32.7)" width="61.12" height="1.58" rx="0.59"/>
<rect fill="#282826" x="-12.73" y="-0.81" transform="translate(46.63,30.29) rotate(-32.6)" width="25.46" height="1.62" rx="0.34"/>
<rect fill="#282826" x="-30.20" y="-0.79" transform="translate(69.02,40.73) rotate(-32.7)" width="60.40" height="1.58" rx="0.61"/>
<rect fill="#282826" x="-30.08" y="-0.79" transform="translate(72.47,42.68) rotate(-32.8)" width="60.16" height="1.58" rx="0.72"/>
<rect fill="#282826" x="-30.22" y="-0.77" transform="translate(75.79,44.67) rotate(-32.8)" width="60.44" height="1.54" rx="0.49"/>
<rect fill="#282826" x="-30.20" y="-0.77" transform="translate(79.12,46.73) rotate(-32.9)" width="60.40" height="1.54" rx="0.56"/>
<rect fill="#282826" x="-29.98" y="-0.77" transform="translate(82.54,48.67) rotate(-32.9)" width="59.96" height="1.54" rx="0.68"/>
<rect fill="#282826" x="-30.54" y="-0.75" transform="translate(85.96,50.69) rotate(-32.9)" width="61.08" height="1.50" rx="0.57"/>
<rect fill="#070705" x="-30.51" y="-0.71" transform="translate(89.15,52.79) rotate(-32.9)" width="61.02" height="1.42" rx="0.27"/>
<path fill="#070705" d="
  M 23.66 42.60
  L 21.72 42.50
  L 20.79 41.56
  L 20.23 39.90
  L 20.25 39.47
  L 20.47 39.11
  L 21.61 38.16
  L 23.13 37.32
  L 23.75 37.67
  L 23.75 37.80
  L 23.52 39.28
  L 23.98 39.91
  L 24.00 39.91
  L 26.19 39.93
  L 29.48 40.09
  L 31.46 41.06
  L 32.51 43.12
  L 31.88 44.61
  L 28.51 46.74
  L 28.16 46.82
  L 28.02 46.50
  L 27.98 45.83
  L 28.15 45.48
  L 29.32 44.44
  L 29.81 43.03
  L 29.66 42.60
  L 29.22 42.14
  L 28.63 41.99
  L 27.64 42.40
  L 25.18 44.06
  L 24.71 44.17
  L 24.46 43.75
  L 24.29 42.99
  L 24.08 42.63
  L 23.66 42.60
  Z"
/>
<rect fill="#070705" x="-29.89" y="-0.71" transform="translate(92.54,54.79) rotate(-32.8)" width="59.78" height="1.42" rx="0.47"/>
<rect fill="#070705" x="-29.66" y="-0.71" transform="translate(96.31,56.50) rotate(-32.8)" width="59.32" height="1.42" rx="0.43"/>
<rect fill="#070705" x="-30.33" y="-0.71" transform="translate(99.64,58.51) rotate(-32.7)" width="60.66" height="1.42" rx="0.26"/>
<rect fill="#070705" x="-30.13" y="-0.72" transform="translate(102.71,60.68) rotate(-32.6)" width="60.26" height="1.44" rx="0.34"/>
<rect fill="#070705" x="-30.09" y="-0.72" transform="translate(106.25,62.62) rotate(-32.5)" width="60.18" height="1.44" rx="0.43"/>
<rect fill="#070705" x="-29.97" y="-0.72" transform="translate(109.70,64.60) rotate(-32.5)" width="59.94" height="1.44" rx="0.26"/>
<path fill="#c4af9b" d="
  M 144.73 53.95
  L 147.02 55.22
  L 147.28 56.14
  L 146.96 57.22
  L 146.04 57.86
  L 144.08 59.17
  L 143.89 59.52
  L 142.52 59.41
  L 141.19 58.20
  L 141.07 57.74
  L 141.30 57.33
  L 144.73 53.95
  Z"
/>
<path fill="#fefcf9" d="
  M 71.62 85.90
  L 70.19 88.10
  L 67.97 90.23
  L 67.80 90.51
  L 67.95 90.78
  L 68.05 90.86
  L 68.29 90.94
  L 68.89 90.71
  L 71.29 89.20
  L 73.77 88.53
  L 74.33 88.50
  L 75.64 88.76
  L 74.63 89.62
  L 71.72 91.20
  L 71.44 92.15
  L 71.81 92.61
  L 72.23 92.78
  L 72.64 92.58
  L 75.06 90.86
  L 78.48 89.89
  L 78.88 90.38
  L 78.80 90.52
  L 77.44 91.99
  L 75.96 92.53
  L 74.95 92.64
  L 74.38 93.02
  L 74.16 93.46
  L 74.52 93.78
  L 76.62 93.91
  L 77.75 94.59
  L 79.30 94.73
  L 81.10 94.17
  L 81.90 94.05
  L 82.81 95.07
  L 80.25 96.64
  L 79.96 97.55
  L 80.10 97.88
  L 80.11 97.90
  L 80.52 98.01
  L 96.74 88.20
  L 97.29 88.00
  L 97.82 88.04
  L 99.50 88.65
  L 101.02 89.52
  L 101.27 89.63
  L 101.89 89.37
  L 102.08 89.09
  L 102.26 88.45
  L 101.77 87.99
  L 98.60 86.63
  L 97.57 85.15
  L 97.52 84.33
  L 97.54 84.17
  L 98.35 83.84
  L 104.26 87.46
  L 104.27 87.46
  L 104.69 87.35
  L 104.89 87.01
  L 104.69 86.18
  L 100.15 83.24
  L 99.94 82.97
  L 100.08 82.66
  L 100.28 82.48
  L 101.48 82.17
  L 102.97 82.51
  L 107.10 84.97
  L 107.64 85.19
  L 108.21 84.97
  L 108.53 84.73
  L 108.55 83.95
  L 108.47 83.90
  L 103.74 81.13
  L 103.48 80.83
  L 103.77 80.56
  L 106.59 80.65
  L 110.58 82.84
  L 111.37 83.06
  L 112.84 82.93
  L 113.00 82.88
  L 112.98 82.28
  L 107.17 79.11
  L 107.01 78.98
  L 107.24 78.01
  L 107.76 77.79
  L 109.59 77.91
  L 114.94 80.97
  L 115.03 81.01
  L 115.94 80.53
  L 116.02 80.20
  L 115.78 79.66
  L 110.70 76.82
  L 110.62 76.26
  L 110.69 76.20
  L 113.31 74.65
  L 113.84 74.53
  L 114.26 74.85
  L 114.57 75.28
  L 114.95 75.67
  L 115.44 75.89
  L 117.64 76.79
  L 119.24 78.05
  L 120.41 78.14
  L 120.66 77.96
  L 120.86 77.66
  L 120.70 77.33
  L 118.27 75.42
  L 115.44 73.92
  L 115.28 73.81
  L 115.46 73.03
  L 116.29 72.72
  L 117.24 72.57
  L 118.21 72.87
  L 123.46 75.78
  L 124.15 75.57
  L 124.16 75.56
  L 124.32 75.23
  L 124.13 74.61
  L 119.65 71.96
  L 119.64 71.96
  L 119.45 71.12
  L 119.84 70.69
  L 119.86 70.67
  L 120.27 70.50
  L 120.72 70.58
  L 127.51 73.71
  L 127.87 73.76
  L 128.14 73.49
  L 128.27 73.25
  L 128.28 73.15
  L 128.22 73.08
  L 122.74 69.79
  L 122.38 69.36
  L 122.75 68.94
  L 123.80 68.34
  L 124.37 68.18
  L 124.91 68.34
  L 130.51 71.57
  L 131.13 71.40
  L 131.13 71.40
  L 131.31 71.07
  L 131.39 70.67
  L 131.13 70.36
  L 128.00 68.46
  L 126.07 66.78
  L 128.64 66.82
  L 131.14 67.78
  L 133.96 69.76
  L 134.69 69.70
  L 134.87 69.50
  L 134.75 68.38
  L 134.70 68.35
  L 130.27 65.49
  L 130.06 65.28
  L 130.06 64.25
  L 131.77 63.10
  L 135.90 60.67
  L 139.17 60.23
  L 140.86 60.80
  L 148.24 64.91
  L 148.42 65.04
  L 148.72 65.83
  L 148.29 66.57
  L 136.78 74.35
  L 114.91 87.81
  L 102.75 95.08
  L 87.58 104.15
  L 84.82 105.42
  L 82.22 105.61
  L 79.78 104.72
  L 21.48 69.98
  L 14.66 66.82
  L 6.52 62.81
  L 6.28 62.62
  L 5.68 61.10
  L 6.45 59.65
  L 10.21 57.05
  L 13.47 55.46
  L 16.50 54.87
  L 18.84 55.30
  L 19.12 55.42
  L 19.36 55.65
  L 19.13 55.90
  L 15.77 57.70
  L 15.40 58.07
  L 15.38 58.59
  L 15.74 59.97
  L 16.34 60.23
  L 16.42 60.17
  L 17.78 59.17
  L 19.47 58.39
  L 19.96 57.78
  L 20.09 56.70
  L 20.11 56.59
  L 20.91 56.30
  L 28.53 60.80
  L 28.64 61.57
  L 28.55 61.64
  L 25.09 63.82
  L 24.92 64.50
  L 25.12 64.86
  L 25.27 65.00
  L 25.49 64.97
  L 30.44 62.44
  L 31.45 62.57
  L 31.67 62.77
  L 31.69 63.56
  L 31.66 63.59
  L 28.19 66.44
  L 28.02 66.73
  L 28.25 66.98
  L 28.67 67.20
  L 29.40 67.12
  L 32.18 65.34
  L 34.53 65.13
  L 34.53 65.13
  L 34.54 65.13
  L 35.36 65.66
  L 34.71 66.37
  L 31.10 68.52
  L 31.02 68.95
  L 31.04 68.97
  L 31.25 69.18
  L 32.17 69.31
  L 33.05 68.79
  L 36.15 67.19
  L 38.42 67.01
  L 39.07 67.23
  L 39.36 67.50
  L 39.10 67.81
  L 35.41 70.04
  L 35.34 70.11
  L 35.32 70.23
  L 35.36 70.53
  L 35.92 70.90
  L 35.97 70.88
  L 41.32 68.69
  L 41.82 68.66
  L 42.10 69.08
  L 42.20 69.44
  L 42.19 69.83
  L 41.94 70.13
  L 39.06 72.06
  L 38.88 72.65
  L 38.92 72.72
  L 39.07 72.94
  L 39.77 73.14
  L 44.53 70.86
  L 45.62 71.17
  L 45.96 71.71
  L 45.76 72.42
  L 45.71 72.44
  L 43.54 73.50
  L 42.26 74.52
  L 42.12 74.77
  L 42.77 75.28
  L 47.97 72.91
  L 48.68 72.79
  L 49.33 73.13
  L 49.55 73.34
  L 49.74 73.72
  L 49.48 74.05
  L 45.93 76.31
  L 45.65 76.65
  L 45.81 77.07
  L 45.98 77.27
  L 46.51 77.37
  L 51.84 74.52
  L 52.58 74.41
  L 52.93 75.07
  L 53.00 75.51
  L 52.45 76.43
  L 50.52 77.45
  L 48.89 78.99
  L 48.81 79.17
  L 49.31 79.53
  L 54.08 77.39
  L 54.49 77.49
  L 54.65 77.62
  L 55.00 77.64
  L 55.20 77.52
  L 55.20 77.50
  L 55.18 77.24
  L 55.13 77.12
  L 55.00 77.08
  L 54.63 77.09
  L 54.36 77.00
  L 54.34 76.73
  L 54.41 76.56
  L 54.52 76.38
  L 54.74 76.24
  L 54.97 76.37
  L 56.24 77.49
  L 57.75 78.17
  L 57.91 78.25
  L 57.91 79.11
  L 53.53 82.25
  L 53.45 82.76
  L 53.66 83.04
  L 53.99 83.28
  L 54.38 83.15
  L 57.67 80.97
  L 60.23 79.99
  L 61.19 80.10
  L 61.89 80.94
  L 61.63 81.72
  L 57.59 84.09
  L 57.52 84.17
  L 57.52 84.25
  L 57.58 84.49
  L 58.36 84.91
  L 58.42 84.88
  L 63.48 82.32
  L 65.21 82.38
  L 65.54 82.58
  L 65.76 82.97
  L 65.54 83.36
  L 61.61 85.69
  L 61.46 86.19
  L 61.66 86.59
  L 61.76 86.68
  L 61.88 86.66
  L 67.33 83.97
  L 68.49 84.12
  L 68.72 84.32
  L 68.72 85.38
  L 68.64 85.44
  L 65.26 87.59
  L 64.53 88.22
  L 65.50 88.15
  L 67.87 87.23
  L 70.33 85.58
  L 70.67 85.42
  L 71.62 85.90
  Z
  M 20.49 63.41
  L 25.83 60.85
  L 25.84 60.85
  L 25.90 60.65
  L 25.88 60.62
  L 24.55 59.85
  L 22.42 60.29
  L 22.18 60.40
  L 20.51 61.79
  L 20.27 63.31
  L 20.27 63.31
  L 20.27 63.31
  L 20.29 63.34
  L 20.49 63.41
  Z
  M 135.89 65.54
  L 135.40 65.91
  L 135.93 66.24
  L 136.98 66.36
  L 138.26 66.01
  L 138.59 65.65
  L 138.43 64.94
  L 137.71 64.80
  L 135.89 65.54
  Z
  M 97.9177 90.0004
  L 97.3532 89.8680
  L 82.7520 98.9211
  L 82.6196 99.4856
  L 83.0623 100.1996
  L 83.6268 100.3320
  L 98.2280 91.2789
  L 98.3604 90.7144
  L 97.9177 90.0004
  Z"
/>
<path fill="#453609" d="
  M 20.49 63.41
  L 20.41 63.43
  L 20.29 63.34
  L 20.27 63.31
  L 20.27 63.31
  L 20.51 61.79
  L 22.18 60.40
  L 22.42 60.29
  L 24.55 59.85
  L 25.88 60.62
  L 25.88 60.62
  L 25.90 60.65
  L 25.83 60.85
  L 20.49 63.41
  Z"
/>
<path fill="#070705" d="
  M 130.06 64.25
  L 130.06 65.28
  L 130.27 65.49
  L 134.70 68.35
  L 134.75 68.38
  L 134.87 69.50
  L 134.69 69.70
  L 133.96 69.76
  L 131.14 67.78
  L 128.64 66.82
  L 126.07 66.78
  L 128.00 68.46
  L 131.13 70.36
  L 131.39 70.67
  L 131.31 71.07
  L 131.13 71.40
  L 131.13 71.40
  L 130.51 71.57
  L 124.91 68.34
  L 124.37 68.18
  L 123.80 68.34
  L 122.75 68.94
  L 122.38 69.36
  L 122.74 69.79
  L 128.22 73.08
  L 128.28 73.15
  L 128.27 73.25
  L 128.14 73.49
  L 127.87 73.76
  L 127.51 73.71
  L 120.72 70.58
  L 120.27 70.50
  L 119.86 70.67
  L 119.84 70.69
  L 119.45 71.12
  L 119.64 71.96
  L 119.65 71.96
  L 124.13 74.61
  L 124.32 75.23
  L 124.16 75.56
  L 124.15 75.57
  L 123.46 75.78
  L 118.21 72.87
  L 117.24 72.57
  L 116.29 72.72
  L 115.46 73.03
  L 115.28 73.81
  L 115.44 73.92
  L 118.27 75.42
  L 120.70 77.33
  L 120.86 77.66
  L 120.66 77.96
  L 120.41 78.14
  L 119.24 78.05
  L 117.64 76.79
  L 115.44 75.89
  L 114.95 75.67
  L 114.57 75.28
  L 114.26 74.85
  L 113.84 74.53
  L 113.31 74.65
  L 110.69 76.20
  L 110.62 76.26
  L 110.70 76.82
  L 115.78 79.66
  L 116.02 80.20
  L 115.94 80.53
  L 115.03 81.01
  L 114.94 80.97
  L 109.59 77.91
  L 107.76 77.79
  L 107.24 78.01
  L 107.01 78.98
  L 107.17 79.11
  L 112.98 82.28
  L 113.00 82.88
  L 112.84 82.93
  L 111.37 83.06
  L 110.58 82.84
  L 106.59 80.65
  L 103.77 80.56
  L 103.48 80.83
  L 103.74 81.13
  L 108.47 83.90
  L 108.55 83.95
  L 108.53 84.73
  L 108.21 84.97
  L 107.64 85.19
  L 107.10 84.97
  L 102.92 82.49
  L 101.46 82.17
  L 100.28 82.48
  L 100.08 82.66
  L 99.94 82.97
  L 100.15 83.24
  L 104.69 86.18
  L 104.89 87.01
  L 104.69 87.35
  L 104.27 87.46
  L 104.26 87.46
  L 98.35 83.84
  L 97.54 84.17
  L 97.52 84.33
  L 97.57 85.15
  L 98.60 86.63
  L 101.77 87.99
  L 102.26 88.45
  L 102.08 89.09
  L 101.89 89.37
  L 101.02 89.52
  L 99.50 88.65
  L 97.82 88.04
  L 97.29 88.00
  L 96.74 88.20
  L 80.52 98.01
  L 80.11 97.90
  L 80.10 97.88
  L 79.96 97.55
  L 80.25 96.64
  L 82.81 95.07
  L 95.92 86.41
  L 96.27 85.90
  L 96.06 85.40
  L 95.73 85.20
  L 95.35 85.29
  L 92.33 87.23
  L 86.36 90.67
  L 81.62 91.41
  L 81.06 91.33
  L 80.51 91.32
  L 80.11 91.45
  L 77.85 92.80
  L 76.62 93.91
  L 74.52 93.78
  L 74.16 93.46
  L 74.38 93.02
  L 74.95 92.64
  L 75.96 92.53
  L 77.44 91.99
  L 78.80 90.52
  L 78.88 90.38
  L 78.48 89.89
  L 75.06 90.86
  L 72.64 92.58
  L 72.23 92.78
  L 71.81 92.61
  L 71.44 92.15
  L 71.72 91.20
  L 74.63 89.62
  L 75.64 88.76
  L 74.33 88.50
  L 73.77 88.53
  L 71.29 89.20
  L 68.89 90.71
  L 68.29 90.94
  L 68.05 90.86
  L 67.95 90.78
  L 67.80 90.51
  L 67.97 90.23
  L 70.19 88.10
  L 71.62 85.90
  L 74.42 86.36
  L 79.55 88.69
  L 80.29 89.29
  L 80.30 89.30
  L 80.57 89.79
  L 80.85 90.15
  L 81.27 90.33
  L 83.79 90.30
  L 86.48 89.43
  L 94.12 84.81
  L 100.96 80.70
  L 104.87 78.12
  L 115.04 72.17
  L 118.61 69.65
  L 122.32 67.11
  L 123.97 66.50
  L 127.12 65.19
  L 128.78 63.71
  L 128.98 63.50
  L 129.63 63.45
  L 130.02 63.97
  L 130.06 64.25
  Z"
/>
<path fill="#070705" d="
  M 121.19 64.31
  L 121.16 64.94
  L 120.14 66.42
  L 117.85 67.69
  L 116.75 68.24
  L 84.99 88.36
  L 83.20 88.76
  L 81.04 88.24
  L 75.14 84.62
  L 74.90 83.94
  L 75.02 83.73
  L 75.24 83.74
  L 77.24 84.72
  L 81.50 86.55
  L 84.74 86.70
  L 86.77 85.83
  L 121.19 64.31
  Z"
/>
<rect fill="#c4af9b" x="-3.80" y="-0.96" transform="translate(7.74,67.30) rotate(31.2)" width="7.60" height="1.92" rx="0.27"/>
<path fill="#453609" d="
  M 135.89 65.54
  L 137.71 64.80
  L 138.43 64.94
  L 138.59 65.65
  L 138.26 66.01
  L 136.98 66.36
  L 135.93 66.24
  L 135.40 65.91
  L 135.89 65.54
  Z"
/>
<path fill="#fefcf9" d="
  M 29.28 83.17
  L 30.19 83.89
  L 31.19 84.25
  L 31.92 84.98
  L 32.71 85.23
  L 33.18 85.17
  L 33.58 84.89
  L 34.47 84.21
  L 35.24 83.99
  L 36.81 84.24
  L 36.27 85.62
  L 34.63 86.88
  L 34.27 87.30
  L 34.26 87.71
  L 34.65 87.75
  L 37.26 86.93
  L 38.56 86.34
  L 39.45 86.11
  L 39.95 86.30
  L 40.29 86.72
  L 40.35 87.25
  L 39.96 87.62
  L 38.81 88.18
  L 38.64 88.89
  L 38.69 88.95
  L 38.89 89.15
  L 40.10 89.45
  L 41.91 88.57
  L 43.31 88.21
  L 44.35 89.06
  L 42.48 90.69
  L 42.21 91.01
  L 41.84 91.97
  L 41.90 92.26
  L 42.23 92.66
  L 42.72 92.50
  L 43.98 91.55
  L 44.49 91.30
  L 44.98 91.27
  L 46.05 91.71
  L 46.20 91.87
  L 47.92 92.47
  L 50.14 92.47
  L 50.61 92.49
  L 51.05 92.67
  L 59.94 98.09
  L 60.64 98.88
  L 61.03 99.78
  L 61.31 100.08
  L 61.69 99.90
  L 61.89 99.69
  L 62.16 99.53
  L 62.47 99.56
  L 66.55 101.74
  L 69.85 104.78
  L 70.29 105.05
  L 73.24 105.83
  L 73.88 106.21
  L 73.30 106.66
  L 72.87 106.79
  L 72.87 106.79
  L 70.99 106.53
  L 68.83 104.98
  L 68.03 104.75
  L 67.39 105.28
  L 67.39 105.28
  L 67.32 105.58
  L 67.30 105.92
  L 67.38 106.21
  L 67.63 106.33
  L 69.94 106.93
  L 71.72 107.88
  L 73.10 108.31
  L 74.28 107.60
  L 75.33 107.29
  L 75.82 107.46
  L 76.46 107.84
  L 76.49 108.87
  L 76.40 108.94
  L 74.75 109.96
  L 74.68 110.01
  L 74.71 110.76
  L 74.95 110.92
  L 75.82 111.11
  L 77.56 111.72
  L 79.88 112.66
  L 82.48 114.80
  L 82.26 115.33
  L 82.68 115.78
  L 83.41 115.75
  L 120.94 92.57
  L 142.58 79.24
  L 144.93 80.03
  L 146.63 81.37
  L 146.87 81.67
  L 147.26 82.90
  L 146.45 83.88
  L 85.54 121.35
  L 83.44 121.95
  L 81.33 121.40
  L 30.37 91.91
  L 29.89 91.82
  L 29.68 92.25
  L 29.61 92.84
  L 30.36 94.31
  L 73.69 119.34
  L 74.06 119.72
  L 74.09 120.27
  L 74.00 120.67
  L 73.75 121.07
  L 73.28 120.98
  L 35.69 99.23
  L 22.43 90.72
  L 7.78 81.43
  L 6.04 79.91
  L 5.64 78.49
  L 6.40 77.16
  L 9.55 74.76
  L 12.83 73.10
  L 15.44 72.55
  L 17.71 73.10
  L 18.51 73.78
  L 18.70 74.15
  L 18.62 74.58
  L 17.94 75.44
  L 16.39 75.97
  L 16.07 76.07
  L 15.88 76.35
  L 15.86 76.41
  L 15.85 76.76
  L 16.26 77.20
  L 18.30 77.09
  L 19.62 75.42
  L 20.17 74.86
  L 20.96 74.88
  L 20.96 74.88
  L 21.03 74.92
  L 28.88 79.58
  L 29.36 80.22
  L 29.23 81.02
  L 29.23 81.02
  L 29.22 81.03
  L 28.52 81.73
  L 27.52 82.01
  L 27.33 82.06
  L 27.19 82.90
  L 27.38 83.05
  L 29.28 83.17
  Z
  M 64.01 101.68
  L 63.49 101.99
  L 63.39 102.38
  L 63.45 103.33
  L 63.70 103.77
  L 64.18 103.97
  L 64.35 103.98
  L 65.21 103.86
  L 65.49 103.71
  L 65.83 102.94
  L 65.40 102.20
  L 64.79 101.89
  L 64.01 101.68
  Z"
/>
<path fill="#c4af9b" d="
  M 142.58 79.24
  L 120.94 92.57
  L 114.15 95.89
  L 83.52 114.55
  L 82.48 114.80
  L 79.88 112.66
  L 77.56 111.72
  L 75.82 111.11
  L 77.32 110.03
  L 78.82 109.67
  L 79.50 109.74
  L 83.31 110.11
  L 86.80 109.49
  L 86.80 109.49
  L 90.00 107.87
  L 116.86 91.40
  L 138.12 78.65
  L 140.38 78.05
  L 142.58 79.24
  Z"
/>
<path fill="#c4af9b" d="
  M 31.19 84.25
  L 30.19 83.89
  L 29.28 83.17
  L 30.75 81.42
  L 31.00 81.28
  L 31.82 81.11
  L 32.58 81.49
  L 33.45 82.28
  L 33.72 82.77
  L 33.32 83.19
  L 31.19 84.25
  Z"
/>
<rect fill="#c4af9b" x="-3.54" y="-0.76" transform="translate(7.22,84.41) rotate(32.5)" width="7.08" height="1.52" rx="0.72"/>
<path fill="#c4af9b" d="
  M 82.81 95.07
  L 81.90 94.05
  L 81.10 94.17
  L 79.30 94.73
  L 77.75 94.59
  L 76.62 93.91
  L 77.85 92.80
  L 80.11 91.45
  L 80.51 91.32
  L 81.06 91.33
  L 81.62 91.41
  L 86.36 90.67
  L 92.33 87.23
  L 95.35 85.29
  L 95.73 85.20
  L 96.06 85.40
  L 96.27 85.90
  L 95.92 86.41
  L 82.81 95.07
  Z"
/>
<path fill="#846d33" d="
  M 44.35 89.06
  L 46.16 89.71
  L 46.87 90.54
  L 46.87 90.54
  L 46.20 91.87
  L 46.05 91.71
  L 44.98 91.27
  L 44.49 91.30
  L 43.98 91.55
  L 42.72 92.50
  L 42.23 92.66
  L 41.90 92.26
  L 41.84 91.97
  L 42.21 91.01
  L 42.48 90.69
  L 44.35 89.06
  Z"
/>
<rect fill="#070705" x="-9.00" y="-0.83" transform="translate(90.49,95.10) rotate(-31.8)" width="18.00" height="1.66" rx="0.41"/>
<path fill="#fefcf9" d="
  M 61.12 120.37
  L 63.39 121.31
  L 64.14 121.86
  L 67.01 121.61
  L 69.63 121.37
  L 70.58 122.44
  L 70.63 122.91
  L 70.30 123.24
  L 68.45 124.14
  L 68.36 125.02
  L 68.59 125.12
  L 70.48 125.01
  L 72.05 124.15
  L 72.61 123.83
  L 73.17 123.74
  L 76.14 124.18
  L 78.40 125.29
  L 78.48 126.05
  L 78.42 126.11
  L 76.38 127.87
  L 75.91 128.91
  L 76.98 129.24
  L 81.48 130.56
  L 81.92 130.60
  L 82.41 130.42
  L 95.25 121.78
  L 131.05 99.52
  L 133.37 99.00
  L 134.59 97.30
  L 139.14 94.20
  L 143.41 93.66
  L 146.05 94.62
  L 148.57 96.72
  L 149.41 98.72
  L 148.09 100.36
  L 86.08 138.34
  L 83.19 139.35
  L 80.65 139.05
  L 77.38 137.56
  L 7.03 98.14
  L 5.96 96.61
  L 6.50 94.82
  L 6.88 94.50
  L 7.66 93.97
  L 12.74 91.08
  L 14.69 90.64
  L 16.62 90.83
  L 17.72 91.32
  L 23.60 94.89
  L 23.71 95.69
  L 23.63 95.76
  L 20.90 97.64
  L 20.75 97.85
  L 20.88 98.08
  L 21.11 98.27
  L 21.63 98.53
  L 22.20 98.47
  L 23.64 97.68
  L 25.86 96.72
  L 26.52 96.73
  L 26.98 97.66
  L 26.81 97.85
  L 25.04 99.12
  L 25.00 99.90
  L 25.10 99.97
  L 25.70 100.27
  L 26.17 100.35
  L 26.56 100.08
  L 27.97 99.03
  L 30.49 99.27
  L 30.66 99.39
  L 30.47 100.25
  L 28.27 101.09
  L 28.04 101.28
  L 28.02 101.57
  L 28.09 101.82
  L 28.20 102.01
  L 28.41 102.10
  L 30.09 101.96
  L 31.60 100.95
  L 32.60 100.63
  L 34.52 101.02
  L 34.72 101.10
  L 34.76 102.10
  L 32.55 103.71
  L 32.45 103.81
  L 32.66 104.67
  L 32.95 104.79
  L 33.98 104.55
  L 35.27 103.40
  L 36.61 102.94
  L 38.00 103.18
  L 38.74 103.80
  L 38.02 104.46
  L 35.97 105.41
  L 35.83 105.51
  L 35.97 106.28
  L 36.43 106.50
  L 37.83 106.41
  L 40.77 105.25
  L 42.07 105.68
  L 41.40 106.65
  L 39.05 108.54
  L 38.99 108.62
  L 38.98 108.75
  L 39.04 109.02
  L 39.22 109.14
  L 39.24 109.13
  L 44.23 107.17
  L 45.23 107.12
  L 46.27 108.26
  L 46.33 108.68
  L 46.11 109.05
  L 45.44 109.54
  L 44.23 109.90
  L 43.76 110.73
  L 43.88 110.90
  L 44.28 111.15
  L 45.32 111.01
  L 47.13 110.03
  L 47.87 109.55
  L 48.39 109.36
  L 48.89 109.45
  L 50.50 110.13
  L 50.62 110.83
  L 50.48 110.92
  L 48.88 111.79
  L 47.82 112.81
  L 48.01 113.40
  L 48.17 113.40
  L 49.94 112.87
  L 51.92 111.83
  L 53.26 111.83
  L 53.92 112.28
  L 53.99 113.27
  L 53.87 113.35
  L 51.53 114.64
  L 51.29 115.34
  L 51.45 115.71
  L 52.05 115.95
  L 53.44 115.24
  L 55.74 114.18
  L 57.41 114.18
  L 58.38 114.85
  L 58.55 115.24
  L 58.26 115.56
  L 57.65 115.84
  L 56.80 116.04
  L 55.78 116.98
  L 55.56 117.98
  L 55.55 118.16
  L 56.27 118.49
  L 59.60 116.51
  L 61.54 116.61
  L 61.74 116.77
  L 61.79 116.81
  L 61.83 118.02
  L 60.96 118.69
  L 59.72 119.21
  L 59.45 119.38
  L 59.81 120.26
  L 61.12 120.37
  Z
  M 18.7025 92.2816
  L 18.3385 92.2292
  L 15.1196 94.6373
  L 15.0671 95.0012
  L 16.0375 96.2984
  L 16.4015 96.3508
  L 19.6204 93.9427
  L 19.6729 93.5788
  L 18.7025 92.2816
  Z
  M 145.3733 97.9954
  L 144.9061 97.8815
  L 134.6868 104.0950
  L 134.5729 104.5621
  L 135.2067 105.6046
  L 135.6739 105.7185
  L 145.8932 99.5050
  L 146.0071 99.0379
  L 145.3733 97.9954
  Z
  M 133.2482 105.5210
  L 132.6151 105.3714
  L 101.5265 124.5721
  L 101.3768 125.2052
  L 101.8918 126.0390
  L 102.5249 126.1886
  L 133.6135 106.9879
  L 133.7632 106.3548
  L 133.2482 105.5210
  Z
  M 99.4370 126.3073
  L 98.6797 126.1297
  L 89.4159 131.8735
  L 89.2382 132.6308
  L 89.7230 133.4127
  L 90.4803 133.5903
  L 99.7441 127.8465
  L 99.9218 127.0892
  L 99.4370 126.3073
  Z
  M 87.2760 134.0038
  L 86.4005 133.7741
  L 82.6706 135.9537
  L 82.4410 136.8291
  L 82.7840 137.4162
  L 83.6595 137.6459
  L 87.3894 135.4663
  L 87.6190 134.5909
  L 87.2760 134.0038
  Z"
/>
<path fill="#070705" d="
  M 116.86 91.40
  L 90.00 107.87
  L 89.93 106.95
  L 90.75 105.99
  L 97.70 101.82
  L 112.68 92.40
  L 115.22 91.36
  L 116.86 91.40
  Z"
/>
<rect fill="#453609" x="-2.27" y="-1.07" transform="translate(17.37,94.29) rotate(-36.8)" width="4.54" height="2.14" rx="0.26"/>
<path fill="#070705" d="
  M 120.94 92.57
  L 83.41 115.75
  L 82.68 115.78
  L 82.26 115.33
  L 82.48 114.80
  L 83.52 114.55
  L 114.15 95.89
  L 120.94 92.57
  Z"
/>
<path fill="#070705" d="
  M 102.75 95.08
  L 103.11 95.36
  L 102.75 96.10
  L 99.67 98.03
  L 91.36 103.57
  L 88.62 104.50
  L 87.58 104.15
  L 102.75 95.08
  Z"
/>
<path fill="#c4af9b" d="
  M 134.59 97.30
  L 133.37 99.00
  L 131.05 99.52
  L 132.73 97.67
  L 134.59 97.30
  Z"
/>
<rect fill="#070705" x="-6.32" y="-0.95" transform="translate(140.29,101.80) rotate(-31.3)" width="12.64" height="1.90" rx="0.34"/>
<path fill="#453609" d="
  M 64.01 101.68
  L 64.79 101.89
  L 65.40 102.20
  L 65.83 102.94
  L 65.49 103.71
  L 65.21 103.86
  L 64.35 103.98
  L 64.18 103.97
  L 63.70 103.77
  L 63.45 103.33
  L 63.39 102.38
  L 63.49 101.99
  L 64.01 101.68
  Z"
/>
<path fill="#846d33" d="
  M 147.13 105.03
  L 135.28 111.82
  L 135.45 110.83
  L 140.53 107.01
  L 142.67 105.54
  L 144.93 104.40
  L 147.69 104.12
  L 147.90 104.20
  L 147.93 104.25
  L 147.96 104.46
  L 147.81 104.58
  L 147.13 105.03
  Z"
/>
<rect fill="#070705" x="-18.73" y="-0.95" transform="translate(117.57,115.78) rotate(-31.7)" width="37.46" height="1.90" rx="0.46"/>
<path fill="#c4af9b" d="
  M 135.45 110.83
  L 135.28 111.82
  L 135.23 111.82
  L 133.92 112.66
  L 133.48 113.05
  L 132.00 113.96
  L 128.52 116.06
  L 127.83 115.57
  L 129.30 114.25
  L 130.56 113.43
  L 131.94 112.55
  L 135.45 110.83
  Z"
/>
<path fill="#846d33" d="
  M 127.83 115.57
  L 128.52 116.06
  L 127.31 116.97
  L 105.26 130.43
  L 97.48 134.66
  L 93.95 137.71
  L 93.84 137.76
  L 93.06 137.47
  L 92.95 137.25
  L 92.92 136.97
  L 93.08 136.75
  L 102.05 130.38
  L 110.28 125.49
  L 113.50 123.44
  L 116.56 121.27
  L 119.77 119.30
  L 124.47 116.53
  L 127.83 115.57
  Z"
/>
<path fill="#c4af9b" d="
  M 63.39 121.31
  L 61.12 120.37
  L 63.54 118.64
  L 65.23 118.66
  L 65.72 119.04
  L 66.10 119.59
  L 65.57 120.01
  L 63.39 121.31
  Z"
/>
<path fill="#c4af9b" d="
  M 95.25 121.78
  L 82.41 130.42
  L 81.92 130.60
  L 81.48 130.56
  L 76.98 129.24
  L 79.61 127.80
  L 82.31 127.14
  L 83.33 127.10
  L 86.40 126.26
  L 87.72 125.35
  L 95.25 121.78
  Z"
/>
<rect fill="#070705" x="-6.00" y="-1.01" transform="translate(94.58,129.86) rotate(-31.8)" width="12.00" height="2.02" rx="0.55"/>
<rect fill="#070705" x="-2.80" y="-0.98" transform="translate(85.03,135.71) rotate(-30.3)" width="5.60" height="1.96" rx="0.64"/>
</svg>
