<?xml version="1.0" encoding="UTF-8" standalone="no"?>
<!DOCTYPE svg PUBLIC "-//W3C//DTD SVG 1.1//EN" "http://www.w3.org/Graphics/SVG/1.1/DTD/svg11.dtd">
<svg xmlns="http://www.w3.org/2000/svg" version="1.1" viewBox="0.00 0.00 157.00 153.00">
<path fill="#feffeb" d="
  M 0.00 0.00
  L 48.55 0.00
  L 45.59 0.35
  L 43.55 1.57
  L 42.52 3.32
  L 42.17 5.73
  L 42.20 22.04
  L 42.35 22.48
  L 42.79 22.63
  L 61.49 22.66
  L 61.85 22.99
  L 61.88 23.32
  L 61.30 24.00
  L 61.27 24.00
  L 42.51 24.00
  L 42.19 24.11
  L 42.09 24.43
  L 42.22 31.26
  L 42.42 38.32
  L 43.58 40.18
  L 45.46 41.57
  L 47.76 42.33
  L 54.93 42.54
  L 57.60 42.45
  L 60.05 42.60
  L 62.01 43.45
  L 62.01 43.45
  L 63.52 45.08
  L 64.50 47.46
  L 65.77 48.45
  L 91.04 48.43
  L 92.22 47.47
  L 92.95 45.39
  L 94.15 43.85
  L 96.34 42.68
  L 99.28 42.36
  L 102.07 42.48
  L 109.05 42.36
  L 111.32 41.66
  L 113.22 40.33
  L 114.33 38.78
  L 114.67 31.15
  L 114.71 24.46
  L 114.60 24.12
  L 114.25 24.00
  L 94.56 24.00
  L 94.14 23.68
  L 94.04 23.27
  L 94.08 22.86
  L 94.48 22.71
  L 114.33 22.59
  L 114.65 22.48
  L 114.75 22.17
  L 114.77 17.51
  L 114.64 17.13
  L 114.26 17.00
  L 100.49 17.00
  L 99.94 16.82
  L 99.76 16.26
  L 99.77 15.98
  L 100.11 15.64
  L 114.18 15.65
  L 114.59 15.51
  L 114.72 15.13
  L 114.74 6.44
  L 114.29 3.18
  L 113.09 1.27
  L 110.86 0.26
  L 107.07 0.09
  L 103.51 0.00
  L 157.00 0.00
  L 157.00 153.00
  L 0.00 153.00
  L 0.00 86.24
  L 1.09 89.77
  L 3.40 93.14
  L 6.87 95.96
  L 26.53 96.57
  L 46.29 96.27
  L 50.08 96.54
  L 53.70 97.70
  L 56.38 99.72
  L 56.38 99.72
  L 58.05 102.48
  L 58.84 106.05
  L 59.46 106.61
  L 69.98 106.53
  L 70.00 106.53
  L 70.43 107.02
  L 70.41 107.36
  L 70.20 107.86
  L 69.70 108.01
  L 59.48 107.94
  L 58.94 108.09
  L 58.63 108.56
  L 57.10 111.73
  L 54.90 113.89
  L 54.90 113.89
  L 54.90 113.89
  L 52.11 115.04
  L 48.68 115.23
  L 16.21 115.20
  L 15.91 115.30
  L 15.81 115.59
  L 15.74 123.39
  L 15.84 123.70
  L 16.15 123.81
  L 25.35 123.88
  L 25.71 123.77
  L 25.83 123.40
  L 25.80 118.96
  L 25.90 118.64
  L 26.21 118.54
  L 26.52 118.54
  L 26.85 118.68
  L 26.99 119.01
  L 27.00 123.46
  L 27.12 123.81
  L 27.47 123.93
  L 36.92 123.81
  L 37.19 123.72
  L 37.29 123.44
  L 37.40 119.00
  L 37.77 118.47
  L 38.40 118.59
  L 38.57 118.99
  L 38.69 122.75
  L 39.00 123.61
  L 39.88 123.91
  L 46.30 123.94
  L 47.35 123.58
  L 47.60 122.50
  L 47.52 118.75
  L 47.63 118.45
  L 48.55 118.21
  L 48.72 123.25
  L 48.86 123.62
  L 49.25 123.76
  L 58.59 123.91
  L 58.89 124.02
  L 58.97 124.34
  L 58.95 124.66
  L 58.55 125.04
  L 49.24 125.10
  L 48.90 125.20
  L 48.71 125.53
  L 48.64 126.69
  L 48.74 127.25
  L 48.59 132.62
  L 48.63 139.42
  L 49.13 139.91
  L 65.23 139.95
  L 65.59 139.83
  L 65.71 139.48
  L 65.79 131.25
  L 65.74 126.27
  L 65.80 113.84
  L 65.88 113.60
  L 66.15 113.53
  L 66.47 113.56
  L 66.87 113.73
  L 67.00 114.14
  L 67.03 130.63
  L 67.03 139.46
  L 67.15 139.81
  L 67.51 139.93
  L 117.25 139.94
  L 117.60 139.82
  L 117.72 139.46
  L 117.76 134.99
  L 118.55 133.38
  L 118.71 133.35
  L 119.17 133.80
  L 119.10 135.23
  L 118.45 135.55
  L 118.77 136.96
  L 119.00 137.76
  L 119.01 139.24
  L 119.20 139.78
  L 119.74 139.96
  L 138.28 139.92
  L 138.66 139.80
  L 138.82 139.41
  L 139.01 136.72
  L 139.48 136.61
  L 139.61 136.62
  L 139.97 139.27
  L 139.96 139.32
  L 140.54 139.95
  L 151.25 139.88
  L 151.68 139.74
  L 151.82 139.30
  L 151.78 135.25
  L 151.69 133.31
  L 151.78 132.02
  L 151.54 131.84
  L 151.80 129.62
  L 151.75 125.57
  L 151.63 125.21
  L 151.27 125.09
  L 140.71 125.06
  L 140.31 125.19
  L 140.17 125.59
  L 140.07 129.52
  L 139.20 129.58
  L 138.83 129.28
  L 138.83 125.67
  L 138.70 125.28
  L 138.32 125.15
  L 119.69 125.11
  L 119.24 125.26
  L 119.09 125.69
  L 119.01 129.51
  L 118.79 129.55
  L 117.79 129.53
  L 117.78 125.64
  L 117.65 125.25
  L 117.26 125.12
  L 113.32 125.05
  L 112.89 124.72
  L 112.78 124.33
  L 112.81 123.95
  L 113.17 123.82
  L 116.84 123.83
  L 117.53 123.60
  L 117.78 122.91
  L 117.90 116.23
  L 117.64 115.41
  L 116.80 115.16
  L 114.03 115.31
  L 105.51 115.19
  L 102.72 114.34
  L 100.38 112.76
  L 98.97 110.88
  L 98.00 108.33
  L 97.82 108.02
  L 97.46 107.91
  L 89.35 108.01
  L 88.72 107.58
  L 88.59 107.26
  L 88.57 107.19
  L 88.99 106.67
  L 97.24 106.55
  L 97.64 106.42
  L 97.82 106.02
  L 98.77 102.21
  L 100.66 99.35
  L 103.42 97.46
  L 107.08 96.47
  L 145.99 96.40
  L 149.72 95.33
  L 152.08 93.94
  L 153.95 92.15
  L 153.95 92.15
  L 155.69 89.05
  L 156.52 85.21
  L 156.37 83.30
  L 155.94 80.29
  L 154.72 77.87
  L 153.02 76.25
  L 151.40 75.41
  L 148.57 73.85
  L 147.34 72.38
  L 145.75 69.84
  L 143.68 67.99
  L 140.69 66.65
  L 137.46 66.34
  L 134.26 67.03
  L 131.38 68.70
  L 129.57 70.59
  L 128.21 73.01
  L 126.94 74.51
  L 126.62 74.62
  L 122.84 76.38
  L 120.15 79.25
  L 118.31 83.30
  L 118.70 80.42
  L 119.80 78.01
  L 119.80 78.01
  L 119.80 78.01
  L 121.95 75.85
  L 125.04 74.32
  L 127.05 73.17
  L 128.26 70.61
  L 131.68 67.21
  L 136.73 65.44
  L 141.56 66.10
  L 145.25 68.09
  L 147.90 71.65
  L 148.87 73.05
  L 150.28 74.00
  L 152.72 75.10
  L 154.02 75.32
  L 153.65 74.06
  L 149.34 66.30
  L 146.51 60.43
  L 146.39 59.89
  L 146.87 60.16
  L 149.07 62.18
  L 149.84 62.53
  L 150.33 62.31
  L 150.56 61.96
  L 150.52 61.53
  L 146.77 49.41
  L 143.18 32.19
  L 142.62 31.22
  L 142.19 31.10
  L 141.49 31.65
  L 137.68 51.24
  L 137.55 51.24
  L 137.12 50.38
  L 133.91 28.31
  L 132.52 17.57
  L 131.90 16.34
  L 131.43 16.22
  L 130.66 16.87
  L 128.03 35.85
  L 127.60 37.07
  L 127.27 37.06
  L 126.66 32.65
  L 126.46 31.77
  L 126.11 31.22
  L 125.46 31.16
  L 124.95 31.67
  L 119.77 55.81
  L 118.24 55.94
  L 86.40 55.91
  L 86.22 55.91
  L 83.14 54.42
  L 80.89 53.09
  L 77.16 52.71
  L 74.89 53.53
  L 72.06 55.46
  L 71.72 55.65
  L 71.16 55.76
  L 44.34 55.78
  L 37.41 55.63
  L 34.42 40.23
  L 33.66 40.00
  L 33.54 40.24
  L 31.35 53.36
  L 31.08 53.31
  L 30.86 53.15
  L 30.76 52.90
  L 25.57 19.76
  L 25.22 19.05
  L 24.82 18.90
  L 24.03 19.49
  L 22.32 30.55
  L 19.22 47.90
  L 18.06 51.64
  L 13.86 31.90
  L 13.45 31.20
  L 13.08 31.08
  L 12.35 31.63
  L 11.42 36.29
  L 8.15 51.33
  L 4.80 61.77
  L 4.76 62.00
  L 5.59 62.51
  L 7.01 61.65
  L 7.89 60.81
  L 8.83 60.04
  L 8.56 61.22
  L 2.12 74.22
  L 2.01 74.74
  L 2.84 75.35
  L 2.83 75.84
  L 2.50 76.88
  L 1.91 77.76
  L 0.00 82.90
  L 0.00 0.00
  Z
  M 130.31 9.15
  L 129.54 7.43
  L 128.40 6.31
  L 126.78 5.78
  L 124.75 5.91
  L 123.32 6.66
  L 122.36 7.98
  L 122.02 9.52
  L 122.47 10.91
  L 123.43 11.64
  L 125.00 11.92
  L 144.95 11.93
  L 145.92 10.95
  L 145.93 10.55
  L 145.60 9.75
  L 144.80 9.42
  L 130.74 9.48
  L 130.31 9.15
  Z
  M 25.21 13.15
  L 11.38 13.10
  L 10.60 13.37
  L 10.38 14.17
  L 10.40 14.57
  L 11.41 15.52
  L 30.96 15.57
  L 32.80 15.23
  L 33.93 14.20
  L 33.78 12.00
  L 31.82 9.80
  L 29.28 9.36
  L 27.23 10.36
  L 25.89 12.64
  L 25.21 13.15
  Z
  M 123.22 20.61
  L 122.85 20.25
  L 122.46 18.69
  L 122.05 18.32
  L 121.56 18.57
  L 121.56 18.57
  L 121.51 18.70
  L 121.16 20.27
  L 120.99 20.54
  L 120.80 20.64
  L 119.24 21.03
  L 118.88 21.40
  L 119.25 21.98
  L 120.82 22.33
  L 121.00 22.42
  L 121.19 22.69
  L 121.58 24.25
  L 122.04 24.62
  L 122.52 24.29
  L 122.52 24.29
  L 122.53 24.24
  L 122.88 22.67
  L 122.92 22.56
  L 123.24 22.30
  L 124.80 21.91
  L 125.17 21.52
  L 124.79 20.96
  L 123.22 20.61
  Z
  M 143.20 21.58
  L 143.07 21.52
  L 142.87 21.26
  L 142.51 19.95
  L 142.23 19.65
  L 141.60 19.95
  L 141.23 21.25
  L 141.16 21.41
  L 140.91 21.58
  L 139.60 21.94
  L 139.26 22.43
  L 139.60 22.85
  L 140.90 23.22
  L 141.05 23.29
  L 141.23 23.54
  L 141.59 24.85
  L 142.02 25.19
  L 142.48 24.90
  L 142.50 24.85
  L 142.87 23.55
  L 143.19 23.22
  L 144.50 22.86
  L 144.84 22.37
  L 144.50 21.95
  L 143.20 21.58
  Z
  M 14.64 22.56
  L 14.48 22.49
  L 14.35 22.27
  L 14.00 20.85
  L 14.00 20.84
  L 13.61 20.54
  L 13.22 20.84
  L 12.86 22.26
  L 12.57 22.55
  L 11.15 22.90
  L 10.87 23.14
  L 11.14 23.68
  L 12.56 24.04
  L 12.69 24.09
  L 12.85 24.33
  L 13.20 25.75
  L 13.48 26.04
  L 13.98 25.76
  L 14.34 24.34
  L 14.43 24.16
  L 14.63 24.05
  L 16.05 23.70
  L 16.34 23.44
  L 16.06 22.92
  L 14.64 22.56
  Z
  M 35.61 28.01
  L 35.45 27.95
  L 35.24 27.65
  L 34.89 25.93
  L 34.03 25.77
  L 33.97 25.92
  L 33.60 27.64
  L 33.24 28.01
  L 31.52 28.36
  L 31.15 28.76
  L 31.51 29.28
  L 33.23 29.65
  L 33.60 30.01
  L 33.95 31.73
  L 34.41 32.11
  L 34.87 31.74
  L 35.24 30.02
  L 35.60 29.65
  L 37.32 29.30
  L 37.70 28.84
  L 37.34 28.38
  L 37.33 28.38
  L 35.61 28.01
  Z
  M 58.1806 47.2897
  L 57.8567 46.4960
  L 57.0665 46.1638
  L 44.1467 46.0962
  L 43.3530 46.4201
  L 43.0208 47.2103
  L 43.0194 47.4903
  L 43.3433 48.2840
  L 44.1335 48.6162
  L 57.0533 48.6838
  L 57.8470 48.3599
  L 58.1792 47.5697
  L 58.1806 47.2897
  Z
  M 110.4687 47.2323
  L 110.1099 46.3952
  L 109.2642 46.0569
  L 98.9250 46.1833
  L 98.0879 46.5421
  L 97.7496 47.3877
  L 97.7513 47.5277
  L 98.1101 48.3648
  L 98.9558 48.7031
  L 109.2950 48.5767
  L 110.1321 48.2179
  L 110.4704 47.3723
  L 110.4687 47.2323
  Z
  M 12.14 103.44
  L 8.29 103.33
  L 8.22 103.33
  L 7.45 104.29
  L 7.70 104.77
  L 8.01 104.88
  L 12.45 106.34
  L 13.73 107.37
  L 13.98 107.83
  L 13.47 107.99
  L 5.88 107.99
  L 5.88 107.99
  L 4.90 108.39
  L 4.49 109.37
  L 4.49 110.12
  L 4.88 111.32
  L 6.08 111.72
  L 48.48 111.73
  L 49.96 111.23
  L 50.39 109.71
  L 50.37 109.34
  L 49.92 108.36
  L 48.91 107.96
  L 29.02 108.01
  L 28.87 107.98
  L 28.79 107.37
  L 32.46 105.42
  L 36.76 105.20
  L 37.55 105.07
  L 37.93 104.37
  L 37.98 104.07
  L 37.39 103.31
  L 37.34 103.31
  L 29.97 103.34
  L 28.92 100.83
  L 27.48 99.70
  L 25.65 99.09
  L 19.86 98.92
  L 17.96 99.00
  L 15.78 99.27
  L 14.17 100.04
  L 12.97 101.42
  L 12.14 103.44
  Z
  M 125.52 103.61
  L 117.99 103.29
  L 117.30 103.48
  L 117.02 104.14
  L 116.99 104.47
  L 116.99 104.54
  L 117.72 105.18
  L 121.99 105.55
  L 125.25 107.25
  L 125.68 107.81
  L 125.00 108.00
  L 107.65 108.01
  L 106.68 108.40
  L 106.26 109.35
  L 106.25 109.70
  L 106.70 111.22
  L 108.20 111.72
  L 149.06 111.72
  L 150.55 111.21
  L 150.95 109.69
  L 150.91 109.19
  L 150.51 108.34
  L 149.64 108.00
  L 139.98 108.00
  L 139.13 107.78
  L 139.69 107.11
  L 143.06 105.49
  L 147.46 105.23
  L 148.20 104.62
  L 148.20 104.57
  L 148.18 104.14
  L 147.93 103.46
  L 147.25 103.27
  L 139.04 103.57
  L 137.68 101.44
  L 135.92 99.99
  L 132.25 99.10
  L 129.39 99.72
  L 127.09 101.87
  L 125.52 103.61
  Z
  M 50.7386 103.3317
  L 49.7824 102.4083
  L 44.9831 102.4920
  L 44.0596 103.4483
  L 44.0614 103.5483
  L 45.0176 104.4717
  L 49.8169 104.3880
  L 50.7404 103.4317
  L 50.7386 103.3317
  Z
  M 110.9798 103.5177
  L 110.3243 102.7460
  L 108.7232 102.4101
  L 107.1143 102.7068
  L 106.4402 103.4623
  L 107.0957 104.2340
  L 108.6968 104.5699
  L 110.3057 104.2732
  L 110.9798 103.5177
  Z
  M 14.05 115.24
  L 12.52 115.21
  L 7.49 115.40
  L 4.81 116.68
  L 3.72 119.16
  L 3.88 123.43
  L 4.02 123.71
  L 4.31 123.81
  L 14.09 123.96
  L 14.10 123.96
  L 14.76 123.28
  L 14.60 115.78
  L 14.45 115.37
  L 14.05 115.24
  Z
  M 138.8933 115.7027
  L 138.3924 115.2035
  L 119.5125 115.2365
  L 119.0133 115.7374
  L 119.0267 123.3973
  L 119.5276 123.8965
  L 138.4075 123.8635
  L 138.9067 123.3626
  L 138.8933 115.7027
  Z
  M 151.81 123.48
  L 151.56 118.79
  L 150.20 116.24
  L 147.60 115.19
  L 142.75 115.17
  L 140.56 115.27
  L 140.23 115.39
  L 140.10 115.74
  L 140.00 123.45
  L 140.00 123.48
  L 140.46 123.91
  L 151.50 123.78
  L 151.81 123.48
  Z
  M 3.80 131.56
  L 3.79 139.41
  L 3.91 139.76
  L 4.26 139.88
  L 14.22 139.95
  L 14.22 139.95
  L 14.70 139.46
  L 14.61 130.30
  L 14.71 125.51
  L 14.59 125.13
  L 14.22 125.01
  L 4.26 125.15
  L 3.91 125.27
  L 3.78 125.65
  L 3.80 131.56
  Z
  M 15.82 132.02
  L 15.64 138.24
  L 16.03 139.49
  L 17.27 139.91
  L 24.41 139.91
  L 25.55 139.54
  L 25.90 138.37
  L 25.72 133.01
  L 25.94 126.29
  L 25.60 125.41
  L 24.74 125.04
  L 24.71 125.04
  L 17.26 125.18
  L 16.04 125.61
  L 15.66 126.86
  L 15.82 132.02
  Z
  M 27.08 131.11
  L 27.05 139.49
  L 27.17 139.85
  L 27.52 139.97
  L 36.74 139.91
  L 37.18 139.77
  L 37.32 139.33
  L 37.29 131.45
  L 37.43 125.79
  L 37.28 125.33
  L 36.81 125.16
  L 27.48 125.11
  L 27.35 125.13
  L 27.02 125.57
  L 27.08 131.11
  Z
  M 38.75 130.30
  L 38.70 139.53
  L 39.09 139.93
  L 47.14 139.96
  L 47.14 139.96
  L 47.50 139.59
  L 47.45 131.75
  L 47.61 126.19
  L 47.34 125.31
  L 46.48 125.03
  L 39.76 125.08
  L 38.87 125.39
  L 38.61 126.28
  L 38.75 130.30
  Z
  M 15.94 144.48
  L 14.71 144.47
  L 14.67 141.73
  L 14.51 141.27
  L 14.05 141.12
  L 4.28 141.10
  L 3.93 141.21
  L 3.79 141.58
  L 3.75 142.40
  L 3.90 148.65
  L 4.54 150.54
  L 5.73 151.95
  L 8.50 152.74
  L 65.23 152.75
  L 65.64 152.61
  L 65.78 152.20
  L 65.82 141.54
  L 65.41 141.13
  L 16.49 141.16
  L 16.07 141.29
  L 15.85 141.70
  L 15.74 143.10
  L 15.94 144.48
  Z
  M 117.81 141.58
  L 117.38 141.15
  L 67.42 141.15
  L 66.99 141.58
  L 66.99 152.32
  L 67.42 152.75
  L 117.38 152.75
  L 117.81 152.32
  L 117.81 141.58
  Z
  M 138.93 141.66
  L 138.41 141.14
  L 119.53 141.14
  L 119.01 141.66
  L 119.01 152.22
  L 119.53 152.74
  L 138.41 152.74
  L 138.93 152.22
  L 138.93 141.66
  Z
  M 151.28 150.11
  L 151.82 148.20
  L 151.82 141.52
  L 151.40 141.10
  L 140.49 141.07
  L 140.05 141.51
  L 140.07 152.26
  L 140.19 152.61
  L 140.54 152.74
  L 142.00 152.82
  L 147.15 152.72
  L 150.35 151.24
  L 151.28 150.11
  Z"
/>
<path fill="#010226" d="
  M 48.55 0.00
  L 55.34 0.00
  L 64.82 0.00
  L 86.10 0.00
  L 96.60 0.00
  L 103.51 0.00
  L 107.07 0.09
  L 110.86 0.26
  L 113.09 1.27
  L 114.29 3.18
  L 114.74 6.44
  L 114.72 15.13
  L 114.59 15.51
  L 114.18 15.65
  L 100.11 15.64
  L 99.77 15.98
  L 99.77 15.98
  L 99.76 16.26
  L 99.94 16.82
  L 100.49 17.00
  L 114.26 17.00
  L 114.64 17.13
  L 114.77 17.51
  L 114.75 22.17
  L 114.65 22.48
  L 114.33 22.59
  L 94.48 22.71
  L 94.08 22.86
  L 94.04 23.27
  L 94.14 23.68
  L 94.56 24.00
  L 114.25 24.00
  L 114.60 24.12
  L 114.71 24.46
  L 114.67 31.15
  L 96.00 31.03
  L 95.26 31.54
  L 94.47 34.54
  L 94.33 37.44
  L 94.31 38.47
  L 94.57 38.88
  L 95.01 39.00
  L 98.50 38.99
  L 98.79 39.49
  L 98.98 39.70
  L 99.22 40.05
  L 99.24 40.49
  L 99.16 41.44
  L 99.28 42.36
  L 96.34 42.68
  L 94.15 43.85
  L 92.95 45.39
  L 92.22 47.47
  L 91.04 48.43
  L 65.77 48.45
  L 64.50 47.46
  L 63.52 45.08
  L 62.01 43.45
  L 62.01 43.45
  L 60.05 42.60
  L 57.60 42.45
  L 57.71 38.92
  L 59.75 38.96
  L 60.46 38.66
  L 62.79 38.94
  L 62.81 38.94
  L 63.20 38.33
  L 63.20 38.32
  L 61.57 31.70
  L 61.39 31.38
  L 61.04 31.28
  L 42.22 31.26
  L 42.09 24.43
  L 42.19 24.11
  L 42.51 24.00
  L 61.27 24.00
  L 61.30 24.00
  L 61.88 23.32
  L 61.85 22.99
  L 61.49 22.66
  L 42.79 22.63
  L 42.35 22.48
  L 42.20 22.04
  L 42.17 5.73
  L 42.52 3.32
  L 43.55 1.57
  L 45.59 0.35
  L 48.55 0.00
  Z
  M 98.92 3.60
  L 98.99 4.42
  L 99.07 4.65
  L 99.88 4.57
  L 99.99 4.27
  L 99.99 3.43
  L 99.57 3.02
  L 99.02 3.23
  L 98.92 3.60
  Z
  M 86.76 5.84
  L 87.35 5.53
  L 87.50 4.83
  L 87.29 4.33
  L 87.18 4.22
  L 86.83 4.07
  L 86.38 4.19
  L 86.21 4.33
  L 86.02 4.71
  L 85.99 5.14
  L 86.04 5.37
  L 86.76 5.84
  Z
  M 59.50 5.95
  L 59.98 5.60
  L 59.97 5.50
  L 59.78 4.76
  L 59.76 4.70
  L 59.00 4.43
  L 58.59 4.83
  L 58.52 5.14
  L 58.63 5.55
  L 58.85 5.72
  L 59.50 5.95
  Z
  M 79.34 7.27
  L 79.13 7.05
  L 78.44 4.86
  L 77.83 4.81
  L 77.81 4.85
  L 77.11 7.04
  L 76.89 7.25
  L 74.70 7.94
  L 74.52 8.06
  L 74.69 8.57
  L 76.88 9.27
  L 77.09 9.49
  L 77.78 11.68
  L 78.39 11.72
  L 78.41 11.69
  L 79.11 9.50
  L 79.24 9.33
  L 79.33 9.29
  L 81.52 8.60
  L 81.76 8.26
  L 81.53 7.97
  L 79.34 7.27
  Z
  M 105.14 7.46
  L 104.33 7.80
  L 104.17 7.92
  L 104.40 8.58
  L 105.33 9.00
  L 105.88 9.62
  L 106.27 9.93
  L 106.71 9.71
  L 107.83 8.58
  L 108.00 8.23
  L 107.80 7.89
  L 107.22 7.27
  L 106.77 6.48
  L 106.73 6.41
  L 106.01 6.32
  L 105.88 6.46
  L 105.67 6.87
  L 105.14 7.46
  Z
  M 95.53 10.12
  L 95.29 9.88
  L 94.61 7.08
  L 94.41 6.85
  L 93.97 7.08
  L 93.26 9.87
  L 93.20 10.00
  L 93.02 10.11
  L 90.22 10.79
  L 89.97 11.10
  L 90.22 11.43
  L 93.01 12.14
  L 93.14 12.20
  L 93.25 12.38
  L 93.93 15.18
  L 94.14 15.41
  L 94.57 15.18
  L 95.28 12.39
  L 95.35 12.25
  L 95.52 12.15
  L 98.32 11.47
  L 98.56 11.22
  L 98.32 10.83
  L 95.53 10.12
  Z
  M 51.02 10.50
  L 51.04 10.98
  L 51.17 11.36
  L 51.49 11.13
  L 53.39 9.56
  L 54.23 9.02
  L 53.24 8.72
  L 52.45 8.41
  L 51.96 7.50
  L 51.39 7.22
  L 51.30 7.29
  L 51.06 7.63
  L 50.94 7.98
  L 50.76 8.39
  L 50.39 8.62
  L 49.66 8.86
  L 49.50 9.49
  L 49.65 9.59
  L 50.56 9.90
  L 51.02 10.50
  Z
  M 67.32 7.89
  L 66.40 6.97
  L 65.48 7.89
  L 66.40 8.81
  L 67.32 7.89
  Z
  M 67.48 14.31
  L 66.48 13.31
  L 65.48 14.31
  L 66.48 15.31
  L 67.48 14.31
  Z
  M 48.45 16.69
  L 48.69 16.39
  L 48.67 16.00
  L 48.55 15.73
  L 48.39 15.52
  L 47.36 15.55
  L 47.30 15.64
  L 47.19 15.90
  L 47.13 16.22
  L 47.23 16.64
  L 47.60 16.86
  L 47.97 16.88
  L 48.45 16.69
  Z
  M 60.0204 15.9961
  L 59.4614 15.4351
  L 53.5614 15.4249
  L 53.0004 15.9839
  L 52.9996 16.4439
  L 53.5586 17.0049
  L 59.4586 17.0151
  L 60.0196 16.4561
  L 60.0204 15.9961
  Z
  M 66.73 40.52
  L 69.25 43.07
  L 72.42 45.10
  L 75.89 46.07
  L 79.26 46.26
  L 82.72 45.65
  L 85.85 44.26
  L 88.71 42.00
  L 90.95 39.01
  L 92.34 35.71
  L 92.97 31.94
  L 92.73 27.61
  L 91.43 23.83
  L 91.43 23.83
  L 88.98 20.52
  L 85.42 17.79
  L 82.74 16.49
  L 76.85 16.11
  L 71.31 17.90
  L 68.71 19.76
  L 66.60 22.12
  L 65.04 24.88
  L 64.06 27.94
  L 63.74 31.16
  L 64.11 34.49
  L 65.09 37.53
  L 66.73 40.52
  Z"
/>
<path fill="#feffeb" d="
  M 55.34 0.00
  L 64.82 0.00
  L 55.34 0.00
  Z"
/>
<path fill="#feffeb" d="
  M 86.10 0.00
  L 96.60 0.00
  L 86.10 0.00
  Z"
/>
<path fill="#feffeb" d="
  M 98.92 3.60
  L 99.02 3.23
  L 99.57 3.02
  L 99.99 3.43
  L 99.99 4.27
  L 99.88 4.57
  L 99.07 4.65
  L 98.99 4.42
  L 98.92 3.60
  Z"
/>
<path fill="#feffeb" d="
  M 86.76 5.84
  L 86.04 5.37
  L 85.99 5.14
  L 86.02 4.71
  L 86.21 4.33
  L 86.38 4.19
  L 86.83 4.07
  L 87.18 4.22
  L 87.29 4.33
  L 87.50 4.83
  L 87.35 5.53
  L 86.76 5.84
  Z"
/>
<path fill="#feffeb" d="
  M 59.50 5.95
  L 58.85 5.72
  L 58.63 5.55
  L 58.52 5.14
  L 58.59 4.83
  L 59.00 4.43
  L 59.76 4.70
  L 59.78 4.76
  L 59.97 5.50
  L 59.98 5.60
  L 59.50 5.95
  Z"
/>
<path fill="#ffd165" d="
  M 79.34 7.27
  L 81.53 7.97
  L 81.76 8.27
  L 81.52 8.60
  L 79.33 9.29
  L 79.28 9.30
  L 79.11 9.50
  L 78.41 11.69
  L 78.14 11.91
  L 77.78 11.68
  L 77.09 9.49
  L 76.88 9.27
  L 74.69 8.57
  L 74.70 7.94
  L 76.89 7.25
  L 77.11 7.04
  L 77.81 4.85
  L 78.08 4.63
  L 78.44 4.86
  L 79.13 7.05
  L 79.34 7.27
  Z"
/>
<path fill="#010226" d="
  M 130.31 9.15
  L 130.74 9.48
  L 144.80 9.42
  L 145.60 9.75
  L 145.93 10.55
  L 145.92 10.95
  L 144.95 11.93
  L 125.00 11.92
  L 123.43 11.64
  L 122.47 10.91
  L 122.02 9.52
  L 122.36 7.98
  L 123.32 6.66
  L 124.75 5.91
  L 126.78 5.78
  L 128.40 6.31
  L 129.54 7.43
  L 130.31 9.15
  Z"
/>
<path fill="#feffeb" d="
  M 105.67 6.87
  L 105.88 6.46
  L 106.01 6.32
  L 106.73 6.41
  L 106.77 6.48
  L 107.22 7.27
  L 107.80 7.89
  L 108.00 8.23
  L 107.83 8.58
  L 106.71 9.71
  L 106.27 9.93
  L 105.88 9.62
  L 105.33 9.00
  L 104.40 8.58
  L 104.17 7.92
  L 104.33 7.80
  L 105.14 7.46
  L 105.67 6.87
  Z"
/>
<path fill="#feffeb" d="
  M 95.53 10.12
  L 98.32 10.83
  L 98.57 11.12
  L 98.32 11.47
  L 95.52 12.15
  L 95.29 12.35
  L 95.28 12.39
  L 94.57 15.18
  L 93.93 15.18
  L 93.25 12.38
  L 93.01 12.14
  L 90.22 11.43
  L 89.97 11.10
  L 90.22 10.79
  L 93.02 10.11
  L 93.26 9.87
  L 93.97 7.08
  L 94.61 7.08
  L 95.29 9.88
  L 95.29 9.89
  L 95.53 10.12
  Z"
/>
<path fill="#feffeb" d="
  M 50.56 9.90
  L 49.65 9.59
  L 49.50 9.49
  L 49.66 8.86
  L 50.39 8.62
  L 50.76 8.39
  L 50.94 7.98
  L 51.06 7.63
  L 51.30 7.29
  L 51.39 7.22
  L 51.96 7.50
  L 52.45 8.41
  L 53.24 8.72
  L 54.23 9.02
  L 53.39 9.56
  L 51.49 11.13
  L 51.17 11.36
  L 51.04 10.98
  L 51.02 10.50
  L 50.56 9.90
  Z"
/>
<circle fill="#feffeb" cx="66.40" cy="7.89" r="0.92"/>
<path fill="#010226" d="
  M 25.89 12.64
  L 27.23 10.36
  L 29.28 9.36
  L 31.82 9.80
  L 33.78 12.00
  L 33.93 14.20
  L 32.80 15.23
  L 30.96 15.57
  L 11.41 15.52
  L 10.40 14.57
  L 10.38 14.17
  L 10.60 13.37
  L 11.38 13.10
  L 25.21 13.15
  L 25.89 12.64
  Z"
/>
<circle fill="#feffeb" cx="66.48" cy="14.31" r="1.00"/>
<path fill="#feffeb" d="
  M 48.45 16.69
  L 47.97 16.88
  L 47.60 16.86
  L 47.23 16.64
  L 47.13 16.22
  L 47.19 15.90
  L 47.30 15.64
  L 47.36 15.55
  L 48.39 15.52
  L 48.55 15.73
  L 48.67 16.00
  L 48.69 16.39
  L 48.45 16.69
  Z"
/>
<rect fill="#feffeb" x="-3.51" y="-0.79" transform="translate(56.51,16.22) rotate(0.1)" width="7.02" height="1.58" rx="0.56"/>
<path fill="#feffeb" d="
  M 82.74 16.49
  L 79.62 18.27
  L 77.41 20.47
  L 75.98 23.20
  L 75.58 26.06
  L 76.24 29.03
  L 77.98 31.69
  L 80.47 33.67
  L 83.80 35.04
  L 83.83 35.15
  L 83.84 35.24
  L 83.80 35.34
  L 80.58 38.75
  L 76.89 40.82
  L 72.12 41.54
  L 66.73 40.52
  L 65.09 37.53
  L 64.11 34.49
  L 63.74 31.16
  L 64.06 27.94
  L 65.04 24.88
  L 66.60 22.12
  L 68.71 19.76
  L 71.31 17.90
  L 76.85 16.11
  L 82.74 16.49
  Z"
/>
<path fill="#01658e" d="
  M 82.74 16.49
  L 85.42 17.79
  L 87.39 23.34
  L 87.41 28.52
  L 87.41 28.52
  L 87.41 28.52
  L 86.36 31.76
  L 84.45 34.84
  L 83.80 35.04
  L 80.47 33.67
  L 77.98 31.69
  L 76.24 29.03
  L 75.58 26.06
  L 75.98 23.20
  L 77.41 20.47
  L 79.62 18.27
  L 82.74 16.49
  Z"
/>
<path fill="#3eb9a8" d="
  M 137.68 51.24
  L 136.74 55.17
  L 133.32 51.50
  L 130.89 47.39
  L 129.47 42.90
  L 129.01 37.98
  L 128.39 35.87
  L 128.03 35.85
  L 130.66 16.87
  L 131.43 16.22
  L 131.90 16.34
  L 132.52 17.57
  L 133.91 28.31
  L 137.12 50.38
  L 137.55 51.24
  L 137.68 51.24
  Z"
/>
<path fill="#023251" d="
  M 85.42 17.79
  L 88.98 20.52
  L 91.43 23.83
  L 91.43 23.83
  L 92.73 27.61
  L 92.97 31.94
  L 88.51 34.49
  L 85.90 35.00
  L 84.45 34.84
  L 86.36 31.76
  L 87.41 28.52
  L 87.41 28.52
  L 87.41 28.52
  L 87.39 23.34
  L 85.42 17.79
  Z"
/>
<path fill="#ffc64e" d="
  M 123.22 20.61
  L 124.79 20.96
  L 125.17 21.40
  L 124.87 21.89
  L 124.87 21.89
  L 124.80 21.91
  L 123.24 22.30
  L 122.88 22.67
  L 122.53 24.24
  L 122.13 24.62
  L 121.58 24.25
  L 121.19 22.69
  L 120.82 22.33
  L 119.25 21.98
  L 118.91 21.30
  L 119.24 21.03
  L 120.80 20.64
  L 120.90 20.60
  L 121.16 20.27
  L 121.51 18.70
  L 121.92 18.32
  L 122.46 18.69
  L 122.85 20.25
  L 123.22 20.61
  Z"
/>
<path fill="#3eb9a8" d="
  M 31.35 53.36
  L 31.90 57.68
  L 33.35 62.22
  L 33.39 62.40
  L 32.72 62.83
  L 30.89 62.03
  L 26.19 56.69
  L 26.19 56.69
  L 24.27 52.67
  L 23.17 48.14
  L 23.21 47.76
  L 23.47 47.46
  L 23.66 47.36
  L 23.89 47.30
  L 24.24 47.13
  L 24.18 46.75
  L 23.19 44.24
  L 22.84 41.74
  L 22.32 30.55
  L 24.03 19.49
  L 24.82 18.90
  L 25.22 19.05
  L 25.57 19.76
  L 30.76 52.90
  L 30.86 53.15
  L 31.08 53.31
  L 31.35 53.36
  Z"
/>
<path fill="#010226" d="
  M 143.20 21.58
  L 144.50 21.95
  L 144.84 22.39
  L 144.50 22.86
  L 143.19 23.22
  L 142.87 23.55
  L 142.50 24.85
  L 142.12 25.18
  L 141.59 24.85
  L 141.23 23.54
  L 140.90 23.22
  L 139.60 22.85
  L 139.26 22.41
  L 139.60 21.94
  L 140.91 21.58
  L 141.23 21.25
  L 141.60 19.95
  L 142.05 19.61
  L 142.51 19.95
  L 142.87 21.26
  L 143.20 21.58
  Z"
/>
<path fill="#010226" d="
  M 14.64 22.56
  L 16.06 22.92
  L 16.36 23.31
  L 16.05 23.70
  L 14.63 24.05
  L 14.34 24.34
  L 13.98 25.76
  L 13.48 26.04
  L 13.20 25.75
  L 12.85 24.33
  L 12.56 24.04
  L 11.14 23.68
  L 10.84 23.29
  L 11.15 22.90
  L 12.57 22.55
  L 12.66 22.52
  L 12.86 22.26
  L 13.22 20.84
  L 14.00 20.83
  L 14.00 20.85
  L 14.35 22.27
  L 14.38 22.37
  L 14.64 22.56
  Z"
/>
<path fill="#ffc64e" d="
  M 35.61 28.01
  L 37.33 28.38
  L 37.70 28.78
  L 37.32 29.30
  L 35.60 29.65
  L 35.24 30.02
  L 34.87 31.74
  L 34.46 32.11
  L 33.95 31.73
  L 33.60 30.01
  L 33.59 29.99
  L 33.23 29.65
  L 31.51 29.28
  L 31.14 28.85
  L 31.47 28.38
  L 31.52 28.36
  L 33.24 28.01
  L 33.60 27.64
  L 33.97 25.92
  L 34.38 25.55
  L 34.89 25.93
  L 35.24 27.65
  L 35.61 28.01
  Z"
/>
<path fill="#047f7b" d="
  M 22.32 30.55
  L 22.84 41.74
  L 23.19 44.24
  L 24.18 46.75
  L 24.24 47.13
  L 23.89 47.30
  L 23.66 47.36
  L 23.47 47.46
  L 23.21 47.76
  L 23.17 48.14
  L 24.27 52.67
  L 26.19 56.69
  L 26.19 56.69
  L 30.89 62.03
  L 32.98 68.94
  L 30.69 69.32
  L 30.13 69.52
  L 27.55 70.24
  L 25.62 67.80
  L 24.01 64.24
  L 22.99 60.10
  L 22.54 55.54
  L 22.64 55.52
  L 22.66 55.02
  L 21.86 52.54
  L 19.22 47.90
  L 22.32 30.55
  Z"
/>
<path fill="#010226" d="
  M 18.06 51.64
  L 19.41 58.09
  L 20.14 61.06
  L 20.13 62.14
  L 19.18 61.64
  L 17.02 59.70
  L 16.45 59.90
  L 16.47 60.09
  L 21.13 70.68
  L 21.94 71.98
  L 22.67 73.10
  L 22.70 73.15
  L 23.59 73.34
  L 23.38 73.39
  L 23.58 73.78
  L 24.03 73.98
  L 32.76 74.01
  L 33.16 74.10
  L 33.46 74.36
  L 37.07 79.10
  L 39.45 82.26
  L 39.55 82.58
  L 39.24 82.68
  L 36.55 82.69
  L 36.17 82.82
  L 36.05 83.21
  L 36.20 88.19
  L 36.36 88.60
  L 36.81 88.61
  L 38.94 87.41
  L 46.82 84.57
  L 53.49 82.66
  L 53.85 82.43
  L 53.95 82.01
  L 53.87 80.65
  L 53.73 80.31
  L 53.36 80.30
  L 46.99 82.29
  L 46.83 82.24
  L 46.53 81.43
  L 46.95 80.85
  L 53.46 78.80
  L 53.87 78.52
  L 53.98 78.02
  L 53.87 76.52
  L 53.72 76.19
  L 53.35 76.18
  L 46.47 78.49
  L 45.48 77.78
  L 45.07 77.32
  L 53.53 74.79
  L 61.99 72.99
  L 70.44 71.93
  L 78.89 71.62
  L 78.89 71.62
  L 78.89 71.62
  L 78.89 71.62
  L 86.99 72.01
  L 95.09 73.08
  L 103.18 74.83
  L 111.27 77.26
  L 111.31 77.35
  L 110.69 78.68
  L 103.14 76.25
  L 102.56 76.26
  L 102.33 76.80
  L 102.26 77.74
  L 103.03 78.87
  L 109.82 81.07
  L 109.89 81.42
  L 109.72 82.33
  L 103.06 80.28
  L 102.64 80.29
  L 102.49 80.69
  L 102.48 82.02
  L 102.99 82.69
  L 109.72 84.56
  L 114.50 86.32
  L 117.20 87.72
  L 123.49 91.13
  L 127.99 94.28
  L 128.81 94.57
  L 129.77 94.55
  L 130.10 94.92
  L 131.01 94.82
  L 138.79 94.72
  L 142.95 94.90
  L 144.43 95.01
  L 149.55 95.28
  L 149.72 95.33
  L 145.99 96.40
  L 107.08 96.47
  L 107.14 94.31
  L 107.89 92.90
  L 107.89 92.90
  L 108.90 92.34
  L 109.33 92.35
  L 109.59 92.69
  L 109.88 94.04
  L 109.89 94.37
  L 110.02 94.77
  L 110.41 94.90
  L 116.32 94.90
  L 121.69 94.70
  L 122.11 94.46
  L 121.78 94.12
  L 114.85 90.19
  L 109.55 87.76
  L 103.28 85.57
  L 91.72 83.22
  L 79.13 82.42
  L 66.26 83.18
  L 53.20 85.50
  L 46.52 87.83
  L 37.19 92.29
  L 36.22 93.12
  L 36.08 93.63
  L 36.27 94.52
  L 37.00 94.98
  L 45.99 95.06
  L 46.48 95.90
  L 46.29 96.27
  L 26.53 96.57
  L 6.87 95.96
  L 9.47 94.96
  L 12.94 94.93
  L 14.03 94.82
  L 14.56 94.30
  L 14.33 93.49
  L 14.29 86.29
  L 14.24 83.23
  L 14.11 82.86
  L 13.74 82.74
  L 11.22 82.76
  L 10.81 82.62
  L 10.93 82.21
  L 16.33 74.52
  L 16.67 74.20
  L 17.16 74.04
  L 20.81 73.71
  L 21.63 73.81
  L 22.02 73.64
  L 21.80 73.29
  L 17.87 70.72
  L 13.89 69.80
  L 13.89 69.80
  L 9.88 70.52
  L 5.83 72.88
  L 2.84 75.35
  L 2.01 74.74
  L 2.12 74.22
  L 8.56 61.22
  L 8.83 60.04
  L 7.89 60.81
  L 7.01 61.65
  L 5.59 62.51
  L 4.76 62.00
  L 4.80 61.77
  L 8.15 51.33
  L 11.42 36.29
  L 12.35 31.63
  L 13.08 31.08
  L 13.45 31.20
  L 13.86 31.90
  L 18.06 51.64
  Z
  M 77.5941 73.4219
  L 77.1700 73.0265
  L 71.1937 73.2352
  L 70.7982 73.6592
  L 70.8659 75.5981
  L 71.2900 75.9935
  L 77.2663 75.7848
  L 77.6618 75.3608
  L 77.5941 73.4219
  Z
  M 85.9925 73.8597
  L 85.3632 73.1896
  L 79.7060 73.0118
  L 79.0359 73.6411
  L 78.9875 75.1803
  L 79.6168 75.8504
  L 85.2740 76.0282
  L 85.9441 75.3989
  L 85.9925 73.8597
  Z
  M 69.3010 73.8235
  L 68.7646 73.4309
  L 55.5223 75.4809
  L 55.1298 76.0173
  L 55.3990 77.7565
  L 55.9354 78.1491
  L 69.1777 76.0991
  L 69.5702 75.5627
  L 69.3010 73.8235
  Z
  M 87.74 73.41
  L 87.30 73.68
  L 87.28 73.78
  L 87.21 75.72
  L 87.54 76.12
  L 100.54 78.14
  L 100.99 77.76
  L 101.00 75.86
  L 100.67 75.48
  L 87.74 73.41
  Z
  M 77.5204 77.3691
  L 77.2502 77.1198
  L 71.2151 77.3621
  L 70.9657 77.6324
  L 71.0396 79.4709
  L 71.3098 79.7202
  L 77.3449 79.4779
  L 77.5943 79.2076
  L 77.5204 77.3691
  Z
  M 85.9482 77.9281
  L 85.4714 77.4060
  L 79.5375 77.1365
  L 79.0153 77.6133
  L 78.9518 79.0119
  L 79.4286 79.5340
  L 85.3625 79.8035
  L 85.8847 79.3267
  L 85.9482 77.9281
  Z
  M 69.2557 78.0591
  L 68.4757 77.4966
  L 55.7614 79.5558
  L 55.1989 80.3358
  L 55.3843 81.4809
  L 56.1643 82.0434
  L 68.8786 79.9842
  L 69.4411 79.2042
  L 69.2557 78.0591
  Z
  M 101.1076 80.1865
  L 100.6208 79.5263
  L 88.0241 77.6212
  L 87.3638 78.1079
  L 87.1724 79.3735
  L 87.6592 80.0337
  L 100.2559 81.9388
  L 100.9162 81.4521
  L 101.1076 80.1865
  Z
  M 28.45 88.01
  L 29.06 92.09
  L 28.95 94.21
  L 28.95 94.24
  L 29.49 94.83
  L 34.11 94.90
  L 34.73 94.28
  L 34.65 88.44
  L 34.65 83.42
  L 34.49 82.94
  L 34.01 82.78
  L 23.04 82.76
  L 22.34 83.46
  L 22.26 94.29
  L 22.39 94.70
  L 22.79 94.83
  L 26.81 94.86
  L 27.36 94.67
  L 27.46 94.11
  L 27.39 90.51
  L 28.45 88.01
  Z"
/>
<path fill="#007099" d="
  M 60.46 38.66
  L 59.50 37.41
  L 59.26 37.36
  L 53.50 37.32
  L 47.62 38.38
  L 47.59 38.42
  L 47.59 38.42
  L 45.85 39.00
  L 42.42 38.32
  L 42.22 31.26
  L 61.04 31.28
  L 61.39 31.38
  L 61.57 31.70
  L 63.20 38.32
  L 63.20 38.33
  L 62.81 38.94
  L 62.79 38.94
  L 60.46 38.66
  Z
  M 53.60 33.96
  L 54.18 34.79
  L 54.25 34.79
  L 54.55 34.84
  L 55.07 34.77
  L 55.28 34.00
  L 54.64 33.33
  L 53.94 33.35
  L 53.60 33.96
  Z"
/>
<path fill="#007099" d="
  M 114.67 31.15
  L 114.33 38.78
  L 109.84 38.74
  L 109.37 37.56
  L 109.00 37.47
  L 94.33 37.44
  L 94.47 34.54
  L 95.26 31.54
  L 96.00 31.03
  L 114.67 31.15
  Z
  M 102.70 34.04
  L 101.88 33.22
  L 101.06 34.04
  L 101.88 34.86
  L 102.70 34.04
  Z"
/>
<path fill="#010226" d="
  M 127.27 37.06
  L 129.53 49.52
  L 132.58 61.90
  L 132.07 62.43
  L 131.88 62.32
  L 128.98 59.49
  L 128.70 59.58
  L 128.71 59.67
  L 131.68 67.21
  L 128.26 70.61
  L 127.49 69.71
  L 125.09 68.95
  L 121.56 69.62
  L 117.61 70.71
  L 118.73 67.81
  L 121.94 60.05
  L 122.13 59.30
  L 121.55 59.82
  L 121.28 60.14
  L 119.10 62.11
  L 117.94 62.56
  L 118.00 61.32
  L 119.77 55.81
  L 124.95 31.67
  L 125.46 31.16
  L 126.11 31.22
  L 126.46 31.77
  L 126.66 32.65
  L 127.27 37.06
  Z"
/>
<path fill="#010226" d="
  M 136.73 65.44
  L 138.76 59.85
  L 138.77 59.72
  L 138.37 59.59
  L 136.29 61.45
  L 135.11 62.07
  L 135.15 60.74
  L 136.74 55.17
  L 137.68 51.24
  L 141.49 31.65
  L 142.19 31.10
  L 142.62 31.22
  L 143.18 32.19
  L 146.77 49.41
  L 150.52 61.53
  L 150.56 61.96
  L 150.33 62.31
  L 149.84 62.53
  L 149.07 62.18
  L 146.87 60.16
  L 146.39 59.89
  L 146.51 60.43
  L 149.34 66.30
  L 153.65 74.06
  L 154.02 75.32
  L 152.72 75.10
  L 150.28 74.00
  L 148.87 73.05
  L 147.90 71.65
  L 145.25 68.09
  L 141.56 66.10
  L 136.73 65.44
  Z"
/>
<path fill="#d7901f" d="
  M 92.97 31.94
  L 92.34 35.71
  L 90.95 39.01
  L 88.71 42.00
  L 85.85 44.26
  L 82.72 45.65
  L 79.26 46.26
  L 75.89 46.07
  L 72.42 45.10
  L 72.53 44.75
  L 72.58 44.17
  L 72.67 43.83
  L 73.02 43.76
  L 77.04 43.92
  L 80.49 43.07
  L 84.86 39.99
  L 88.51 34.49
  L 92.97 31.94
  Z"
/>
<path fill="#feffeb" d="
  M 53.60 33.96
  L 53.94 33.35
  L 54.64 33.33
  L 55.28 34.00
  L 55.07 34.77
  L 54.55 34.84
  L 54.25 34.79
  L 54.18 34.79
  L 53.60 33.96
  Z"
/>
<circle fill="#feffeb" cx="101.88" cy="34.04" r="0.82"/>
<path fill="#ffc64e" d="
  M 88.51 34.49
  L 84.86 39.99
  L 80.49 43.07
  L 77.04 43.92
  L 73.02 43.76
  L 72.67 43.83
  L 72.58 44.17
  L 72.53 44.75
  L 72.42 45.10
  L 69.25 43.07
  L 66.73 40.52
  L 72.12 41.54
  L 76.89 40.82
  L 80.58 38.75
  L 83.80 35.34
  L 83.84 35.24
  L 83.83 35.15
  L 83.80 35.04
  L 84.45 34.84
  L 85.90 35.00
  L 88.51 34.49
  Z"
/>
<path fill="#047f7b" d="
  M 136.74 55.17
  L 135.15 60.74
  L 135.11 62.07
  L 136.29 61.45
  L 138.37 59.59
  L 138.77 59.72
  L 138.76 59.85
  L 136.73 65.44
  L 131.68 67.21
  L 128.71 59.67
  L 128.70 59.58
  L 128.98 59.49
  L 131.88 62.32
  L 132.07 62.43
  L 132.58 61.90
  L 129.53 49.52
  L 127.27 37.06
  L 127.60 37.07
  L 128.03 35.85
  L 128.39 35.87
  L 129.01 37.98
  L 129.47 42.90
  L 130.89 47.39
  L 133.32 51.50
  L 136.74 55.17
  Z"
/>
<path fill="#feffeb" d="
  M 60.46 38.66
  L 59.75 38.96
  L 57.71 38.92
  L 56.74 39.02
  L 52.21 39.05
  L 47.62 38.38
  L 53.50 37.32
  L 59.26 37.36
  L 59.50 37.41
  L 60.46 38.66
  Z"
/>
<path fill="#feffeb" d="
  M 109.84 38.74
  L 98.50 38.99
  L 95.01 39.00
  L 94.57 38.88
  L 94.31 38.47
  L 94.33 37.44
  L 109.00 37.47
  L 109.37 37.56
  L 109.84 38.74
  Z"
/>
<path fill="#023251" d="
  M 42.42 38.32
  L 45.85 39.00
  L 47.59 38.42
  L 47.62 38.38
  L 52.21 39.05
  L 56.74 39.02
  L 57.71 38.92
  L 57.60 42.45
  L 54.93 42.54
  L 47.76 42.33
  L 45.46 41.57
  L 43.58 40.18
  L 42.42 38.32
  Z"
/>
<path fill="#023251" d="
  M 109.84 38.74
  L 114.33 38.78
  L 113.22 40.33
  L 111.32 41.66
  L 109.05 42.36
  L 102.07 42.48
  L 99.28 42.36
  L 99.16 41.44
  L 99.24 40.49
  L 99.22 40.05
  L 98.98 39.70
  L 98.79 39.49
  L 98.50 38.99
  L 109.84 38.74
  Z"
/>
<path fill="#010226" d="
  M 37.41 55.63
  L 39.23 62.08
  L 38.53 62.80
  L 38.26 62.65
  L 36.92 61.28
  L 36.06 60.68
  L 36.25 61.71
  L 38.48 67.44
  L 39.90 71.07
  L 37.17 69.76
  L 34.36 69.06
  L 34.36 69.06
  L 32.98 68.94
  L 30.89 62.03
  L 32.72 62.83
  L 33.39 62.40
  L 33.35 62.22
  L 31.90 57.68
  L 31.35 53.36
  L 33.54 40.24
  L 33.66 40.00
  L 34.42 40.23
  L 37.41 55.63
  Z"
/>
<rect fill="#010226" x="-7.58" y="-1.26" transform="translate(50.60,47.39) rotate(0.3)" width="15.16" height="2.52" rx="1.12"/>
<rect fill="#010226" x="-6.36" y="-1.26" transform="translate(104.11,47.38) rotate(-0.7)" width="12.72" height="2.52" rx="1.19"/>
<path fill="#056969" d="
  M 19.22 47.90
  L 21.86 52.54
  L 22.66 55.02
  L 22.64 55.52
  L 22.54 55.54
  L 22.39 55.12
  L 22.05 54.86
  L 21.62 54.97
  L 20.13 56.42
  L 19.41 58.09
  L 18.06 51.64
  L 19.22 47.90
  Z"
/>
<path fill="#ffd165" d="
  M 118.24 55.94
  L 118.24 55.98
  L 116.88 57.85
  L 112.89 59.67
  L 44.31 59.70
  L 43.87 58.85
  L 43.74 58.45
  L 43.77 57.94
  L 44.34 55.78
  L 71.16 55.76
  L 72.06 55.46
  L 74.89 53.53
  L 77.16 52.71
  L 80.89 53.09
  L 83.14 54.42
  L 86.22 55.91
  L 86.40 55.91
  L 118.24 55.94
  Z
  M 78.53 56.82
  L 78.00 56.57
  L 77.45 56.60
  L 77.23 56.71
  L 77.31 57.72
  L 78.11 57.88
  L 78.64 57.46
  L 78.53 56.82
  Z"
/>
<path fill="#01495d" d="
  M 22.54 55.54
  L 22.99 60.10
  L 24.01 64.24
  L 25.62 67.80
  L 27.55 70.24
  L 23.59 73.34
  L 22.70 73.15
  L 22.67 73.10
  L 21.94 71.98
  L 21.13 70.68
  L 16.47 60.09
  L 16.45 59.90
  L 17.02 59.70
  L 19.18 61.64
  L 20.13 62.14
  L 20.14 61.06
  L 19.41 58.09
  L 20.13 56.42
  L 21.62 54.97
  L 22.05 54.86
  L 22.39 55.12
  L 22.54 55.54
  Z"
/>
<path fill="#ffc64e" d="
  M 37.41 55.63
  L 44.34 55.78
  L 43.77 57.94
  L 43.74 58.45
  L 43.87 58.85
  L 44.31 59.70
  L 43.54 60.21
  L 43.74 60.87
  L 44.51 61.27
  L 112.77 61.26
  L 113.27 61.11
  L 113.53 60.64
  L 113.53 60.33
  L 112.89 59.67
  L 116.88 57.85
  L 118.24 55.98
  L 118.24 55.94
  L 119.77 55.81
  L 118.00 61.32
  L 117.94 62.56
  L 119.10 62.11
  L 121.28 60.14
  L 121.55 59.82
  L 122.13 59.30
  L 121.94 60.05
  L 118.73 67.81
  L 108.25 67.51
  L 103.61 67.67
  L 98.22 67.82
  L 85.39 67.60
  L 74.73 67.49
  L 70.94 67.68
  L 65.85 67.84
  L 65.65 67.82
  L 57.00 67.48
  L 50.11 67.84
  L 45.20 67.70
  L 38.48 67.44
  L 36.25 61.71
  L 36.06 60.68
  L 36.92 61.28
  L 38.26 62.65
  L 38.53 62.80
  L 39.23 62.08
  L 37.41 55.63
  Z
  M 54.46 64.35
  L 54.38 64.63
  L 54.66 65.11
  L 54.97 65.30
  L 55.43 65.35
  L 55.74 65.18
  L 55.83 65.09
  L 55.97 64.55
  L 55.86 64.22
  L 55.54 64.05
  L 54.91 64.07
  L 54.46 64.35
  Z
  M 66.40 64.11
  L 66.13 64.81
  L 66.24 64.92
  L 67.02 65.20
  L 67.68 64.89
  L 67.61 64.12
  L 67.46 64.07
  L 66.82 64.04
  L 66.40 64.11
  Z
  M 100.57 64.05
  L 100.12 64.96
  L 100.28 65.14
  L 101.02 65.37
  L 101.66 64.82
  L 101.68 64.79
  L 101.43 64.16
  L 101.12 64.07
  L 100.57 64.05
  Z
  M 111.1908 66.0094
  L 111.9923 65.2013
  L 111.4692 64.1906
  L 110.6677 64.9987
  L 111.1908 66.0094
  Z
  M 77.88 64.75
  L 77.01 65.30
  L 77.74 66.02
  L 78.57 65.92
  L 78.73 65.85
  L 78.77 65.02
  L 77.97 64.73
  L 77.88 64.75
  Z"
/>
<path fill="#feffeb" d="
  M 78.53 56.82
  L 78.64 57.46
  L 78.11 57.88
  L 77.31 57.72
  L 77.23 56.71
  L 77.45 56.60
  L 78.00 56.57
  L 78.53 56.82
  Z"
/>
<path fill="#feffeb" d="
  M 44.31 59.70
  L 112.89 59.67
  L 113.53 60.33
  L 113.53 60.64
  L 113.27 61.11
  L 112.77 61.26
  L 44.51 61.27
  L 43.74 60.87
  L 43.54 60.21
  L 44.31 59.70
  Z"
/>
<path fill="#feffeb" d="
  M 54.46 64.35
  L 54.91 64.07
  L 55.54 64.05
  L 55.86 64.22
  L 55.97 64.55
  L 55.83 65.09
  L 55.74 65.18
  L 55.43 65.35
  L 54.97 65.30
  L 54.66 65.11
  L 54.38 64.63
  L 54.46 64.35
  Z"
/>
<path fill="#feffeb" d="
  M 66.40 64.11
  L 66.82 64.04
  L 67.46 64.07
  L 67.61 64.12
  L 67.68 64.89
  L 67.02 65.20
  L 66.24 64.92
  L 66.13 64.81
  L 66.40 64.11
  Z"
/>
<path fill="#feffeb" d="
  M 100.57 64.05
  L 101.12 64.07
  L 101.43 64.16
  L 101.68 64.79
  L 101.66 64.82
  L 101.02 65.37
  L 100.28 65.14
  L 100.12 64.96
  L 100.57 64.05
  Z"
/>
<ellipse fill="#feecb8" cx="0.00" cy="0.00" transform="translate(111.33,65.10) rotate(98.7)" rx="0.92" ry="0.67"/>
<path fill="#feffeb" d="
  M 77.88 64.75
  L 77.97 64.73
  L 78.77 65.02
  L 78.73 65.85
  L 78.57 65.92
  L 77.74 66.02
  L 77.01 65.30
  L 77.88 64.75
  Z"
/>
<path fill="#ffc64e" d="
  M 156.37 83.30
  L 151.21 83.24
  L 148.99 80.16
  L 147.82 79.01
  L 146.12 78.23
  L 144.61 78.09
  L 143.30 78.59
  L 142.76 79.22
  L 141.83 79.87
  L 139.12 83.26
  L 136.15 83.23
  L 135.82 83.14
  L 135.62 82.83
  L 135.53 82.51
  L 133.72 79.90
  L 131.88 78.61
  L 130.01 78.13
  L 130.01 78.13
  L 127.79 78.61
  L 125.54 80.21
  L 125.46 80.29
  L 124.42 82.88
  L 124.38 83.08
  L 123.79 83.38
  L 123.55 83.41
  L 118.31 83.30
  L 120.15 79.25
  L 122.84 76.38
  L 122.84 76.38
  L 126.62 74.62
  L 126.94 74.51
  L 128.21 73.01
  L 129.57 70.59
  L 131.38 68.70
  L 134.26 67.03
  L 137.46 66.34
  L 140.69 66.65
  L 143.68 67.99
  L 145.75 69.84
  L 147.34 72.38
  L 148.57 73.85
  L 151.40 75.41
  L 153.02 76.25
  L 154.72 77.87
  L 155.94 80.29
  L 156.37 83.30
  Z"
/>
<path fill="#ffd165" d="
  M 38.48 67.44
  L 45.20 67.70
  L 50.11 67.84
  L 57.00 67.48
  L 65.65 67.82
  L 65.85 67.84
  L 70.94 67.68
  L 74.73 67.49
  L 85.39 67.60
  L 98.22 67.82
  L 103.61 67.67
  L 108.25 67.51
  L 118.73 67.81
  L 117.61 70.71
  L 115.72 72.56
  L 112.80 75.67
  L 111.75 77.27
  L 111.64 77.38
  L 111.49 77.40
  L 111.28 77.31
  L 111.27 77.26
  L 103.18 74.83
  L 95.09 73.08
  L 86.99 72.01
  L 78.89 71.62
  L 78.89 71.62
  L 70.44 71.93
  L 61.99 72.99
  L 53.53 74.79
  L 45.07 77.32
  L 43.88 75.22
  L 42.52 74.17
  L 41.63 73.40
  L 41.83 73.18
  L 39.90 71.07
  L 38.48 67.44
  Z"
/>
<path fill="#feffeb" d="
  M 32.98 68.94
  L 34.36 69.06
  L 34.36 69.06
  L 37.17 69.76
  L 39.90 71.07
  L 41.83 73.18
  L 41.63 73.40
  L 37.48 71.02
  L 31.48 69.71
  L 30.13 69.52
  L 30.69 69.32
  L 32.98 68.94
  Z"
/>
<path fill="#023251" d="
  M 128.26 70.61
  L 127.05 73.17
  L 125.04 74.32
  L 121.95 75.85
  L 119.80 78.01
  L 119.80 78.01
  L 118.70 80.42
  L 118.31 83.30
  L 123.55 83.41
  L 126.34 83.74
  L 127.70 83.53
  L 128.12 84.63
  L 131.32 87.98
  L 132.73 90.02
  L 130.95 91.89
  L 129.77 94.55
  L 128.81 94.57
  L 127.99 94.28
  L 123.49 91.13
  L 117.20 87.72
  L 114.50 86.32
  L 114.95 82.12
  L 116.44 78.57
  L 116.44 78.57
  L 118.76 75.86
  L 121.99 73.71
  L 122.32 72.84
  L 122.02 72.05
  L 121.86 71.48
  L 121.83 71.06
  L 121.56 69.62
  L 125.09 68.95
  L 127.49 69.71
  L 128.26 70.61
  Z"
/>
<path fill="#3eb9a8" d="
  M 30.13 69.52
  L 31.48 69.71
  L 37.48 71.02
  L 41.63 73.40
  L 42.52 74.17
  L 40.67 76.53
  L 38.47 78.33
  L 37.07 79.10
  L 33.46 74.36
  L 33.16 74.10
  L 32.76 74.01
  L 24.03 73.98
  L 23.58 73.78
  L 23.38 73.39
  L 23.59 73.34
  L 27.55 70.24
  L 30.13 69.52
  Z"
/>
<path fill="#01658e" d="
  M 121.56 69.62
  L 121.83 71.06
  L 121.86 71.48
  L 122.02 72.05
  L 122.32 72.84
  L 121.99 73.71
  L 118.76 75.86
  L 116.44 78.57
  L 114.95 82.12
  L 114.50 86.32
  L 109.72 84.56
  L 109.72 82.33
  L 109.89 81.42
  L 109.82 81.07
  L 110.34 80.83
  L 110.69 78.68
  L 111.31 77.35
  L 111.27 77.26
  L 111.28 77.31
  L 111.49 77.40
  L 111.64 77.38
  L 111.75 77.27
  L 112.80 75.67
  L 115.72 72.56
  L 117.61 70.71
  L 121.56 69.62
  Z"
/>
<path fill="#feffeb" d="
  M 20.81 73.71
  L 20.63 73.46
  L 19.49 72.34
  L 16.14 71.33
  L 16.14 71.33
  L 11.13 71.29
  L 5.83 72.88
  L 9.88 70.52
  L 13.89 69.80
  L 13.89 69.80
  L 17.87 70.72
  L 21.80 73.29
  L 22.02 73.64
  L 21.63 73.81
  L 20.81 73.71
  Z"
/>
<path fill="#3eb9a8" d="
  M 20.81 73.71
  L 17.16 74.04
  L 16.67 74.20
  L 16.33 74.52
  L 10.93 82.21
  L 10.81 82.62
  L 11.22 82.76
  L 13.74 82.74
  L 14.11 82.86
  L 14.24 83.23
  L 14.29 86.29
  L 10.51 84.95
  L 7.28 82.92
  L 7.28 82.92
  L 4.62 80.24
  L 2.50 76.88
  L 2.83 75.84
  L 2.84 75.35
  L 5.83 72.88
  L 11.13 71.29
  L 16.14 71.33
  L 16.14 71.33
  L 19.49 72.34
  L 20.63 73.46
  L 20.81 73.71
  Z"
/>
<rect fill="#ffd165" x="-3.40" y="-1.38" transform="translate(74.23,74.51) rotate(-2.0)" width="6.80" height="2.76" rx="0.41"/>
<rect fill="#ffd165" x="-3.48" y="-1.42" transform="translate(82.49,74.52) rotate(1.8)" width="6.96" height="2.84" rx="0.65"/>
<rect fill="#ffd165" x="-7.17" y="-1.35" transform="translate(62.35,75.79) rotate(-8.8)" width="14.34" height="2.70" rx="0.47"/>
<path fill="#ffd165" d="
  M 87.74 73.41
  L 100.67 75.48
  L 100.85 75.56
  L 101.00 75.86
  L 100.99 77.76
  L 100.89 78.01
  L 100.54 78.14
  L 87.54 76.12
  L 87.21 75.72
  L 87.28 73.78
  L 87.74 73.41
  Z"
/>
<path fill="#047f7b" d="
  M 42.52 74.17
  L 43.88 75.22
  L 45.07 77.32
  L 45.48 77.78
  L 46.47 78.49
  L 46.17 79.47
  L 46.95 80.85
  L 46.53 81.43
  L 45.57 81.45
  L 45.11 81.85
  L 42.44 84.84
  L 38.94 87.41
  L 36.81 88.61
  L 36.36 88.60
  L 36.20 88.19
  L 36.05 83.21
  L 36.17 82.82
  L 36.55 82.69
  L 39.24 82.68
  L 39.55 82.58
  L 39.45 82.26
  L 37.07 79.10
  L 38.47 78.33
  L 40.67 76.53
  L 42.52 74.17
  Z"
/>
<path fill="#ffd165" d="
  M 46.95 80.85
  L 46.17 79.47
  L 46.47 78.49
  L 53.35 76.18
  L 53.72 76.19
  L 53.87 76.52
  L 53.98 78.02
  L 53.87 78.52
  L 53.46 78.80
  L 46.95 80.85
  Z"
/>
<path fill="#ffd165" d="
  M 110.69 78.68
  L 110.34 80.83
  L 109.82 81.07
  L 103.03 78.87
  L 102.26 77.74
  L 102.33 76.80
  L 102.56 76.26
  L 103.14 76.25
  L 110.69 78.68
  Z"
/>
<path fill="#047f7b" d="
  M 2.50 76.88
  L 4.62 80.24
  L 7.28 82.92
  L 7.28 82.92
  L 10.51 84.95
  L 14.29 86.29
  L 14.33 93.49
  L 9.71 90.87
  L 5.17 87.59
  L 3.12 86.52
  L 0.00 85.76
  L 0.00 82.90
  L 1.91 77.76
  L 2.50 76.88
  Z"
/>
<rect fill="#feecb8" x="-3.28" y="-1.18" transform="translate(74.28,78.42) rotate(-2.3)" width="6.56" height="2.36" rx="0.26"/>
<rect fill="#feecb8" x="-3.47" y="-1.20" transform="translate(82.45,78.47) rotate(2.6)" width="6.94" height="2.40" rx="0.50"/>
<rect fill="#feecb8" x="-7.12" y="-1.26" transform="translate(62.32,79.77) rotate(-9.2)" width="14.24" height="2.52" rx="0.68"/>
<rect fill="#feecb8" x="-6.95" y="-1.22" transform="translate(94.14,79.78) rotate(8.6)" width="13.90" height="2.44" rx="0.58"/>
<path fill="#feffeb" d="
  M 148.99 80.16
  L 146.21 79.08
  L 142.76 79.22
  L 143.30 78.59
  L 144.61 78.09
  L 146.12 78.23
  L 147.82 79.01
  L 148.99 80.16
  Z"
/>
<path fill="#feecb8" d="
  M 133.72 79.90
  L 130.25 79.02
  L 127.45 79.51
  L 127.45 79.51
  L 127.45 79.51
  L 125.71 80.87
  L 124.38 83.08
  L 124.42 82.88
  L 125.46 80.29
  L 125.54 80.21
  L 127.79 78.61
  L 130.01 78.13
  L 130.01 78.13
  L 131.88 78.61
  L 133.72 79.90
  Z"
/>
<path fill="#3eb9a8" d="
  M 133.72 79.90
  L 135.53 82.51
  L 135.55 82.83
  L 135.04 83.41
  L 133.70 83.55
  L 129.39 83.51
  L 129.32 83.47
  L 127.70 83.53
  L 126.34 83.74
  L 123.55 83.41
  L 123.79 83.38
  L 124.38 83.08
  L 125.71 80.87
  L 127.45 79.51
  L 127.45 79.51
  L 130.25 79.02
  L 133.72 79.90
  Z"
/>
<path fill="#3eb9a8" d="
  M 148.99 80.16
  L 151.21 83.24
  L 148.35 83.60
  L 147.50 83.34
  L 140.80 83.64
  L 140.63 83.51
  L 140.24 83.49
  L 139.12 83.26
  L 141.83 79.87
  L 142.76 79.22
  L 146.21 79.08
  L 148.99 80.16
  Z"
/>
<path fill="#feecb8" d="
  M 46.82 84.57
  L 46.93 84.09
  L 46.99 82.29
  L 53.36 80.30
  L 53.73 80.31
  L 53.87 80.65
  L 53.95 82.01
  L 53.85 82.43
  L 53.49 82.66
  L 46.82 84.57
  Z"
/>
<path fill="#feecb8" d="
  M 109.72 82.33
  L 109.72 84.56
  L 102.99 82.69
  L 102.48 82.02
  L 102.49 80.69
  L 102.64 80.29
  L 103.06 80.28
  L 109.72 82.33
  Z"
/>
<path fill="#056969" d="
  M 46.53 81.43
  L 46.83 82.24
  L 46.99 82.29
  L 46.93 84.09
  L 46.82 84.57
  L 38.94 87.41
  L 42.44 84.84
  L 45.11 81.85
  L 45.57 81.45
  L 46.53 81.43
  Z"
/>
<path fill="#ffd165" d="
  M 103.28 85.57
  L 99.05 86.01
  L 85.25 85.89
  L 71.04 85.88
  L 56.64 86.10
  L 53.20 85.50
  L 66.26 83.18
  L 79.13 82.42
  L 91.72 83.22
  L 103.28 85.57
  Z"
/>
<path fill="#056969" d="
  M 135.53 82.51
  L 135.62 82.83
  L 135.82 83.14
  L 136.15 83.23
  L 139.12 83.26
  L 140.24 83.49
  L 139.79 83.75
  L 139.45 84.10
  L 139.37 84.54
  L 139.04 88.71
  L 138.99 88.89
  L 136.57 89.12
  L 135.85 88.91
  L 135.80 83.97
  L 135.68 83.60
  L 135.38 83.41
  L 135.04 83.41
  L 135.55 82.83
  L 135.53 82.51
  Z"
/>
<path fill="#feffeb" d="
  M 34.65 88.44
  L 28.45 88.01
  L 27.39 90.51
  L 27.46 94.11
  L 27.36 94.67
  L 26.81 94.86
  L 22.79 94.83
  L 22.39 94.70
  L 22.26 94.29
  L 22.34 83.46
  L 23.04 82.76
  L 34.01 82.78
  L 34.49 82.94
  L 34.65 83.42
  L 34.65 88.44
  Z"
/>
<path fill="#010226" d="
  M 129.39 83.51
  L 133.26 88.21
  L 133.39 88.32
  L 134.06 87.97
  L 133.70 83.55
  L 135.04 83.41
  L 135.38 83.41
  L 135.68 83.60
  L 135.80 83.97
  L 135.85 88.91
  L 134.57 89.19
  L 132.73 90.02
  L 131.32 87.98
  L 128.12 84.63
  L 127.70 83.53
  L 129.32 83.47
  L 129.39 83.51
  Z"
/>
<path fill="#01495d" d="
  M 133.70 83.55
  L 134.06 87.97
  L 133.39 88.32
  L 133.26 88.21
  L 129.39 83.51
  L 133.70 83.55
  Z"
/>
<path fill="#047f7b" d="
  M 147.50 83.34
  L 147.10 83.37
  L 146.62 83.51
  L 146.24 83.79
  L 141.62 88.59
  L 141.52 88.66
  L 140.91 88.39
  L 140.73 85.95
  L 141.16 83.91
  L 141.17 83.78
  L 141.07 83.72
  L 140.80 83.64
  L 147.50 83.34
  Z"
/>
<path fill="#047f7b" d="
  M 151.21 83.24
  L 156.37 83.30
  L 156.52 85.21
  L 156.19 85.29
  L 155.83 85.44
  L 155.62 85.62
  L 150.94 89.09
  L 148.79 89.79
  L 146.80 89.68
  L 143.21 88.78
  L 148.35 83.60
  L 151.21 83.24
  Z"
/>
<path fill="#010226" d="
  M 140.24 83.49
  L 140.63 83.51
  L 140.80 83.64
  L 141.07 83.72
  L 141.17 83.78
  L 141.16 83.91
  L 140.73 85.95
  L 140.91 88.39
  L 141.52 88.66
  L 141.62 88.59
  L 146.24 83.79
  L 146.62 83.51
  L 147.10 83.37
  L 147.50 83.34
  L 148.35 83.60
  L 143.21 88.78
  L 141.92 90.46
  L 138.99 88.89
  L 139.04 88.71
  L 139.37 84.54
  L 139.45 84.10
  L 139.79 83.75
  L 140.24 83.49
  Z"
/>
<path fill="#01495d" d="
  M 156.52 85.21
  L 155.69 89.05
  L 153.95 92.15
  L 153.95 92.15
  L 153.95 92.15
  L 152.08 93.94
  L 149.72 95.33
  L 149.55 95.28
  L 144.43 95.01
  L 144.08 93.53
  L 141.92 90.46
  L 143.21 88.78
  L 146.80 89.68
  L 148.79 89.79
  L 150.94 89.09
  L 155.62 85.62
  L 155.83 85.44
  L 156.19 85.29
  L 156.52 85.21
  Z"
/>
<path fill="#098aa4" d="
  M 53.20 85.50
  L 56.64 86.10
  L 58.96 88.33
  L 61.58 89.84
  L 64.20 90.59
  L 64.82 91.32
  L 65.75 91.47
  L 66.57 91.09
  L 66.84 90.45
  L 66.98 90.31
  L 68.45 90.25
  L 68.93 91.38
  L 69.50 91.53
  L 72.01 91.51
  L 75.52 91.55
  L 75.52 91.55
  L 76.27 92.35
  L 76.25 92.76
  L 76.25 92.77
  L 75.67 93.27
  L 73.67 93.36
  L 72.54 94.05
  L 72.40 94.30
  L 72.37 94.26
  L 72.37 94.26
  L 71.35 93.70
  L 69.58 93.72
  L 69.49 93.34
  L 68.75 93.05
  L 59.26 92.99
  L 58.99 92.45
  L 57.81 91.80
  L 57.38 91.63
  L 57.02 91.25
  L 56.48 90.80
  L 56.02 90.86
  L 55.81 89.73
  L 54.50 89.26
  L 47.32 89.40
  L 46.52 87.83
  L 53.20 85.50
  Z"
/>
<path fill="#3eb9a8" d="
  M 99.05 86.01
  L 96.10 88.78
  L 92.92 90.04
  L 89.71 89.87
  L 69.61 89.50
  L 69.31 89.55
  L 68.45 90.25
  L 66.98 90.31
  L 66.84 90.45
  L 66.11 89.55
  L 65.27 89.59
  L 64.82 89.83
  L 64.20 90.59
  L 61.58 89.84
  L 58.96 88.33
  L 56.64 86.10
  L 71.04 85.88
  L 71.16 87.65
  L 71.79 88.01
  L 84.87 87.95
  L 85.70 87.28
  L 85.66 86.46
  L 85.25 85.89
  L 99.05 86.01
  Z"
/>
<path fill="#098aa4" d="
  M 103.28 85.57
  L 109.55 87.76
  L 109.13 89.52
  L 100.56 89.74
  L 100.40 89.57
  L 99.87 89.33
  L 99.15 89.46
  L 98.86 89.60
  L 93.75 92.83
  L 88.19 93.00
  L 87.04 93.85
  L 87.55 94.55
  L 86.71 94.30
  L 84.32 94.18
  L 83.96 93.66
  L 81.67 93.20
  L 81.17 93.11
  L 80.97 92.64
  L 80.95 92.38
  L 81.08 91.89
  L 81.55 91.71
  L 88.24 91.60
  L 89.50 91.14
  L 89.71 89.87
  L 92.92 90.04
  L 92.92 90.04
  L 96.10 88.78
  L 99.05 86.01
  L 103.28 85.57
  Z"
/>
<path fill="#023251" d="
  M 0.00 85.76
  L 3.12 86.52
  L 5.17 87.59
  L 9.71 90.87
  L 14.33 93.49
  L 14.56 94.30
  L 14.03 94.82
  L 12.94 94.93
  L 9.47 94.96
  L 6.87 95.96
  L 3.40 93.14
  L 1.09 89.77
  L 0.00 86.24
  L 0.00 85.76
  Z"
/>
<path fill="#feffeb" d="
  M 85.25 85.89
  L 85.66 86.46
  L 85.70 87.28
  L 84.87 87.95
  L 71.79 88.01
  L 71.16 87.65
  L 71.04 85.88
  L 85.25 85.89
  Z"
/>
<path fill="#007099" d="
  M 109.55 87.76
  L 114.85 90.19
  L 115.15 92.33
  L 116.32 94.90
  L 110.41 94.90
  L 110.02 94.77
  L 109.89 94.37
  L 109.88 94.04
  L 109.59 92.69
  L 109.33 92.35
  L 108.90 92.34
  L 107.89 92.90
  L 107.89 92.90
  L 107.14 94.31
  L 107.08 96.47
  L 103.42 97.46
  L 100.66 99.35
  L 98.77 102.21
  L 97.82 106.02
  L 97.64 106.42
  L 97.24 106.55
  L 88.99 106.67
  L 88.57 107.19
  L 88.59 107.26
  L 88.72 107.58
  L 89.35 108.01
  L 97.46 107.91
  L 97.82 108.02
  L 98.00 108.33
  L 98.97 110.88
  L 100.38 112.76
  L 102.72 114.34
  L 105.51 115.19
  L 114.03 115.31
  L 116.80 115.16
  L 117.64 115.41
  L 117.90 116.23
  L 117.78 122.91
  L 117.53 123.60
  L 116.84 123.83
  L 113.17 123.82
  L 112.81 123.95
  L 112.78 124.33
  L 112.89 124.72
  L 113.32 125.05
  L 117.26 125.12
  L 117.65 125.25
  L 117.78 125.64
  L 117.79 129.53
  L 117.62 130.21
  L 117.06 129.66
  L 115.63 130.21
  L 110.79 131.30
  L 103.55 130.60
  L 96.14 129.60
  L 89.25 129.60
  L 88.59 129.79
  L 88.33 129.97
  L 88.37 129.80
  L 88.36 129.71
  L 88.29 129.57
  L 88.12 129.47
  L 85.49 129.48
  L 84.86 129.69
  L 71.50 129.77
  L 70.39 130.18
  L 70.16 130.76
  L 67.03 130.63
  L 67.00 114.14
  L 66.87 113.73
  L 66.47 113.56
  L 66.15 113.53
  L 65.88 113.60
  L 65.80 113.84
  L 65.74 126.27
  L 55.99 127.35
  L 48.74 127.25
  L 48.64 126.69
  L 48.71 125.53
  L 48.90 125.20
  L 49.24 125.10
  L 58.55 125.04
  L 58.95 124.66
  L 58.97 124.34
  L 58.89 124.02
  L 58.59 123.91
  L 49.25 123.76
  L 48.86 123.62
  L 48.72 123.25
  L 48.55 118.21
  L 48.68 115.23
  L 52.11 115.04
  L 54.90 113.89
  L 54.90 113.89
  L 54.90 113.89
  L 57.10 111.73
  L 58.63 108.56
  L 58.94 108.09
  L 59.48 107.94
  L 69.70 108.01
  L 70.20 107.86
  L 70.41 107.36
  L 70.43 107.02
  L 70.00 106.53
  L 69.98 106.53
  L 59.46 106.61
  L 58.84 106.05
  L 58.05 102.48
  L 56.38 99.72
  L 56.38 99.72
  L 53.70 97.70
  L 50.08 96.54
  L 49.12 93.48
  L 48.23 92.70
  L 47.99 91.09
  L 56.02 90.86
  L 56.48 90.80
  L 57.02 91.25
  L 57.38 91.63
  L 57.81 91.80
  L 58.99 92.45
  L 59.26 92.99
  L 53.73 93.01
  L 53.15 93.22
  L 53.12 93.84
  L 53.19 94.08
  L 54.05 94.73
  L 68.00 94.76
  L 68.82 94.58
  L 69.58 93.72
  L 71.35 93.70
  L 72.37 94.26
  L 72.37 94.26
  L 72.40 94.30
  L 72.92 95.74
  L 75.12 96.13
  L 75.56 96.12
  L 76.05 96.26
  L 76.26 96.76
  L 76.28 97.19
  L 75.34 98.23
  L 75.31 98.23
  L 61.46 98.29
  L 60.39 98.96
  L 60.26 99.23
  L 60.22 99.34
  L 60.73 99.99
  L 73.04 100.21
  L 74.05 100.88
  L 73.87 102.07
  L 73.18 102.44
  L 71.00 102.73
  L 70.43 103.24
  L 70.31 103.66
  L 70.88 104.52
  L 70.97 104.53
  L 92.47 104.45
  L 92.48 104.45
  L 93.15 103.74
  L 93.14 103.45
  L 92.28 102.63
  L 85.00 102.62
  L 84.99 102.62
  L 84.21 102.28
  L 83.91 101.50
  L 83.92 101.01
  L 84.74 100.21
  L 94.98 100.23
  L 95.71 99.99
  L 96.01 99.28
  L 96.03 98.99
  L 95.89 98.43
  L 95.34 98.24
  L 81.46 98.24
  L 80.63 97.98
  L 80.50 97.83
  L 80.31 96.81
  L 80.54 96.30
  L 81.06 96.11
  L 83.13 96.02
  L 83.93 95.54
  L 84.04 95.33
  L 84.32 94.18
  L 86.71 94.30
  L 87.55 94.55
  L 102.40 94.70
  L 103.41 93.96
  L 103.51 93.65
  L 103.14 93.05
  L 103.08 93.04
  L 93.75 92.83
  L 98.86 89.60
  L 99.15 89.46
  L 99.87 89.33
  L 100.40 89.57
  L 100.56 89.74
  L 100.62 90.42
  L 102.26 91.08
  L 108.83 91.18
  L 109.24 91.04
  L 109.41 90.66
  L 109.42 90.54
  L 109.13 89.52
  L 109.55 87.76
  Z
  M 65.56 104.34
  L 66.01 103.90
  L 66.08 103.68
  L 66.07 103.35
  L 65.72 102.91
  L 65.44 102.77
  L 64.61 102.77
  L 64.18 103.01
  L 63.99 103.46
  L 64.08 104.09
  L 64.87 104.47
  L 65.56 104.34
  Z
  M 83.4504 106.9848
  L 82.4854 106.0097
  L 74.9655 105.9703
  L 73.9905 106.9352
  L 73.9896 107.0952
  L 74.9546 108.0703
  L 82.4745 108.1097
  L 83.4495 107.1448
  L 83.4504 106.9848
  Z
  M 86.1799 110.5159
  L 85.2783 109.6175
  L 70.9184 109.6425
  L 70.0199 110.5441
  L 70.0201 110.6241
  L 70.9217 111.5225
  L 85.2816 111.4975
  L 86.1801 110.5959
  L 86.1799 110.5159
  Z
  M 95.33 114.21
  L 94.39 113.27
  L 74.59 113.27
  L 73.65 114.21
  L 73.65 114.27
  L 74.59 115.21
  L 94.39 115.21
  L 95.33 114.27
  L 95.33 114.21
  Z
  M 81.9099 118.7507
  L 81.0368 117.8837
  L 71.7169 117.9163
  L 70.8499 118.7893
  L 70.8501 118.8493
  L 71.7232 119.7163
  L 81.0431 119.6837
  L 81.9101 118.8107
  L 81.9099 118.7507
  Z
  M 114.22 118.78
  L 113.34 117.90
  L 94.42 117.90
  L 93.54 118.78
  L 93.54 118.84
  L 94.42 119.72
  L 113.34 119.72
  L 114.22 118.84
  L 114.22 118.78
  Z
  M 84.9988 121.9801
  L 84.2423 121.2367
  L 76.6026 121.3034
  L 75.8591 122.0599
  L 75.8612 122.2999
  L 76.6177 123.0433
  L 84.2574 122.9766
  L 85.0009 122.2201
  L 84.9988 121.9801
  Z
  M 106.02 122.11
  L 105.19 121.28
  L 95.49 121.28
  L 94.66 122.11
  L 94.66 122.17
  L 95.49 123.00
  L 105.19 123.00
  L 106.02 122.17
  L 106.02 122.11
  Z
  M 69.72 124.07
  L 69.57 124.28
  L 69.56 124.55
  L 69.76 124.97
  L 70.26 125.28
  L 70.70 125.33
  L 71.63 124.78
  L 71.54 123.95
  L 71.49 123.92
  L 70.55 123.68
  L 69.72 124.07
  Z
  M 97.9600 125.9461
  L 97.2213 125.2048
  L 80.2813 125.1752
  L 79.5400 125.9139
  L 79.5400 125.9539
  L 80.2787 126.6952
  L 97.2187 126.7248
  L 97.9600 125.9861
  L 97.9600 125.9461
  Z"
/>
<path fill="#ffc64e" d="
  M 34.65 88.44
  L 34.73 94.28
  L 34.11 94.90
  L 29.49 94.83
  L 28.95 94.24
  L 28.95 94.21
  L 29.06 92.09
  L 28.45 88.01
  L 34.65 88.44
  Z"
/>
<path fill="#056969" d="
  M 46.52 87.83
  L 47.32 89.40
  L 47.00 90.70
  L 47.17 91.12
  L 47.58 91.24
  L 47.62 91.24
  L 47.99 91.09
  L 48.23 92.70
  L 46.99 92.80
  L 46.85 93.25
  L 46.28 94.90
  L 45.99 95.06
  L 37.00 94.98
  L 36.27 94.52
  L 36.08 93.63
  L 36.22 93.12
  L 37.19 92.29
  L 46.52 87.83
  Z"
/>
<path fill="#feffeb" d="
  M 135.85 88.91
  L 136.57 89.12
  L 137.57 89.27
  L 135.15 90.12
  L 133.19 91.04
  L 131.75 92.68
  L 131.01 94.82
  L 130.10 94.92
  L 129.77 94.55
  L 130.95 91.89
  L 132.73 90.02
  L 134.57 89.19
  L 135.85 88.91
  Z"
/>
<path fill="#3eb9a8" d="
  M 136.57 89.12
  L 138.99 88.89
  L 141.92 90.46
  L 144.08 93.53
  L 144.43 95.01
  L 142.95 94.90
  L 141.72 93.12
  L 139.91 93.06
  L 138.79 94.72
  L 131.01 94.82
  L 131.75 92.68
  L 133.19 91.04
  L 135.15 90.12
  L 137.57 89.27
  L 136.57 89.12
  Z"
/>
<path fill="#feffeb" d="
  M 56.02 90.86
  L 47.99 91.09
  L 47.62 91.24
  L 47.58 91.24
  L 47.17 91.12
  L 47.00 90.70
  L 47.32 89.40
  L 54.50 89.26
  L 55.81 89.73
  L 56.02 90.86
  Z"
/>
<path fill="#feffeb" d="
  M 109.13 89.52
  L 109.42 90.54
  L 109.41 90.66
  L 109.24 91.04
  L 108.83 91.18
  L 102.26 91.08
  L 100.62 90.42
  L 100.56 89.74
  L 109.13 89.52
  Z"
/>
<path fill="#feffeb" d="
  M 66.84 90.45
  L 66.57 91.09
  L 65.75 91.47
  L 64.82 91.32
  L 64.20 90.59
  L 64.82 89.83
  L 65.27 89.59
  L 66.11 89.55
  L 66.84 90.45
  Z"
/>
<path fill="#feffeb" d="
  M 89.71 89.87
  L 89.50 91.14
  L 88.24 91.60
  L 81.55 91.71
  L 81.08 91.89
  L 80.95 92.38
  L 80.97 92.64
  L 81.17 93.11
  L 81.67 93.20
  L 83.96 93.66
  L 84.32 94.18
  L 84.04 95.33
  L 83.93 95.54
  L 83.13 96.02
  L 81.06 96.11
  L 80.54 96.30
  L 80.31 96.81
  L 80.50 97.83
  L 80.63 97.98
  L 81.46 98.24
  L 95.34 98.24
  L 95.89 98.43
  L 96.03 98.99
  L 96.01 99.28
  L 95.71 99.99
  L 94.98 100.23
  L 84.74 100.21
  L 83.92 101.01
  L 83.91 101.50
  L 84.21 102.28
  L 84.99 102.62
  L 85.00 102.62
  L 92.28 102.63
  L 93.14 103.45
  L 93.15 103.74
  L 92.48 104.45
  L 92.47 104.45
  L 70.97 104.53
  L 70.88 104.52
  L 70.31 103.66
  L 70.43 103.24
  L 71.00 102.73
  L 73.18 102.44
  L 73.87 102.07
  L 74.05 100.88
  L 73.04 100.21
  L 60.73 99.99
  L 60.22 99.34
  L 60.26 99.23
  L 60.39 98.96
  L 61.46 98.29
  L 75.31 98.23
  L 75.34 98.23
  L 76.28 97.19
  L 76.26 96.76
  L 76.05 96.26
  L 75.56 96.12
  L 75.12 96.13
  L 72.92 95.74
  L 72.40 94.30
  L 72.54 94.05
  L 73.67 93.36
  L 75.67 93.27
  L 76.25 92.77
  L 76.25 92.76
  L 76.27 92.35
  L 75.52 91.55
  L 75.52 91.55
  L 72.01 91.51
  L 69.50 91.53
  L 68.93 91.38
  L 68.45 90.25
  L 69.31 89.55
  L 69.61 89.50
  L 89.71 89.87
  Z"
/>
<path fill="#023251" d="
  M 114.85 90.19
  L 121.78 94.12
  L 122.11 94.46
  L 121.69 94.70
  L 116.32 94.90
  L 115.15 92.33
  L 114.85 90.19
  Z"
/>
<path fill="#023251" d="
  M 48.23 92.70
  L 49.12 93.48
  L 50.08 96.54
  L 46.29 96.27
  L 46.48 95.90
  L 45.99 95.06
  L 46.28 94.90
  L 46.85 93.25
  L 46.99 92.80
  L 48.23 92.70
  Z"
/>
<path fill="#047f7b" d="
  M 142.95 94.90
  L 138.79 94.72
  L 139.91 93.06
  L 141.72 93.12
  L 142.95 94.90
  Z"
/>
<path fill="#feffeb" d="
  M 59.26 92.99
  L 68.75 93.05
  L 69.49 93.34
  L 69.58 93.72
  L 68.82 94.58
  L 68.00 94.76
  L 54.05 94.73
  L 53.19 94.08
  L 53.12 93.84
  L 53.15 93.22
  L 53.73 93.01
  L 59.26 92.99
  Z"
/>
<path fill="#feffeb" d="
  M 93.75 92.83
  L 103.08 93.04
  L 103.14 93.05
  L 103.51 93.65
  L 103.41 93.96
  L 102.40 94.70
  L 87.55 94.55
  L 87.04 93.85
  L 88.19 93.00
  L 93.75 92.83
  Z"
/>
<path fill="#3eb9a8" d="
  M 29.97 103.34
  L 25.03 104.42
  L 23.22 104.24
  L 21.67 105.52
  L 20.96 105.96
  L 20.17 105.71
  L 20.06 105.59
  L 18.63 104.55
  L 17.29 104.52
  L 14.18 103.61
  L 12.14 103.44
  L 12.97 101.42
  L 14.17 100.04
  L 15.78 99.27
  L 17.96 99.00
  L 19.86 98.92
  L 25.65 99.09
  L 27.48 99.70
  L 28.92 100.83
  L 29.97 103.34
  Z"
/>
<path fill="#3eb9a8" d="
  M 139.04 103.57
  L 134.49 105.65
  L 133.17 103.68
  L 132.89 103.38
  L 131.73 103.15
  L 130.86 103.96
  L 130.61 104.49
  L 129.83 105.35
  L 125.52 103.61
  L 127.09 101.87
  L 129.39 99.72
  L 132.25 99.10
  L 135.92 99.99
  L 137.68 101.44
  L 139.04 103.57
  Z"
/>
<rect fill="#ffc64e" x="-3.34" y="-0.99" transform="translate(47.40,103.44) rotate(-1.0)" width="6.68" height="1.98" rx="0.94"/>
<ellipse fill="#ffc64e" cx="0.00" cy="0.00" transform="translate(108.71,103.49) rotate(0.7)" rx="2.27" ry="1.08"/>
<path fill="#feffeb" d="
  M 65.56 104.34
  L 64.87 104.47
  L 64.08 104.09
  L 63.99 103.46
  L 64.18 103.01
  L 64.61 102.77
  L 65.44 102.77
  L 65.72 102.91
  L 66.07 103.35
  L 66.08 103.68
  L 66.01 103.90
  L 65.56 104.34
  Z"
/>
<path fill="#056969" d="
  M 134.49 105.65
  L 132.82 107.86
  L 132.48 108.09
  L 132.11 107.89
  L 129.83 105.35
  L 130.61 104.49
  L 130.86 103.96
  L 131.73 103.15
  L 132.89 103.38
  L 133.17 103.68
  L 134.49 105.65
  Z"
/>
<path fill="#010226" d="
  M 12.14 103.44
  L 14.18 103.61
  L 17.29 104.52
  L 20.85 108.21
  L 21.20 108.39
  L 21.54 108.20
  L 25.03 104.42
  L 29.97 103.34
  L 37.34 103.31
  L 37.39 103.31
  L 37.98 104.07
  L 37.93 104.37
  L 37.55 105.07
  L 36.76 105.20
  L 32.46 105.42
  L 28.79 107.37
  L 28.87 107.98
  L 29.02 108.01
  L 48.91 107.96
  L 49.92 108.36
  L 50.37 109.34
  L 50.39 109.71
  L 49.96 111.23
  L 48.48 111.73
  L 6.08 111.72
  L 4.88 111.32
  L 4.49 110.12
  L 4.49 109.37
  L 4.90 108.39
  L 5.88 107.99
  L 5.88 107.99
  L 13.47 107.99
  L 13.98 107.83
  L 13.73 107.37
  L 12.45 106.34
  L 8.01 104.88
  L 7.70 104.77
  L 7.45 104.29
  L 8.22 103.33
  L 8.29 103.33
  L 12.14 103.44
  Z"
/>
<path fill="#010226" d="
  M 125.52 103.61
  L 129.83 105.35
  L 132.11 107.89
  L 132.48 108.09
  L 132.82 107.86
  L 134.49 105.65
  L 139.04 103.57
  L 147.25 103.27
  L 147.93 103.46
  L 148.18 104.14
  L 148.20 104.57
  L 148.20 104.62
  L 147.46 105.23
  L 143.06 105.49
  L 139.69 107.11
  L 139.13 107.78
  L 139.98 108.00
  L 149.64 108.00
  L 150.51 108.34
  L 150.91 109.19
  L 150.95 109.69
  L 150.55 111.21
  L 149.06 111.72
  L 108.20 111.72
  L 106.70 111.22
  L 106.25 109.70
  L 106.26 109.35
  L 106.68 108.40
  L 107.65 108.01
  L 125.00 108.00
  L 125.68 107.81
  L 125.25 107.25
  L 121.99 105.55
  L 117.72 105.18
  L 116.99 104.54
  L 116.99 104.47
  L 117.02 104.14
  L 117.30 103.48
  L 117.99 103.29
  L 125.52 103.61
  Z"
/>
<path fill="#056969" d="
  M 25.03 104.42
  L 21.54 108.20
  L 21.20 108.39
  L 20.85 108.21
  L 17.29 104.52
  L 18.63 104.55
  L 20.06 105.59
  L 20.17 105.71
  L 20.96 105.96
  L 21.67 105.52
  L 23.22 104.24
  L 25.03 104.42
  Z"
/>
<rect fill="#feffeb" x="-4.73" y="-1.05" transform="translate(78.72,107.04) rotate(0.3)" width="9.46" height="2.10" rx="0.97"/>
<rect fill="#feffeb" x="-8.08" y="-0.94" transform="translate(78.10,110.57) rotate(-0.1)" width="16.16" height="1.88" rx="0.90"/>
<rect fill="#feffeb" x="73.65" y="113.27" width="21.68" height="1.94" rx="0.94"/>
<path fill="#3eb9a8" d="
  M 3.88 123.43
  L 3.72 119.16
  L 4.81 116.68
  L 7.49 115.40
  L 12.52 115.21
  L 14.05 115.24
  L 14.45 115.37
  L 14.60 115.78
  L 14.76 123.28
  L 14.10 123.96
  L 14.09 123.96
  L 4.31 123.81
  L 4.02 123.71
  L 3.88 123.43
  Z"
/>
<path fill="#3eb9a8" d="
  M 48.68 115.23
  L 48.55 118.21
  L 47.63 118.45
  L 47.52 118.75
  L 47.60 122.50
  L 47.35 123.58
  L 46.30 123.94
  L 39.88 123.91
  L 39.00 123.61
  L 38.69 122.75
  L 38.57 118.99
  L 38.40 118.59
  L 37.77 118.47
  L 37.40 119.00
  L 37.29 123.44
  L 37.19 123.72
  L 36.92 123.81
  L 27.47 123.93
  L 27.12 123.81
  L 27.00 123.46
  L 26.99 119.01
  L 26.52 118.54
  L 26.21 118.54
  L 25.90 118.64
  L 25.80 118.96
  L 25.83 123.40
  L 25.71 123.77
  L 25.35 123.88
  L 16.15 123.81
  L 15.84 123.70
  L 15.74 123.39
  L 15.81 115.59
  L 15.91 115.30
  L 16.21 115.20
  L 48.68 115.23
  Z
  M 20.4932 120.7196
  L 21.0198 119.7740
  L 20.5468 118.8004
  L 20.0202 119.7460
  L 20.4932 120.7196
  Z
  M 32.47 120.15
  L 32.20 119.11
  L 31.44 118.92
  L 31.33 119.14
  L 31.44 120.00
  L 32.14 120.47
  L 32.48 120.22
  L 32.47 120.15
  Z"
/>
<path fill="#3eb9a8" d="
  M 138.9067 123.3626
  L 138.4075 123.8635
  L 119.5276 123.8965
  L 119.0267 123.3973
  L 119.0133 115.7374
  L 119.5125 115.2365
  L 138.3924 115.2035
  L 138.8933 115.7027
  L 138.9067 123.3626
  Z
  M 132.66 119.81
  L 132.62 119.91
  L 132.49 120.52
  L 132.95 120.95
  L 133.01 120.94
  L 133.68 120.77
  L 134.02 120.56
  L 134.10 120.16
  L 133.76 119.15
  L 133.22 118.56
  L 133.15 118.52
  L 132.81 118.75
  L 132.79 119.26
  L 132.74 119.59
  L 132.66 119.81
  Z
  M 124.35 119.06
  L 124.13 119.90
  L 124.18 120.25
  L 124.28 120.47
  L 124.91 120.87
  L 125.60 120.59
  L 126.00 119.65
  L 125.45 118.85
  L 124.82 118.64
  L 124.75 118.68
  L 124.35 119.06
  Z"
/>
<path fill="#3eb9a8" d="
  M 140.56 115.27
  L 142.75 115.17
  L 147.60 115.19
  L 150.20 116.24
  L 151.56 118.79
  L 151.81 123.48
  L 151.50 123.78
  L 140.46 123.91
  L 140.00 123.45
  L 140.10 115.74
  L 140.23 115.39
  L 140.56 115.27
  Z
  M 145.27 119.17
  L 144.79 119.95
  L 144.76 120.51
  L 144.94 120.90
  L 145.67 121.12
  L 146.20 120.58
  L 146.18 119.54
  L 146.06 119.28
  L 145.70 118.97
  L 145.27 119.17
  Z"
/>
<rect fill="#feffeb" x="-5.53" y="-0.90" transform="translate(76.38,118.80) rotate(-0.2)" width="11.06" height="1.80" rx="0.87"/>
<rect fill="#feffeb" x="93.54" y="117.90" width="20.68" height="1.82" rx="0.88"/>
<path fill="#feffeb" d="
  M 132.79 119.26
  L 132.81 118.75
  L 133.15 118.52
  L 133.22 118.56
  L 133.76 119.15
  L 134.10 120.16
  L 134.02 120.56
  L 133.68 120.77
  L 133.01 120.94
  L 132.95 120.95
  L 132.49 120.52
  L 132.62 119.91
  L 132.66 119.81
  L 132.74 119.59
  L 132.79 119.26
  Z"
/>
<ellipse fill="#feffeb" cx="0.00" cy="0.00" transform="translate(20.52,119.76) rotate(91.6)" rx="0.96" ry="0.50"/>
<path fill="#feffeb" d="
  M 124.35 119.06
  L 124.75 118.68
  L 124.82 118.64
  L 125.45 118.85
  L 126.00 119.65
  L 125.60 120.59
  L 124.91 120.87
  L 124.28 120.47
  L 124.18 120.25
  L 124.13 119.90
  L 124.35 119.06
  Z"
/>
<path fill="#feffeb" d="
  M 32.47 120.15
  L 32.48 120.22
  L 32.14 120.47
  L 31.44 120.00
  L 31.33 119.14
  L 31.44 118.92
  L 32.20 119.11
  L 32.47 120.15
  Z"
/>
<path fill="#feffeb" d="
  M 145.27 119.17
  L 145.70 118.97
  L 146.06 119.28
  L 146.18 119.54
  L 146.20 120.58
  L 145.67 121.12
  L 144.94 120.90
  L 144.94 120.90
  L 144.76 120.51
  L 144.79 119.95
  L 145.27 119.17
  Z"
/>
<rect fill="#feffeb" x="-4.57" y="-0.87" transform="translate(80.43,122.14) rotate(-0.5)" width="9.14" height="1.74" rx="0.75"/>
<rect fill="#feffeb" x="94.66" y="121.28" width="11.36" height="1.72" rx="0.83"/>
<path fill="#feffeb" d="
  M 69.72 124.07
  L 70.55 123.68
  L 71.49 123.92
  L 71.54 123.95
  L 71.63 124.78
  L 70.70 125.33
  L 70.26 125.28
  L 69.76 124.97
  L 69.56 124.55
  L 69.57 124.28
  L 69.72 124.07
  Z"
/>
<path fill="#01658e" d="
  M 14.61 130.30
  L 14.43 130.39
  L 12.01 130.52
  L 8.96 130.14
  L 7.31 130.83
  L 7.14 131.13
  L 3.80 131.56
  L 3.78 125.65
  L 3.91 125.27
  L 4.26 125.15
  L 14.22 125.01
  L 14.59 125.13
  L 14.71 125.51
  L 14.61 130.30
  Z"
/>
<path fill="#01658e" d="
  M 25.72 133.01
  L 23.08 132.90
  L 22.98 130.69
  L 22.84 130.35
  L 22.50 130.24
  L 18.99 130.26
  L 18.30 130.81
  L 18.23 132.06
  L 15.82 132.02
  L 15.66 126.86
  L 16.04 125.61
  L 17.26 125.18
  L 24.71 125.04
  L 24.74 125.04
  L 25.60 125.41
  L 25.94 126.29
  L 25.72 133.01
  Z"
/>
<path fill="#01658e" d="
  M 37.29 131.45
  L 34.31 131.78
  L 34.35 130.84
  L 34.35 130.84
  L 33.03 130.16
  L 30.07 130.26
  L 29.60 130.88
  L 29.61 130.91
  L 29.70 131.33
  L 27.08 131.11
  L 27.02 125.57
  L 27.48 125.11
  L 36.81 125.16
  L 37.28 125.33
  L 37.43 125.79
  L 37.29 131.45
  Z"
/>
<path fill="#01658e" d="
  M 47.45 131.75
  L 45.73 131.66
  L 45.66 130.96
  L 45.49 130.55
  L 45.08 130.35
  L 40.84 130.47
  L 38.75 130.30
  L 38.61 126.28
  L 38.87 125.39
  L 39.76 125.08
  L 46.48 125.03
  L 47.34 125.31
  L 47.61 126.19
  L 47.45 131.75
  Z"
/>
<rect fill="#feffeb" x="-9.21" y="-0.76" transform="translate(88.75,125.95) rotate(0.1)" width="18.42" height="1.52" rx="0.74"/>
<path fill="#056969" d="
  M 138.83 129.28
  L 138.78 129.52
  L 138.73 129.61
  L 138.62 129.64
  L 119.01 129.51
  L 119.09 125.69
  L 119.24 125.26
  L 119.69 125.11
  L 138.32 125.15
  L 138.70 125.28
  L 138.83 125.67
  L 138.83 129.28
  Z"
/>
<path fill="#01658e" d="
  M 151.80 129.62
  L 140.07 129.52
  L 140.17 125.59
  L 140.31 125.19
  L 140.71 125.06
  L 151.27 125.09
  L 151.63 125.21
  L 151.75 125.57
  L 151.80 129.62
  Z"
/>
<path fill="#01658e" d="
  M 65.74 126.27
  L 65.79 131.25
  L 57.26 132.82
  L 56.84 131.34
  L 55.98 130.37
  L 54.53 129.86
  L 52.99 130.18
  L 51.93 131.05
  L 51.25 132.48
  L 49.48 132.23
  L 48.62 132.56
  L 48.62 132.56
  L 48.59 132.62
  L 48.74 127.25
  L 55.99 127.35
  L 65.74 126.27
  Z"
/>
<path fill="#ffc64e" d="
  M 138.83 129.28
  L 139.20 129.58
  L 140.07 129.52
  L 151.80 129.62
  L 151.54 131.84
  L 144.94 131.84
  L 118.54 131.81
  L 117.66 131.50
  L 117.62 131.43
  L 117.62 130.21
  L 117.79 129.53
  L 118.79 129.55
  L 119.01 129.51
  L 138.62 129.64
  L 138.73 129.61
  L 138.78 129.52
  L 138.83 129.28
  Z"
/>
<path fill="#feffeb" d="
  M 84.86 129.69
  L 85.07 130.07
  L 85.00 130.90
  L 84.75 131.23
  L 84.34 131.36
  L 71.33 131.42
  L 70.35 131.05
  L 70.16 130.76
  L 70.39 130.18
  L 71.50 129.77
  L 84.86 129.69
  Z"
/>
<path fill="#004971" d="
  M 88.33 129.97
  L 88.45 131.20
  L 89.01 131.46
  L 95.83 131.67
  L 103.55 130.60
  L 110.79 131.30
  L 109.16 131.75
  L 108.83 131.97
  L 109.02 132.32
  L 109.49 132.52
  L 115.07 133.62
  L 114.91 134.14
  L 114.93 134.19
  L 115.34 134.43
  L 117.76 134.99
  L 117.72 139.46
  L 117.60 139.82
  L 117.25 139.94
  L 67.51 139.93
  L 67.15 139.81
  L 67.03 139.46
  L 67.03 130.63
  L 70.16 130.76
  L 70.35 131.05
  L 71.33 131.42
  L 84.34 131.36
  L 84.75 131.23
  L 85.00 130.90
  L 85.07 130.07
  L 84.86 129.69
  L 85.49 129.48
  L 88.12 129.47
  L 88.29 129.57
  L 88.36 129.71
  L 88.37 129.80
  L 88.33 129.97
  Z"
/>
<path fill="#feffeb" d="
  M 103.55 130.60
  L 95.83 131.67
  L 89.01 131.46
  L 88.45 131.20
  L 88.33 129.97
  L 88.59 129.79
  L 89.25 129.60
  L 96.14 129.60
  L 103.55 130.60
  Z"
/>
<path fill="#010226" d="
  M 117.62 130.21
  L 117.62 131.43
  L 117.66 131.50
  L 118.54 131.81
  L 144.94 131.84
  L 151.54 131.84
  L 151.78 132.02
  L 151.69 133.31
  L 140.03 133.27
  L 138.71 133.28
  L 118.71 133.35
  L 118.55 133.38
  L 117.76 134.99
  L 115.34 134.43
  L 114.93 134.19
  L 114.91 134.14
  L 115.07 133.62
  L 115.36 133.65
  L 115.63 133.51
  L 115.71 133.23
  L 115.63 130.21
  L 117.06 129.66
  L 117.62 130.21
  Z"
/>
<path fill="#feffeb" d="
  M 57.26 132.82
  L 56.51 134.49
  L 55.30 135.36
  L 52.86 135.02
  L 51.86 134.02
  L 51.25 132.48
  L 51.93 131.05
  L 52.99 130.18
  L 54.53 129.86
  L 55.98 130.37
  L 56.84 131.34
  L 57.26 132.82
  Z"
/>
<path fill="#feffeb" d="
  M 12.01 130.52
  L 11.81 134.34
  L 11.68 135.07
  L 10.99 135.30
  L 8.13 135.28
  L 7.45 135.05
  L 7.22 134.39
  L 7.14 131.13
  L 7.31 130.83
  L 8.96 130.14
  L 12.01 130.52
  Z"
/>
<path fill="#004971" d="
  M 14.61 130.30
  L 14.70 139.46
  L 14.22 139.95
  L 14.22 139.95
  L 4.26 139.88
  L 3.91 139.76
  L 3.79 139.41
  L 3.80 131.56
  L 7.14 131.13
  L 7.22 134.39
  L 7.45 135.05
  L 8.13 135.28
  L 10.99 135.30
  L 11.68 135.07
  L 11.81 134.34
  L 12.01 130.52
  L 14.43 130.39
  L 14.61 130.30
  Z"
/>
<path fill="#feffeb" d="
  M 23.08 132.90
  L 22.99 134.72
  L 22.85 135.09
  L 22.46 135.23
  L 18.97 135.23
  L 18.57 135.10
  L 18.47 134.67
  L 18.23 132.06
  L 18.30 130.81
  L 18.99 130.26
  L 22.50 130.24
  L 22.84 130.35
  L 22.98 130.69
  L 23.08 132.90
  Z"
/>
<path fill="#feffeb" d="
  M 34.31 131.78
  L 34.27 134.46
  L 34.06 135.04
  L 33.50 135.22
  L 30.31 135.26
  L 29.80 135.10
  L 29.64 134.57
  L 29.70 131.33
  L 29.61 130.91
  L 29.60 130.88
  L 30.07 130.26
  L 33.03 130.16
  L 34.35 130.84
  L 34.35 130.84
  L 34.31 131.78
  Z"
/>
<path fill="#004971" d="
  M 38.75 130.30
  L 40.84 130.47
  L 40.77 134.68
  L 40.77 134.69
  L 41.57 135.49
  L 44.77 135.49
  L 45.45 135.26
  L 45.68 134.60
  L 45.73 131.66
  L 47.45 131.75
  L 47.50 139.59
  L 47.14 139.96
  L 47.14 139.96
  L 39.09 139.93
  L 38.70 139.53
  L 38.75 130.30
  Z"
/>
<path fill="#feffeb" d="
  M 45.73 131.66
  L 45.68 134.60
  L 45.45 135.26
  L 44.77 135.49
  L 41.57 135.49
  L 40.77 134.69
  L 40.77 134.68
  L 40.84 130.47
  L 45.08 130.35
  L 45.49 130.55
  L 45.66 130.96
  L 45.73 131.66
  Z"
/>
<path fill="#feffeb" d="
  M 115.63 130.21
  L 115.71 133.23
  L 115.63 133.51
  L 115.36 133.65
  L 115.07 133.62
  L 109.49 132.52
  L 109.02 132.32
  L 108.83 131.97
  L 109.16 131.75
  L 110.79 131.30
  L 115.63 130.21
  Z"
/>
<path fill="#004971" d="
  M 29.70 131.33
  L 29.64 134.57
  L 29.80 135.10
  L 30.31 135.26
  L 33.50 135.22
  L 34.06 135.04
  L 34.27 134.46
  L 34.31 131.78
  L 37.29 131.45
  L 37.32 139.33
  L 37.18 139.77
  L 36.74 139.91
  L 27.52 139.97
  L 27.17 139.85
  L 27.05 139.49
  L 27.08 131.11
  L 29.70 131.33
  Z"
/>
<path fill="#004971" d="
  M 65.79 131.25
  L 65.71 139.48
  L 65.59 139.83
  L 65.23 139.95
  L 49.13 139.91
  L 48.63 139.42
  L 48.59 132.62
  L 48.62 132.56
  L 48.62 132.56
  L 49.48 132.23
  L 51.25 132.48
  L 51.86 134.02
  L 52.86 135.02
  L 55.30 135.36
  L 56.51 134.49
  L 57.26 132.82
  L 65.79 131.25
  Z"
/>
<path fill="#004971" d="
  M 15.82 132.02
  L 18.23 132.06
  L 18.47 134.67
  L 18.57 135.10
  L 18.97 135.23
  L 22.46 135.23
  L 22.85 135.09
  L 22.99 134.72
  L 23.08 132.90
  L 25.72 133.01
  L 25.90 138.37
  L 25.55 139.54
  L 24.41 139.91
  L 17.27 139.91
  L 16.03 139.49
  L 15.64 138.24
  L 15.82 132.02
  Z"
/>
<path fill="#d7901f" d="
  M 138.71 133.28
  L 138.71 135.27
  L 119.10 135.23
  L 119.17 133.80
  L 118.71 133.35
  L 138.71 133.28
  Z"
/>
<path fill="#feecb8" d="
  M 138.71 133.28
  L 140.03 133.27
  L 140.31 135.25
  L 139.41 136.03
  L 139.61 136.62
  L 139.48 136.61
  L 139.01 136.72
  L 139.02 135.58
  L 138.71 135.27
  L 138.71 133.28
  Z"
/>
<path fill="#d7901f" d="
  M 140.03 133.27
  L 151.69 133.31
  L 151.78 135.25
  L 140.31 135.25
  L 140.03 133.27
  Z"
/>
<path fill="#01495d" d="
  M 119.10 135.23
  L 138.71 135.27
  L 139.02 135.58
  L 139.01 136.72
  L 138.82 139.41
  L 138.66 139.80
  L 138.28 139.92
  L 119.74 139.96
  L 119.20 139.78
  L 119.01 139.24
  L 119.00 137.76
  L 118.77 136.96
  L 118.45 135.55
  L 119.10 135.23
  Z"
/>
<path fill="#01495d" d="
  M 140.31 135.25
  L 151.78 135.25
  L 151.82 139.30
  L 151.68 139.74
  L 151.25 139.88
  L 140.54 139.95
  L 139.96 139.32
  L 139.97 139.27
  L 139.61 136.62
  L 139.41 136.03
  L 140.31 135.25
  Z"
/>
<path fill="#010226" d="
  M 14.71 144.47
  L 14.55 144.81
  L 14.42 144.95
  L 14.28 144.98
  L 9.24 145.05
  L 8.12 145.52
  L 7.64 146.64
  L 7.63 147.14
  L 8.07 148.54
  L 9.45 149.00
  L 44.53 148.99
  L 44.82 148.72
  L 44.87 145.32
  L 44.80 145.08
  L 44.56 145.00
  L 16.50 145.00
  L 16.25 144.94
  L 16.06 144.77
  L 15.94 144.48
  L 15.74 143.10
  L 15.85 141.70
  L 16.07 141.29
  L 16.49 141.16
  L 65.41 141.13
  L 65.82 141.54
  L 65.78 152.20
  L 65.64 152.61
  L 65.23 152.75
  L 8.50 152.74
  L 5.73 151.95
  L 4.54 150.54
  L 3.90 148.65
  L 3.75 142.40
  L 3.79 141.58
  L 3.93 141.21
  L 4.28 141.10
  L 14.05 141.12
  L 14.51 141.27
  L 14.67 141.73
  L 14.71 144.47
  Z
  M 46.65 145.18
  L 46.27 145.43
  L 46.27 145.47
  L 46.23 148.84
  L 46.54 149.14
  L 46.61 149.13
  L 52.73 147.51
  L 52.94 147.30
  L 52.74 146.93
  L 46.65 145.18
  Z"
/>
<path fill="#010226" d="
  M 117.81 152.32
  L 117.38 152.75
  L 67.42 152.75
  L 66.99 152.32
  L 66.99 141.58
  L 67.42 141.15
  L 117.38 141.15
  L 117.81 141.58
  L 117.81 152.32
  Z
  M 72.68 146.86
  L 72.36 146.10
  L 71.60 145.78
  L 70.84 146.10
  L 70.52 146.86
  L 70.84 147.62
  L 71.60 147.94
  L 72.36 147.62
  L 72.68 146.86
  Z
  M 78.93 146.85
  L 78.60 146.07
  L 77.82 145.74
  L 77.04 146.07
  L 76.71 146.85
  L 77.04 147.63
  L 77.82 147.96
  L 78.60 147.63
  L 78.93 146.85
  Z
  M 84.61 146.87
  L 84.29 146.11
  L 83.53 145.79
  L 82.77 146.11
  L 82.45 146.87
  L 82.77 147.63
  L 83.53 147.95
  L 84.29 147.63
  L 84.61 146.87
  Z
  M 91.63 146.87
  L 91.31 146.09
  L 90.53 145.77
  L 89.75 146.09
  L 89.43 146.87
  L 89.75 147.65
  L 90.53 147.97
  L 91.31 147.65
  L 91.63 146.87
  Z
  M 98.24 146.86
  L 97.92 146.08
  L 97.14 145.76
  L 96.36 146.08
  L 96.04 146.86
  L 96.36 147.64
  L 97.14 147.96
  L 97.92 147.64
  L 98.24 146.86
  Z
  M 106.31 146.88
  L 105.99 146.11
  L 105.22 145.79
  L 104.45 146.11
  L 104.13 146.88
  L 104.45 147.65
  L 105.22 147.97
  L 105.99 147.65
  L 106.31 146.88
  Z
  M 114.33 146.85
  L 114.01 146.08
  L 113.24 145.76
  L 112.47 146.08
  L 112.15 146.85
  L 112.47 147.62
  L 113.24 147.94
  L 114.01 147.62
  L 114.33 146.85
  Z"
/>
<path fill="#010226" d="
  M 138.93 152.22
  L 138.41 152.74
  L 119.53 152.74
  L 119.01 152.22
  L 119.01 141.66
  L 119.53 141.14
  L 138.41 141.14
  L 138.93 141.66
  L 138.93 152.22
  Z
  M 125.11 146.86
  L 124.78 146.08
  L 124.00 145.75
  L 123.22 146.08
  L 122.89 146.86
  L 123.22 147.64
  L 124.00 147.97
  L 124.78 147.64
  L 125.11 146.86
  Z
  M 129.98 146.84
  L 129.65 146.06
  L 128.87 145.73
  L 128.09 146.06
  L 127.76 146.84
  L 128.09 147.62
  L 128.87 147.95
  L 129.65 147.62
  L 129.98 146.84
  Z
  M 134.92 146.86
  L 134.61 146.10
  L 133.85 145.79
  L 133.09 146.10
  L 132.78 146.86
  L 133.09 147.62
  L 133.85 147.93
  L 134.61 147.62
  L 134.92 146.86
  Z"
/>
<path fill="#010226" d="
  M 151.28 150.11
  L 150.35 151.24
  L 147.15 152.72
  L 142.00 152.82
  L 140.54 152.74
  L 140.19 152.61
  L 140.07 152.26
  L 140.05 141.51
  L 140.18 141.20
  L 140.49 141.07
  L 151.40 141.10
  L 151.58 141.14
  L 151.82 141.52
  L 151.82 148.20
  L 151.28 150.11
  Z
  M 146.05 146.88
  L 145.74 146.12
  L 144.98 145.81
  L 144.22 146.12
  L 143.91 146.88
  L 144.22 147.64
  L 144.98 147.95
  L 145.74 147.64
  L 146.05 146.88
  Z"
/>
<path fill="#ffc64e" d="
  M 14.71 144.47
  L 15.94 144.48
  L 16.06 144.77
  L 16.25 144.94
  L 16.50 145.00
  L 44.56 145.00
  L 44.80 145.08
  L 44.87 145.32
  L 44.82 148.72
  L 44.53 148.99
  L 9.45 149.00
  L 8.07 148.54
  L 7.63 147.14
  L 7.64 146.64
  L 8.12 145.52
  L 9.24 145.05
  L 14.28 144.98
  L 14.42 144.95
  L 14.55 144.81
  L 14.71 144.47
  Z"
/>
<path fill="#feffeb" d="
  M 46.65 145.18
  L 52.74 146.93
  L 52.73 147.51
  L 46.61 149.13
  L 46.60 149.13
  L 46.23 148.84
  L 46.27 145.47
  L 46.31 145.33
  L 46.65 145.18
  Z"
/>
<circle fill="#feffeb" cx="71.60" cy="146.86" r="1.08"/>
<circle fill="#feffeb" cx="77.82" cy="146.85" r="1.11"/>
<circle fill="#feffeb" cx="83.53" cy="146.87" r="1.08"/>
<circle fill="#feffeb" cx="90.53" cy="146.87" r="1.10"/>
<circle fill="#feffeb" cx="97.14" cy="146.86" r="1.10"/>
<circle fill="#feffeb" cx="105.22" cy="146.88" r="1.09"/>
<circle fill="#feffeb" cx="113.24" cy="146.85" r="1.09"/>
<circle fill="#feffeb" cx="124.00" cy="146.86" r="1.11"/>
<circle fill="#feffeb" cx="128.87" cy="146.84" r="1.11"/>
<circle fill="#feffeb" cx="133.85" cy="146.86" r="1.07"/>
<circle fill="#feffeb" cx="144.98" cy="146.88" r="1.07"/>
</svg>
