<?xml version="1.0" encoding="UTF-8" standalone="no"?>
<!DOCTYPE svg PUBLIC "-//W3C//DTD SVG 1.1//EN" "http://www.w3.org/Graphics/SVG/1.1/DTD/svg11.dtd">
<svg xmlns="http://www.w3.org/2000/svg" version="1.1" viewBox="0.00 0.00 574.00 732.00">
<g stroke-width="2.00" fill="none" stroke-linecap="butt">
<path stroke="#83959e" vector-effect="non-scaling-stroke" d="
  M 63.40 35.21
  C 44.48 47.87 30.73 66.21 26.13 88.62
  Q 24.79 95.16 24.75 106.48
  Q 24.55 163.11 24.56 219.75
  Q 24.63 424.50 24.73 629.25
  C 24.73 639.18 29.01 651.22 33.81 659.27"
/>
<path stroke="#607883" vector-effect="non-scaling-stroke" d="
  M 33.81 659.27
  Q 33.95 660.29 34.30 660.98
  C 46.70 685.50 72.99 706.24 101.50 706.21
  Q 203.79 706.11 306.09 706.24
  C 308.83 706.24 310.15 707.24 311.88 709.12
  A 0.65 0.65 0.0 0 0 313.01 708.68
  L 312.97 671.79"
/>
<path stroke="#83959e" vector-effect="non-scaling-stroke" d="
  M 312.97 671.79
  Q 313.24 640.65 313.18 609.50
  Q 312.92 489.25 313.15 369.00
  C 313.19 349.49 327.41 331.84 346.09 326.78
  C 354.53 324.49 366.20 325.27 375.82 325.43
  Q 385.62 325.59 390.90 327.18
  Q 405.52 331.58 413.67 345.39
  A 1.13 1.13 0.0 0 0 415.62 345.40
  Q 427.64 325.42 451.49 325.29
  Q 468.67 325.20 485.87 325.32
  Q 494.81 325.38 498.60 326.20
  C 508.46 328.32 516.48 334.68 523.14 342.46"
/>
<path stroke="#607883" vector-effect="non-scaling-stroke" d="
  M 523.14 342.46
  Q 533.02 354.14 533.55 370.27
  Q 533.75 376.38 533.76 382.50
  Q 533.90 504.98 533.50 627.46
  Q 533.47 638.20 532.08 643.92
  Q 527.34 663.53 509.87 675.61
  Q 502.76 680.52 495.60 681.80"
/>
<path stroke="#83959e" vector-effect="non-scaling-stroke" d="
  M 495.60 681.80
  Q 492.79 682.05 491.00 682.04
  Q 467.37 681.99 443.75 682.11
  C 438.03 682.14 432.29 683.81 429.27 688.84
  C 426.67 693.18 427.66 701.65 427.87 706.89"
/>
<path stroke="#607883" vector-effect="non-scaling-stroke" d="
  M 427.87 706.89
  Q 427.59 707.35 428.86 709.31
  A 1.17 1.17 0.0 0 0 430.72 709.44
  Q 433.63 706.12 438.50 706.17
  Q 453.42 706.32 468.34 706.22
  C 481.83 706.14 490.80 705.13 501.92 699.89
  C 525.41 688.83 541.67 668.18 548.26 643.26
  C 550.27 635.67 549.83 627.03 549.82 618.67
  C 549.75 445.97 550.09 273.26 549.74 100.56
  C 549.73 93.55 549.28 87.50 547.43 81.54
  C 538.15 51.55 514.55 31.82 485.77 21.15
  C 474.29 16.89 464.55 16.39 453.25 16.37
  Q 287.75 16.06 122.25 16.17
  Q 111.51 16.17 102.99 17.98
  C 90.01 20.74 74.38 26.52 63.40 35.21"
/>
<path stroke="#dde2e4" vector-effect="non-scaling-stroke" d="
  M 427.87 706.89
  Q 428.96 705.11 431.06 699.50
  Q 434.02 691.59 443.26 691.48
  Q 457.71 691.32 472.17 691.28
  C 478.93 691.26 483.71 690.62 488.78 687.07
  Q 490.57 685.82 495.60 681.80"
/>
<path stroke="#dde2e4" vector-effect="non-scaling-stroke" d="
  M 523.14 342.46
  Q 524.05 341.78 523.77 339.97
  Q 523.49 338.14 523.49 337.52
  Q 523.49 299.20 523.17 260.59"
/>
<path stroke="#607883" vector-effect="non-scaling-stroke" d="
  M 523.17 260.59
  Q 530.37 252.05 532.93 241.39
  Q 534.28 235.73 534.27 221.50
  Q 534.20 155.38 534.23 89.26
  C 534.23 82.36 533.64 77.45 531.46 71.51
  Q 523.44 49.72 503.02 38.76
  Q 488.80 31.14 475.25 31.07
  Q 382.54 30.57 99.56 30.94"
/>
<path stroke="#dde2e4" vector-effect="non-scaling-stroke" d="
  M 99.56 30.94
  C 96.66 29.40 91.77 30.24 88.57 30.43
  C 83.53 30.74 78.15 31.91 72.91 32.55
  Q 71.02 32.78 68.27 33.90
  Q 65.99 34.84 63.40 35.21"
/>
<path stroke="#466270" vector-effect="non-scaling-stroke" d="
  M 49.24 257.99
  Q 42.57 246.96 42.71 232.25
  Q 43.02 199.92 42.56 88.75
  C 42.52 79.02 44.76 72.52 47.22 64.17"
/>
<path stroke="#83959e" vector-effect="non-scaling-stroke" d="
  M 99.56 30.94
  C 77.88 33.96 58.30 45.04 47.22 64.17"
/>
<path stroke="#c3ccd1" vector-effect="non-scaling-stroke" d="
  M 47.22 64.17
  C 39.73 72.52 33.42 84.07 33.47 95.50
  Q 33.72 157.54 33.52 219.57
  C 33.49 229.73 34.59 238.39 39.69 247.34
  Q 43.38 253.82 49.24 257.99"
/>
<path stroke="#83959e" vector-effect="non-scaling-stroke" d="
  M 49.24 257.99
  Q 60.42 273.32 77.98 273.13
  Q 113.12 272.74 148.25 272.74
  Q 323.87 272.75 499.50 273.07
  C 508.89 273.09 516.96 267.96 523.17 260.59"
/>
<path stroke="#dde2e4" vector-effect="non-scaling-stroke" d="
  M 312.97 671.79
  L 312.55 689.79
  A 1.43 1.42 -0.0 0 1 311.15 691.18
  Q 299.31 691.42 287.50 691.23
  C 275.91 691.06 258.83 691.61 244.99 691.60
  Q 170.25 691.57 95.50 691.51
  Q 84.64 691.50 80.24 690.50
  C 60.42 685.97 46.75 674.41 33.81 659.27"
/>
<path stroke="#83959e" vector-effect="non-scaling-stroke" d="
  M 355.75 348.92
  C 345.04 350.08 337.06 357.28 337.01 368.50
  Q 336.74 431.12 336.75 493.75
  Q 336.77 592.60 337.09 691.54"
/>
<path stroke="#466270" vector-effect="non-scaling-stroke" d="
  M 337.09 691.54
  L 337.29 705.28
  Q 337.31 706.81 338.83 706.91
  Q 339.95 706.98 341.17 705.70"
/>
<path stroke="#214356" vector-effect="non-scaling-stroke" d="
  M 341.17 705.70
  Q 342.91 706.45 344.75 706.46
  Q 370.44 706.54 396.19 706.45
  Q 399.06 706.44 399.04 703.57
  L 398.97 690.97"
/>
<path stroke="#466270" vector-effect="non-scaling-stroke" d="
  M 398.97 690.97
  C 398.93 583.70 398.78 476.58 399.11 369.40
  Q 399.13 363.50 398.11 360.74
  C 395.63 354.02 388.45 348.95 381.50 348.58
  Q 374.31 348.20 355.75 348.92"
/>
<path stroke="#617a89" vector-effect="non-scaling-stroke" d="
  M 398.97 690.97
  L 345.22 690.91
  A 0.95 0.94 1.6 0 0 344.27 691.80
  C 343.99 696.44 344.21 701.63 341.17 705.70"
/>
<path stroke="#c3ccd1" vector-effect="non-scaling-stroke" d="
  M 337.09 691.54
  L 342.60 690.66
  Q 344.45 690.36 344.46 688.49
  Q 344.57 591.26 344.34 495.18
  C 344.31 484.50 344.61 472.07 344.59 460.50
  Q 344.50 415.76 344.33 371.01
  Q 344.32 366.15 345.18 363.84
  C 347.67 357.21 355.22 353.60 362.00 353.43
  Q 372.00 353.18 382.00 353.21
  Q 384.11 353.22 385.37 354.05
  Q 387.02 355.15 385.95 353.48
  Q 384.53 351.27 381.24 351.15
  Q 373.87 350.89 366.50 350.84
  Q 364.34 350.83 362.40 350.08
  Q 359.21 348.85 355.75 348.92"
/>
<path stroke="#83959e" vector-effect="non-scaling-stroke" d="
  M 456.31 349.40
  C 451.92 349.50 446.34 348.46 442.56 349.20
  C 436.47 350.37 431.40 355.35 429.12 360.85
  Q 427.76 364.11 427.74 370.36
  Q 427.70 390.23 427.70 410.09
  Q 427.70 418.18 429.04 421.75
  Q 431.35 427.86 437.10 431.05"
/>
<path stroke="#466270" vector-effect="non-scaling-stroke" d="
  M 437.10 431.05
  Q 440.85 433.35 445.01 433.98"
/>
<path stroke="#214356" vector-effect="non-scaling-stroke" d="
  M 445.01 433.98
  Q 467.05 435.20 489.23 434.50
  C 504.70 434.00 508.76 427.40 508.97 412.50
  Q 509.30 388.65 509.00 364.80
  Q 508.95 360.70 508.19 358.80
  C 506.30 354.03 501.13 350.72 496.43 349.33
  Q 493.58 348.50 487.49 348.60
  C 477.08 348.77 466.71 348.76 456.31 349.40"
/>
<path stroke="#617a89" vector-effect="non-scaling-stroke" d="
  M 445.01 433.98
  C 445.25 431.29 444.90 426.78 448.50 426.80
  Q 464.58 426.91 480.68 427.01
  C 488.10 427.05 493.45 426.01 496.70 419.38
  Q 498.00 416.71 498.01 411.88
  Q 498.03 388.19 498.08 364.50
  C 498.09 361.32 499.29 355.95 496.60 353.74"
/>
<path stroke="#9eadb7" vector-effect="non-scaling-stroke" d="
  M 496.60 353.74
  C 490.77 348.54 480.26 350.14 472.96 350.12
  Q 472.52 350.12 472.21 349.80
  Q 471.98 349.57 471.49 349.60
  Q 464.53 350.10 456.31 349.40"
/>
<path stroke="#c3ccd1" vector-effect="non-scaling-stroke" d="
  M 496.60 353.74
  Q 495.47 354.19 493.79 353.70
  Q 492.14 353.22 491.13 353.21
  Q 470.81 353.06 450.50 353.62
  C 441.14 353.88 433.97 360.07 434.11 369.75
  Q 434.24 378.75 434.28 412.50
  Q 434.29 422.28 442.92 426.14
  A 0.63 0.62 -49.3 0 1 443.00 427.24
  L 437.10 431.05"
/>
<path stroke="#83959e" vector-effect="non-scaling-stroke" d="
  M 444.86 457.30
  C 434.31 457.90 427.76 465.78 427.75 476.00
  Q 427.71 552.71 427.74 629.43
  C 427.74 640.01 427.32 645.83 434.18 652.53"
/>
<path stroke="#466270" vector-effect="non-scaling-stroke" d="
  M 434.18 652.53
  C 436.07 656.03 440.92 657.77 444.62 658.19"
/>
<path stroke="#214356" vector-effect="non-scaling-stroke" d="
  M 444.62 658.19
  Q 466.25 658.66 488.04 658.32
  Q 494.82 658.22 498.20 656.73
  C 507.90 652.48 509.13 643.92 509.14 634.25
  Q 509.17 554.58 508.98 474.91
  C 508.97 472.48 508.68 469.14 507.60 467.46
  Q 501.25 457.63 489.18 457.08"
/>
<path stroke="#466270" vector-effect="non-scaling-stroke" d="
  M 489.18 457.08
  L 444.86 457.30"
/>
<path stroke="#617a89" vector-effect="non-scaling-stroke" d="
  M 489.18 457.08
  Q 489.50 457.79 490.39 457.87
  Q 490.80 457.90 491.03 458.25
  L 492.30 460.17"
/>
<path stroke="#c3ccd1" vector-effect="non-scaling-stroke" d="
  M 492.30 460.17
  C 491.19 459.85 490.02 459.44 488.87 459.40
  Q 469.32 458.78 449.75 458.96
  Q 448.31 458.97 444.86 457.30"
/>
<path stroke="#c3ccd1" vector-effect="non-scaling-stroke" d="
  M 497.98 465.73
  Q 497.20 466.82 496.16 465.47
  C 494.31 463.06 491.25 461.16 488.50 461.19
  Q 470.01 461.37 451.50 461.20
  C 442.36 461.11 433.88 467.12 433.99 477.00
  C 434.23 499.20 433.95 526.10 434.08 552.00
  Q 434.28 592.09 434.23 632.18
  C 434.21 640.32 434.87 645.37 441.94 649.21
  Q 442.50 649.52 442.02 649.94
  Q 438.82 652.76 434.18 652.53"
/>
<path stroke="#617a89" vector-effect="non-scaling-stroke" d="
  M 444.62 658.19
  Q 444.16 654.37 444.87 650.90
  A 1.12 1.11 7.0 0 1 446.01 650.01
  Q 463.39 650.68 480.99 650.56
  Q 485.71 650.52 485.99 650.49
  C 490.68 649.90 495.00 646.51 496.85 642.34
  Q 497.96 639.84 498.02 634.01
  C 498.18 618.82 497.81 603.17 497.92 588.50
  Q 498.01 576.00 497.99 563.50
  Q 497.94 514.56 497.98 465.73"
/>
<path stroke="#9eadb7" vector-effect="non-scaling-stroke" d="
  M 497.98 465.73
  Q 495.14 461.85 492.30 460.17"
/>
<path stroke="#83959e" vector-effect="non-scaling-stroke" d="
  M 68.26 291.68
  C 59.56 291.91 57.28 303.65 64.70 307.35
  Q 66.98 308.48 72.00 308.49
  Q 106.00 308.51 140.00 308.44
  C 149.49 308.42 153.31 298.32 145.46 292.36"
/>
<path stroke="#dde2e4" vector-effect="non-scaling-stroke" d="
  M 145.46 292.36
  Q 145.30 292.26 145.49 292.02
  Q 145.70 291.76 146.03 291.76
  L 179.86 291.79"
/>
<path stroke="#83959e" vector-effect="non-scaling-stroke" d="
  M 179.86 291.79
  Q 174.57 293.36 173.78 296.95
  Q 172.11 304.46 177.07 307.19
  Q 179.51 308.54 186.11 308.51
  Q 198.68 308.46 211.25 308.62
  Q 217.12 308.69 219.43 304.66
  C 221.72 300.67 220.84 294.00 215.97 292.21"
/>
<path stroke="#dde2e4" vector-effect="non-scaling-stroke" d="
  M 215.97 292.21
  L 215.72 291.96
  Q 215.36 291.57 215.89 291.58
  Q 231.14 291.86 246.40 291.66
  Q 247.21 291.65 248.57 291.35
  Q 250.45 290.92 250.83 291.80"
/>
<path stroke="#83959e" vector-effect="non-scaling-stroke" d="
  M 250.83 291.80
  C 244.46 292.82 242.27 300.37 245.84 305.03
  C 248.12 308.02 251.61 308.47 255.25 308.47
  Q 289.67 308.49 324.08 308.44
  Q 328.63 308.43 330.61 307.59
  C 337.01 304.90 336.67 296.99 331.74 292.62"
/>
<path stroke="#dde2e4" vector-effect="non-scaling-stroke" d="
  M 331.74 292.62
  Q 334.85 291.51 339.25 291.49
  Q 351.52 291.46 363.78 291.52
  Q 364.15 291.53 364.19 291.89
  Q 364.22 292.10 364.21 292.23"
/>
<path stroke="#83959e" vector-effect="non-scaling-stroke" d="
  M 364.21 292.23
  C 356.42 296.67 358.86 308.22 368.51 308.31
  Q 383.13 308.44 397.75 308.34
  C 407.29 308.27 410.13 297.69 402.68 292.48"
/>
<path stroke="#dde2e4" vector-effect="non-scaling-stroke" d="
  M 402.68 292.48
  Q 402.75 292.26 402.97 292.02
  A 0.91 0.89 -68.1 0 1 403.63 291.73
  L 436.40 291.55
  Q 436.49 291.55 436.55 291.61
  Q 436.70 291.78 436.58 292.01"
/>
<path stroke="#83959e" vector-effect="non-scaling-stroke" d="
  M 436.58 292.01
  C 432.05 293.97 429.65 298.45 431.61 303.16
  C 433.38 307.43 436.75 308.52 441.40 308.51
  Q 473.12 308.46 504.83 308.47
  Q 510.79 308.47 512.97 307.32
  Q 517.28 305.04 516.80 298.74
  C 516.38 293.23 512.10 291.83 507.38 291.77"
/>
<path stroke="#dde2e4" vector-effect="non-scaling-stroke" d="
  M 507.38 291.77
  Q 504.69 281.27 496.50 281.28
  Q 288.25 281.46 80.00 281.36
  C 73.42 281.36 70.45 286.16 68.26 291.68"
/>
<path stroke="#607883" vector-effect="non-scaling-stroke" d="
  M 507.38 291.77
  L 436.58 292.01"
/>
<path stroke="#607883" vector-effect="non-scaling-stroke" d="
  M 402.68 292.48
  C 401.79 292.30 400.99 291.90 400.08 291.91
  Q 383.51 291.99 366.94 291.77
  C 366.06 291.76 365.11 292.07 364.21 292.23"
/>
<path stroke="#607883" vector-effect="non-scaling-stroke" d="
  M 331.74 292.62
  Q 330.85 292.43 329.58 292.10
  Q 328.48 291.82 327.38 291.82
  Q 289.06 291.79 250.83 291.80"
/>
<path stroke="#607883" vector-effect="non-scaling-stroke" d="
  M 215.97 292.21
  L 179.86 291.79"
/>
<path stroke="#607883" vector-effect="non-scaling-stroke" d="
  M 145.46 292.36
  Q 144.16 291.74 142.75 291.74
  Q 105.54 291.84 68.26 291.68"
/>
<path stroke="#83959e" vector-effect="non-scaling-stroke" d="
  M 262.01 327.78
  Q 256.13 325.27 251.00 325.27
  Q 169.37 325.26 87.75 325.47
  Q 65.27 325.53 52.15 343.65
  Q 46.53 351.41 44.17 360.21
  Q 42.87 365.03 42.89 373.42
  Q 43.17 500.72 42.86 628.02
  Q 42.84 638.88 44.00 643.89
  C 47.88 660.59 61.76 675.93 78.32 680.50
  Q 83.17 681.83 91.80 681.85
  Q 172.52 682.01 253.25 681.78
  Q 257.29 681.77 260.26 680.77
  C 275.70 675.55 286.55 664.33 290.98 648.74
  Q 292.27 644.23 292.27 642.00
  Q 292.17 507.16 292.29 372.31
  C 292.30 351.77 280.84 335.80 262.01 327.78"
/>
<path stroke="#607883" vector-effect="non-scaling-stroke" d="
  M 463.94 249.26
  Q 478.44 250.15 489.48 249.66
  Q 503.74 249.04 508.13 237.58
  Q 509.72 233.40 509.80 224.14
  C 510.19 179.24 509.72 134.28 509.63 89.37
  Q 509.62 81.99 508.52 78.23
  C 505.66 68.42 496.98 60.90 487.39 58.03
  Q 482.81 56.67 473.96 56.68
  Q 309.25 56.88 144.54 56.78"
/>
<path stroke="#83959e" vector-effect="non-scaling-stroke" d="
  M 144.54 56.78
  Q 120.89 56.71 97.25 56.71
  C 83.60 56.71 73.10 64.04 68.25 76.63
  Q 66.86 80.25 66.86 83.25
  Q 66.94 156.58 66.97 229.93
  Q 66.97 236.54 68.34 239.90
  Q 72.15 249.21 83.50 249.21
  Q 273.74 249.29 463.94 249.26"
/>
<path stroke="#dde2e4" vector-effect="non-scaling-stroke" d="
  M 144.54 56.78
  Q 144.65 56.95 144.61 57.21
  A 0.77 0.77 0.0 0 1 144.04 57.82
  Q 136.55 59.70 129.65 63.11
  C 122.77 66.50 125.95 72.08 132.50 72.10
  Q 301.50 72.67 470.50 72.06
  C 481.53 72.02 492.36 75.32 496.30 86.01
  Q 497.82 90.14 497.83 100.17
  Q 497.85 155.20 497.71 210.22
  C 497.67 222.86 497.04 229.14 488.13 237.10
  C 479.87 244.49 473.09 245.81 463.94 249.26"
/>
<path stroke="#83959e" vector-effect="non-scaling-stroke" d="
  M 273.19 112.27
  C 270.38 97.28 257.54 89.57 243.00 89.28
  C 235.83 89.14 227.97 88.78 221.74 91.00
  C 210.27 95.07 202.94 105.46 202.94 117.75
  Q 202.96 156.37 202.82 195.00
  Q 202.79 201.72 203.76 205.25
  C 206.43 215.06 214.30 222.74 224.09 225.31
  C 229.23 226.66 235.78 226.35 241.52 226.29
  Q 249.86 226.20 254.46 224.61
  Q 263.56 221.46 268.94 213.41
  C 273.22 207.00 273.71 200.76 273.68 192.99
  Q 273.65 187.77 268.99 187.25
  Q 266.06 186.93 255.99 187.23
  C 250.74 187.38 250.40 192.98 250.06 197.00
  C 249.38 205.16 241.22 204.42 235.01 204.02
  C 226.81 203.50 225.52 198.77 225.51 191.25
  Q 225.45 156.88 225.50 122.51
  C 225.52 111.22 234.36 111.20 243.50 112.43
  C 256.64 114.19 243.84 130.89 257.70 131.02
  Q 263.35 131.08 269.00 130.94
  C 272.17 130.86 273.74 128.07 273.74 125.23
  C 273.74 120.62 273.94 116.27 273.19 112.27"
/>
<path stroke="#83959e" vector-effect="non-scaling-stroke" d="
  M 323.21 203.53
  L 352.82 203.40
  A 0.90 0.90 0.0 0 1 353.69 204.08
  Q 355.77 212.65 357.72 221.01
  Q 358.93 226.18 364.24 226.24
  Q 369.12 226.30 373.99 226.25
  C 379.63 226.18 382.61 224.36 381.27 218.25
  Q 376.69 197.38 372.35 176.46
  Q 363.82 135.35 355.06 94.30
  Q 353.98 89.26 348.75 89.29
  Q 338.25 89.34 327.76 89.81
  Q 323.18 90.02 322.45 93.50
  Q 303.58 183.18 295.63 218.02
  C 294.30 223.83 296.54 226.27 302.28 226.30
  Q 307.52 226.33 312.75 226.38
  C 316.52 226.41 318.81 223.20 319.43 219.74
  Q 320.86 211.82 322.66 203.97
  Q 322.76 203.54 323.21 203.53"
/>
<path stroke="#83959e" vector-effect="non-scaling-stroke" d="
  M 158.13 157.52
  Q 154.98 156.55 158.02 155.26
  Q 165.07 152.30 167.83 145.53
  C 170.53 138.93 169.63 127.15 169.54 119.00
  C 169.40 106.70 162.24 95.16 150.66 91.17
  Q 145.83 89.51 133.17 89.46
  Q 119.22 89.41 105.29 89.48
  C 100.93 89.51 96.91 90.93 96.91 95.75
  Q 96.95 157.75 96.94 219.75
  C 96.94 224.54 100.91 226.23 105.34 226.21
  Q 123.04 226.13 140.75 226.18
  C 152.46 226.22 163.52 219.69 167.73 208.69
  Q 169.22 204.80 169.35 197.61
  Q 169.51 188.35 169.50 179.08
  Q 169.49 170.19 168.08 166.59
  Q 165.42 159.77 158.13 157.52"
/>
<path stroke="#83959e" vector-effect="non-scaling-stroke" d="
  M 424.83 203.82
  Q 425.18 203.18 425.91 203.19
  L 453.04 203.41
  A 1.97 1.97 0.0 0 1 454.95 204.94
  Q 456.72 212.57 458.36 219.98
  C 458.94 222.61 460.81 226.21 463.99 226.23
  C 467.80 226.26 477.16 227.18 480.20 225.34
  C 484.00 223.05 483.39 220.01 482.46 215.82
  C 477.72 194.58 473.55 173.22 468.71 152.01
  Q 462.10 122.99 456.26 93.80
  Q 455.40 89.49 451.75 89.47
  Q 440.84 89.44 429.91 89.50
  C 425.81 89.52 423.47 91.02 422.75 95.02
  C 415.24 136.79 406.13 178.35 397.34 219.87
  C 396.21 225.20 400.62 226.20 404.93 226.20
  C 409.64 226.20 418.71 227.96 420.39 221.78
  Q 421.34 218.27 423.78 206.75
  Q 424.13 205.08 424.83 203.82"
/>
<path stroke="#83959e" vector-effect="non-scaling-stroke" d="
  M 329.24 183.89
  Q 330.04 184.23 330.90 184.23
  Q 338.06 184.30 345.75 184.21
  C 349.45 184.16 349.82 181.67 349.17 178.69
  Q 343.76 153.93 339.18 129.01
  Q 339.03 128.20 338.63 127.68
  A 0.45 0.45 0.0 0 0 337.84 127.87
  Q 332.52 154.16 327.36 180.12
  C 326.97 182.10 327.41 183.10 329.24 183.89"
/>
<path stroke="#83959e" vector-effect="non-scaling-stroke" d="
  M 119.61 116.25
  L 119.65 141.11
  A 3.87 3.87 0.0 0 0 123.53 144.98
  L 137.40 144.95
  A 9.04 8.90 -0.1 0 0 146.42 136.04
  L 146.40 121.24
  A 9.04 8.90 -0.1 0 0 137.34 112.35
  L 123.47 112.38
  A 3.87 3.87 0.0 0 0 119.61 116.25"
/>
<path stroke="#83959e" vector-effect="non-scaling-stroke" d="
  M 119.60 170.66
  L 119.66 200.74
  A 3.22 3.22 0.0 0 0 122.88 203.96
  L 138.07 203.93
  A 8.51 8.40 -0.1 0 0 146.57 195.52
  L 146.53 175.80
  A 8.51 8.40 -0.1 0 0 138.01 167.41
  L 122.82 167.44
  A 3.22 3.22 0.0 0 0 119.60 170.66"
/>
<path stroke="#83959e" vector-effect="non-scaling-stroke" d="
  M 447.59 184.28
  C 449.84 184.22 451.42 182.46 450.99 180.25
  Q 448.70 168.60 442.05 134.96
  Q 441.25 130.96 440.37 126.72
  Q 440.23 126.06 439.69 126.46
  Q 439.35 126.71 439.21 127.49
  Q 434.47 153.68 429.11 179.75
  C 428.39 183.22 430.37 184.30 433.50 184.35
  Q 440.55 184.45 447.59 184.28"
/>
<path stroke="#466270" vector-effect="non-scaling-stroke" d="
  M 129.00 434.86
  C 133.44 434.99 138.84 435.55 142.70 434.92
  Q 155.35 432.87 155.50 418.49
  Q 155.79 390.21 155.41 361.88
  Q 155.38 359.64 153.80 356.91"
/>
<path stroke="#607883" vector-effect="non-scaling-stroke" d="
  M 153.80 356.91
  Q 147.73 347.57 137.82 348.49"
/>
<path stroke="#83959e" vector-effect="non-scaling-stroke" d="
  M 137.82 348.49
  Q 112.75 348.41 87.91 348.53
  Q 81.26 348.57 77.85 349.96
  C 70.05 353.14 66.71 359.59 66.69 367.95
  Q 66.64 392.14 66.78 416.33
  Q 66.82 422.90 68.08 425.98
  C 71.65 434.78 78.92 434.77 88.44 434.75
  Q 108.78 434.72 129.00 434.86"
/>
<path stroke="#dde2e4" vector-effect="non-scaling-stroke" d="
  M 137.82 348.49
  Q 143.10 350.50 144.33 356.91"
/>
<path stroke="#c3ccd1" vector-effect="non-scaling-stroke" d="
  M 144.33 356.91
  Q 144.58 386.74 144.52 416.34
  Q 144.50 423.69 143.02 426.93
  Q 139.47 434.66 129.00 434.86"
/>
<path stroke="#a0afb6" vector-effect="non-scaling-stroke" d="
  M 153.80 356.91
  L 144.33 356.91"
/>
<path stroke="#466270" vector-effect="non-scaling-stroke" d="
  M 236.03 434.81
  Q 244.90 435.04 253.75 435.16
  C 262.68 435.28 268.68 428.68 268.74 420.00
  Q 268.88 400.22 268.63 364.75
  Q 268.59 359.48 266.45 356.51"
/>
<path stroke="#83959e" vector-effect="non-scaling-stroke" d="
  M 266.45 356.51
  C 261.43 349.82 256.20 348.50 248.27 348.49
  Q 222.51 348.47 196.75 348.34
  C 187.23 348.29 178.33 354.74 178.31 365.00
  Q 178.27 389.87 178.28 414.75
  C 178.28 425.68 181.36 434.77 194.26 434.77
  Q 215.14 434.78 236.03 434.81"
/>
<path stroke="#c3ccd1" vector-effect="non-scaling-stroke" d="
  M 266.45 356.51
  L 257.86 355.48
  A 1.05 1.05 0.0 0 0 256.69 356.52
  Q 256.85 384.84 256.88 412.64
  C 256.89 422.29 256.04 429.00 247.55 433.44
  C 244.01 435.29 240.03 434.94 236.03 434.81"
/>
<path stroke="#466270" vector-effect="non-scaling-stroke" d="
  M 133.10 546.35
  Q 141.12 547.07 143.50 546.54
  C 152.31 544.57 155.65 538.17 155.71 529.50
  Q 155.89 501.06 155.38 472.63
  Q 155.30 467.92 153.56 466.10"
/>
<path stroke="#607883" vector-effect="non-scaling-stroke" d="
  M 153.56 466.10
  C 147.27 456.30 139.10 457.98 129.54 458.05"
/>
<path stroke="#83959e" vector-effect="non-scaling-stroke" d="
  M 129.54 458.05
  Q 107.26 457.80 84.99 457.89
  Q 78.98 457.92 76.70 458.88
  Q 66.68 463.07 66.71 473.49
  Q 66.79 501.00 66.61 528.50
  C 66.56 535.36 69.07 541.94 75.35 544.83
  Q 78.43 546.24 85.36 546.29
  Q 109.43 546.44 133.10 546.35"
/>
<path stroke="#dde2e4" vector-effect="non-scaling-stroke" d="
  M 129.54 458.05
  L 138.50 458.67
  A 1.53 1.52 -25.1 0 1 139.28 458.95
  Q 143.65 462.08 144.43 466.61"
/>
<path stroke="#c3ccd1" vector-effect="non-scaling-stroke" d="
  M 144.43 466.61
  C 144.62 487.02 144.23 507.39 144.51 527.69
  C 144.63 536.55 142.11 542.88 133.10 546.35"
/>
<path stroke="#a0afb6" vector-effect="non-scaling-stroke" d="
  M 153.56 466.10
  L 145.68 464.83
  A 0.80 0.80 0.0 0 0 144.87 465.22
  Q 144.39 466.06 144.43 466.61"
/>
<path stroke="#466270" vector-effect="non-scaling-stroke" d="
  M 245.31 546.41
  C 255.31 546.92 264.64 547.68 268.07 536.12
  C 268.68 534.07 268.60 531.70 268.62 529.50
  Q 268.95 500.87 268.53 472.25
  Q 268.48 468.67 266.74 466.43"
/>
<path stroke="#607883" vector-effect="non-scaling-stroke" d="
  M 266.74 466.43
  C 261.15 457.69 254.50 458.07 244.78 458.01"
/>
<path stroke="#83959e" vector-effect="non-scaling-stroke" d="
  M 244.78 458.01
  Q 221.01 457.90 197.20 458.01
  Q 190.17 458.04 187.01 459.48
  C 178.67 463.29 178.26 470.73 178.29 479.00
  Q 178.37 502.28 178.35 525.55
  C 178.34 534.39 178.83 541.21 187.03 544.84
  Q 190.21 546.25 196.69 546.28
  Q 221.24 546.40 245.31 546.41"
/>
<path stroke="#dde2e4" vector-effect="non-scaling-stroke" d="
  M 244.78 458.01
  C 250.46 458.58 256.09 458.51 256.81 465.68"
/>
<path stroke="#c3ccd1" vector-effect="non-scaling-stroke" d="
  M 256.81 465.68
  Q 256.95 498.25 257.00 530.75
  Q 257.02 542.24 245.31 546.41"
/>
<path stroke="#a0afb6" vector-effect="non-scaling-stroke" d="
  M 266.74 466.43
  Q 265.48 466.61 263.89 466.13
  Q 263.29 465.94 262.79 465.43
  Q 262.18 464.78 261.44 464.25
  Q 261.04 463.96 260.55 463.92
  L 258.27 463.75
  Q 257.80 463.71 257.53 464.11
  Q 257.05 464.84 256.81 465.68"
/>
<path stroke="#466270" vector-effect="non-scaling-stroke" d="
  M 232.94 658.41
  Q 242.31 658.74 251.67 658.74
  C 262.75 658.73 268.41 651.48 268.49 640.75
  Q 268.69 613.56 268.39 586.37
  Q 268.33 580.59 267.41 578.58"
/>
<path stroke="#83959e" vector-effect="non-scaling-stroke" d="
  M 267.41 578.58
  C 264.60 572.80 260.50 569.96 253.91 569.81
  C 234.15 569.35 214.28 569.74 194.49 569.71
  C 187.66 569.70 182.71 571.71 179.87 577.82
  Q 178.40 580.96 178.35 587.92
  Q 178.18 612.30 178.26 636.67
  Q 178.29 645.01 179.68 648.65
  C 183.85 659.56 193.27 658.38 205.13 658.39
  Q 219.05 658.40 232.94 658.41"
/>
<path stroke="#c3ccd1" vector-effect="non-scaling-stroke" d="
  M 267.41 578.58
  Q 264.15 575.72 260.97 574.20
  C 259.63 573.56 258.28 571.91 256.15 572.13
  Q 255.63 572.18 255.56 572.70
  Q 255.36 574.19 256.22 575.27
  A 1.89 1.85 -65.6 0 1 256.62 576.37
  C 257.14 595.66 256.98 614.94 257.04 634.25
  C 257.06 641.94 256.83 648.14 251.27 653.21
  C 249.01 655.27 245.98 655.86 243.06 656.84
  Q 240.50 657.70 238.07 657.97
  Q 235.53 658.25 232.94 658.41"
/>
<path stroke="#466270" vector-effect="non-scaling-stroke" d="
  M 132.88 658.42
  C 143.19 659.64 152.33 657.82 155.06 647.20
  C 155.76 644.51 155.62 641.21 155.64 638.25
  Q 155.86 608.11 155.25 579.15"
/>
<path stroke="#83959e" vector-effect="non-scaling-stroke" d="
  M 155.25 579.15
  Q 151.53 573.50 147.01 571.05
  Q 144.69 569.79 140.68 569.78
  Q 112.60 569.72 84.50 569.73
  C 76.86 569.73 71.28 571.03 68.07 577.93
  Q 66.70 580.90 66.68 586.78
  Q 66.62 611.02 66.43 635.25
  C 66.35 644.11 69.33 653.18 77.77 656.76
  Q 81.41 658.31 89.93 658.38
  Q 111.49 658.55 132.88 658.42"
/>
<path stroke="#c3ccd1" vector-effect="non-scaling-stroke" d="
  M 155.25 579.15
  Q 153.74 578.23 152.78 577.54
  C 150.89 576.19 149.37 576.09 147.23 575.84
  Q 144.27 575.51 144.36 578.37
  C 144.99 599.40 144.49 620.47 144.51 641.51
  Q 144.52 653.94 132.88 658.42"
/>
<path stroke="#83959e" vector-effect="non-scaling-stroke" d="
  M 132.0308 377.6603
  A 7.36 7.36 0.0 0 0 124.6966 370.2747
  L 93.3968 370.1654
  A 7.36 7.36 0.0 0 0 86.0111 377.4997
  L 86.0092 378.0597
  A 7.36 7.36 0.0 0 0 93.3434 385.4453
  L 124.6432 385.5546
  A 7.36 7.36 0.0 0 0 132.0289 378.2203
  L 132.0308 377.6603"
/>
<path stroke="#83959e" vector-effect="non-scaling-stroke" d="
  M 131.8912 403.9799
  A 7.31 7.31 0.0 0 0 124.6195 396.6317
  L 93.4400 396.4685
  A 7.31 7.31 0.0 0 0 86.0918 403.7401
  L 86.0888 404.3001
  A 7.31 7.31 0.0 0 0 93.3605 411.6483
  L 124.5400 411.8115
  A 7.31 7.31 0.0 0 0 131.8882 404.5399
  L 131.8912 403.9799"
/>
<path stroke="#83959e" vector-effect="non-scaling-stroke" d="
  M 244.9808 377.4404
  A 7.18 7.18 0.0 0 0 237.8133 370.2479
  L 205.8333 370.1921
  A 7.18 7.18 0.0 0 0 198.6408 377.3596
  L 198.6392 378.2596
  A 7.18 7.18 0.0 0 0 205.8067 385.4521
  L 237.7867 385.5079
  A 7.18 7.18 0.0 0 0 244.9792 378.3404
  L 244.9808 377.4404"
/>
<path stroke="#83959e" vector-effect="non-scaling-stroke" d="
  M 244.96 403.70
  A 7.16 7.16 0.0 0 0 237.80 396.54
  L 205.68 396.54
  A 7.16 7.16 0.0 0 0 198.52 403.70
  L 198.52 404.48
  A 7.16 7.16 0.0 0 0 205.68 411.64
  L 237.80 411.64
  A 7.16 7.16 0.0 0 0 244.96 404.48
  L 244.96 403.70"
/>
<path stroke="#c3ccd1" vector-effect="non-scaling-stroke" d="
  M 490.56 388.88
  A 5.07 5.07 0.0 0 0 485.49 383.81
  L 449.59 383.81
  A 5.07 5.07 0.0 0 0 444.52 388.88
  L 444.52 389.16
  A 5.07 5.07 0.0 0 0 449.59 394.23
  L 485.49 394.23
  A 5.07 5.07 0.0 0 0 490.56 389.16
  L 490.56 388.88"
/>
<path stroke="#83959e" vector-effect="non-scaling-stroke" d="
  M 131.9411 488.0193
  A 7.18 7.18 0.0 0 0 124.7988 480.8018
  L 93.5792 480.6384
  A 7.18 7.18 0.0 0 0 86.3617 487.7807
  L 86.3589 488.3207
  A 7.18 7.18 0.0 0 0 93.5012 495.5382
  L 124.7208 495.7016
  A 7.18 7.18 0.0 0 0 131.9383 488.5593
  L 131.9411 488.0193"
/>
<path stroke="#83959e" vector-effect="non-scaling-stroke" d="
  M 131.9015 514.8795
  A 7.28 7.28 0.0 0 0 124.6470 507.5741
  L 93.6872 507.4660
  A 7.28 7.28 0.0 0 0 86.3818 514.7206
  L 86.3785 515.6805
  A 7.28 7.28 0.0 0 0 93.6330 522.9859
  L 124.5928 523.0940
  A 7.28 7.28 0.0 0 0 131.8982 515.8394
  L 131.9015 514.8795"
/>
<path stroke="#83959e" vector-effect="non-scaling-stroke" d="
  M 245.1308 487.9513
  A 7.29 7.29 0.0 0 0 237.8663 480.6359
  L 205.8865 480.5242
  A 7.29 7.29 0.0 0 0 198.5710 487.7887
  L 198.5692 488.3087
  A 7.29 7.29 0.0 0 0 205.8337 495.6241
  L 237.8135 495.7358
  A 7.29 7.29 0.0 0 0 245.1290 488.4713
  L 245.1308 487.9513"
/>
<path stroke="#83959e" vector-effect="non-scaling-stroke" d="
  M 245.0312 515.0510
  A 7.27 7.27 0.0 0 0 237.7866 507.7557
  L 205.9068 507.6444
  A 7.27 7.27 0.0 0 0 198.6115 514.8890
  L 198.6088 515.6490
  A 7.27 7.27 0.0 0 0 205.8534 522.9443
  L 237.7332 523.0556
  A 7.27 7.27 0.0 0 0 245.0285 515.8110
  L 245.0312 515.0510"
/>
<path stroke="#c3ccd1" vector-effect="non-scaling-stroke" d="
  M 490.5002 496.8601
  A 5.35 5.35 0.0 0 0 485.1596 491.5008
  L 449.8596 491.4392
  A 5.35 5.35 0.0 0 0 444.5003 496.7799
  L 444.4998 497.0799
  A 5.35 5.35 0.0 0 0 449.8404 502.4392
  L 485.1404 502.5008
  A 5.35 5.35 0.0 0 0 490.4997 497.1601
  L 490.5002 496.8601"
/>
<path stroke="#c3ccd1" vector-effect="non-scaling-stroke" d="
  M 490.9993 610.0693
  A 5.34 5.34 0.0 0 0 485.6500 604.7386
  L 449.6500 604.8014
  A 5.34 5.34 0.0 0 0 444.3194 610.1507
  L 444.3207 610.9107
  A 5.34 5.34 0.0 0 0 449.6700 616.2414
  L 485.6700 616.1786
  A 5.34 5.34 0.0 0 0 491.0006 610.8293
  L 490.9993 610.0693"
/>
<path stroke="#83959e" vector-effect="non-scaling-stroke" d="
  M 245.0813 599.9318
  A 7.20 7.20 0.0 0 0 237.9317 592.6817
  L 205.9925 592.4587
  A 7.20 7.20 0.0 0 0 198.7424 599.6083
  L 198.7387 600.1282
  A 7.20 7.20 0.0 0 0 205.8883 607.3783
  L 237.8275 607.6013
  A 7.20 7.20 0.0 0 0 245.0776 600.4517
  L 245.0813 599.9318"
/>
<path stroke="#83959e" vector-effect="non-scaling-stroke" d="
  M 245.1619 627.1516
  A 7.39 7.39 0.0 0 0 237.8107 619.7230
  L 206.1311 619.5572
  A 7.39 7.39 0.0 0 0 198.7025 626.9084
  L 198.6981 627.7484
  A 7.39 7.39 0.0 0 0 206.0493 635.1770
  L 237.7289 635.3428
  A 7.39 7.39 0.0 0 0 245.1575 627.9916
  L 245.1619 627.1516"
/>
<path stroke="#83959e" vector-effect="non-scaling-stroke" d="
  M 131.9613 599.8597
  A 7.33 7.33 0.0 0 0 124.6827 592.4787
  L 93.5834 592.2616
  A 7.33 7.33 0.0 0 0 86.2024 599.5403
  L 86.1987 600.0803
  A 7.33 7.33 0.0 0 0 93.4773 607.4613
  L 124.5766 607.6784
  A 7.33 7.33 0.0 0 0 131.9576 600.3997
  L 131.9613 599.8597"
/>
<path stroke="#83959e" vector-effect="non-scaling-stroke" d="
  M 131.8724 627.0691
  A 7.27 7.27 0.0 0 0 124.6405 619.7612
  L 93.6809 619.5991
  A 7.27 7.27 0.0 0 0 86.3730 626.8309
  L 86.3676 627.8509
  A 7.27 7.27 0.0 0 0 93.5995 635.1588
  L 124.5591 635.3209
  A 7.27 7.27 0.0 0 0 131.8670 628.0891
  L 131.8724 627.0691"
/>
</g>
<path fill="#062a3d" d="
  M 92.95 0.00
  L 483.00 0.00
  C 504.61 2.56 525.02 11.66 540.41 26.90
  C 544.48 30.93 548.86 35.19 552.15 39.32
  Q 569.95 61.66 574.00 90.35
  L 574.00 638.06
  C 570.60 662.41 560.11 682.14 543.47 699.92
  C 541.13 702.42 538.14 704.66 535.48 707.08
  C 524.08 717.42 509.84 724.75 495.15 729.13
  C 491.25 730.30 486.67 731.00 482.39 732.00
  L 95.49 732.00
  C 93.08 731.30 90.14 731.02 88.20 730.60
  C 56.84 723.74 32.18 705.20 15.12 678.22
  Q 3.14 659.28 0.00 637.24
  L 0.00 91.20
  Q 0.97 86.71 1.97 82.23
  C 7.55 57.08 23.89 34.07 44.78 19.20
  Q 66.11 4.02 92.95 0.00
  Z
  M 63.40 35.21
  C 44.48 47.87 30.73 66.21 26.13 88.62
  Q 24.79 95.16 24.75 106.48
  Q 24.55 163.11 24.56 219.75
  Q 24.63 424.50 24.73 629.25
  C 24.73 639.18 29.01 651.22 33.81 659.27
  Q 33.95 660.29 34.30 660.98
  C 46.70 685.50 72.99 706.24 101.50 706.21
  Q 203.79 706.11 306.09 706.24
  C 308.83 706.24 310.15 707.24 311.88 709.12
  A 0.65 0.65 0.0 0 0 313.01 708.68
  L 312.97 671.79
  Q 313.24 640.65 313.18 609.50
  Q 312.92 489.25 313.15 369.00
  C 313.19 349.49 327.41 331.84 346.09 326.78
  C 354.53 324.49 366.20 325.27 375.82 325.43
  Q 385.62 325.59 390.90 327.18
  Q 405.52 331.58 413.67 345.39
  A 1.13 1.13 0.0 0 0 415.62 345.40
  Q 427.64 325.42 451.49 325.29
  Q 468.67 325.20 485.87 325.32
  Q 494.81 325.38 498.60 326.20
  C 508.46 328.32 516.48 334.68 523.14 342.46
  Q 533.02 354.14 533.55 370.27
  Q 533.75 376.38 533.76 382.50
  Q 533.90 504.98 533.50 627.46
  Q 533.47 638.20 532.08 643.92
  Q 527.34 663.53 509.87 675.61
  Q 502.76 680.52 495.60 681.80
  Q 492.79 682.05 491.00 682.04
  Q 467.37 681.99 443.75 682.11
  C 438.03 682.14 432.29 683.81 429.27 688.84
  C 426.67 693.18 427.66 701.65 427.87 706.89
  Q 427.59 707.35 428.86 709.31
  A 1.17 1.17 0.0 0 0 430.72 709.44
  Q 433.63 706.12 438.50 706.17
  Q 453.42 706.32 468.34 706.22
  C 481.83 706.14 490.80 705.13 501.92 699.89
  C 525.41 688.83 541.67 668.18 548.26 643.26
  C 550.27 635.67 549.83 627.03 549.82 618.67
  C 549.75 445.97 550.09 273.26 549.74 100.56
  C 549.73 93.55 549.28 87.50 547.43 81.54
  C 538.15 51.55 514.55 31.82 485.77 21.15
  C 474.29 16.89 464.55 16.39 453.25 16.37
  Q 287.75 16.06 122.25 16.17
  Q 111.51 16.17 102.99 17.98
  C 90.01 20.74 74.38 26.52 63.40 35.21
  Z
  M 355.75 348.92
  C 345.04 350.08 337.06 357.28 337.01 368.50
  Q 336.74 431.12 336.75 493.75
  Q 336.77 592.60 337.09 691.54
  L 337.29 705.28
  Q 337.31 706.81 338.83 706.91
  Q 339.95 706.98 341.17 705.70
  Q 342.91 706.45 344.75 706.46
  Q 370.44 706.54 396.19 706.45
  Q 399.06 706.44 399.04 703.57
  L 398.97 690.97
  C 398.93 583.70 398.78 476.58 399.11 369.40
  Q 399.13 363.50 398.11 360.74
  C 395.63 354.02 388.45 348.95 381.50 348.58
  Q 374.31 348.20 355.75 348.92
  Z
  M 456.31 349.40
  C 451.92 349.50 446.34 348.46 442.56 349.20
  C 436.47 350.37 431.40 355.35 429.12 360.85
  Q 427.76 364.11 427.74 370.36
  Q 427.70 390.23 427.70 410.09
  Q 427.70 418.18 429.04 421.75
  Q 431.35 427.86 437.10 431.05
  Q 440.85 433.35 445.01 433.98
  Q 467.05 435.20 489.23 434.50
  C 504.70 434.00 508.76 427.40 508.97 412.50
  Q 509.30 388.65 509.00 364.80
  Q 508.95 360.70 508.19 358.80
  C 506.30 354.03 501.13 350.72 496.43 349.33
  Q 493.58 348.50 487.49 348.60
  C 477.08 348.77 466.71 348.76 456.31 349.40
  Z
  M 444.86 457.30
  C 434.31 457.90 427.76 465.78 427.75 476.00
  Q 427.71 552.71 427.74 629.43
  C 427.74 640.01 427.32 645.83 434.18 652.53
  C 436.07 656.03 440.92 657.77 444.62 658.19
  Q 466.25 658.66 488.04 658.32
  Q 494.82 658.22 498.20 656.73
  C 507.90 652.48 509.13 643.92 509.14 634.25
  Q 509.17 554.58 508.98 474.91
  C 508.97 472.48 508.68 469.14 507.60 467.46
  Q 501.25 457.63 489.18 457.08
  L 444.86 457.30
  Z"
/>
<path fill="#bac5c8" d="
  M 427.87 706.89
  Q 428.96 705.11 431.06 699.50
  Q 434.02 691.59 443.26 691.48
  Q 457.71 691.32 472.17 691.28
  C 478.93 691.26 483.71 690.62 488.78 687.07
  Q 490.57 685.82 495.60 681.80
  Q 502.76 680.52 509.87 675.61
  Q 527.34 663.53 532.08 643.92
  Q 533.47 638.20 533.50 627.46
  Q 533.90 504.98 533.76 382.50
  Q 533.75 376.38 533.55 370.27
  Q 533.02 354.14 523.14 342.46
  Q 524.05 341.78 523.77 339.97
  Q 523.49 338.14 523.49 337.52
  Q 523.49 299.20 523.17 260.59
  Q 530.37 252.05 532.93 241.39
  Q 534.28 235.73 534.27 221.50
  Q 534.20 155.38 534.23 89.26
  C 534.23 82.36 533.64 77.45 531.46 71.51
  Q 523.44 49.72 503.02 38.76
  Q 488.80 31.14 475.25 31.07
  Q 382.54 30.57 99.56 30.94
  C 96.66 29.40 91.77 30.24 88.57 30.43
  C 83.53 30.74 78.15 31.91 72.91 32.55
  Q 71.02 32.78 68.27 33.90
  Q 65.99 34.84 63.40 35.21
  C 74.38 26.52 90.01 20.74 102.99 17.98
  Q 111.51 16.17 122.25 16.17
  Q 287.75 16.06 453.25 16.37
  C 464.55 16.39 474.29 16.89 485.77 21.15
  C 514.55 31.82 538.15 51.55 547.43 81.54
  C 549.28 87.50 549.73 93.55 549.74 100.56
  C 550.09 273.26 549.75 445.97 549.82 618.67
  C 549.83 627.03 550.27 635.67 548.26 643.26
  C 541.67 668.18 525.41 688.83 501.92 699.89
  C 490.80 705.13 481.83 706.14 468.34 706.22
  Q 453.42 706.32 438.50 706.17
  Q 433.63 706.12 430.72 709.44
  A 1.17 1.17 0.0 0 1 428.86 709.31
  Q 427.59 707.35 427.87 706.89
  Z"
/>
<path fill="#ffffff" d="
  M 99.56 30.94
  C 77.88 33.96 58.30 45.04 47.22 64.17
  C 39.73 72.52 33.42 84.07 33.47 95.50
  Q 33.72 157.54 33.52 219.57
  C 33.49 229.73 34.59 238.39 39.69 247.34
  Q 43.38 253.82 49.24 257.99
  Q 60.42 273.32 77.98 273.13
  Q 113.12 272.74 148.25 272.74
  Q 323.87 272.75 499.50 273.07
  C 508.89 273.09 516.96 267.96 523.17 260.59
  Q 523.49 299.20 523.49 337.52
  Q 523.49 338.14 523.77 339.97
  Q 524.05 341.78 523.14 342.46
  C 516.48 334.68 508.46 328.32 498.60 326.20
  Q 494.81 325.38 485.87 325.32
  Q 468.67 325.20 451.49 325.29
  Q 427.64 325.42 415.62 345.40
  A 1.13 1.13 0.0 0 1 413.67 345.39
  Q 405.52 331.58 390.90 327.18
  Q 385.62 325.59 375.82 325.43
  C 366.20 325.27 354.53 324.49 346.09 326.78
  C 327.41 331.84 313.19 349.49 313.15 369.00
  Q 312.92 489.25 313.18 609.50
  Q 313.24 640.65 312.97 671.79
  L 312.55 689.79
  A 1.43 1.42 -0.0 0 1 311.15 691.18
  Q 299.31 691.42 287.50 691.23
  C 275.91 691.06 258.83 691.61 244.99 691.60
  Q 170.25 691.57 95.50 691.51
  Q 84.64 691.50 80.24 690.50
  C 60.42 685.97 46.75 674.41 33.81 659.27
  C 29.01 651.22 24.73 639.18 24.73 629.25
  Q 24.63 424.50 24.56 219.75
  Q 24.55 163.11 24.75 106.48
  Q 24.79 95.16 26.13 88.62
  C 30.73 66.21 44.48 47.87 63.40 35.21
  Q 65.99 34.84 68.27 33.90
  Q 71.02 32.78 72.91 32.55
  C 78.15 31.91 83.53 30.74 88.57 30.43
  C 91.77 30.24 96.66 29.40 99.56 30.94
  Z
  M 68.26 291.68
  C 59.56 291.91 57.28 303.65 64.70 307.35
  Q 66.98 308.48 72.00 308.49
  Q 106.00 308.51 140.00 308.44
  C 149.49 308.42 153.31 298.32 145.46 292.36
  Q 145.30 292.26 145.49 292.02
  Q 145.70 291.76 146.03 291.76
  L 179.86 291.79
  Q 174.57 293.36 173.78 296.95
  Q 172.11 304.46 177.07 307.19
  Q 179.51 308.54 186.11 308.51
  Q 198.68 308.46 211.25 308.62
  Q 217.12 308.69 219.43 304.66
  C 221.72 300.67 220.84 294.00 215.97 292.21
  L 215.72 291.96
  Q 215.36 291.57 215.89 291.58
  Q 231.14 291.86 246.40 291.66
  Q 247.21 291.65 248.57 291.35
  Q 250.45 290.92 250.83 291.80
  C 244.46 292.82 242.27 300.37 245.84 305.03
  C 248.12 308.02 251.61 308.47 255.25 308.47
  Q 289.67 308.49 324.08 308.44
  Q 328.63 308.43 330.61 307.59
  C 337.01 304.90 336.67 296.99 331.74 292.62
  Q 334.85 291.51 339.25 291.49
  Q 351.52 291.46 363.78 291.52
  Q 364.15 291.53 364.19 291.89
  Q 364.22 292.10 364.21 292.23
  C 356.42 296.67 358.86 308.22 368.51 308.31
  Q 383.13 308.44 397.75 308.34
  C 407.29 308.27 410.13 297.69 402.68 292.48
  Q 402.75 292.26 402.97 292.02
  A 0.91 0.89 -68.1 0 1 403.63 291.73
  L 436.40 291.55
  Q 436.49 291.55 436.55 291.61
  Q 436.70 291.78 436.58 292.01
  C 432.05 293.97 429.65 298.45 431.61 303.16
  C 433.38 307.43 436.75 308.52 441.40 308.51
  Q 473.12 308.46 504.83 308.47
  Q 510.79 308.47 512.97 307.32
  Q 517.28 305.04 516.80 298.74
  C 516.38 293.23 512.10 291.83 507.38 291.77
  Q 504.69 281.27 496.50 281.28
  Q 288.25 281.46 80.00 281.36
  C 73.42 281.36 70.45 286.16 68.26 291.68
  Z
  M 262.01 327.78
  Q 256.13 325.27 251.00 325.27
  Q 169.37 325.26 87.75 325.47
  Q 65.27 325.53 52.15 343.65
  Q 46.53 351.41 44.17 360.21
  Q 42.87 365.03 42.89 373.42
  Q 43.17 500.72 42.86 628.02
  Q 42.84 638.88 44.00 643.89
  C 47.88 660.59 61.76 675.93 78.32 680.50
  Q 83.17 681.83 91.80 681.85
  Q 172.52 682.01 253.25 681.78
  Q 257.29 681.77 260.26 680.77
  C 275.70 675.55 286.55 664.33 290.98 648.74
  Q 292.27 644.23 292.27 642.00
  Q 292.17 507.16 292.29 372.31
  C 292.30 351.77 280.84 335.80 262.01 327.78
  Z"
/>
<path fill="#062a3d" d="
  M 523.17 260.59
  C 516.96 267.96 508.89 273.09 499.50 273.07
  Q 323.87 272.75 148.25 272.74
  Q 113.12 272.74 77.98 273.13
  Q 60.42 273.32 49.24 257.99
  Q 42.57 246.96 42.71 232.25
  Q 43.02 199.92 42.56 88.75
  C 42.52 79.02 44.76 72.52 47.22 64.17
  C 58.30 45.04 77.88 33.96 99.56 30.94
  Q 382.54 30.57 475.25 31.07
  Q 488.80 31.14 503.02 38.76
  Q 523.44 49.72 531.46 71.51
  C 533.64 77.45 534.23 82.36 534.23 89.26
  Q 534.20 155.38 534.27 221.50
  Q 534.28 235.73 532.93 241.39
  Q 530.37 252.05 523.17 260.59
  Z
  M 463.94 249.26
  Q 478.44 250.15 489.48 249.66
  Q 503.74 249.04 508.13 237.58
  Q 509.72 233.40 509.80 224.14
  C 510.19 179.24 509.72 134.28 509.63 89.37
  Q 509.62 81.99 508.52 78.23
  C 505.66 68.42 496.98 60.90 487.39 58.03
  Q 482.81 56.67 473.96 56.68
  Q 309.25 56.88 144.54 56.78
  Q 120.89 56.71 97.25 56.71
  C 83.60 56.71 73.10 64.04 68.25 76.63
  Q 66.86 80.25 66.86 83.25
  Q 66.94 156.58 66.97 229.93
  Q 66.97 236.54 68.34 239.90
  Q 72.15 249.21 83.50 249.21
  Q 273.74 249.29 463.94 249.26
  Z"
/>
<path fill="#ffffff" d="
  M 144.54 56.78
  Q 144.65 56.95 144.61 57.21
  A 0.77 0.77 0.0 0 1 144.04 57.82
  Q 136.55 59.70 129.65 63.11
  C 122.77 66.50 125.95 72.08 132.50 72.10
  Q 301.50 72.67 470.50 72.06
  C 481.53 72.02 492.36 75.32 496.30 86.01
  Q 497.82 90.14 497.83 100.17
  Q 497.85 155.20 497.71 210.22
  C 497.67 222.86 497.04 229.14 488.13 237.10
  C 479.87 244.49 473.09 245.81 463.94 249.26
  Q 273.74 249.29 83.50 249.21
  Q 72.15 249.21 68.34 239.90
  Q 66.97 236.54 66.97 229.93
  Q 66.94 156.58 66.86 83.25
  Q 66.86 80.25 68.25 76.63
  C 73.10 64.04 83.60 56.71 97.25 56.71
  Q 120.89 56.71 144.54 56.78
  Z
  M 273.19 112.27
  C 270.38 97.28 257.54 89.57 243.00 89.28
  C 235.83 89.14 227.97 88.78 221.74 91.00
  C 210.27 95.07 202.94 105.46 202.94 117.75
  Q 202.96 156.37 202.82 195.00
  Q 202.79 201.72 203.76 205.25
  C 206.43 215.06 214.30 222.74 224.09 225.31
  C 229.23 226.66 235.78 226.35 241.52 226.29
  Q 249.86 226.20 254.46 224.61
  Q 263.56 221.46 268.94 213.41
  C 273.22 207.00 273.71 200.76 273.68 192.99
  Q 273.65 187.77 268.99 187.25
  Q 266.06 186.93 255.99 187.23
  C 250.74 187.38 250.40 192.98 250.06 197.00
  C 249.38 205.16 241.22 204.42 235.01 204.02
  C 226.81 203.50 225.52 198.77 225.51 191.25
  Q 225.45 156.88 225.50 122.51
  C 225.52 111.22 234.36 111.20 243.50 112.43
  C 256.64 114.19 243.84 130.89 257.70 131.02
  Q 263.35 131.08 269.00 130.94
  C 272.17 130.86 273.74 128.07 273.74 125.23
  C 273.74 120.62 273.94 116.27 273.19 112.27
  Z
  M 323.21 203.53
  L 352.82 203.40
  A 0.90 0.90 0.0 0 1 353.69 204.08
  Q 355.77 212.65 357.72 221.01
  Q 358.93 226.18 364.24 226.24
  Q 369.12 226.30 373.99 226.25
  C 379.63 226.18 382.61 224.36 381.27 218.25
  Q 376.69 197.38 372.35 176.46
  Q 363.82 135.35 355.06 94.30
  Q 353.98 89.26 348.75 89.29
  Q 338.25 89.34 327.76 89.81
  Q 323.18 90.02 322.45 93.50
  Q 303.58 183.18 295.63 218.02
  C 294.30 223.83 296.54 226.27 302.28 226.30
  Q 307.52 226.33 312.75 226.38
  C 316.52 226.41 318.81 223.20 319.43 219.74
  Q 320.86 211.82 322.66 203.97
  Q 322.76 203.54 323.21 203.53
  Z
  M 158.13 157.52
  Q 154.98 156.55 158.02 155.26
  Q 165.07 152.30 167.83 145.53
  C 170.53 138.93 169.63 127.15 169.54 119.00
  C 169.40 106.70 162.24 95.16 150.66 91.17
  Q 145.83 89.51 133.17 89.46
  Q 119.22 89.41 105.29 89.48
  C 100.93 89.51 96.91 90.93 96.91 95.75
  Q 96.95 157.75 96.94 219.75
  C 96.94 224.54 100.91 226.23 105.34 226.21
  Q 123.04 226.13 140.75 226.18
  C 152.46 226.22 163.52 219.69 167.73 208.69
  Q 169.22 204.80 169.35 197.61
  Q 169.51 188.35 169.50 179.08
  Q 169.49 170.19 168.08 166.59
  Q 165.42 159.77 158.13 157.52
  Z
  M 424.83 203.82
  Q 425.18 203.18 425.91 203.19
  L 453.04 203.41
  A 1.97 1.97 0.0 0 1 454.95 204.94
  Q 456.72 212.57 458.36 219.98
  C 458.94 222.61 460.81 226.21 463.99 226.23
  C 467.80 226.26 477.16 227.18 480.20 225.34
  C 484.00 223.05 483.39 220.01 482.46 215.82
  C 477.72 194.58 473.55 173.22 468.71 152.01
  Q 462.10 122.99 456.26 93.80
  Q 455.40 89.49 451.75 89.47
  Q 440.84 89.44 429.91 89.50
  C 425.81 89.52 423.47 91.02 422.75 95.02
  C 415.24 136.79 406.13 178.35 397.34 219.87
  C 396.21 225.20 400.62 226.20 404.93 226.20
  C 409.64 226.20 418.71 227.96 420.39 221.78
  Q 421.34 218.27 423.78 206.75
  Q 424.13 205.08 424.83 203.82
  Z"
/>
<path fill="#bac5c8" d="
  M 144.54 56.78
  Q 309.25 56.88 473.96 56.68
  Q 482.81 56.67 487.39 58.03
  C 496.98 60.90 505.66 68.42 508.52 78.23
  Q 509.62 81.99 509.63 89.37
  C 509.72 134.28 510.19 179.24 509.80 224.14
  Q 509.72 233.40 508.13 237.58
  Q 503.74 249.04 489.48 249.66
  Q 478.44 250.15 463.94 249.26
  C 473.09 245.81 479.87 244.49 488.13 237.10
  C 497.04 229.14 497.67 222.86 497.71 210.22
  Q 497.85 155.20 497.83 100.17
  Q 497.82 90.14 496.30 86.01
  C 492.36 75.32 481.53 72.02 470.50 72.06
  Q 301.50 72.67 132.50 72.10
  C 125.95 72.08 122.77 66.50 129.65 63.11
  Q 136.55 59.70 144.04 57.82
  A 0.77 0.77 0.0 0 0 144.61 57.21
  Q 144.65 56.95 144.54 56.78
  Z"
/>
<path fill="#8699a3" d="
  M 47.22 64.17
  C 44.76 72.52 42.52 79.02 42.56 88.75
  Q 43.02 199.92 42.71 232.25
  Q 42.57 246.96 49.24 257.99
  Q 43.38 253.82 39.69 247.34
  C 34.59 238.39 33.49 229.73 33.52 219.57
  Q 33.72 157.54 33.47 95.50
  C 33.42 84.07 39.73 72.52 47.22 64.17
  Z"
/>
<path fill="#062a3d" d="
  M 243.00 89.28
  C 257.54 89.57 270.38 97.28 273.19 112.27
  C 273.94 116.27 273.74 120.62 273.74 125.23
  C 273.74 128.07 272.17 130.86 269.00 130.94
  Q 263.35 131.08 257.70 131.02
  C 243.84 130.89 256.64 114.19 243.50 112.43
  C 234.36 111.20 225.52 111.22 225.50 122.51
  Q 225.45 156.88 225.51 191.25
  C 225.52 198.77 226.81 203.50 235.01 204.02
  C 241.22 204.42 249.38 205.16 250.06 197.00
  C 250.40 192.98 250.74 187.38 255.99 187.23
  Q 266.06 186.93 268.99 187.25
  Q 273.65 187.77 273.68 192.99
  C 273.71 200.76 273.22 207.00 268.94 213.41
  Q 263.56 221.46 254.46 224.61
  Q 249.86 226.20 241.52 226.29
  C 235.78 226.35 229.23 226.66 224.09 225.31
  C 214.30 222.74 206.43 215.06 203.76 205.25
  Q 202.79 201.72 202.82 195.00
  Q 202.96 156.37 202.94 117.75
  C 202.94 105.46 210.27 95.07 221.74 91.00
  C 227.97 88.78 235.83 89.14 243.00 89.28
  Z"
/>
<path fill="#062a3d" d="
  M 322.66 203.97
  Q 320.86 211.82 319.43 219.74
  C 318.81 223.20 316.52 226.41 312.75 226.38
  Q 307.52 226.33 302.28 226.30
  C 296.54 226.27 294.30 223.83 295.63 218.02
  Q 303.58 183.18 322.45 93.50
  Q 323.18 90.02 327.76 89.81
  Q 338.25 89.34 348.75 89.29
  Q 353.98 89.26 355.06 94.30
  Q 363.82 135.35 372.35 176.46
  Q 376.69 197.38 381.27 218.25
  C 382.61 224.36 379.63 226.18 373.99 226.25
  Q 369.12 226.30 364.24 226.24
  Q 358.93 226.18 357.72 221.01
  Q 355.77 212.65 353.69 204.08
  A 0.90 0.90 0.0 0 0 352.82 203.40
  L 323.21 203.53
  Q 322.76 203.54 322.66 203.97
  Z
  M 329.24 183.89
  Q 330.04 184.23 330.90 184.23
  Q 338.06 184.30 345.75 184.21
  C 349.45 184.16 349.82 181.67 349.17 178.69
  Q 343.76 153.93 339.18 129.01
  Q 339.03 128.20 338.63 127.68
  A 0.45 0.45 0.0 0 0 337.84 127.87
  Q 332.52 154.16 327.36 180.12
  C 326.97 182.10 327.41 183.10 329.24 183.89
  Z"
/>
<path fill="#062a3d" d="
  M 158.13 157.52
  Q 165.42 159.77 168.08 166.59
  Q 169.49 170.19 169.50 179.08
  Q 169.51 188.35 169.35 197.61
  Q 169.22 204.80 167.73 208.69
  C 163.52 219.69 152.46 226.22 140.75 226.18
  Q 123.04 226.13 105.34 226.21
  C 100.91 226.23 96.94 224.54 96.94 219.75
  Q 96.95 157.75 96.91 95.75
  C 96.91 90.93 100.93 89.51 105.29 89.48
  Q 119.22 89.41 133.17 89.46
  Q 145.83 89.51 150.66 91.17
  C 162.24 95.16 169.40 106.70 169.54 119.00
  C 169.63 127.15 170.53 138.93 167.83 145.53
  Q 165.07 152.30 158.02 155.26
  Q 154.98 156.55 158.13 157.52
  Z
  M 119.61 116.25
  L 119.65 141.11
  A 3.87 3.87 0.0 0 0 123.53 144.98
  L 137.40 144.95
  A 9.04 8.90 -0.1 0 0 146.42 136.04
  L 146.40 121.24
  A 9.04 8.90 -0.1 0 0 137.34 112.35
  L 123.47 112.38
  A 3.87 3.87 0.0 0 0 119.61 116.25
  Z
  M 119.60 170.66
  L 119.66 200.74
  A 3.22 3.22 0.0 0 0 122.88 203.96
  L 138.07 203.93
  A 8.51 8.40 -0.1 0 0 146.57 195.52
  L 146.53 175.80
  A 8.51 8.40 -0.1 0 0 138.01 167.41
  L 122.82 167.44
  A 3.22 3.22 0.0 0 0 119.60 170.66
  Z"
/>
<path fill="#062a3d" d="
  M 424.83 203.82
  Q 424.13 205.08 423.78 206.75
  Q 421.34 218.27 420.39 221.78
  C 418.71 227.96 409.64 226.20 404.93 226.20
  C 400.62 226.20 396.21 225.20 397.34 219.87
  C 406.13 178.35 415.24 136.79 422.75 95.02
  C 423.47 91.02 425.81 89.52 429.91 89.50
  Q 440.84 89.44 451.75 89.47
  Q 455.40 89.49 456.26 93.80
  Q 462.10 122.99 468.71 152.01
  C 473.55 173.22 477.72 194.58 482.46 215.82
  C 483.39 220.01 484.00 223.05 480.20 225.34
  C 477.16 227.18 467.80 226.26 463.99 226.23
  C 460.81 226.21 458.94 222.61 458.36 219.98
  Q 456.72 212.57 454.95 204.94
  A 1.97 1.97 0.0 0 0 453.04 203.41
  L 425.91 203.19
  Q 425.18 203.18 424.83 203.82
  Z
  M 447.59 184.28
  C 449.84 184.22 451.42 182.46 450.99 180.25
  Q 448.70 168.60 442.05 134.96
  Q 441.25 130.96 440.37 126.72
  Q 440.23 126.06 439.69 126.46
  Q 439.35 126.71 439.21 127.49
  Q 434.47 153.68 429.11 179.75
  C 428.39 183.22 430.37 184.30 433.50 184.35
  Q 440.55 184.45 447.59 184.28
  Z"
/>
<path fill="#ffffff" d="
  M 119.61 116.25
  A 3.87 3.87 0.0 0 1 123.47 112.38
  L 137.34 112.35
  A 9.04 8.90 -0.1 0 1 146.40 121.24
  L 146.42 136.04
  A 9.04 8.90 -0.1 0 1 137.40 144.95
  L 123.53 144.98
  A 3.87 3.87 0.0 0 1 119.65 141.11
  L 119.61 116.25
  Z"
/>
<path fill="#ffffff" d="
  M 450.99 180.25
  C 451.42 182.46 449.84 184.22 447.59 184.28
  Q 440.55 184.45 433.50 184.35
  C 430.37 184.30 428.39 183.22 429.11 179.75
  Q 434.47 153.68 439.21 127.49
  Q 439.35 126.71 439.69 126.46
  Q 440.23 126.06 440.37 126.72
  Q 441.25 130.96 442.05 134.96
  Q 448.70 168.60 450.99 180.25
  Z"
/>
<path fill="#ffffff" d="
  M 329.24 183.89
  C 327.41 183.10 326.97 182.10 327.36 180.12
  Q 332.52 154.16 337.84 127.87
  A 0.45 0.45 0.0 0 1 338.63 127.68
  Q 339.03 128.20 339.18 129.01
  Q 343.76 153.93 349.17 178.69
  C 349.82 181.67 349.45 184.16 345.75 184.21
  Q 338.06 184.30 330.90 184.23
  Q 330.04 184.23 329.24 183.89
  Z"
/>
<path fill="#ffffff" d="
  M 119.60 170.66
  A 3.22 3.22 0.0 0 1 122.82 167.44
  L 138.01 167.41
  A 8.51 8.40 -0.1 0 1 146.53 175.80
  L 146.57 195.52
  A 8.51 8.40 -0.1 0 1 138.07 203.93
  L 122.88 203.96
  A 3.22 3.22 0.0 0 1 119.66 200.74
  L 119.60 170.66
  Z"
/>
<path fill="#bac5c8" d="
  M 507.38 291.77
  L 436.58 292.01
  Q 436.70 291.78 436.55 291.61
  Q 436.49 291.55 436.40 291.55
  L 403.63 291.73
  A 0.91 0.89 -68.1 0 0 402.97 292.02
  Q 402.75 292.26 402.68 292.48
  C 401.79 292.30 400.99 291.90 400.08 291.91
  Q 383.51 291.99 366.94 291.77
  C 366.06 291.76 365.11 292.07 364.21 292.23
  Q 364.22 292.10 364.19 291.89
  Q 364.15 291.53 363.78 291.52
  Q 351.52 291.46 339.25 291.49
  Q 334.85 291.51 331.74 292.62
  Q 330.85 292.43 329.58 292.10
  Q 328.48 291.82 327.38 291.82
  Q 289.06 291.79 250.83 291.80
  Q 250.45 290.92 248.57 291.35
  Q 247.21 291.65 246.40 291.66
  Q 231.14 291.86 215.89 291.58
  Q 215.36 291.57 215.72 291.96
  L 215.97 292.21
  L 179.86 291.79
  L 146.03 291.76
  Q 145.70 291.76 145.49 292.02
  Q 145.30 292.26 145.46 292.36
  Q 144.16 291.74 142.75 291.74
  Q 105.54 291.84 68.26 291.68
  C 70.45 286.16 73.42 281.36 80.00 281.36
  Q 288.25 281.46 496.50 281.28
  Q 504.69 281.27 507.38 291.77
  Z"
/>
<path fill="#062a3d" d="
  M 68.26 291.68
  Q 105.54 291.84 142.75 291.74
  Q 144.16 291.74 145.46 292.36
  C 153.31 298.32 149.49 308.42 140.00 308.44
  Q 106.00 308.51 72.00 308.49
  Q 66.98 308.48 64.70 307.35
  C 57.28 303.65 59.56 291.91 68.26 291.68
  Z"
/>
<path fill="#062a3d" d="
  M 215.97 292.21
  C 220.84 294.00 221.72 300.67 219.43 304.66
  Q 217.12 308.69 211.25 308.62
  Q 198.68 308.46 186.11 308.51
  Q 179.51 308.54 177.07 307.19
  Q 172.11 304.46 173.78 296.95
  Q 174.57 293.36 179.86 291.79
  L 215.97 292.21
  Z"
/>
<path fill="#062a3d" d="
  M 250.83 291.80
  Q 289.06 291.79 327.38 291.82
  Q 328.48 291.82 329.58 292.10
  Q 330.85 292.43 331.74 292.62
  C 336.67 296.99 337.01 304.90 330.61 307.59
  Q 328.63 308.43 324.08 308.44
  Q 289.67 308.49 255.25 308.47
  C 251.61 308.47 248.12 308.02 245.84 305.03
  C 242.27 300.37 244.46 292.82 250.83 291.80
  Z"
/>
<path fill="#062a3d" d="
  M 402.68 292.48
  C 410.13 297.69 407.29 308.27 397.75 308.34
  Q 383.13 308.44 368.51 308.31
  C 358.86 308.22 356.42 296.67 364.21 292.23
  C 365.11 292.07 366.06 291.76 366.94 291.77
  Q 383.51 291.99 400.08 291.91
  C 400.99 291.90 401.79 292.30 402.68 292.48
  Z"
/>
<path fill="#062a3d" d="
  M 507.38 291.77
  C 512.10 291.83 516.38 293.23 516.80 298.74
  Q 517.28 305.04 512.97 307.32
  Q 510.79 308.47 504.83 308.47
  Q 473.12 308.46 441.40 308.51
  C 436.75 308.52 433.38 307.43 431.61 303.16
  C 429.65 298.45 432.05 293.97 436.58 292.01
  L 507.38 291.77
  Z"
/>
<path fill="#062a3d" d="
  M 262.01 327.78
  C 280.84 335.80 292.30 351.77 292.29 372.31
  Q 292.17 507.16 292.27 642.00
  Q 292.27 644.23 290.98 648.74
  C 286.55 664.33 275.70 675.55 260.26 680.77
  Q 257.29 681.77 253.25 681.78
  Q 172.52 682.01 91.80 681.85
  Q 83.17 681.83 78.32 680.50
  C 61.76 675.93 47.88 660.59 44.00 643.89
  Q 42.84 638.88 42.86 628.02
  Q 43.17 500.72 42.89 373.42
  Q 42.87 365.03 44.17 360.21
  Q 46.53 351.41 52.15 343.65
  Q 65.27 325.53 87.75 325.47
  Q 169.37 325.26 251.00 325.27
  Q 256.13 325.27 262.01 327.78
  Z
  M 129.00 434.86
  C 133.44 434.99 138.84 435.55 142.70 434.92
  Q 155.35 432.87 155.50 418.49
  Q 155.79 390.21 155.41 361.88
  Q 155.38 359.64 153.80 356.91
  Q 147.73 347.57 137.82 348.49
  Q 112.75 348.41 87.91 348.53
  Q 81.26 348.57 77.85 349.96
  C 70.05 353.14 66.71 359.59 66.69 367.95
  Q 66.64 392.14 66.78 416.33
  Q 66.82 422.90 68.08 425.98
  C 71.65 434.78 78.92 434.77 88.44 434.75
  Q 108.78 434.72 129.00 434.86
  Z
  M 236.03 434.81
  Q 244.90 435.04 253.75 435.16
  C 262.68 435.28 268.68 428.68 268.74 420.00
  Q 268.88 400.22 268.63 364.75
  Q 268.59 359.48 266.45 356.51
  C 261.43 349.82 256.20 348.50 248.27 348.49
  Q 222.51 348.47 196.75 348.34
  C 187.23 348.29 178.33 354.74 178.31 365.00
  Q 178.27 389.87 178.28 414.75
  C 178.28 425.68 181.36 434.77 194.26 434.77
  Q 215.14 434.78 236.03 434.81
  Z
  M 133.10 546.35
  Q 141.12 547.07 143.50 546.54
  C 152.31 544.57 155.65 538.17 155.71 529.50
  Q 155.89 501.06 155.38 472.63
  Q 155.30 467.92 153.56 466.10
  C 147.27 456.30 139.10 457.98 129.54 458.05
  Q 107.26 457.80 84.99 457.89
  Q 78.98 457.92 76.70 458.88
  Q 66.68 463.07 66.71 473.49
  Q 66.79 501.00 66.61 528.50
  C 66.56 535.36 69.07 541.94 75.35 544.83
  Q 78.43 546.24 85.36 546.29
  Q 109.43 546.44 133.10 546.35
  Z
  M 245.31 546.41
  C 255.31 546.92 264.64 547.68 268.07 536.12
  C 268.68 534.07 268.60 531.70 268.62 529.50
  Q 268.95 500.87 268.53 472.25
  Q 268.48 468.67 266.74 466.43
  C 261.15 457.69 254.50 458.07 244.78 458.01
  Q 221.01 457.90 197.20 458.01
  Q 190.17 458.04 187.01 459.48
  C 178.67 463.29 178.26 470.73 178.29 479.00
  Q 178.37 502.28 178.35 525.55
  C 178.34 534.39 178.83 541.21 187.03 544.84
  Q 190.21 546.25 196.69 546.28
  Q 221.24 546.40 245.31 546.41
  Z
  M 232.94 658.41
  Q 242.31 658.74 251.67 658.74
  C 262.75 658.73 268.41 651.48 268.49 640.75
  Q 268.69 613.56 268.39 586.37
  Q 268.33 580.59 267.41 578.58
  C 264.60 572.80 260.50 569.96 253.91 569.81
  C 234.15 569.35 214.28 569.74 194.49 569.71
  C 187.66 569.70 182.71 571.71 179.87 577.82
  Q 178.40 580.96 178.35 587.92
  Q 178.18 612.30 178.26 636.67
  Q 178.29 645.01 179.68 648.65
  C 183.85 659.56 193.27 658.38 205.13 658.39
  Q 219.05 658.40 232.94 658.41
  Z
  M 132.88 658.42
  C 143.19 659.64 152.33 657.82 155.06 647.20
  C 155.76 644.51 155.62 641.21 155.64 638.25
  Q 155.86 608.11 155.25 579.15
  Q 151.53 573.50 147.01 571.05
  Q 144.69 569.79 140.68 569.78
  Q 112.60 569.72 84.50 569.73
  C 76.86 569.73 71.28 571.03 68.07 577.93
  Q 66.70 580.90 66.68 586.78
  Q 66.62 611.02 66.43 635.25
  C 66.35 644.11 69.33 653.18 77.77 656.76
  Q 81.41 658.31 89.93 658.38
  Q 111.49 658.55 132.88 658.42
  Z"
/>
<path fill="#ffffff" d="
  M 137.82 348.49
  Q 143.10 350.50 144.33 356.91
  Q 144.58 386.74 144.52 416.34
  Q 144.50 423.69 143.02 426.93
  Q 139.47 434.66 129.00 434.86
  Q 108.78 434.72 88.44 434.75
  C 78.92 434.77 71.65 434.78 68.08 425.98
  Q 66.82 422.90 66.78 416.33
  Q 66.64 392.14 66.69 367.95
  C 66.71 359.59 70.05 353.14 77.85 349.96
  Q 81.26 348.57 87.91 348.53
  Q 112.75 348.41 137.82 348.49
  Z
  M 132.0308 377.6603
  A 7.36 7.36 0.0 0 0 124.6966 370.2747
  L 93.3968 370.1654
  A 7.36 7.36 0.0 0 0 86.0111 377.4997
  L 86.0092 378.0597
  A 7.36 7.36 0.0 0 0 93.3434 385.4453
  L 124.6432 385.5546
  A 7.36 7.36 0.0 0 0 132.0289 378.2203
  L 132.0308 377.6603
  Z
  M 131.8912 403.9799
  A 7.31 7.31 0.0 0 0 124.6195 396.6317
  L 93.4400 396.4685
  A 7.31 7.31 0.0 0 0 86.0918 403.7401
  L 86.0888 404.3001
  A 7.31 7.31 0.0 0 0 93.3605 411.6483
  L 124.5400 411.8115
  A 7.31 7.31 0.0 0 0 131.8882 404.5399
  L 131.8912 403.9799
  Z"
/>
<path fill="#bac5c8" d="
  M 137.82 348.49
  Q 147.73 347.57 153.80 356.91
  L 144.33 356.91
  Q 143.10 350.50 137.82 348.49
  Z"
/>
<path fill="#ffffff" d="
  M 266.45 356.51
  L 257.86 355.48
  A 1.05 1.05 0.0 0 0 256.69 356.52
  Q 256.85 384.84 256.88 412.64
  C 256.89 422.29 256.04 429.00 247.55 433.44
  C 244.01 435.29 240.03 434.94 236.03 434.81
  Q 215.14 434.78 194.26 434.77
  C 181.36 434.77 178.28 425.68 178.28 414.75
  Q 178.27 389.87 178.31 365.00
  C 178.33 354.74 187.23 348.29 196.75 348.34
  Q 222.51 348.47 248.27 348.49
  C 256.20 348.50 261.43 349.82 266.45 356.51
  Z
  M 244.9808 377.4404
  A 7.18 7.18 0.0 0 0 237.8133 370.2479
  L 205.8333 370.1921
  A 7.18 7.18 0.0 0 0 198.6408 377.3596
  L 198.6392 378.2596
  A 7.18 7.18 0.0 0 0 205.8067 385.4521
  L 237.7867 385.5079
  A 7.18 7.18 0.0 0 0 244.9792 378.3404
  L 244.9808 377.4404
  Z
  M 244.96 403.70
  A 7.16 7.16 0.0 0 0 237.80 396.54
  L 205.68 396.54
  A 7.16 7.16 0.0 0 0 198.52 403.70
  L 198.52 404.48
  A 7.16 7.16 0.0 0 0 205.68 411.64
  L 237.80 411.64
  A 7.16 7.16 0.0 0 0 244.96 404.48
  L 244.96 403.70
  Z"
/>
<path fill="#8699a3" d="
  M 398.97 690.97
  L 345.22 690.91
  A 0.95 0.94 1.6 0 0 344.27 691.80
  C 343.99 696.44 344.21 701.63 341.17 705.70
  Q 339.95 706.98 338.83 706.91
  Q 337.31 706.81 337.29 705.28
  L 337.09 691.54
  L 342.60 690.66
  Q 344.45 690.36 344.46 688.49
  Q 344.57 591.26 344.34 495.18
  C 344.31 484.50 344.61 472.07 344.59 460.50
  Q 344.50 415.76 344.33 371.01
  Q 344.32 366.15 345.18 363.84
  C 347.67 357.21 355.22 353.60 362.00 353.43
  Q 372.00 353.18 382.00 353.21
  Q 384.11 353.22 385.37 354.05
  Q 387.02 355.15 385.95 353.48
  Q 384.53 351.27 381.24 351.15
  Q 373.87 350.89 366.50 350.84
  Q 364.34 350.83 362.40 350.08
  Q 359.21 348.85 355.75 348.92
  Q 374.31 348.20 381.50 348.58
  C 388.45 348.95 395.63 354.02 398.11 360.74
  Q 399.13 363.50 399.11 369.40
  C 398.78 476.58 398.93 583.70 398.97 690.97
  Z"
/>
<path fill="#3c5b6e" d="
  M 445.01 433.98
  C 445.25 431.29 444.90 426.78 448.50 426.80
  Q 464.58 426.91 480.68 427.01
  C 488.10 427.05 493.45 426.01 496.70 419.38
  Q 498.00 416.71 498.01 411.88
  Q 498.03 388.19 498.08 364.50
  C 498.09 361.32 499.29 355.95 496.60 353.74
  C 490.77 348.54 480.26 350.14 472.96 350.12
  Q 472.52 350.12 472.21 349.80
  Q 471.98 349.57 471.49 349.60
  Q 464.53 350.10 456.31 349.40
  C 466.71 348.76 477.08 348.77 487.49 348.60
  Q 493.58 348.50 496.43 349.33
  C 501.13 350.72 506.30 354.03 508.19 358.80
  Q 508.95 360.70 509.00 364.80
  Q 509.30 388.65 508.97 412.50
  C 508.76 427.40 504.70 434.00 489.23 434.50
  Q 467.05 435.20 445.01 433.98
  Z"
/>
<path fill="#ffffff" d="
  M 355.75 348.92
  Q 359.21 348.85 362.40 350.08
  Q 364.34 350.83 366.50 350.84
  Q 373.87 350.89 381.24 351.15
  Q 384.53 351.27 385.95 353.48
  Q 387.02 355.15 385.37 354.05
  Q 384.11 353.22 382.00 353.21
  Q 372.00 353.18 362.00 353.43
  C 355.22 353.60 347.67 357.21 345.18 363.84
  Q 344.32 366.15 344.33 371.01
  Q 344.50 415.76 344.59 460.50
  C 344.61 472.07 344.31 484.50 344.34 495.18
  Q 344.57 591.26 344.46 688.49
  Q 344.45 690.36 342.60 690.66
  L 337.09 691.54
  Q 336.77 592.60 336.75 493.75
  Q 336.74 431.12 337.01 368.50
  C 337.06 357.28 345.04 350.08 355.75 348.92
  Z"
/>
<path fill="#ffffff" d="
  M 456.31 349.40
  Q 464.53 350.10 471.49 349.60
  Q 471.98 349.57 472.21 349.80
  Q 472.52 350.12 472.96 350.12
  C 480.26 350.14 490.77 348.54 496.60 353.74
  Q 495.47 354.19 493.79 353.70
  Q 492.14 353.22 491.13 353.21
  Q 470.81 353.06 450.50 353.62
  C 441.14 353.88 433.97 360.07 434.11 369.75
  Q 434.24 378.75 434.28 412.50
  Q 434.29 422.28 442.92 426.14
  A 0.63 0.62 -49.3 0 1 443.00 427.24
  L 437.10 431.05
  Q 431.35 427.86 429.04 421.75
  Q 427.70 418.18 427.70 410.09
  Q 427.70 390.23 427.74 370.36
  Q 427.76 364.11 429.12 360.85
  C 431.40 355.35 436.47 350.37 442.56 349.20
  C 446.34 348.46 451.92 349.50 456.31 349.40
  Z"
/>
<path fill="#8699a3" d="
  M 496.60 353.74
  C 499.29 355.95 498.09 361.32 498.08 364.50
  Q 498.03 388.19 498.01 411.88
  Q 498.00 416.71 496.70 419.38
  C 493.45 426.01 488.10 427.05 480.68 427.01
  Q 464.58 426.91 448.50 426.80
  C 444.90 426.78 445.25 431.29 445.01 433.98
  Q 440.85 433.35 437.10 431.05
  L 443.00 427.24
  A 0.63 0.62 -49.3 0 0 442.92 426.14
  Q 434.29 422.28 434.28 412.50
  Q 434.24 378.75 434.11 369.75
  C 433.97 360.07 441.14 353.88 450.50 353.62
  Q 470.81 353.06 491.13 353.21
  Q 492.14 353.22 493.79 353.70
  Q 495.47 354.19 496.60 353.74
  Z
  M 490.56 388.88
  A 5.07 5.07 0.0 0 0 485.49 383.81
  L 449.59 383.81
  A 5.07 5.07 0.0 0 0 444.52 388.88
  L 444.52 389.16
  A 5.07 5.07 0.0 0 0 449.59 394.23
  L 485.49 394.23
  A 5.07 5.07 0.0 0 0 490.56 389.16
  L 490.56 388.88
  Z"
/>
<path fill="#8699a3" d="
  M 266.45 356.51
  Q 268.59 359.48 268.63 364.75
  Q 268.88 400.22 268.74 420.00
  C 268.68 428.68 262.68 435.28 253.75 435.16
  Q 244.90 435.04 236.03 434.81
  C 240.03 434.94 244.01 435.29 247.55 433.44
  C 256.04 429.00 256.89 422.29 256.88 412.64
  Q 256.85 384.84 256.69 356.52
  A 1.05 1.05 0.0 0 1 257.86 355.48
  L 266.45 356.51
  Z"
/>
<path fill="#8699a3" d="
  M 153.80 356.91
  Q 155.38 359.64 155.41 361.88
  Q 155.79 390.21 155.50 418.49
  Q 155.35 432.87 142.70 434.92
  C 138.84 435.55 133.44 434.99 129.00 434.86
  Q 139.47 434.66 143.02 426.93
  Q 144.50 423.69 144.52 416.34
  Q 144.58 386.74 144.33 356.91
  L 153.80 356.91
  Z"
/>
<rect fill="#062a3d" x="-23.01" y="-7.64" transform="translate(109.02,377.86) rotate(0.2)" width="46.02" height="15.28" rx="7.36"/>
<rect fill="#062a3d" x="-23.17" y="-7.63" transform="translate(221.81,377.85) rotate(0.1)" width="46.34" height="15.26" rx="7.18"/>
<rect fill="#ffffff" x="444.52" y="383.81" width="46.04" height="10.42" rx="5.07"/>
<rect fill="#062a3d" x="-22.90" y="-7.59" transform="translate(108.99,404.14) rotate(0.3)" width="45.80" height="15.18" rx="7.31"/>
<rect fill="#062a3d" x="198.52" y="396.54" width="46.44" height="15.10" rx="7.16"/>
<path fill="#8699a3" d="
  M 489.18 457.08
  Q 489.50 457.79 490.39 457.87
  Q 490.80 457.90 491.03 458.25
  L 492.30 460.17
  C 491.19 459.85 490.02 459.44 488.87 459.40
  Q 469.32 458.78 449.75 458.96
  Q 448.31 458.97 444.86 457.30
  L 489.18 457.08
  Z"
/>
<path fill="#3c5b6e" d="
  M 489.18 457.08
  Q 501.25 457.63 507.60 467.46
  C 508.68 469.14 508.97 472.48 508.98 474.91
  Q 509.17 554.58 509.14 634.25
  C 509.13 643.92 507.90 652.48 498.20 656.73
  Q 494.82 658.22 488.04 658.32
  Q 466.25 658.66 444.62 658.19
  Q 444.16 654.37 444.87 650.90
  A 1.12 1.11 7.0 0 1 446.01 650.01
  Q 463.39 650.68 480.99 650.56
  Q 485.71 650.52 485.99 650.49
  C 490.68 649.90 495.00 646.51 496.85 642.34
  Q 497.96 639.84 498.02 634.01
  C 498.18 618.82 497.81 603.17 497.92 588.50
  Q 498.01 576.00 497.99 563.50
  Q 497.94 514.56 497.98 465.73
  Q 495.14 461.85 492.30 460.17
  L 491.03 458.25
  Q 490.80 457.90 490.39 457.87
  Q 489.50 457.79 489.18 457.08
  Z"
/>
<path fill="#ffffff" d="
  M 444.86 457.30
  Q 448.31 458.97 449.75 458.96
  Q 469.32 458.78 488.87 459.40
  C 490.02 459.44 491.19 459.85 492.30 460.17
  Q 495.14 461.85 497.98 465.73
  Q 497.20 466.82 496.16 465.47
  C 494.31 463.06 491.25 461.16 488.50 461.19
  Q 470.01 461.37 451.50 461.20
  C 442.36 461.11 433.88 467.12 433.99 477.00
  C 434.23 499.20 433.95 526.10 434.08 552.00
  Q 434.28 592.09 434.23 632.18
  C 434.21 640.32 434.87 645.37 441.94 649.21
  Q 442.50 649.52 442.02 649.94
  Q 438.82 652.76 434.18 652.53
  C 427.32 645.83 427.74 640.01 427.74 629.43
  Q 427.71 552.71 427.75 476.00
  C 427.76 465.78 434.31 457.90 444.86 457.30
  Z"
/>
<path fill="#ffffff" d="
  M 129.54 458.05
  L 138.50 458.67
  A 1.53 1.52 -25.1 0 1 139.28 458.95
  Q 143.65 462.08 144.43 466.61
  C 144.62 487.02 144.23 507.39 144.51 527.69
  C 144.63 536.55 142.11 542.88 133.10 546.35
  Q 109.43 546.44 85.36 546.29
  Q 78.43 546.24 75.35 544.83
  C 69.07 541.94 66.56 535.36 66.61 528.50
  Q 66.79 501.00 66.71 473.49
  Q 66.68 463.07 76.70 458.88
  Q 78.98 457.92 84.99 457.89
  Q 107.26 457.80 129.54 458.05
  Z
  M 131.9411 488.0193
  A 7.18 7.18 0.0 0 0 124.7988 480.8018
  L 93.5792 480.6384
  A 7.18 7.18 0.0 0 0 86.3617 487.7807
  L 86.3589 488.3207
  A 7.18 7.18 0.0 0 0 93.5012 495.5382
  L 124.7208 495.7016
  A 7.18 7.18 0.0 0 0 131.9383 488.5593
  L 131.9411 488.0193
  Z
  M 131.9015 514.8795
  A 7.28 7.28 0.0 0 0 124.6470 507.5741
  L 93.6872 507.4660
  A 7.28 7.28 0.0 0 0 86.3818 514.7206
  L 86.3785 515.6805
  A 7.28 7.28 0.0 0 0 93.6330 522.9859
  L 124.5928 523.0940
  A 7.28 7.28 0.0 0 0 131.8982 515.8394
  L 131.9015 514.8795
  Z"
/>
<path fill="#bac5c8" d="
  M 129.54 458.05
  C 139.10 457.98 147.27 456.30 153.56 466.10
  L 145.68 464.83
  A 0.80 0.80 0.0 0 0 144.87 465.22
  Q 144.39 466.06 144.43 466.61
  Q 143.65 462.08 139.28 458.95
  A 1.53 1.52 -25.1 0 0 138.50 458.67
  L 129.54 458.05
  Z"
/>
<path fill="#ffffff" d="
  M 244.78 458.01
  C 250.46 458.58 256.09 458.51 256.81 465.68
  Q 256.95 498.25 257.00 530.75
  Q 257.02 542.24 245.31 546.41
  Q 221.24 546.40 196.69 546.28
  Q 190.21 546.25 187.03 544.84
  C 178.83 541.21 178.34 534.39 178.35 525.55
  Q 178.37 502.28 178.29 479.00
  C 178.26 470.73 178.67 463.29 187.01 459.48
  Q 190.17 458.04 197.20 458.01
  Q 221.01 457.90 244.78 458.01
  Z
  M 245.1308 487.9513
  A 7.29 7.29 0.0 0 0 237.8663 480.6359
  L 205.8865 480.5242
  A 7.29 7.29 0.0 0 0 198.5710 487.7887
  L 198.5692 488.3087
  A 7.29 7.29 0.0 0 0 205.8337 495.6241
  L 237.8135 495.7358
  A 7.29 7.29 0.0 0 0 245.1290 488.4713
  L 245.1308 487.9513
  Z
  M 245.0312 515.0510
  A 7.27 7.27 0.0 0 0 237.7866 507.7557
  L 205.9068 507.6444
  A 7.27 7.27 0.0 0 0 198.6115 514.8890
  L 198.6088 515.6490
  A 7.27 7.27 0.0 0 0 205.8534 522.9443
  L 237.7332 523.0556
  A 7.27 7.27 0.0 0 0 245.0285 515.8110
  L 245.0312 515.0510
  Z"
/>
<path fill="#bac5c8" d="
  M 244.78 458.01
  C 254.50 458.07 261.15 457.69 266.74 466.43
  Q 265.48 466.61 263.89 466.13
  Q 263.29 465.94 262.79 465.43
  Q 262.18 464.78 261.44 464.25
  Q 261.04 463.96 260.55 463.92
  L 258.27 463.75
  Q 257.80 463.71 257.53 464.11
  Q 257.05 464.84 256.81 465.68
  C 256.09 458.51 250.46 458.58 244.78 458.01
  Z"
/>
<path fill="#8699a3" d="
  M 497.98 465.73
  Q 497.94 514.56 497.99 563.50
  Q 498.01 576.00 497.92 588.50
  C 497.81 603.17 498.18 618.82 498.02 634.01
  Q 497.96 639.84 496.85 642.34
  C 495.00 646.51 490.68 649.90 485.99 650.49
  Q 485.71 650.52 480.99 650.56
  Q 463.39 650.68 446.01 650.01
  A 1.12 1.11 7.0 0 0 444.87 650.90
  Q 444.16 654.37 444.62 658.19
  C 440.92 657.77 436.07 656.03 434.18 652.53
  Q 438.82 652.76 442.02 649.94
  Q 442.50 649.52 441.94 649.21
  C 434.87 645.37 434.21 640.32 434.23 632.18
  Q 434.28 592.09 434.08 552.00
  C 433.95 526.10 434.23 499.20 433.99 477.00
  C 433.88 467.12 442.36 461.11 451.50 461.20
  Q 470.01 461.37 488.50 461.19
  C 491.25 461.16 494.31 463.06 496.16 465.47
  Q 497.20 466.82 497.98 465.73
  Z
  M 490.5002 496.8601
  A 5.35 5.35 0.0 0 0 485.1596 491.5008
  L 449.8596 491.4392
  A 5.35 5.35 0.0 0 0 444.5003 496.7799
  L 444.4998 497.0799
  A 5.35 5.35 0.0 0 0 449.8404 502.4392
  L 485.1404 502.5008
  A 5.35 5.35 0.0 0 0 490.4997 497.1601
  L 490.5002 496.8601
  Z
  M 490.9993 610.0693
  A 5.34 5.34 0.0 0 0 485.6500 604.7386
  L 449.6500 604.8014
  A 5.34 5.34 0.0 0 0 444.3194 610.1507
  L 444.3207 610.9107
  A 5.34 5.34 0.0 0 0 449.6700 616.2414
  L 485.6700 616.1786
  A 5.34 5.34 0.0 0 0 491.0006 610.8293
  L 490.9993 610.0693
  Z"
/>
<path fill="#8699a3" d="
  M 266.74 466.43
  Q 268.48 468.67 268.53 472.25
  Q 268.95 500.87 268.62 529.50
  C 268.60 531.70 268.68 534.07 268.07 536.12
  C 264.64 547.68 255.31 546.92 245.31 546.41
  Q 257.02 542.24 257.00 530.75
  Q 256.95 498.25 256.81 465.68
  Q 257.05 464.84 257.53 464.11
  Q 257.80 463.71 258.27 463.75
  L 260.55 463.92
  Q 261.04 463.96 261.44 464.25
  Q 262.18 464.78 262.79 465.43
  Q 263.29 465.94 263.89 466.13
  Q 265.48 466.61 266.74 466.43
  Z"
/>
<path fill="#8699a3" d="
  M 153.56 466.10
  Q 155.30 467.92 155.38 472.63
  Q 155.89 501.06 155.71 529.50
  C 155.65 538.17 152.31 544.57 143.50 546.54
  Q 141.12 547.07 133.10 546.35
  C 142.11 542.88 144.63 536.55 144.51 527.69
  C 144.23 507.39 144.62 487.02 144.43 466.61
  Q 144.39 466.06 144.87 465.22
  A 0.80 0.80 0.0 0 1 145.68 464.83
  L 153.56 466.10
  Z"
/>
<rect fill="#062a3d" x="-23.28" y="-7.55" transform="translate(221.85,488.13) rotate(0.2)" width="46.56" height="15.10" rx="7.29"/>
<rect fill="#062a3d" x="-22.79" y="-7.45" transform="translate(109.15,488.17) rotate(0.3)" width="45.58" height="14.90" rx="7.18"/>
<rect fill="#ffffff" x="-23.00" y="-5.50" transform="translate(467.50,496.97) rotate(0.1)" width="46.00" height="11.00" rx="5.35"/>
<rect fill="#062a3d" x="-22.76" y="-7.76" transform="translate(109.14,515.28) rotate(0.2)" width="45.52" height="15.52" rx="7.28"/>
<rect fill="#062a3d" x="-23.21" y="-7.65" transform="translate(221.82,515.35) rotate(0.2)" width="46.42" height="15.30" rx="7.27"/>
<path fill="#ffffff" d="
  M 267.41 578.58
  Q 264.15 575.72 260.97 574.20
  C 259.63 573.56 258.28 571.91 256.15 572.13
  Q 255.63 572.18 255.56 572.70
  Q 255.36 574.19 256.22 575.27
  A 1.89 1.85 -65.6 0 1 256.62 576.37
  C 257.14 595.66 256.98 614.94 257.04 634.25
  C 257.06 641.94 256.83 648.14 251.27 653.21
  C 249.01 655.27 245.98 655.86 243.06 656.84
  Q 240.50 657.70 238.07 657.97
  Q 235.53 658.25 232.94 658.41
  Q 219.05 658.40 205.13 658.39
  C 193.27 658.38 183.85 659.56 179.68 648.65
  Q 178.29 645.01 178.26 636.67
  Q 178.18 612.30 178.35 587.92
  Q 178.40 580.96 179.87 577.82
  C 182.71 571.71 187.66 569.70 194.49 569.71
  C 214.28 569.74 234.15 569.35 253.91 569.81
  C 260.50 569.96 264.60 572.80 267.41 578.58
  Z
  M 245.0813 599.9318
  A 7.20 7.20 0.0 0 0 237.9317 592.6817
  L 205.9925 592.4587
  A 7.20 7.20 0.0 0 0 198.7424 599.6083
  L 198.7387 600.1282
  A 7.20 7.20 0.0 0 0 205.8883 607.3783
  L 237.8275 607.6013
  A 7.20 7.20 0.0 0 0 245.0776 600.4517
  L 245.0813 599.9318
  Z
  M 245.1619 627.1516
  A 7.39 7.39 0.0 0 0 237.8107 619.7230
  L 206.1311 619.5572
  A 7.39 7.39 0.0 0 0 198.7025 626.9084
  L 198.6981 627.7484
  A 7.39 7.39 0.0 0 0 206.0493 635.1770
  L 237.7289 635.3428
  A 7.39 7.39 0.0 0 0 245.1575 627.9916
  L 245.1619 627.1516
  Z"
/>
<path fill="#ffffff" d="
  M 155.25 579.15
  Q 153.74 578.23 152.78 577.54
  C 150.89 576.19 149.37 576.09 147.23 575.84
  Q 144.27 575.51 144.36 578.37
  C 144.99 599.40 144.49 620.47 144.51 641.51
  Q 144.52 653.94 132.88 658.42
  Q 111.49 658.55 89.93 658.38
  Q 81.41 658.31 77.77 656.76
  C 69.33 653.18 66.35 644.11 66.43 635.25
  Q 66.62 611.02 66.68 586.78
  Q 66.70 580.90 68.07 577.93
  C 71.28 571.03 76.86 569.73 84.50 569.73
  Q 112.60 569.72 140.68 569.78
  Q 144.69 569.79 147.01 571.05
  Q 151.53 573.50 155.25 579.15
  Z
  M 131.9613 599.8597
  A 7.33 7.33 0.0 0 0 124.6827 592.4787
  L 93.5834 592.2616
  A 7.33 7.33 0.0 0 0 86.2024 599.5403
  L 86.1987 600.0803
  A 7.33 7.33 0.0 0 0 93.4773 607.4613
  L 124.5766 607.6784
  A 7.33 7.33 0.0 0 0 131.9576 600.3997
  L 131.9613 599.8597
  Z
  M 131.8724 627.0691
  A 7.27 7.27 0.0 0 0 124.6405 619.7612
  L 93.6809 619.5991
  A 7.27 7.27 0.0 0 0 86.3730 626.8309
  L 86.3676 627.8509
  A 7.27 7.27 0.0 0 0 93.5995 635.1588
  L 124.5591 635.3209
  A 7.27 7.27 0.0 0 0 131.8670 628.0891
  L 131.8724 627.0691
  Z"
/>
<path fill="#8699a3" d="
  M 267.41 578.58
  Q 268.33 580.59 268.39 586.37
  Q 268.69 613.56 268.49 640.75
  C 268.41 651.48 262.75 658.73 251.67 658.74
  Q 242.31 658.74 232.94 658.41
  Q 235.53 658.25 238.07 657.97
  Q 240.50 657.70 243.06 656.84
  C 245.98 655.86 249.01 655.27 251.27 653.21
  C 256.83 648.14 257.06 641.94 257.04 634.25
  C 256.98 614.94 257.14 595.66 256.62 576.37
  A 1.89 1.85 -65.6 0 0 256.22 575.27
  Q 255.36 574.19 255.56 572.70
  Q 255.63 572.18 256.15 572.13
  C 258.28 571.91 259.63 573.56 260.97 574.20
  Q 264.15 575.72 267.41 578.58
  Z"
/>
<path fill="#8699a3" d="
  M 155.25 579.15
  Q 155.86 608.11 155.64 638.25
  C 155.62 641.21 155.76 644.51 155.06 647.20
  C 152.33 657.82 143.19 659.64 132.88 658.42
  Q 144.52 653.94 144.51 641.51
  C 144.49 620.47 144.99 599.40 144.36 578.37
  Q 144.27 575.51 147.23 575.84
  C 149.37 576.09 150.89 576.19 152.78 577.54
  Q 153.74 578.23 155.25 579.15
  Z"
/>
<rect fill="#062a3d" x="-22.88" y="-7.60" transform="translate(109.08,599.97) rotate(0.4)" width="45.76" height="15.20" rx="7.33"/>
<rect fill="#062a3d" x="-23.17" y="-7.46" transform="translate(221.91,600.03) rotate(0.4)" width="46.34" height="14.92" rx="7.20"/>
<rect fill="#ffffff" x="-23.34" y="-5.72" transform="translate(467.66,610.49) rotate(-0.1)" width="46.68" height="11.44" rx="5.34"/>
<rect fill="#062a3d" x="-23.23" y="-7.81" transform="translate(221.93,627.45) rotate(0.3)" width="46.46" height="15.62" rx="7.39"/>
<rect fill="#062a3d" x="-22.75" y="-7.78" transform="translate(109.12,627.46) rotate(0.3)" width="45.50" height="15.56" rx="7.27"/>
<path fill="#bac5c8" d="
  M 33.81 659.27
  C 46.75 674.41 60.42 685.97 80.24 690.50
  Q 84.64 691.50 95.50 691.51
  Q 170.25 691.57 244.99 691.60
  C 258.83 691.61 275.91 691.06 287.50 691.23
  Q 299.31 691.42 311.15 691.18
  A 1.43 1.42 -0.0 0 0 312.55 689.79
  L 312.97 671.79
  L 313.01 708.68
  A 0.65 0.65 0.0 0 1 311.88 709.12
  C 310.15 707.24 308.83 706.24 306.09 706.24
  Q 203.79 706.11 101.50 706.21
  C 72.99 706.24 46.70 685.50 34.30 660.98
  Q 33.95 660.29 33.81 659.27
  Z"
/>
<path fill="#ffffff" d="
  M 495.60 681.80
  Q 490.57 685.82 488.78 687.07
  C 483.71 690.62 478.93 691.26 472.17 691.28
  Q 457.71 691.32 443.26 691.48
  Q 434.02 691.59 431.06 699.50
  Q 428.96 705.11 427.87 706.89
  C 427.66 701.65 426.67 693.18 429.27 688.84
  C 432.29 683.81 438.03 682.14 443.75 682.11
  Q 467.37 681.99 491.00 682.04
  Q 492.79 682.05 495.60 681.80
  Z"
/>
<path fill="#3c5b6e" d="
  M 398.97 690.97
  L 399.04 703.57
  Q 399.06 706.44 396.19 706.45
  Q 370.44 706.54 344.75 706.46
  Q 342.91 706.45 341.17 705.70
  C 344.21 701.63 343.99 696.44 344.27 691.80
  A 0.95 0.94 1.6 0 1 345.22 690.91
  L 398.97 690.97
  Z"
/>
</svg>
