<?xml version="1.0" encoding="UTF-8" standalone="no"?>
<!DOCTYPE svg PUBLIC "-//W3C//DTD SVG 1.1//EN" "http://www.w3.org/Graphics/SVG/1.1/DTD/svg11.dtd">
<svg xmlns="http://www.w3.org/2000/svg" version="1.1" viewBox="0.00 0.00 160.00 206.00">
<path fill="#808080" d="
  M 0.00 0.00
  L 6.81 0.00
  L 6.93 7.30
  L 6.81 7.71
  L 6.41 7.90
  L 0.73 7.77
  L 0.00 7.62
  L 0.00 0.00
  Z"
/>
<path fill="#cccccc" d="
  M 6.81 0.00
  L 15.10 0.00
  L 15.25 3.09
  L 7.68 8.43
  L 1.88 16.27
  L 1.76 16.45
  L 0.97 18.53
  L 0.66 19.57
  L 0.57 19.68
  L 0.26 19.45
  L 0.28 19.34
  L 0.00 15.90
  L 0.00 7.62
  L 0.73 7.77
  L 6.41 7.90
  L 6.81 7.71
  L 6.93 7.30
  L 6.81 0.00
  Z"
/>
<path fill="#808080" d="
  M 15.10 0.00
  L 22.25 0.00
  L 23.83 0.28
  L 24.44 0.48
  L 23.82 0.65
  L 19.53 1.47
  L 15.25 3.09
  L 15.10 0.00
  Z"
/>
<path fill="#062a3d" d="
  M 22.25 0.00
  L 138.87 0.00
  L 136.55 0.41
  L 136.43 0.54
  L 136.43 0.55
  L 136.46 0.64
  L 136.56 0.68
  L 139.22 0.98
  L 143.16 2.21
  L 150.76 7.14
  L 151.70 8.17
  L 151.80 8.22
  L 157.80 16.53
  L 159.57 21.29
  L 159.62 21.34
  L 159.77 21.23
  L 159.57 18.39
  L 160.00 15.82
  L 160.00 183.95
  L 159.87 183.96
  L 159.87 183.96
  L 159.02 185.02
  L 158.52 187.74
  L 157.33 189.22
  L 156.13 191.62
  L 150.65 198.19
  L 149.25 199.44
  L 142.75 203.46
  L 136.21 205.37
  L 127.13 205.25
  L 126.99 205.30
  L 126.94 205.42
  L 126.94 205.42
  L 126.98 205.56
  L 127.11 205.61
  L 136.21 205.73
  L 141.14 206.00
  L 23.40 206.00
  L 14.79 202.10
  L 11.51 199.81
  L 7.19 195.89
  L 4.10 191.91
  L 1.14 186.55
  L 0.63 185.01
  L 0.51 184.84
  L 0.32 184.93
  L 0.00 185.44
  L 0.00 15.90
  L 0.28 19.34
  L 0.26 19.45
  L 0.57 19.68
  L 0.66 19.57
  L 0.97 18.53
  L 1.76 16.45
  L 1.88 16.27
  L 7.68 8.43
  L 15.25 3.09
  L 19.53 1.47
  L 23.82 0.65
  L 24.44 0.48
  L 23.83 0.28
  L 22.25 0.00
  Z
  M 19.06 8.45
  L 13.85 12.05
  L 9.89 16.50
  L 7.28 21.51
  L 6.30 25.65
  L 5.96 31.15
  L 5.94 101.93
  L 5.91 176.25
  L 6.48 180.84
  L 8.99 186.43
  L 12.30 191.30
  L 16.43 194.99
  L 20.99 197.36
  L 25.79 198.42
  L 32.72 198.77
  L 64.14 198.75
  L 85.08 198.76
  L 85.59 198.83
  L 86.07 199.06
  L 86.45 199.31
  L 86.88 199.43
  L 87.03 199.00
  L 87.00 194.14
  L 87.03 104.75
  L 87.52 100.72
  L 89.00 97.33
  L 89.00 97.33
  L 90.75 95.22
  L 93.06 93.47
  L 95.73 92.30
  L 98.67 91.70
  L 106.77 91.80
  L 110.61 92.80
  L 112.66 94.24
  L 115.08 96.82
  L 115.30 97.07
  L 115.71 97.30
  L 116.07 97.01
  L 118.56 94.19
  L 121.04 92.70
  L 124.40 91.72
  L 133.45 91.55
  L 136.45 91.68
  L 141.61 92.75
  L 143.96 94.26
  L 146.17 96.48
  L 148.06 99.55
  L 148.95 102.73
  L 148.95 102.73
  L 149.02 104.00
  L 149.00 172.09
  L 148.21 181.35
  L 147.12 184.57
  L 145.37 187.33
  L 142.32 189.92
  L 137.94 191.82
  L 123.50 191.83
  L 121.52 192.17
  L 120.13 193.07
  L 120.13 193.07
  L 120.13 193.07
  L 119.24 194.85
  L 119.18 197.40
  L 119.13 197.49
  L 119.40 199.27
  L 119.72 199.59
  L 120.18 199.54
  L 120.49 199.40
  L 122.26 198.79
  L 122.67 198.77
  L 124.91 198.81
  L 133.59 198.60
  L 139.58 197.11
  L 143.94 194.69
  L 147.55 191.58
  L 150.40 187.80
  L 152.51 183.34
  L 153.46 179.25
  L 153.78 173.99
  L 153.75 31.72
  L 153.12 23.34
  L 150.90 17.95
  L 146.88 12.81
  L 141.56 8.65
  L 135.62 5.88
  L 130.12 4.82
  L 122.22 4.47
  L 38.25 4.38
  L 29.38 4.78
  L 22.83 6.48
  L 19.06 8.45
  Z
  M 93.79 194.58
  L 93.80 198.25
  L 93.94 198.68
  L 94.32 198.85
  L 94.72 198.83
  L 95.33 198.26
  L 95.89 198.88
  L 95.91 198.88
  L 110.49 198.99
  L 111.17 198.48
  L 111.61 196.09
  L 111.39 194.03
  L 111.35 103.50
  L 111.00 101.10
  L 109.96 99.49
  L 109.96 99.49
  L 108.39 98.70
  L 102.25 97.96
  L 98.25 98.19
  L 96.26 98.96
  L 94.84 100.18
  L 94.84 100.18
  L 94.84 100.18
  L 93.97 101.86
  L 93.67 104.00
  L 93.79 194.58
  Z
  M 122.42 121.45
  L 123.95 122.00
  L 124.51 122.00
  L 132.49 122.67
  L 139.53 121.85
  L 141.35 120.43
  L 142.12 118.06
  L 142.37 102.58
  L 142.01 100.64
  L 141.11 99.30
  L 141.11 99.30
  L 138.24 98.44
  L 124.36 98.11
  L 122.42 98.45
  L 120.77 99.51
  L 119.64 101.12
  L 119.23 103.04
  L 119.23 103.04
  L 119.23 103.08
  L 119.22 116.50
  L 120.21 119.84
  L 122.42 121.45
  Z
  M 121.20 183.56
  L 121.93 184.42
  L 124.14 185.11
  L 131.00 185.39
  L 137.99 184.99
  L 140.56 184.01
  L 142.21 180.99
  L 142.42 175.60
  L 142.37 173.64
  L 142.34 133.75
  L 141.49 130.83
  L 141.49 130.83
  L 139.94 129.53
  L 137.59 128.80
  L 124.17 128.59
  L 122.29 128.94
  L 120.68 129.98
  L 119.60 131.57
  L 119.21 133.44
  L 119.21 133.44
  L 119.21 133.47
  L 119.21 178.25
  L 119.63 181.17
  L 120.89 183.27
  L 120.89 183.27
  L 121.20 183.56
  Z
  M 30.14 205.38
  L 33.04 205.51
  L 39.10 205.55
  L 39.13 205.53
  L 39.13 205.50
  L 39.12 205.45
  L 39.09 205.37
  L 39.00 205.34
  L 37.03 205.34
  L 30.12 205.39
  L 30.12 205.38
  L 30.12 205.38
  L 30.14 205.38
  Z
  M 55.32 205.52
  L 55.26 205.32
  L 55.25 205.32
  L 47.00 205.32
  L 46.98 205.32
  L 46.93 205.50
  L 46.93 205.51
  L 46.96 205.60
  L 47.06 205.64
  L 55.16 205.67
  L 55.27 205.63
  L 55.32 205.52
  L 55.32 205.52
  Z
  M 87.60 205.49
  L 87.44 205.65
  L 62.78 205.65
  L 62.62 205.49
  L 62.62 205.49
  L 62.78 205.33
  L 87.44 205.33
  L 87.60 205.49
  L 87.60 205.49
  Z
  M 102.26 205.33
  L 95.80 205.40
  L 95.33 205.47
  L 95.80 205.57
  L 102.27 205.55
  L 103.03 205.40
  L 102.26 205.33
  Z
  M 119.2399 205.5113
  L 115.1810 205.2900
  L 111.1201 205.4687
  L 115.1790 205.6900
  L 119.2399 205.5113
  Z"
/>
<path fill="#cccccc" d="
  M 138.87 0.00
  L 143.04 0.00
  L 143.16 2.21
  L 139.22 0.98
  L 136.56 0.68
  L 136.46 0.64
  L 136.43 0.55
  L 136.43 0.54
  L 136.55 0.41
  L 138.87 0.00
  Z"
/>
<path fill="#808080" d="
  M 143.04 0.00
  L 150.87 0.00
  L 150.76 7.14
  L 143.16 2.21
  L 143.04 0.00
  Z"
/>
<path fill="#cccccc" d="
  M 150.87 0.00
  L 159.67 0.00
  L 159.47 4.33
  L 160.00 8.43
  L 160.00 15.82
  L 159.57 18.39
  L 159.77 21.23
  L 159.62 21.34
  L 159.57 21.29
  L 157.80 16.53
  L 157.94 16.33
  L 159.08 12.96
  L 158.73 8.60
  L 157.99 8.03
  L 151.80 8.22
  L 151.70 8.17
  L 150.76 7.14
  L 150.87 0.00
  Z"
/>
<path fill="#062a3d" d="
  M 159.67 0.00
  L 160.00 0.00
  L 160.00 8.43
  L 159.47 4.33
  L 159.67 0.00
  Z"
/>
<path fill="#bac5c8" d="
  M 119.18 197.40
  L 121.52 195.37
  L 124.39 194.55
  L 126.71 194.56
  L 134.01 194.14
  L 136.18 193.37
  L 137.81 192.00
  L 137.94 191.82
  L 142.32 189.92
  L 145.37 187.33
  L 147.12 184.57
  L 148.21 181.35
  L 149.00 172.09
  L 149.02 104.00
  L 148.95 102.73
  L 148.06 99.55
  L 146.17 96.48
  L 146.04 73.51
  L 148.45 69.65
  L 149.24 65.25
  L 149.27 26.70
  L 148.34 20.17
  L 145.50 14.84
  L 142.65 12.17
  L 138.94 10.13
  L 134.42 9.05
  L 127.84 8.69
  L 27.25 8.68
  L 23.11 9.56
  L 22.60 8.83
  L 21.75 8.67
  L 19.06 8.45
  L 22.83 6.48
  L 29.38 4.78
  L 38.25 4.38
  L 122.22 4.47
  L 130.12 4.82
  L 135.62 5.88
  L 141.56 8.65
  L 146.88 12.81
  L 150.90 17.95
  L 153.12 23.34
  L 153.75 31.72
  L 153.78 173.99
  L 153.46 179.25
  L 152.51 183.34
  L 150.40 187.80
  L 147.55 191.58
  L 147.55 191.58
  L 143.94 194.69
  L 139.58 197.11
  L 133.59 198.60
  L 124.91 198.81
  L 122.67 198.77
  L 122.26 198.79
  L 120.49 199.40
  L 120.18 199.54
  L 119.72 199.59
  L 119.40 199.27
  L 119.13 197.49
  L 119.18 197.40
  Z"
/>
<path fill="#808080" d="
  M 157.80 16.53
  L 151.80 8.22
  L 157.99 8.03
  L 158.73 8.60
  L 159.08 12.96
  L 157.94 16.33
  L 157.94 16.33
  L 157.80 16.53
  Z"
/>
<path fill="#ffffff" d="
  M 19.06 8.45
  L 21.75 8.67
  L 22.60 8.83
  L 23.11 9.56
  L 18.88 11.40
  L 15.40 14.02
  L 11.92 18.70
  L 9.76 21.47
  L 8.55 24.47
  L 8.25 27.00
  L 8.28 63.75
  L 9.02 67.69
  L 10.36 70.03
  L 12.38 72.10
  L 14.88 74.67
  L 14.88 74.67
  L 18.29 76.31
  L 22.50 76.85
  L 138.00 76.90
  L 142.75 75.94
  L 146.04 73.51
  L 146.17 96.48
  L 143.96 94.26
  L 141.61 92.75
  L 136.45 91.68
  L 133.45 91.55
  L 124.40 91.72
  L 121.04 92.70
  L 118.56 94.19
  L 116.07 97.01
  L 115.71 97.30
  L 115.30 97.07
  L 115.08 96.82
  L 112.66 94.24
  L 110.61 92.80
  L 106.77 91.80
  L 98.67 91.70
  L 95.73 92.30
  L 93.06 93.47
  L 90.75 95.22
  L 89.00 97.33
  L 89.00 97.33
  L 87.52 100.72
  L 87.03 104.75
  L 87.00 194.14
  L 24.25 194.21
  L 19.80 193.53
  L 16.45 191.97
  L 12.47 189.07
  L 8.99 186.43
  L 6.48 180.84
  L 5.91 176.25
  L 5.94 101.93
  L 5.96 31.15
  L 6.30 25.65
  L 7.28 21.51
  L 9.89 16.50
  L 13.85 12.05
  L 19.06 8.45
  Z
  M 18.26 81.98
  L 16.56 82.67
  L 15.90 84.05
  L 16.24 85.56
  L 17.17 86.41
  L 18.72 86.76
  L 38.03 86.76
  L 39.90 86.35
  L 40.96 85.27
  L 41.07 84.12
  L 40.46 82.72
  L 40.56 82.48
  L 41.11 82.11
  L 47.90 82.08
  L 48.21 82.21
  L 48.36 82.52
  L 48.28 82.69
  L 47.69 84.14
  L 47.78 85.24
  L 48.84 86.29
  L 50.66 86.84
  L 57.18 86.88
  L 58.13 86.82
  L 59.86 86.45
  L 60.86 85.55
  L 61.06 84.29
  L 60.46 82.68
  L 60.61 82.34
  L 60.76 82.15
  L 61.30 81.97
  L 68.81 82.07
  L 67.61 84.34
  L 67.99 85.77
  L 69.72 86.79
  L 91.25 86.80
  L 91.38 86.80
  L 92.87 85.98
  L 93.33 84.27
  L 92.41 82.09
  L 101.05 82.10
  L 100.20 83.51
  L 100.06 83.95
  L 100.47 85.77
  L 101.55 86.53
  L 103.12 86.78
  L 104.90 86.84
  L 109.87 86.85
  L 112.53 86.23
  L 113.38 85.32
  L 113.39 83.91
  L 112.42 82.09
  L 120.30 81.90
  L 120.79 82.03
  L 120.97 82.23
  L 121.06 82.49
  L 120.15 84.60
  L 121.25 86.42
  L 121.66 86.66
  L 122.12 86.74
  L 141.43 86.75
  L 143.50 86.17
  L 144.44 84.89
  L 144.42 83.71
  L 143.76 82.69
  L 141.58 82.05
  L 140.76 79.82
  L 138.27 79.01
  L 21.25 79.01
  L 19.50 79.51
  L 18.26 81.98
  Z
  M 81.27 104.36
  L 80.28 99.39
  L 77.47 95.18
  L 73.26 92.37
  L 68.29 91.38
  L 24.03 91.38
  L 19.06 92.37
  L 14.85 95.18
  L 12.04 99.39
  L 11.05 104.36
  L 11.05 178.84
  L 12.04 183.81
  L 14.85 188.02
  L 19.06 190.83
  L 24.03 191.82
  L 68.29 191.82
  L 73.26 190.83
  L 77.47 188.02
  L 80.28 183.81
  L 81.27 178.84
  L 81.27 104.36
  Z"
/>
<path fill="#062a3d" d="
  M 146.04 73.51
  L 142.75 75.94
  L 138.00 76.90
  L 22.50 76.85
  L 18.29 76.31
  L 14.88 74.67
  L 12.38 72.10
  L 12.16 71.23
  L 11.02 64.25
  L 11.00 44.69
  L 11.02 25.13
  L 11.46 21.89
  L 11.92 18.70
  L 15.40 14.02
  L 18.88 11.40
  L 23.11 9.56
  L 27.25 8.68
  L 127.84 8.69
  L 134.42 9.05
  L 138.94 10.13
  L 142.65 12.17
  L 145.50 14.84
  L 148.34 20.17
  L 149.27 26.70
  L 149.24 65.25
  L 148.45 69.65
  L 146.04 73.51
  Z
  M 38.45 16.00
  L 26.15 16.00
  L 22.80 16.60
  L 20.39 18.03
  L 18.36 21.38
  L 17.75 26.09
  L 17.74 38.56
  L 17.77 63.49
  L 18.09 67.01
  L 19.13 68.96
  L 20.65 69.82
  L 23.00 70.11
  L 129.89 70.15
  L 137.49 70.15
  L 139.90 69.33
  L 141.66 67.78
  L 142.47 64.99
  L 142.53 29.87
  L 141.98 22.46
  L 141.20 20.13
  L 139.88 18.28
  L 136.90 16.56
  L 132.24 15.94
  L 38.45 16.00
  Z"
/>
<path fill="#bac5c8" d="
  M 129.89 70.15
  L 133.61 68.31
  L 136.44 66.20
  L 136.70 65.94
  L 138.50 62.62
  L 139.03 57.75
  L 138.91 27.01
  L 138.53 24.49
  L 137.53 22.67
  L 134.83 20.97
  L 130.50 20.43
  L 36.70 20.43
  L 34.93 20.23
  L 34.15 19.67
  L 34.15 19.67
  L 34.37 18.73
  L 35.58 17.43
  L 38.45 16.00
  L 132.24 15.94
  L 136.90 16.56
  L 139.88 18.28
  L 141.20 20.13
  L 141.98 22.46
  L 142.53 29.87
  L 142.47 64.99
  L 141.66 67.78
  L 139.90 69.33
  L 137.49 70.15
  L 129.89 70.15
  Z"
/>
<path fill="#ffffff" d="
  M 38.45 16.00
  L 35.58 17.43
  L 34.37 18.73
  L 34.15 19.67
  L 34.15 19.67
  L 34.15 19.67
  L 34.93 20.23
  L 36.70 20.43
  L 130.50 20.43
  L 134.83 20.97
  L 137.53 22.67
  L 138.53 24.49
  L 138.91 27.01
  L 139.03 57.75
  L 138.50 62.62
  L 136.70 65.94
  L 136.44 66.20
  L 133.61 68.31
  L 129.89 70.15
  L 23.00 70.11
  L 20.65 69.82
  L 19.13 68.96
  L 18.09 67.01
  L 17.77 63.49
  L 17.74 38.56
  L 17.75 26.09
  L 18.36 21.38
  L 20.39 18.03
  L 22.80 16.60
  L 26.15 16.00
  L 38.45 16.00
  Z
  M 43.51 44.24
  L 43.46 44.22
  L 43.47 43.95
  L 45.59 41.95
  L 46.65 39.71
  L 46.77 38.75
  L 46.79 38.28
  L 46.58 31.99
  L 44.79 27.96
  L 42.91 26.34
  L 38.46 25.11
  L 30.69 25.01
  L 28.33 25.07
  L 26.71 25.62
  L 26.17 27.24
  L 26.16 61.30
  L 26.76 63.10
  L 28.56 63.72
  L 31.16 63.79
  L 38.43 63.74
  L 42.80 62.71
  L 44.47 61.53
  L 45.83 59.58
  L 46.56 57.22
  L 46.73 49.84
  L 46.70 49.33
  L 46.37 47.08
  L 45.44 45.37
  L 43.51 44.24
  Z
  M 69.10 32.78
  L 69.36 35.31
  L 69.92 36.43
  L 71.09 36.88
  L 74.27 36.89
  L 75.51 36.49
  L 76.01 35.28
  L 75.72 31.19
  L 74.20 28.14
  L 74.20 28.14
  L 74.20 28.14
  L 71.02 25.95
  L 66.27 25.08
  L 61.52 25.50
  L 58.49 27.13
  L 57.24 28.85
  L 56.48 31.05
  L 55.99 37.91
  L 56.03 51.69
  L 56.03 54.45
  L 56.61 58.45
  L 58.39 61.40
  L 60.87 63.01
  L 64.25 63.74
  L 70.24 63.24
  L 72.36 62.33
  L 74.06 60.92
  L 75.57 58.13
  L 76.01 54.23
  L 75.54 52.96
  L 74.26 52.55
  L 71.28 52.56
  L 70.01 52.96
  L 69.39 54.16
  L 69.00 56.44
  L 68.26 57.12
  L 67.58 57.19
  L 64.90 57.29
  L 63.27 56.58
  L 62.58 54.50
  L 62.51 33.66
  L 62.94 32.46
  L 64.02 31.79
  L 66.42 31.60
  L 68.51 32.03
  L 69.10 32.78
  Z
  M 89.61 58.59
  L 89.99 57.85
  L 91.17 57.32
  L 97.07 57.24
  L 98.09 57.58
  L 98.67 58.48
  L 99.62 62.48
  L 100.18 63.37
  L 101.19 63.73
  L 104.78 63.74
  L 105.57 63.54
  L 106.26 62.80
  L 106.38 61.79
  L 98.89 26.33
  L 98.31 25.40
  L 97.27 25.05
  L 91.12 25.18
  L 90.12 25.55
  L 89.57 26.46
  L 81.99 61.76
  L 81.95 62.15
  L 82.43 63.25
  L 83.55 63.72
  L 87.12 63.77
  L 88.15 63.42
  L 88.73 62.51
  L 89.61 58.59
  Z
  M 118.18 58.47
  L 118.74 57.57
  L 119.75 57.22
  L 125.54 57.29
  L 126.52 57.64
  L 127.07 58.51
  L 128.03 62.56
  L 128.60 63.46
  L 129.61 63.79
  L 133.48 63.70
  L 134.49 63.31
  L 135.01 62.35
  L 135.00 61.78
  L 127.37 26.30
  L 127.37 26.27
  L 126.79 25.38
  L 125.80 25.05
  L 119.48 25.13
  L 118.53 25.47
  L 117.97 26.31
  L 117.94 26.41
  L 110.75 61.81
  L 111.03 63.07
  L 112.15 63.71
  L 112.28 63.71
  L 115.68 63.78
  L 115.86 63.77
  L 116.76 63.38
  L 117.26 62.54
  L 118.18 58.47
  Z"
/>
<path fill="#8699a3" d="
  M 11.92 18.70
  L 11.46 21.89
  L 11.02 25.13
  L 11.00 44.69
  L 11.02 64.25
  L 12.16 71.23
  L 12.38 72.10
  L 10.36 70.03
  L 9.02 67.69
  L 8.28 63.75
  L 8.25 27.00
  L 8.55 24.47
  L 9.76 21.47
  L 11.92 18.70
  Z"
/>
<path fill="#062a3d" d="
  M 43.51 44.24
  L 45.44 45.37
  L 46.37 47.08
  L 46.70 49.33
  L 46.73 49.84
  L 46.56 57.22
  L 45.83 59.58
  L 44.47 61.53
  L 42.80 62.71
  L 38.43 63.74
  L 31.16 63.79
  L 28.56 63.72
  L 26.76 63.10
  L 26.16 61.30
  L 26.17 27.24
  L 26.71 25.62
  L 28.33 25.07
  L 30.69 25.01
  L 38.46 25.11
  L 42.91 26.34
  L 44.79 27.96
  L 46.58 31.99
  L 46.79 38.28
  L 46.77 38.75
  L 46.65 39.71
  L 46.65 39.71
  L 45.59 41.95
  L 43.47 43.95
  L 43.46 44.22
  L 43.51 44.24
  Z
  M 32.50 32.84
  L 32.52 39.56
  L 32.92 40.52
  L 33.89 40.92
  L 37.42 40.92
  L 37.42 40.92
  L 39.44 40.07
  L 40.27 38.02
  L 40.27 34.34
  L 39.43 32.30
  L 37.40 31.46
  L 33.87 31.46
  L 32.66 32.20
  L 32.50 32.84
  Z
  M 32.52 48.15
  L 32.50 56.31
  L 32.50 56.37
  L 32.86 57.16
  L 33.66 57.48
  L 37.62 57.49
  L 39.54 56.66
  L 40.34 54.62
  L 40.36 49.88
  L 39.57 47.84
  L 37.66 46.99
  L 37.66 46.99
  L 33.70 46.98
  L 32.87 47.32
  L 32.52 48.15
  Z"
/>
<path fill="#062a3d" d="
  M 68.51 32.03
  L 66.42 31.60
  L 64.02 31.79
  L 62.94 32.46
  L 62.51 33.66
  L 62.58 54.50
  L 63.27 56.58
  L 64.90 57.29
  L 67.58 57.19
  L 68.26 57.12
  L 69.00 56.44
  L 69.39 54.16
  L 70.01 52.96
  L 71.28 52.56
  L 74.26 52.55
  L 75.54 52.96
  L 76.01 54.23
  L 75.57 58.13
  L 74.06 60.92
  L 72.36 62.33
  L 70.24 63.24
  L 64.25 63.74
  L 60.87 63.01
  L 58.39 61.40
  L 56.61 58.45
  L 56.03 54.45
  L 56.03 51.69
  L 55.99 37.91
  L 56.48 31.05
  L 57.24 28.85
  L 58.49 27.13
  L 61.52 25.50
  L 66.27 25.08
  L 71.02 25.95
  L 74.20 28.14
  L 74.20 28.14
  L 74.20 28.14
  L 75.72 31.19
  L 76.01 35.28
  L 75.51 36.49
  L 74.27 36.89
  L 71.09 36.88
  L 69.92 36.43
  L 69.36 35.31
  L 69.10 32.78
  L 68.51 32.03
  Z"
/>
<path fill="#062a3d" d="
  M 89.61 58.59
  L 88.73 62.51
  L 88.35 63.24
  L 87.12 63.77
  L 83.55 63.72
  L 82.30 63.11
  L 81.99 61.76
  L 89.57 26.46
  L 90.06 25.61
  L 91.12 25.18
  L 97.27 25.05
  L 97.65 25.09
  L 98.89 26.33
  L 106.38 61.79
  L 106.05 63.14
  L 104.78 63.74
  L 101.19 63.73
  L 100.18 63.37
  L 99.62 62.48
  L 98.67 58.48
  L 98.09 57.58
  L 97.07 57.24
  L 91.17 57.32
  L 90.17 57.68
  L 89.61 58.59
  Z
  M 93.64 37.30
  L 90.97 50.68
  L 91.15 51.48
  L 91.86 51.89
  L 91.96 51.89
  L 96.47 51.87
  L 97.26 51.59
  L 97.38 50.76
  L 94.70 37.30
  L 94.17 35.97
  L 93.64 37.30
  Z"
/>
<path fill="#062a3d" d="
  M 118.18 58.47
  L 117.26 62.54
  L 116.69 63.44
  L 115.68 63.78
  L 112.28 63.71
  L 111.38 63.41
  L 110.75 61.81
  L 117.94 26.41
  L 118.33 25.65
  L 119.48 25.13
  L 125.80 25.05
  L 126.81 25.39
  L 127.37 26.30
  L 135.00 61.78
  L 134.81 62.93
  L 133.48 63.70
  L 129.61 63.79
  L 129.04 63.70
  L 128.03 62.56
  L 127.07 58.51
  L 126.52 57.64
  L 125.54 57.29
  L 119.75 57.22
  L 118.74 57.57
  L 118.18 58.47
  Z
  M 119.41 51.57
  L 119.73 51.95
  L 125.79 51.93
  L 126.10 51.55
  L 123.02 36.00
  L 122.40 35.98
  L 122.39 36.00
  L 119.41 51.57
  Z"
/>
<path fill="#ffffff" d="
  M 32.50 32.84
  L 32.90 31.87
  L 33.87 31.46
  L 37.40 31.46
  L 39.43 32.30
  L 40.27 34.34
  L 40.27 38.02
  L 39.44 40.07
  L 37.42 40.92
  L 37.42 40.92
  L 33.89 40.92
  L 32.92 40.52
  L 32.52 39.56
  L 32.50 32.84
  Z"
/>
<path fill="#ffffff" d="
  M 119.41 51.57
  L 122.39 36.00
  L 122.66 35.75
  L 123.02 36.00
  L 126.10 51.55
  L 126.09 51.71
  L 125.79 51.93
  L 119.73 51.95
  L 119.60 51.92
  L 119.41 51.57
  Z"
/>
<path fill="#ffffff" d="
  M 93.64 37.30
  L 94.17 35.97
  L 94.70 37.30
  L 97.38 50.76
  L 97.26 51.59
  L 96.47 51.87
  L 91.96 51.89
  L 91.86 51.89
  L 91.15 51.48
  L 90.97 50.68
  L 93.64 37.30
  Z"
/>
<path fill="#ffffff" d="
  M 32.52 48.15
  L 32.74 47.47
  L 33.70 46.98
  L 37.66 46.99
  L 39.57 47.84
  L 40.36 49.88
  L 40.34 54.62
  L 39.54 56.66
  L 37.62 57.49
  L 33.66 57.48
  L 32.84 57.13
  L 32.50 56.31
  L 32.52 48.15
  Z"
/>
<path fill="#bac5c8" d="
  M 141.58 82.05
  L 121.06 82.49
  L 120.97 82.23
  L 120.79 82.03
  L 120.30 81.90
  L 112.42 82.09
  L 101.05 82.10
  L 92.41 82.09
  L 68.81 82.07
  L 61.30 81.97
  L 60.76 82.15
  L 60.61 82.34
  L 60.46 82.68
  L 58.01 82.16
  L 56.54 82.08
  L 51.24 81.97
  L 48.28 82.69
  L 48.36 82.52
  L 48.21 82.21
  L 47.90 82.08
  L 41.11 82.11
  L 40.56 82.48
  L 40.46 82.72
  L 39.25 82.06
  L 18.26 81.98
  L 19.50 79.51
  L 21.25 79.01
  L 138.27 79.01
  L 140.76 79.82
  L 141.58 82.05
  Z"
/>
<path fill="#062a3d" d="
  M 18.26 81.98
  L 39.25 82.06
  L 40.46 82.72
  L 41.07 84.12
  L 40.96 85.27
  L 39.90 86.35
  L 38.03 86.76
  L 18.72 86.76
  L 17.17 86.41
  L 16.24 85.56
  L 15.90 84.05
  L 16.56 82.67
  L 18.26 81.98
  Z"
/>
<path fill="#062a3d" d="
  M 60.46 82.68
  L 61.06 84.29
  L 60.86 85.55
  L 59.86 86.45
  L 58.13 86.82
  L 57.18 86.88
  L 50.61 86.83
  L 48.82 86.28
  L 47.78 85.24
  L 47.69 84.14
  L 48.28 82.69
  L 51.24 81.97
  L 56.54 82.08
  L 58.01 82.16
  L 60.46 82.68
  Z"
/>
<path fill="#062a3d" d="
  M 92.41 82.09
  L 93.33 84.27
  L 92.87 85.98
  L 91.38 86.80
  L 91.25 86.80
  L 69.72 86.79
  L 67.99 85.77
  L 67.61 84.34
  L 68.81 82.07
  L 92.41 82.09
  Z"
/>
<path fill="#062a3d" d="
  M 112.42 82.09
  L 113.39 83.91
  L 113.38 85.32
  L 112.53 86.23
  L 109.87 86.85
  L 104.90 86.84
  L 103.12 86.78
  L 101.55 86.53
  L 100.47 85.77
  L 100.06 83.95
  L 100.20 83.51
  L 101.05 82.10
  L 112.42 82.09
  Z"
/>
<path fill="#062a3d" d="
  M 141.58 82.05
  L 143.76 82.69
  L 144.42 83.71
  L 144.44 84.89
  L 143.50 86.17
  L 141.43 86.75
  L 122.12 86.74
  L 121.66 86.66
  L 121.25 86.42
  L 120.15 84.60
  L 121.06 82.49
  L 141.58 82.05
  Z"
/>
<path fill="#062a3d" d="
  M 81.27 178.84
  L 80.28 183.81
  L 77.47 188.02
  L 73.26 190.83
  L 68.29 191.82
  L 24.03 191.82
  L 19.06 190.83
  L 14.85 188.02
  L 12.04 183.81
  L 11.05 178.84
  L 11.05 104.36
  L 12.04 99.39
  L 14.85 95.18
  L 19.06 92.37
  L 24.03 91.38
  L 68.29 91.38
  L 73.26 92.37
  L 77.47 95.18
  L 80.28 99.39
  L 81.27 104.36
  L 81.27 178.84
  Z
  M 37.14 122.36
  L 39.55 122.34
  L 41.21 121.60
  L 42.50 119.56
  L 42.90 115.88
  L 42.82 103.11
  L 42.55 100.82
  L 41.56 99.12
  L 39.37 98.16
  L 23.00 98.02
  L 20.52 98.43
  L 18.82 99.54
  L 18.82 99.54
  L 18.03 100.93
  L 17.74 102.75
  L 17.78 118.20
  L 18.08 119.99
  L 18.89 121.27
  L 18.89 121.27
  L 18.89 121.27
  L 20.18 122.03
  L 21.96 122.29
  L 37.14 122.36
  Z
  M 68.40 122.36
  L 70.93 122.51
  L 72.81 121.80
  L 74.28 119.84
  L 74.83 116.86
  L 74.78 108.12
  L 74.10 99.64
  L 70.00 97.99
  L 53.58 98.01
  L 51.90 98.35
  L 50.47 99.29
  L 49.49 100.70
  L 49.11 102.37
  L 49.13 117.41
  L 49.47 119.68
  L 50.32 121.13
  L 51.95 122.02
  L 55.06 122.34
  L 68.40 122.36
  Z
  M 37.01 153.72
  L 39.46 153.80
  L 41.15 153.11
  L 42.55 150.93
  L 42.95 147.04
  L 42.89 133.15
  L 42.65 131.36
  L 41.91 130.04
  L 41.91 130.04
  L 40.63 129.19
  L 38.82 128.83
  L 21.92 128.76
  L 19.45 129.54
  L 18.15 131.04
  L 17.68 132.96
  L 17.95 149.23
  L 18.31 151.20
  L 19.21 152.60
  L 19.21 152.60
  L 19.21 152.60
  L 20.60 153.43
  L 22.50 153.73
  L 37.01 153.72
  Z
  M 68.72 153.68
  L 71.26 153.78
  L 73.04 153.05
  L 74.36 151.03
  L 74.75 147.95
  L 74.71 134.24
  L 74.08 130.91
  L 72.77 129.51
  L 70.91 128.97
  L 53.25 128.80
  L 51.26 129.26
  L 49.91 130.25
  L 49.91 130.25
  L 49.11 132.74
  L 49.15 149.82
  L 50.34 152.57
  L 53.12 153.70
  L 68.72 153.68
  Z
  M 36.46 185.23
  L 39.20 185.30
  L 41.15 184.47
  L 42.53 182.35
  L 42.93 179.13
  L 42.84 163.11
  L 42.67 162.45
  L 42.13 162.04
  L 42.06 162.04
  L 40.96 160.84
  L 39.01 160.26
  L 21.57 160.17
  L 18.96 161.24
  L 17.79 163.81
  L 17.64 179.00
  L 18.10 181.89
  L 19.22 183.70
  L 21.78 184.92
  L 26.38 185.23
  L 27.57 185.24
  L 36.46 185.23
  Z
  M 66.67 185.07
  L 70.27 185.44
  L 72.66 184.58
  L 74.32 181.93
  L 74.80 177.12
  L 74.42 162.22
  L 71.25 160.20
  L 54.26 159.90
  L 51.99 160.21
  L 50.38 161.17
  L 50.38 161.17
  L 49.48 162.60
  L 49.11 164.56
  L 49.01 180.24
  L 49.33 182.30
  L 50.23 183.80
  L 50.23 183.80
  L 50.23 183.80
  L 51.61 184.69
  L 53.52 185.08
  L 66.67 185.07
  Z"
/>
<path fill="#ffffff" d="
  M 39.37 98.16
  L 39.37 119.12
  L 38.78 120.63
  L 37.14 122.36
  L 21.96 122.29
  L 20.18 122.03
  L 18.89 121.27
  L 18.89 121.27
  L 18.89 121.27
  L 18.08 119.99
  L 17.78 118.20
  L 17.74 102.75
  L 18.03 100.93
  L 18.82 99.54
  L 18.82 99.54
  L 20.52 98.43
  L 23.00 98.02
  L 39.37 98.16
  Z
  M 36.1503 106.2341
  L 35.5315 104.7177
  L 34.0216 104.0830
  L 25.2617 104.0371
  L 23.7452 104.6560
  L 23.1105 106.1659
  L 23.1097 106.3259
  L 23.7285 107.8423
  L 25.2384 108.4770
  L 33.9983 108.5229
  L 35.5148 107.9040
  L 36.1495 106.3941
  L 36.1503 106.2341
  Z
  M 36.0706 113.5024
  L 35.4781 112.0579
  L 34.0377 111.4553
  L 25.2577 111.4247
  L 23.8132 112.0172
  L 23.2106 113.4576
  L 23.2094 113.7976
  L 23.8019 115.2421
  L 25.2423 115.8447
  L 34.0223 115.8753
  L 35.4668 115.2828
  L 36.0694 113.8424
  L 36.0706 113.5024
  Z"
/>
<path fill="#ffffff" d="
  M 74.10 99.64
  L 71.61 100.07
  L 71.21 100.27
  L 71.08 100.70
  L 71.18 117.26
  L 71.12 118.14
  L 70.27 120.33
  L 68.40 122.36
  L 55.06 122.34
  L 51.95 122.02
  L 50.32 121.13
  L 49.47 119.68
  L 49.13 117.41
  L 49.11 102.37
  L 49.49 100.70
  L 50.47 99.29
  L 51.90 98.35
  L 53.58 98.01
  L 70.00 97.99
  L 74.10 99.64
  Z
  M 67.9297 106.1186
  L 67.3209 104.6559
  L 65.8561 104.0522
  L 56.9161 104.0678
  L 55.4535 104.6766
  L 54.8497 106.1414
  L 54.8503 106.4414
  L 55.4591 107.9041
  L 56.9239 108.5078
  L 65.8639 108.4922
  L 67.3265 107.8834
  L 67.9303 106.4186
  L 67.9297 106.1186
  Z
  M 67.9504 113.6274
  L 67.3398 112.1159
  L 65.8391 111.4789
  L 56.9395 111.4013
  L 55.4279 112.0119
  L 54.7909 113.5126
  L 54.7896 113.6726
  L 55.4002 115.1841
  L 56.9009 115.8211
  L 65.8005 115.8987
  L 67.3121 115.2881
  L 67.9491 113.7874
  L 67.9504 113.6274
  Z"
/>
<path fill="#ffffff" d="
  M 108.39 98.70
  L 104.95 99.74
  L 100.92 99.75
  L 98.67 99.91
  L 96.72 101.33
  L 95.97 104.40
  L 96.00 192.25
  L 95.25 194.39
  L 93.79 194.58
  L 93.67 104.00
  L 93.97 101.86
  L 94.84 100.18
  L 94.84 100.18
  L 96.26 98.96
  L 98.25 98.19
  L 102.25 97.96
  L 108.39 98.70
  Z"
/>
<path fill="#ffffff" d="
  M 138.24 98.44
  L 138.25 98.75
  L 138.56 98.61
  L 138.37 99.03
  L 138.24 99.27
  L 137.95 99.35
  L 134.61 99.23
  L 127.20 99.29
  L 123.96 99.74
  L 122.25 100.73
  L 121.36 102.32
  L 121.04 104.75
  L 121.14 117.01
  L 121.20 117.39
  L 122.54 119.18
  L 122.85 119.54
  L 122.93 119.98
  L 122.42 121.45
  L 120.21 119.84
  L 119.22 116.50
  L 119.23 103.08
  L 119.23 103.04
  L 119.64 101.12
  L 120.77 99.51
  L 122.42 98.45
  L 124.36 98.11
  L 138.24 98.44
  Z"
/>
<path fill="#8699a3" d="
  M 39.37 98.16
  L 41.56 99.12
  L 42.55 100.82
  L 42.82 103.11
  L 42.90 115.88
  L 42.50 119.56
  L 41.21 121.60
  L 39.55 122.34
  L 37.14 122.36
  L 38.78 120.63
  L 39.37 119.12
  L 39.37 98.16
  Z"
/>
<path fill="#8699a3" d="
  M 108.39 98.70
  L 109.96 99.49
  L 109.96 99.49
  L 111.00 101.10
  L 111.35 103.50
  L 111.39 194.03
  L 96.85 194.18
  L 96.40 194.30
  L 96.11 194.67
  L 95.33 198.26
  L 94.72 198.83
  L 94.32 198.85
  L 93.94 198.68
  L 93.80 198.25
  L 93.79 194.58
  L 95.25 194.39
  L 96.00 192.25
  L 95.97 104.40
  L 96.72 101.33
  L 98.67 99.91
  L 100.92 99.75
  L 104.95 99.74
  L 108.39 98.70
  Z"
/>
<path fill="#3c5b6e" d="
  M 138.24 98.44
  L 141.11 99.30
  L 142.01 100.64
  L 142.37 102.58
  L 142.12 118.06
  L 141.35 120.43
  L 139.53 121.85
  L 132.49 122.67
  L 124.51 122.00
  L 124.37 120.99
  L 125.75 120.13
  L 135.70 120.11
  L 135.71 120.11
  L 138.16 119.07
  L 139.15 116.61
  L 139.20 100.85
  L 138.80 99.27
  L 138.56 98.61
  L 138.25 98.75
  L 138.24 98.44
  Z"
/>
<path fill="#8699a3" d="
  M 138.56 98.61
  L 138.80 99.27
  L 139.20 100.85
  L 139.15 116.61
  L 138.16 119.07
  L 135.71 120.11
  L 135.71 120.11
  L 135.70 120.11
  L 125.75 120.13
  L 124.37 120.99
  L 124.51 122.00
  L 123.95 122.00
  L 122.42 121.45
  L 122.93 119.98
  L 122.85 119.54
  L 122.54 119.18
  L 121.20 117.39
  L 121.14 117.01
  L 121.04 104.75
  L 121.36 102.32
  L 122.25 100.73
  L 123.96 99.74
  L 127.20 99.29
  L 134.61 99.23
  L 137.95 99.35
  L 138.24 99.27
  L 138.37 99.03
  L 138.56 98.61
  Z
  M 136.9103 109.2512
  L 136.5224 108.3101
  L 135.5826 107.9189
  L 125.3826 107.9011
  L 124.4415 108.2890
  L 124.0503 109.2288
  L 124.0497 109.5688
  L 124.4376 110.5099
  L 125.3774 110.9011
  L 135.5774 110.9189
  L 136.5185 110.5310
  L 136.9097 109.5912
  L 136.9103 109.2512
  Z"
/>
<path fill="#8699a3" d="
  M 74.10 99.64
  L 74.78 108.12
  L 74.83 116.86
  L 74.28 119.84
  L 72.81 121.80
  L 70.93 122.51
  L 68.40 122.36
  L 70.27 120.33
  L 71.12 118.14
  L 71.12 118.14
  L 71.18 117.26
  L 71.08 100.70
  L 71.21 100.27
  L 71.61 100.07
  L 74.10 99.64
  Z"
/>
<rect fill="#062a3d" x="-6.52" y="-2.22" transform="translate(29.63,106.28) rotate(0.3)" width="13.04" height="4.44" rx="2.14"/>
<rect fill="#062a3d" x="-6.54" y="-2.22" transform="translate(61.39,106.28) rotate(-0.1)" width="13.08" height="4.44" rx="2.07"/>
<rect fill="#ffffff" x="-6.43" y="-1.50" transform="translate(130.48,109.41) rotate(0.1)" width="12.86" height="3.00" rx="1.33"/>
<rect fill="#062a3d" x="-6.43" y="-2.21" transform="translate(29.64,113.65) rotate(0.2)" width="12.86" height="4.42" rx="2.04"/>
<rect fill="#062a3d" x="-6.58" y="-2.21" transform="translate(61.37,113.65) rotate(0.5)" width="13.16" height="4.42" rx="2.13"/>
<path fill="#ffffff" d="
  M 137.59 128.80
  L 139.08 130.84
  L 137.58 130.00
  L 137.23 129.85
  L 136.63 129.72
  L 124.57 129.80
  L 122.80 130.49
  L 121.43 132.36
  L 121.02 134.90
  L 121.07 179.31
  L 121.27 180.44
  L 122.66 182.24
  L 122.91 182.60
  L 122.78 183.00
  L 122.63 183.17
  L 121.20 183.56
  L 120.89 183.27
  L 120.89 183.27
  L 119.63 181.17
  L 119.21 178.25
  L 119.21 133.47
  L 119.21 133.44
  L 119.60 131.57
  L 120.68 129.98
  L 122.29 128.94
  L 124.17 128.59
  L 137.59 128.80
  Z"
/>
<path fill="#ffffff" d="
  M 38.82 128.83
  L 39.66 139.93
  L 39.49 149.76
  L 38.80 151.76
  L 37.01 153.72
  L 22.50 153.73
  L 20.60 153.43
  L 19.21 152.60
  L 18.31 151.20
  L 17.95 149.23
  L 17.68 132.96
  L 18.01 131.35
  L 18.93 129.98
  L 20.30 129.07
  L 21.92 128.76
  L 38.82 128.83
  Z
  M 36.0994 137.1863
  L 35.4796 135.7117
  L 33.9985 135.1073
  L 25.3186 135.1528
  L 23.8440 135.7726
  L 23.2396 137.2537
  L 23.2406 137.4337
  L 23.8604 138.9083
  L 25.3415 139.5127
  L 34.0214 139.4672
  L 35.4960 138.8474
  L 36.1004 137.3663
  L 36.0994 137.1863
  Z
  M 36.0820 144.7995
  L 35.4991 143.3346
  L 34.0510 142.7110
  L 25.3518 142.5895
  L 23.8869 143.1724
  L 23.2633 144.6205
  L 23.2580 145.0005
  L 23.8409 146.4654
  L 25.2890 147.0890
  L 33.9882 147.2105
  L 35.4531 146.6276
  L 36.0767 145.1795
  L 36.0820 144.7995
  Z"
/>
<path fill="#8699a3" d="
  M 38.82 128.83
  L 40.63 129.19
  L 41.91 130.04
  L 41.91 130.04
  L 42.65 131.36
  L 42.89 133.15
  L 42.95 147.04
  L 42.55 150.93
  L 41.15 153.11
  L 39.46 153.80
  L 37.01 153.72
  L 38.80 151.76
  L 39.49 149.76
  L 39.66 139.93
  L 38.82 128.83
  Z"
/>
<path fill="#ffffff" d="
  M 70.91 128.97
  L 71.26 149.76
  L 70.63 151.58
  L 68.72 153.68
  L 53.12 153.70
  L 50.34 152.57
  L 49.15 149.82
  L 49.11 132.74
  L 49.91 130.25
  L 49.91 130.25
  L 51.26 129.26
  L 53.25 128.80
  L 70.91 128.97
  Z
  M 67.96 137.20
  L 67.34 135.71
  L 65.85 135.09
  L 56.93 135.09
  L 55.44 135.71
  L 54.82 137.20
  L 54.82 137.38
  L 55.44 138.87
  L 56.93 139.49
  L 65.85 139.49
  L 67.34 138.87
  L 67.96 137.38
  L 67.96 137.20
  Z
  M 67.9312 144.7757
  L 67.3611 143.3716
  L 65.9651 142.7819
  L 56.8453 142.7182
  L 55.4412 143.2884
  L 54.8516 144.6843
  L 54.8488 145.0843
  L 55.4189 146.4884
  L 56.8149 147.0781
  L 65.9347 147.1418
  L 67.3388 146.5716
  L 67.9284 145.1757
  L 67.9312 144.7757
  Z"
/>
<path fill="#8699a3" d="
  M 70.91 128.97
  L 72.77 129.51
  L 74.08 130.91
  L 74.71 134.24
  L 74.75 147.95
  L 74.36 151.03
  L 73.04 153.05
  L 71.26 153.78
  L 68.72 153.68
  L 70.63 151.58
  L 71.26 149.76
  L 70.91 128.97
  Z"
/>
<path fill="#3c5b6e" d="
  M 137.59 128.80
  L 139.94 129.53
  L 141.49 130.83
  L 141.49 130.83
  L 142.34 133.75
  L 142.37 173.64
  L 142.42 175.60
  L 142.21 180.99
  L 140.56 184.01
  L 137.99 184.99
  L 131.00 185.39
  L 124.14 185.11
  L 124.12 183.49
  L 125.26 183.05
  L 135.43 183.02
  L 137.99 182.03
  L 139.09 179.51
  L 139.09 179.46
  L 139.08 130.84
  L 137.59 128.80
  Z"
/>
<path fill="#8699a3" d="
  M 139.08 130.84
  L 139.09 179.46
  L 139.09 179.51
  L 137.99 182.03
  L 135.43 183.02
  L 125.26 183.05
  L 124.12 183.49
  L 124.14 185.11
  L 121.93 184.42
  L 121.20 183.56
  L 122.63 183.17
  L 122.78 183.00
  L 122.91 182.60
  L 122.66 182.24
  L 121.27 180.44
  L 121.07 179.31
  L 121.02 134.90
  L 121.43 132.36
  L 122.80 130.49
  L 124.57 129.80
  L 136.63 129.72
  L 137.23 129.85
  L 137.58 130.00
  L 139.08 130.84
  Z
  M 136.90 139.74
  L 136.43 138.61
  L 135.30 138.14
  L 125.64 138.14
  L 124.51 138.61
  L 124.04 139.74
  L 124.04 139.84
  L 124.51 140.97
  L 125.64 141.44
  L 135.30 141.44
  L 136.43 140.97
  L 136.90 139.84
  L 136.90 139.74
  Z
  M 137.0189 171.5446
  L 136.5514 170.4376
  L 135.4380 169.9856
  L 125.5583 170.0545
  L 124.4513 170.5221
  L 123.9993 171.6355
  L 124.0011 171.8954
  L 124.4686 173.0024
  L 125.5820 173.4544
  L 135.4617 173.3855
  L 136.5687 172.9179
  L 137.0207 171.8045
  L 137.0189 171.5446
  Z"
/>
<rect fill="#062a3d" x="-6.43" y="-2.18" transform="translate(29.67,137.31) rotate(-0.3)" width="12.86" height="4.36" rx="2.09"/>
<rect fill="#062a3d" x="54.82" y="135.09" width="13.14" height="4.40" rx="2.11"/>
<rect fill="#ffffff" x="124.04" y="138.14" width="12.86" height="3.30" rx="1.60"/>
<rect fill="#062a3d" x="-6.41" y="-2.25" transform="translate(29.67,144.90) rotate(0.8)" width="12.82" height="4.50" rx="2.06"/>
<rect fill="#062a3d" x="-6.54" y="-2.18" transform="translate(61.39,144.93) rotate(0.4)" width="13.08" height="4.36" rx="1.98"/>
<path fill="#ffffff" d="
  M 42.06 162.04
  L 40.08 162.03
  L 39.99 162.06
  L 39.50 162.74
  L 39.49 170.15
  L 39.51 181.26
  L 39.49 181.66
  L 39.49 181.66
  L 38.61 183.52
  L 36.46 185.23
  L 27.57 185.24
  L 26.38 185.23
  L 21.78 184.92
  L 19.22 183.70
  L 18.10 181.89
  L 17.64 179.00
  L 17.79 163.81
  L 18.96 161.24
  L 21.57 160.17
  L 39.01 160.26
  L 40.96 160.84
  L 42.06 162.04
  Z
  M 36.1198 168.6187
  L 35.4933 167.1137
  L 33.9861 166.4924
  L 25.3061 166.5076
  L 23.8011 167.1341
  L 23.1799 168.6413
  L 23.1802 168.8213
  L 23.8067 170.3263
  L 25.3139 170.9476
  L 33.9939 170.9324
  L 35.4989 170.3059
  L 36.1201 168.7987
  L 36.1198 168.6187
  Z
  M 36.0905 176.3324
  L 35.4748 174.8312
  L 33.9779 174.2050
  L 25.3780 174.1750
  L 23.8768 174.7907
  L 23.2506 176.2876
  L 23.2495 176.6076
  L 23.8652 178.1088
  L 25.3621 178.7350
  L 33.9620 178.7650
  L 35.4632 178.1493
  L 36.0894 176.6524
  L 36.0905 176.3324
  Z"
/>
<path fill="#ffffff" d="
  M 74.42 162.22
  L 72.08 161.41
  L 71.27 160.69
  L 71.03 161.75
  L 71.18 180.43
  L 70.85 182.07
  L 69.36 183.84
  L 66.67 185.07
  L 53.52 185.08
  L 51.61 184.69
  L 50.23 183.80
  L 49.33 182.30
  L 49.01 180.24
  L 49.11 164.56
  L 49.48 162.60
  L 50.38 161.17
  L 50.38 161.17
  L 51.99 160.21
  L 54.26 159.90
  L 71.25 160.20
  L 74.42 162.22
  Z
  M 67.9404 168.6327
  L 67.3392 167.1669
  L 65.8776 166.5555
  L 56.9977 166.5245
  L 55.5319 167.1257
  L 54.9205 168.5873
  L 54.9196 168.8273
  L 55.5208 170.2931
  L 56.9824 170.9045
  L 65.8623 170.9355
  L 67.3281 170.3343
  L 67.9395 168.8727
  L 67.9404 168.6327
  Z
  M 67.9806 176.4588
  L 67.3554 174.9036
  L 65.8136 174.2460
  L 57.0541 174.1543
  L 55.4989 174.7794
  L 54.8413 176.3212
  L 54.8394 176.5012
  L 55.4646 178.0564
  L 57.0064 178.7140
  L 65.7659 178.8057
  L 67.3211 178.1806
  L 67.9787 176.6388
  L 67.9806 176.4588
  Z"
/>
<path fill="#8699a3" d="
  M 74.42 162.22
  L 74.80 177.12
  L 74.32 181.93
  L 72.66 184.58
  L 70.27 185.44
  L 66.67 185.07
  L 69.36 183.84
  L 70.85 182.07
  L 71.18 180.43
  L 71.03 161.75
  L 71.27 160.69
  L 72.08 161.41
  L 74.42 162.22
  Z"
/>
<path fill="#8699a3" d="
  M 42.06 162.04
  L 42.13 162.04
  L 42.67 162.45
  L 42.84 163.11
  L 42.93 179.13
  L 42.53 182.35
  L 41.15 184.47
  L 39.20 185.30
  L 36.46 185.23
  L 38.61 183.52
  L 39.49 181.66
  L 39.49 181.66
  L 39.51 181.26
  L 39.49 170.15
  L 39.50 162.74
  L 39.99 162.06
  L 40.08 162.03
  L 42.06 162.04
  Z"
/>
<rect fill="#062a3d" x="-6.47" y="-2.22" transform="translate(29.65,168.72) rotate(-0.1)" width="12.94" height="4.44" rx="2.13"/>
<rect fill="#062a3d" x="-6.51" y="-2.19" transform="translate(61.43,168.73) rotate(0.2)" width="13.02" height="4.38" rx="2.07"/>
<rect fill="#ffffff" x="-6.51" y="-1.70" transform="translate(130.51,171.72) rotate(-0.4)" width="13.02" height="3.40" rx="1.57"/>
<rect fill="#062a3d" x="-6.42" y="-2.28" transform="translate(29.67,176.47) rotate(0.2)" width="12.84" height="4.56" rx="2.12"/>
<rect fill="#062a3d" x="-6.57" y="-2.28" transform="translate(61.41,176.48) rotate(0.6)" width="13.14" height="4.56" rx="2.19"/>
<path fill="#cccccc" d="
  M 160.00 183.95
  L 160.00 191.29
  L 159.53 197.32
  L 160.00 200.84
  L 160.00 205.48
  L 159.59 205.67
  L 159.27 205.64
  L 159.15 205.34
  L 159.03 201.49
  L 158.62 200.37
  L 157.49 200.00
  L 152.29 200.00
  L 151.22 200.36
  L 150.91 201.45
  L 151.14 206.00
  L 142.98 206.00
  L 142.75 203.46
  L 149.25 199.44
  L 149.90 199.62
  L 150.35 199.51
  L 150.59 199.14
  L 150.65 198.19
  L 156.13 191.62
  L 158.02 191.69
  L 158.41 191.57
  L 158.54 191.19
  L 158.52 187.74
  L 159.02 185.02
  L 159.87 183.96
  L 159.87 183.96
  L 160.00 183.95
  Z"
/>
<path fill="#cccccc" d="
  M 4.10 191.91
  L 0.00 192.16
  L 0.00 185.44
  L 0.32 184.93
  L 0.51 184.84
  L 0.63 185.01
  L 1.14 186.55
  L 4.10 191.91
  Z"
/>
<path fill="#bac5c8" d="
  M 8.99 186.43
  L 12.47 189.07
  L 16.45 191.97
  L 19.80 193.53
  L 24.25 194.21
  L 87.00 194.14
  L 87.03 199.00
  L 86.88 199.43
  L 86.45 199.31
  L 86.07 199.06
  L 85.59 198.83
  L 85.08 198.76
  L 64.14 198.75
  L 32.72 198.77
  L 25.79 198.42
  L 20.99 197.36
  L 16.43 194.99
  L 12.30 191.30
  L 8.99 186.43
  Z"
/>
<path fill="#808080" d="
  M 158.52 187.74
  L 158.54 191.19
  L 158.41 191.57
  L 158.02 191.69
  L 156.13 191.62
  L 157.33 189.22
  L 158.52 187.74
  Z"
/>
<path fill="#062a3d" d="
  M 160.00 191.29
  L 160.00 200.84
  L 159.53 197.32
  L 160.00 191.29
  Z"
/>
<path fill="#ffffff" d="
  M 137.94 191.82
  L 137.81 192.00
  L 136.18 193.37
  L 134.01 194.14
  L 126.71 194.56
  L 124.39 194.55
  L 121.52 195.37
  L 119.18 197.40
  L 119.24 194.85
  L 120.13 193.07
  L 121.52 192.17
  L 123.50 191.83
  L 137.94 191.82
  Z"
/>
<path fill="#808080" d="
  M 4.10 191.91
  L 7.19 195.89
  L 6.97 199.40
  L 6.81 199.80
  L 6.40 199.93
  L 0.00 199.77
  L 0.00 192.16
  L 4.10 191.91
  Z"
/>
<path fill="#3c5b6e" d="
  M 111.39 194.03
  L 111.61 196.09
  L 111.17 198.48
  L 110.49 198.99
  L 95.91 198.88
  L 95.89 198.88
  L 95.33 198.26
  L 96.11 194.67
  L 96.40 194.30
  L 96.85 194.18
  L 111.39 194.03
  Z"
/>
<path fill="#cccccc" d="
  M 7.19 195.89
  L 11.51 199.81
  L 7.50 200.01
  L 7.13 200.15
  L 7.01 200.54
  L 7.15 206.00
  L 0.00 206.00
  L 0.00 199.77
  L 6.40 199.93
  L 6.81 199.80
  L 6.97 199.40
  L 7.19 195.89
  Z"
/>
<path fill="#808080" d="
  M 150.65 198.19
  L 150.59 199.14
  L 150.35 199.51
  L 149.90 199.62
  L 149.25 199.44
  L 150.65 198.19
  Z"
/>
<path fill="#808080" d="
  M 11.51 199.81
  L 14.79 202.10
  L 14.73 206.00
  L 7.15 206.00
  L 7.01 200.54
  L 7.13 200.15
  L 7.50 200.01
  L 11.51 199.81
  Z"
/>
<path fill="#808080" d="
  M 160.00 205.48
  L 160.00 206.00
  L 151.14 206.00
  L 150.91 201.45
  L 151.22 200.36
  L 152.29 200.00
  L 157.49 200.00
  L 158.62 200.37
  L 159.03 201.49
  L 159.15 205.34
  L 159.27 205.64
  L 159.59 205.67
  L 160.00 205.48
  Z"
/>
<path fill="#cccccc" d="
  M 14.79 202.10
  L 23.40 206.00
  L 14.73 206.00
  L 14.79 202.10
  Z"
/>
<path fill="#808080" d="
  M 142.75 203.46
  L 142.98 206.00
  L 141.14 206.00
  L 136.21 205.73
  L 136.16 205.39
  L 136.21 205.37
  L 142.75 203.46
  Z"
/>
<path fill="#3c5b6e" d="
  M 39.10 205.55
  L 33.04 205.51
  L 30.14 205.38
  L 30.12 205.38
  L 30.12 205.38
  L 30.12 205.39
  L 37.03 205.34
  L 39.00 205.34
  L 39.09 205.37
  L 39.12 205.45
  L 39.13 205.50
  L 39.13 205.53
  L 39.10 205.55
  Z"
/>
<path fill="#3c5b6e" d="
  M 55.16 205.67
  L 47.06 205.64
  L 46.96 205.60
  L 46.93 205.51
  L 46.93 205.50
  L 46.98 205.32
  L 47.00 205.32
  L 55.25 205.32
  L 55.26 205.32
  L 55.32 205.52
  L 55.32 205.52
  L 55.27 205.63
  L 55.16 205.67
  Z"
/>
<rect fill="#3c5b6e" x="62.62" y="205.33" width="24.98" height="0.32" rx="0.16"/>
<path fill="#3c5b6e" d="
  M 102.27 205.55
  L 95.80 205.57
  L 95.33 205.47
  L 95.80 205.40
  L 102.26 205.33
  L 103.03 205.40
  L 102.27 205.55
  Z"
/>
<ellipse fill="#3c5b6e" cx="0.00" cy="0.00" transform="translate(115.18,205.49) rotate(0.3)" rx="4.06" ry="0.20"/>
<path fill="#3c5b6e" d="
  M 136.21 205.37
  L 136.16 205.39
  L 136.21 205.73
  L 127.11 205.61
  L 126.98 205.56
  L 126.94 205.42
  L 126.94 205.42
  L 126.99 205.30
  L 127.13 205.25
  L 136.21 205.37
  Z"
/>
</svg>
